<svg width="115" height="94" viewBox="0 0 115 94" fill="none" xmlns="http://www.w3.org/2000/svg">
    <path d="M91.4163 33.7501C91.4163 30.1292 88.4538 27.1667 84.833 27.1667H32.1663C28.5455 27.1667 25.583 30.1292 25.583 33.7501M91.4163 33.7501V73.2501C91.4163 76.8709 88.4538 79.8334 84.833 79.8334H32.1663C28.5455 79.8334 25.583 76.8709 25.583 73.2501V33.7501M91.4163 33.7501L58.4997 56.7917L25.583 33.7501" stroke="#8D6355" stroke-width="2" stroke-linecap="round" stroke-linejoin="round"/>
    <path d="M14.2873 11.2742L14.5626 11.9719C14.7328 11.9047 14.8725 11.7777 14.9556 11.6147L14.2873 11.2742ZM16.4649 7L17.1388 6.67082C17.014 6.41536 16.7555 6.25242 16.4712 6.25003C16.1869 6.24764 15.9257 6.40621 15.7966 6.65954L16.4649 7ZM18.5527 11.2742L17.8788 11.6034C17.9624 11.7746 18.108 11.9075 18.2861 11.9752L18.5527 11.2742ZM23 12.9658L23.2907 13.6572C23.5733 13.5384 23.7552 13.2594 23.7499 12.9529C23.7446 12.6463 23.5532 12.3738 23.2666 12.2648L23 12.9658ZM18.5527 14.8357L18.262 14.1443C18.0779 14.2217 17.9323 14.3694 17.8574 14.5546L18.5527 14.8357ZM16.4649 20L15.7738 20.2914C15.8918 20.5712 16.1668 20.7522 16.4705 20.75C16.7741 20.7477 17.0464 20.5626 17.1602 20.2811L16.4649 20ZM14.2873 14.8357L14.9784 14.5443C14.9036 14.3669 14.7635 14.2251 14.5871 14.1482L14.2873 14.8357ZM10 12.9658L9.72473 12.2682C9.44277 12.3794 9.25549 12.6495 9.25012 12.9525C9.24474 13.2556 9.42233 13.5321 9.70017 13.6533L10 12.9658ZM14.9556 11.6147L17.1332 7.34046L15.7966 6.65954L13.619 10.9338L14.9556 11.6147ZM15.791 7.32918L17.8788 11.6034L19.2266 10.945L17.1388 6.67082L15.791 7.32918ZM18.2861 11.9752L22.7334 13.6668L23.2666 12.2648L18.8194 10.5732L18.2861 11.9752ZM22.7093 12.2744L18.262 14.1443L18.8434 15.527L23.2907 13.6572L22.7093 12.2744ZM17.8574 14.5546L15.7696 19.7189L17.1602 20.2811L19.248 15.1168L17.8574 14.5546ZM17.156 19.7086L14.9784 14.5443L13.5962 15.1271L15.7738 20.2914L17.156 19.7086ZM14.5871 14.1482L10.2998 12.2784L9.70017 13.6533L13.9875 15.5231L14.5871 14.1482ZM10.2753 13.6635L14.5626 11.9719L14.012 10.5766L9.72473 12.2682L10.2753 13.6635Z" fill="#8D6355"/>
    <path d="M5.28732 49.2742L5.56258 49.9719C5.73277 49.9047 5.87254 49.7777 5.95559 49.6147L5.28732 49.2742ZM7.46491 45L8.13881 44.6708C8.01402 44.4154 7.75551 44.2524 7.47121 44.25C7.18691 44.2476 6.9257 44.4062 6.79664 44.6595L7.46491 45ZM9.55272 49.2742L8.87882 49.6034C8.96243 49.7746 9.10804 49.9075 9.28608 49.9752L9.55272 49.2742ZM14 50.9658L14.2907 51.6572C14.5733 51.5384 14.7552 51.2594 14.7499 50.9529C14.7446 50.6463 14.5532 50.3738 14.2666 50.2648L14 50.9658ZM9.55272 52.8357L9.26203 52.1443C9.0779 52.2217 8.93226 52.3694 8.85739 52.5546L9.55272 52.8357ZM7.46491 58L6.77383 58.2914C6.89181 58.5712 7.16684 58.7522 7.47048 58.75C7.77411 58.7477 8.04643 58.5626 8.16023 58.2811L7.46491 58ZM5.28732 52.8357L5.97839 52.5443C5.90362 52.3669 5.76354 52.2251 5.58714 52.1482L5.28732 52.8357ZM1 50.9658L0.724732 50.2682C0.442768 50.3794 0.255491 50.6495 0.250118 50.9525C0.244744 51.2556 0.422331 51.5321 0.700174 51.6533L1 50.9658ZM5.95559 49.6147L8.13318 45.3405L6.79664 44.6595L4.61905 48.9338L5.95559 49.6147ZM6.79101 45.3292L8.87882 49.6034L10.2266 48.945L8.13881 44.6708L6.79101 45.3292ZM9.28608 49.9752L13.7334 51.6668L14.2666 50.2648L9.81936 48.5732L9.28608 49.9752ZM13.7093 50.2744L9.26203 52.1443L9.84341 53.527L14.2907 51.6572L13.7093 50.2744ZM8.85739 52.5546L6.76958 57.7189L8.16023 58.2811L10.248 53.1168L8.85739 52.5546ZM8.15598 57.7086L5.97839 52.5443L4.59624 53.1271L6.77383 58.2914L8.15598 57.7086ZM5.58714 52.1482L1.29983 50.2784L0.700174 51.6533L4.98749 53.5231L5.58714 52.1482ZM1.27527 51.6635L5.56258 49.9719L5.01205 48.5766L0.724732 50.2682L1.27527 51.6635Z" fill="#8D6355"/>
    <path d="M87.2873 5.27422L87.5626 5.97188C87.7328 5.90473 87.8725 5.77769 87.9556 5.61468L87.2873 5.27422ZM89.4649 1L90.1388 0.670822C90.014 0.415358 89.7555 0.252417 89.4712 0.250027C89.1869 0.247636 88.9257 0.406207 88.7966 0.659536L89.4649 1ZM91.5527 5.27422L90.8788 5.60339C90.9624 5.77456 91.108 5.9075 91.2861 5.97522L91.5527 5.27422ZM96 6.96582L96.2907 7.65719C96.5733 7.53835 96.7552 7.25943 96.7499 6.95287C96.7446 6.6463 96.5532 6.37382 96.2666 6.26481L96 6.96582ZM91.5527 8.83566L91.262 8.14429C91.0779 8.2217 90.9323 8.36937 90.8574 8.55456L91.5527 8.83566ZM89.4649 14L88.7738 14.2914C88.8918 14.5712 89.1668 14.7522 89.4705 14.75C89.7741 14.7477 90.0464 14.5626 90.1602 14.2811L89.4649 14ZM87.2873 8.83566L87.9784 8.54426C87.9036 8.36694 87.7635 8.22513 87.5871 8.1482L87.2873 8.83566ZM83 6.96582L82.7247 6.26816C82.4428 6.37941 82.2555 6.64945 82.2501 6.95252C82.2447 7.25559 82.4223 7.5321 82.7002 7.65328L83 6.96582ZM87.9556 5.61468L90.1332 1.34046L88.7966 0.659536L86.619 4.93375L87.9556 5.61468ZM88.791 1.32918L90.8788 5.60339L92.2266 4.94504L90.1388 0.670822L88.791 1.32918ZM91.2861 5.97522L95.7334 7.66682L96.2666 6.26481L91.8194 4.57321L91.2861 5.97522ZM95.7093 6.27444L91.262 8.14429L91.8434 9.52704L96.2907 7.65719L95.7093 6.27444ZM90.8574 8.55456L88.7696 13.7189L90.1602 14.2811L92.248 9.11677L90.8574 8.55456ZM90.156 13.7086L87.9784 8.54426L86.5962 9.12706L88.7738 14.2914L90.156 13.7086ZM87.5871 8.1482L83.2998 6.27835L82.7002 7.65328L86.9875 9.52312L87.5871 8.1482ZM83.2753 7.66348L87.5626 5.97188L87.012 4.57656L82.7247 6.26816L83.2753 7.66348Z" fill="#8D6355"/>
    <path d="M105.287 31.2742L105.563 31.9719C105.733 31.9047 105.873 31.7777 105.956 31.6147L105.287 31.2742ZM107.465 27L108.139 26.6708C108.014 26.4154 107.756 26.2524 107.471 26.25C107.187 26.2476 106.926 26.4062 106.797 26.6595L107.465 27ZM109.553 31.2742L108.879 31.6034C108.962 31.7746 109.108 31.9075 109.286 31.9752L109.553 31.2742ZM114 32.9658L114.291 33.6572C114.573 33.5384 114.755 33.2594 114.75 32.9529C114.745 32.6463 114.553 32.3738 114.267 32.2648L114 32.9658ZM109.553 34.8357L109.262 34.1443C109.078 34.2217 108.932 34.3694 108.857 34.5546L109.553 34.8357ZM107.465 40L106.774 40.2914C106.892 40.5712 107.167 40.7522 107.47 40.75C107.774 40.7477 108.046 40.5626 108.16 40.2811L107.465 40ZM105.287 34.8357L105.978 34.5443C105.904 34.3669 105.764 34.2251 105.587 34.1482L105.287 34.8357ZM101 32.9658L100.725 32.2682C100.443 32.3794 100.255 32.6495 100.25 32.9525C100.245 33.2556 100.422 33.5321 100.7 33.6533L101 32.9658ZM105.956 31.6147L108.133 27.3405L106.797 26.6595L104.619 30.9338L105.956 31.6147ZM106.791 27.3292L108.879 31.6034L110.227 30.945L108.139 26.6708L106.791 27.3292ZM109.286 31.9752L113.733 33.6668L114.267 32.2648L109.819 30.5732L109.286 31.9752ZM113.709 32.2744L109.262 34.1443L109.843 35.527L114.291 33.6572L113.709 32.2744ZM108.857 34.5546L106.77 39.7189L108.16 40.2811L110.248 35.1168L108.857 34.5546ZM108.156 39.7086L105.978 34.5443L104.596 35.1271L106.774 40.2914L108.156 39.7086ZM105.587 34.1482L101.3 32.2784L100.7 33.6533L104.987 35.5231L105.587 34.1482ZM101.275 33.6635L105.563 31.9719L105.012 30.5766L100.725 32.2682L101.275 33.6635Z" fill="#8D6355"/>
    <circle cx="89.5" cy="73.5" r="20.5" fill="#F7EDE2"/>
    <path d="M100.666 66L85.9997 80.6667L79.333 74" stroke="#8D6355" stroke-width="2" stroke-linecap="round" stroke-linejoin="round"/>
</svg>
