<svg width="20" height="20" viewBox="0 0 20 20" fill="none" xmlns="http://www.w3.org/2000/svg">
    <path d="M6.25 2.5H7.91667M14.5833 2.5H12.9167M7.91667 2.5V7.70833C7.91667 8.51375 7.26375 9.16667 6.45833 9.16667H6.04167C5.46637 9.16667 5 9.63304 5 10.2083V10.2083C5 10.7836 5.46637 11.25 6.04167 11.25H10.4167M7.91667 2.5H12.9167M12.9167 2.5V7.70833C12.9167 8.51375 13.5696 9.16667 14.375 9.16667H14.7917C15.367 9.16667 15.8333 9.63304 15.8333 10.2083V10.2083C15.8333 10.7836 15.367 11.25 14.7917 11.25H10.4167M10.4167 11.25V17.5" stroke="#3B4857" stroke-width="1.5" stroke-linecap="round" stroke-linejoin="round"/>
</svg>
