<svg width="52" height="54" viewBox="0 0 52 54" fill="none" xmlns="http://www.w3.org/2000/svg">
<path d="M28.8663 31.2945H40.2411C46.2489 31.2945 51.1191 36.1648 51.1191 42.1726C51.1191 48.1804 46.2489 53.0507 40.2411 53.0507H31.1116C25.1039 53.0507 20.2336 48.1804 20.2336 42.1726V39.9273C20.2336 35.1595 24.0986 31.2945 28.8663 31.2945ZM28.8663 31.2945V27.7926H31.264M40.8549 31.2945V27.7926H38.1908M31.264 27.7926H38.1908M31.264 27.7926V24.624M38.1908 27.7926V24.624M31.264 24.624H38.1908M31.264 24.624H29.3152V19.3512H32.9155M38.1908 24.624H40.1398V19.3512H36.736M32.9155 19.3512V22.0142H36.736V19.3512M32.9155 19.3512H36.736M6.11692 45.7938V50.6507C6.11692 51.9761 7.19143 53.0507 8.51692 53.0507H10.6845M6.11692 45.7938C6.11692 43.7946 3.31994 20.6648 1.48225 5.78381M6.11692 45.7938H20.5431M10.6845 53.0507V49.3293H17.6312V53.0507M10.6845 53.0507H17.6312M17.6312 53.0507H19.7037C21.0292 53.0507 22.1037 51.9761 22.1037 50.6507V48.6647M1.48225 5.78381C1.39161 5.04984 1.30331 4.33594 1.21779 3.64563C1.04036 2.2135 2.15712 0.949219 3.60021 0.949219H24.5516C25.9853 0.949219 27.0992 2.19804 26.936 3.62244L26.6884 5.78381M1.48225 5.78381H26.6884M26.6884 5.78381L23.5575 33.1068M44.1105 41.7025C44.1105 44.2279 40.3344 46.2751 35.6764 46.2751C31.0183 46.2751 27.2423 44.2279 27.2423 41.7025C27.2423 39.1772 31.0183 37.13 35.6764 37.13C40.3344 37.13 44.1105 39.1772 44.1105 41.7025ZM14.0626 30.1977C11.5373 30.1977 9.49006 27.7696 9.49006 24.7744C9.49006 21.7792 11.5373 19.3512 14.0626 19.3512C16.5879 19.3512 18.6351 21.7792 18.6351 24.7744C18.6351 27.7696 16.5879 30.1977 14.0626 30.1977Z" stroke="black" stroke-width="1.3" stroke-linecap="round" stroke-linejoin="round"/>
</svg>
