<svg width="57" height="53" viewBox="0 0 57 53" fill="none" xmlns="http://www.w3.org/2000/svg">
<path d="M55.9984 51.6855L53.3705 29.2352C53.1935 27.7236 51.9128 26.584 50.3908 26.584H49.5551M55.9984 51.6855H47.7711M55.9984 51.6855L51.6329 46.4807M22.9213 51.6855H3.77274C2.04616 51.6855 0.675926 50.2318 0.777984 48.5082L2.68951 16.2261C2.78338 14.6409 4.09629 13.4034 5.68427 13.4034H9.40493M22.9213 51.6855L24.7901 29.334C24.9201 27.7795 26.2197 26.584 27.7797 26.584H32.0301M22.9213 51.6855H47.7711M39.0401 26.584L38.0402 16.1181C37.8931 14.5788 36.6001 13.4034 35.0538 13.4034H34.2128M39.0401 26.584H46.0501M39.0401 26.584H35.5351M32.0301 26.584L30.6449 13.4034M32.0301 26.584H35.5351M30.6449 13.4034V8.14648C30.6449 4.28049 27.5109 1.14648 23.6449 1.14648H22.9532C19.0872 1.14648 15.9532 4.28049 15.9532 8.14648V13.4034M30.6449 13.4034H15.9532M30.6449 13.4034H34.2128M15.9532 13.4034H9.40493M9.40493 13.4034V10.5811C9.40493 6.71512 12.5389 3.58111 16.4049 3.58111H18.0201C21.8861 3.58111 25.0201 6.71512 25.0201 10.5811V17.5172M9.40493 13.4034V20.2876M9.40493 20.2876L8.08211 21.6104C7.0746 22.618 6.50858 23.9844 6.50858 25.4093V27.3186C6.50858 29.2312 8.05903 30.7817 9.97161 30.7817V30.7817C11.8842 30.7817 13.4346 29.2312 13.4346 27.3186V25.7592C13.4346 24.1425 12.6563 22.6246 11.3435 21.681L9.40493 20.2876ZM30.6449 34.9999V38.144C30.6449 40.9027 32.8813 43.1391 35.64 43.1391V43.1391C38.3988 43.1391 40.6352 40.9027 40.6352 38.144V34.9999M46.0501 26.584L47.7711 51.6855M46.0501 26.584H49.5551M47.7711 51.6855C48.2413 50.6112 50.5416 47.768 51.6329 46.4807M51.6329 46.4807L49.5551 26.584M35.5351 26.584L34.2128 13.4034" stroke="black" stroke-width="1.3" stroke-linecap="round" stroke-linejoin="round"/>
</svg>
