<svg width="60" height="58" viewBox="0 0 60 58" fill="none" xmlns="http://www.w3.org/2000/svg">
<path d="M0.574219 34.9912V30.5809C0.574219 29.4763 1.46965 28.5809 2.57422 28.5809H5.6358M0.574219 34.9912V51.7147C0.574219 54.4761 2.81279 56.7147 5.57422 56.7147H25.1326C27.8941 56.7147 30.1326 54.4761 30.1326 51.7147V30.5809C30.1326 29.4763 29.2372 28.5809 28.1326 28.5809H26.0528M0.574219 34.9912H19.4489M57.9673 47.4713L56.0249 54.5125C55.666 55.8135 54.4825 56.7147 53.1329 56.7147H43.1521C41.7786 56.7147 40.5804 55.7818 40.2437 54.4502L37.5287 43.7137C37.2092 42.4501 38.1643 41.2234 39.4677 41.2234H48.0617M57.9673 47.4713L58.9924 43.7552C59.3438 42.4816 58.3856 41.2234 57.0645 41.2234H51.1439M57.9673 47.4713H43.4873M51.1439 41.2234H48.0617M51.1439 41.2234V34.2703M48.0617 41.2234L41.6199 36.4031C39.887 35.1064 39.0815 32.9099 39.5653 30.8003V30.8003C40.2516 27.8077 43.2657 25.9658 46.2418 26.7203L48.0617 27.1817M51.1439 34.2703V32.5868C51.1439 30.367 49.9721 28.3121 48.0617 27.1817V27.1817M51.1439 34.2703L56.5636 22.704C56.9357 21.9099 56.1938 21.0932 55.3867 21.4362C52.7966 22.537 48.7206 24.6385 48.0617 27.1817M48.0617 27.1817L42.0395 20.9922C40.8841 19.8047 40.4907 18.0703 41.0207 16.5006L41.0611 16.381C41.8129 14.1547 44.2165 12.9482 46.4509 13.6756V13.6756C48.44 14.3232 49.6714 16.3116 49.365 18.3809L48.0617 27.1817ZM26.0528 28.5809C26.0528 28.5809 24.8748 27.0046 25.4427 22.5212C26.3085 15.6861 29.5921 10.1905 29.5921 10.1905C29.5921 10.1905 26.0528 12.2788 21.0437 20.6046M26.0528 28.5809H19.4489M21.0437 20.6046C19.0847 24.4002 19.4489 28.5809 19.4489 28.5809M21.0437 20.6046C20.5539 13.8093 27.2979 4.66318 27.2979 4.66318C27.2979 4.66318 17.7377 9.45031 15.4348 18.1359M19.4489 28.5809H14.7847M14.7847 28.5809C14.5476 24.5347 14.6978 22.1215 15.4348 18.1359M14.7847 28.5809H12.1158M15.4348 18.1359C13.1457 10.1905 19.8775 1.36719 19.8775 1.36719C19.8775 1.36719 11.6661 5.40363 10.4049 10.1905M15.4348 18.1359C11.6644 9.45031 2.70144 2.48131 2.70144 2.48131C4.90221 6.23085 8.44702 13.1829 8.44702 21.8769M12.1158 28.5809C11.7981 24.2011 2.70144 15.6861 2.70144 15.6861C5.08147 18.8215 7.2986 24.7141 5.6358 28.5809M12.1158 28.5809H5.6358" stroke="black" stroke-width="1.3" stroke-linecap="round" stroke-linejoin="round"/>
</svg>
