<svg width="60" height="60" viewBox="0 0 60 60" fill="none" xmlns="http://www.w3.org/2000/svg">
<g clip-path="url(#clip0)">
<path d="M32.1201 36.4348V39.9832C32.1201 41.4023 30.9697 42.5527 29.5506 42.5527V42.5527M29.5506 42.5527C30.9373 44.9183 33.358 48.0681 44.8694 46.4078M29.5506 42.5527H24.8405M40.9299 36.7977V38.5557C40.9299 40.7632 42.7195 42.5527 44.927 42.5527V42.5527C49.342 42.5527 52.9211 46.1318 52.9211 50.5468V55.1562M55.2459 40.5949C54.4301 39.3713 53.2881 36.4592 55.2459 34.5993C56.9056 33.0226 56.7146 28.6996 53.7776 27.5026C51.2822 26.4856 55.2459 23.8319 53.7776 20.8953C52.3093 17.9587 50.3515 19.3176 50.3515 16.9799C50.3515 10.7896 47.4784 13.4668 45.5903 11.5682C43.7324 9.69996 44.723 8.19747 40.9299 7.34096C37.1368 6.48445 37.6793 4.22497 34.5772 5.00485C33.9219 5.16961 33.1624 5.75482 32.4354 6.47018C30.7099 8.16797 27.8748 8.22318 25.4551 8.15439C24.5484 8.12861 23.638 8.44073 22.8967 9.3936C20.533 12.4321 25.2818 15.4223 21.3393 16.9799C20.1006 17.4693 19.1012 18.1204 18.3309 18.751C16.9773 19.8589 17.1794 21.8256 17.606 23.522C18.0029 25.1 17.9768 27.2706 16.3359 29.7008M24.0444 27.5026C26.1245 26.7277 30.2847 23.7096 30.2847 17.8363C30.2847 14.6061 35.9132 13.8801 38.7274 13.9209C41.0523 14.0432 45.8488 15.3647 46.4361 19.6717C47.0233 23.9787 46.6807 28.8894 46.4361 30.8063C46.1913 33.1719 43.842 37.7563 36.4026 37.169C28.9632 36.5817 26.7771 32.6825 26.6139 30.8063" stroke="black" stroke-width="1.3" stroke-linecap="round" stroke-linejoin="round"/>
<path d="M13.311 30H10.918C9.8134 30 8.91797 30.8954 8.91797 32V56.4087C8.91797 57.5133 9.8134 58.4087 10.918 58.4087H22.5378C23.6424 58.4087 24.5378 57.5133 24.5378 56.4087V32C24.5378 30.8954 23.6424 30 22.5378 30H20.4762M13.311 30L13.704 31.533C13.8174 31.9753 14.2161 32.2846 14.6727 32.2846H18.8116C19.207 32.2846 19.5652 32.0517 19.7256 31.6904L20.4762 30M13.311 30H20.4762M11.3115 56.2106H13.311M15.7294 56.2106H17.3862" stroke="black" stroke-width="1.3" stroke-linecap="round" stroke-linejoin="round"/>
</g>
<defs>
<clipPath id="clip0">
<rect width="60" height="60" fill="white"/>
</clipPath>
</defs>
</svg>
