<svg width="57" height="60" viewBox="0 0 57 60" fill="none" xmlns="http://www.w3.org/2000/svg">
<path d="M39.3449 33.6575H40.077M40.077 33.6575V25.243M40.077 33.6575H54.7258M40.077 25.243C39.1594 24.8269 38.8855 23.8492 38.8855 23.282M40.077 25.243C40.3477 25.3658 40.6745 25.4396 41.0667 25.4396C42.4061 25.4396 43.2311 23.9173 43.2881 23.282M54.7258 33.6575H55.9143M54.7258 33.6575V25.3665M54.7258 25.3665C54.5398 25.4135 54.3327 25.4396 54.1023 25.4396C52.4792 25.4396 51.9989 24.1434 51.9483 23.3967M54.7258 25.3665C55.9195 25.065 56.2395 23.9043 56.2395 23.282M56.2395 23.282L54.2355 19.8286C54.0208 19.4586 53.6253 19.2309 53.1976 19.2309H42.1476C41.7395 19.2309 41.3594 19.4383 41.1385 19.7815L38.8855 23.282M56.2395 23.282H51.9438M38.8855 23.282H43.2881M43.2881 23.282C43.3594 24.0012 43.8951 25.4396 45.4681 25.4396C47.041 25.4396 47.5768 24.0012 47.648 23.282M43.2881 23.282H47.648M47.648 23.282C47.705 24.0012 48.2464 25.4396 49.9562 25.4396C51.5793 25.4396 51.9569 24.1434 51.9483 23.3967M47.648 23.282H51.9438M51.9438 23.282C51.9463 23.3185 51.9479 23.3568 51.9483 23.3967M51.9438 23.282C51.9441 23.3185 51.9456 23.3568 51.9483 23.3967M10.6566 18.7453C12.6155 14.1506 16.6031 10.9412 21.0882 8.78306M24.6866 47.2194C18.177 45.4847 12.937 40.6385 10.6566 34.3708M49.5162 33.8692C47.3377 40.3793 41.9933 45.4387 35.3111 47.2194M38.9095 8.78306C43.3946 10.9412 46.9768 14.6778 48.9356 19.2725M25.7897 46.9712C24.816 46.4449 22.8687 44.7923 22.8687 42.3924V39.8661M25.7897 46.9712L22.0792 49.1028M25.7897 46.9712L29.1299 48.775M22.8687 39.8661V35.6215C22.8687 32.8502 24.2952 32.6921 25.7897 31.7742C27.574 30.6781 27.5722 29.484 31.2369 30.2347C35.8252 31.1746 36.921 33.7872 37 34.8925C37.0378 35.422 37.0398 37.3556 37.0296 39.3135M22.8687 39.8661C23.5529 40.2082 24.5737 40.2753 25.4412 39.512C26.7939 38.3215 27.5359 35.3316 30.299 36.0421C33.0621 36.7526 32.4804 40.103 37.0296 39.3135M37.0296 39.3135C37.0228 40.6251 37.0105 41.9476 37 42.8661C36.9208 44.0217 36.2478 45.57 34.5669 46.9712M22.0792 49.1028L25.5919 51.2934C26.0916 51.605 26.7435 51.508 27.1308 51.0645L27.5722 50.559M22.0792 49.1028C19.784 50.4214 18.3688 52.8664 18.3688 55.5135V56.4083C18.3688 58.2596 19.8696 59.7605 21.721 59.7605H28.3895M29.1299 48.775C29.7822 49.0283 30.2327 49.0884 30.8033 48.9082M29.1299 48.775L27.5722 50.559M30.8033 48.9082C32.3836 48.4092 33.6404 47.7436 34.5669 46.9712M30.8033 48.9082L31.7948 50.4075M37.5603 49.1028L33.7498 51.2902C33.2129 51.5985 32.5295 51.4476 32.1723 50.9419L31.7948 50.4075M37.5603 49.1028L34.5669 46.9712M37.5603 49.1028C40.0613 50.4132 41.6285 53.0035 41.6285 55.8271V56.9366C41.6285 58.4962 40.3642 59.7605 38.8046 59.7605H31.2369M28.3895 59.7605H31.2369M28.3895 59.7605L26.9167 57.8693C26.6363 57.5092 26.5844 57.0213 26.7828 56.6103L28.3895 53.2821M31.2369 59.7605L32.7645 57.8851C33.0636 57.5179 33.1188 57.0091 32.9053 56.5863L31.2369 53.2821M28.3895 53.2821L27.5722 50.559M28.3895 53.2821H31.2369M31.7948 50.4075L31.2369 53.2821M33.2302 11.1698V1.36719H21.1116V11.1698H33.2302ZM33.2302 11.1698H38.8856V7.39957L36.4619 5.13743H33.2302V11.1698ZM6.19996 34.2918H12.8937M9.54681 30.9449V34.2918M26.767 13.0549C26.767 14.0961 25.8627 14.9401 24.7472 14.9401C23.6317 14.9401 22.7274 14.0961 22.7274 13.0549C22.7274 12.0138 23.6317 11.1698 24.7472 11.1698C25.8627 11.1698 26.767 12.0138 26.767 13.0549ZM37.2698 13.0549C37.2698 14.0961 36.3655 14.9401 35.25 14.9401C34.1345 14.9401 33.2302 14.0961 33.2302 13.0549C33.2302 12.0138 34.1345 11.1698 35.25 11.1698C36.3655 11.1698 37.2698 12.0138 37.2698 13.0549ZM2.85311 19.231H16.2405C17.1647 19.231 17.9139 19.9802 17.9139 20.9044V29.2715C17.9139 30.1957 17.1647 30.9449 16.2405 30.9449H2.85311C1.92891 30.9449 1.17969 30.1957 1.17969 29.2715V20.9044C1.17969 19.9802 1.92891 19.231 2.85311 19.231Z" stroke="black" stroke-width="1.3" stroke-linecap="round" stroke-linejoin="round"/>
</svg>
