<svg width="60" height="60" viewBox="0 0 60 60" fill="none" xmlns="http://www.w3.org/2000/svg">
<path d="M44.546 41.2591C44.5058 42.1539 44.4938 43.223 44.4951 44.2338C44.4982 46.467 43.5332 48.6028 41.8044 50.0165L31.3637 58.5542C30.935 58.9048 30.3982 59.0963 29.8444 59.0963H11.8487M44.546 41.2591C45.2452 40.4567 46.0134 39.4127 46.7709 38.3006C48.1297 36.3059 45.9237 34.05 43.8117 35.2182C42.6712 35.8491 41.5842 36.4483 40.7127 36.9248M44.546 41.2591C43.4089 42.3404 42.1209 43.4678 40.9007 44.4968C38.2013 46.7729 34.248 46.5573 31.6825 44.1313L31.5424 43.9989M11.8487 59.0963H3.25156C1.92608 59.0963 0.851562 58.0218 0.851562 56.6963V53.935M11.8487 59.0963L31.5424 43.9989M31.5424 43.9989L40.7127 36.9248M0.851562 53.935V42.4207C0.851562 41.6784 1.19502 40.9779 1.78182 40.5234L15.9172 29.5736M0.851562 53.935L26.3238 33.8373M40.3751 30.7857C41.9506 29.3744 42.7333 27.0826 43.1124 25.413C43.3794 24.2371 42.5379 23.1981 41.353 23.4214C40.215 23.6359 38.6801 24.1575 36.9163 25.3577C32.8344 28.1355 27.022 33.2283 27.022 33.2283M40.3751 30.7857L36.4413 34.3098C33.667 36.7951 29.4551 36.7541 26.7296 34.2153L26.3238 33.8373M40.3751 30.7857C40.7973 31.7883 40.9516 32.4047 41.0517 33.488C41.1757 34.8309 41.0967 35.6319 40.7127 36.9248M26.3238 33.8373L27.022 33.2283M27.6967 28.0969C28.6519 26.866 29.7064 25.2541 30.6504 23.7216C31.7596 21.9212 30.1262 19.9257 28.207 20.8136C27.0187 21.3634 25.7947 22.0205 24.7291 22.7743C21.1805 25.2844 15.9172 29.5736 15.9172 29.5736M27.6967 28.0969L26.001 29.6895C23.4486 32.0868 19.5416 32.3001 16.7433 30.195L15.9172 29.5736M27.6967 28.0969C27.7925 29.0012 27.7925 29.5211 27.6967 30.4254C27.5782 31.545 27.022 33.2283 27.022 33.2283M54.206 20.2884C54.206 20.2884 53.0896 28.06 51.9273 31.8595C51.7067 32.5806 50.8615 32.8051 50.2557 32.3561L49.5763 31.8527C48.7261 31.2228 48.9313 29.4357 49.5343 28.5663C51.1364 26.2564 51.7372 22.0624 51.7999 19.6373M54.206 20.2884L51.7999 19.6373M54.206 20.2884C54.7972 20.2884 55.279 19.8142 55.2885 19.2231L55.4154 11.324M51.7999 19.6373L51.6462 19.609C51.0469 19.4989 50.6252 18.9572 50.6656 18.3492L51.1974 10.3441M51.1974 10.3441L55.4154 11.324M51.1974 10.3441L48.6544 9.6884C48.1244 9.55174 47.754 9.07375 47.754 8.52641V2.28008C47.754 1.61734 48.2913 1.08008 48.954 1.08008H57.6587C58.3215 1.08008 58.8587 1.61734 58.8587 2.28008V10.7441C58.8587 11.5479 58.0839 12.1245 57.3139 11.8935L55.4154 11.324M3.91583 9.48049C3.88353 9.51392 3.8526 9.54682 3.82306 9.57913C3.85146 9.54548 3.88242 9.5126 3.91583 9.48049ZM3.91583 9.48049C5.57108 7.76735 10.8514 4.62953 19.5931 5.04581C24.5315 5.54735 28.3653 6.4436 27.2157 8.13229C25.6365 10.452 19.9789 9.24149 19.9789 9.24149L11.8286 8.13229C11.8286 8.13229 5.4144 8.04009 3.91583 9.48049ZM24.3133 13.7007C24.6503 13.4987 24.99 13.2825 25.332 13.0514C25.2792 13.087 24.6309 13.4991 24.3133 13.7007ZM24.3133 13.7007L26.0413 15.4286M24.3133 13.7007C23.0251 14.4727 21.7755 15.0363 20.5755 15.4286M20.5755 15.4286L21.4739 17.7776M20.5755 15.4286C19.0337 15.9326 17.5736 16.1539 16.2182 16.1709M16.2182 16.1709V18.5974M16.2182 16.1709C14.7385 16.1895 13.3836 15.9647 12.1835 15.5989M12.1835 15.5989L11.2499 18.1152M12.1835 15.5989C10.7391 15.1587 9.51894 14.5141 8.57514 13.8437M7.29533 12.762C7.63571 13.1114 8.06506 13.4813 8.57514 13.8437M8.57514 13.8437L7.0542 16.1709" stroke="black" stroke-width="1.3" stroke-linecap="round" stroke-linejoin="round"/>
</svg>
