<svg width="59" height="50" viewBox="0 0 59 50" fill="none" xmlns="http://www.w3.org/2000/svg">
<path d="M2.65346 48.7098H5.05198M56.9371 48.7098H53.0432M5.05198 48.7098V21.1427M5.05198 48.7098H38.8178M38.8178 48.7098H50.3006M38.8178 48.7098V43.5699M50.3006 48.7098V43.5699M50.3006 48.7098H53.0432M38.8178 43.5699V25.9704H50.3006V43.5699M38.8178 43.5699H50.3006M53.0432 48.7098V21.5474M1.14844 14.7182L7.91884 4.19902C9.02315 2.48325 10.9237 1.44629 12.9642 1.44629H46.8454C48.9842 1.44629 50.9613 2.58485 52.0349 4.43476L58.0025 14.7182M1.14844 14.7182C1.14844 17.1245 2.65346 21.7868 8.29433 21.7868C12.6822 21.7868 15.3853 16.7996 15.572 14.7182M1.14844 14.7182H15.572M58.0025 14.7182H43.929M58.0025 14.7182C58.0025 17.0744 56.6022 21.7868 51.0008 21.7868C45.3994 21.7868 43.9523 17.0744 43.929 14.7182M15.572 14.7182C15.8054 17.0744 17.5605 21.7868 22.7138 21.7868C27.867 21.7868 29.6221 17.0744 29.8555 14.7182M15.572 14.7182H29.8555M29.8555 14.7182C30.0422 17.0744 31.816 21.7868 37.4174 21.7868C43.0188 21.7868 44.0924 17.0744 43.929 14.7182M29.8555 14.7182H43.929M9.69055 43.5699V25.9704H34.4767V43.5699H9.69055Z" stroke="black" stroke-width="1.3" stroke-linecap="round" stroke-linejoin="round"/>
</svg>
