<svg width="57" height="58" viewBox="0 0 57 58" fill="none" xmlns="http://www.w3.org/2000/svg">
<path d="M1.54884 56.5137L6.57559 45.9888L10.3505 33.7306C10.3896 33.6033 10.4482 33.4854 10.5271 33.3782C12.1733 31.1427 14.8712 27.844 16.4611 25.9241C17.1338 25.1116 18.3239 25.0625 19.0475 25.83C19.3001 26.0979 19.4219 26.539 19.2696 26.8742L14.3109 37.7846C13.8062 38.8952 15.0882 39.963 16.0892 39.2658L18.8904 37.3148C19.2813 37.0425 19.7897 37.0057 20.2158 37.2187C20.9127 37.5672 21.1491 38.4459 20.721 39.097L16.4155 45.6455C16.2692 45.868 16.0531 46.0356 15.8011 46.1217L12.562 47.2293C12.1887 47.3569 11.902 47.6598 11.7951 48.0395L9.40921 56.5137M13.7444 54.3249L22.9705 52.7687L24.5267 50.6567M14.7448 49.2116L22.3035 47.4331L24.5267 42.5042M13.7444 22.3848C12.6983 23.2938 11.9658 24.8913 11.9658 27.5357M13.7444 22.3848C12.8181 21.9157 11.1877 20.4289 11.1877 18.1986C11.1877 15.056 12.4039 10.8675 17.7461 7.97656M13.7444 22.3848C14.4579 21.7647 15.3174 21.4651 16.1898 21.3719M16.1898 21.3719C17.393 21.2435 18.3567 21.2591 19.5246 21.8668C21.341 22.812 22.9705 24.9422 22.3035 26.3131C26.7732 27.5357 25.3048 31.834 24.5267 33.5384C27.8024 37.1781 25.8393 39.7751 23.6981 41.0852M16.1898 21.3719C16.1898 12.7662 22.9482 10.9729 29.2074 11.2139C35.156 11.443 41.1449 11.902 41.1449 21.372M17.7461 7.97656C19.8948 6.81377 24.9493 6.01922 28.9043 6.01922C33.5668 6.01922 37.44 6.81388 39.5887 7.97668M17.7461 7.97656C17.7461 1.97572 24.0393 1.58008 28.2979 1.58008C35.0313 1.58008 39.5887 2.37155 39.5887 7.97668M22.3035 41.7641C22.7404 41.6028 23.2237 41.3756 23.6981 41.0852M23.6981 41.0852C24.0484 42.1637 26.333 44.3089 28.6395 44.3207C30.9643 44.3327 33.2863 42.1639 33.6366 41.0854M55.7859 56.5138L50.7592 45.9889L46.9843 33.7307C46.9451 33.6035 46.8866 33.4856 46.8077 33.3784C45.1615 31.1428 42.4635 27.8442 40.8737 25.9242C40.2009 25.1118 39.0109 25.0626 38.2873 25.8301C38.0347 26.0981 37.9128 26.5391 38.0652 26.8743L43.0238 37.7847C43.5286 38.8953 42.2466 39.9632 41.2455 39.2659L38.4443 37.3149C38.0535 37.0426 37.5451 37.0058 37.119 37.2188C36.4221 37.5673 36.1857 38.4461 36.6138 39.0971L40.9192 45.6456C41.0655 45.8682 41.2817 46.0357 41.5337 46.1218L44.7728 47.2294C45.1461 47.357 45.4328 47.6599 45.5397 48.0397L47.9256 56.5138M43.5904 54.325L34.3643 52.7688L32.8081 50.6568M42.59 49.2118L35.0313 47.4332L32.8081 42.5043M43.5904 22.3849C44.6365 23.2939 45.3689 24.8914 45.3689 27.5359M43.5904 22.3849C44.5167 21.9158 46.147 20.429 46.147 18.1987C46.147 15.0562 44.9309 10.8676 39.5887 7.97668M43.5904 22.3849C42.8768 21.7649 42.0174 21.4652 41.1449 21.372M41.1449 21.372C39.9417 21.2436 38.9781 21.2592 37.8102 21.8669C35.9938 22.8121 34.3643 24.9423 35.0313 26.3132C30.5616 27.5359 32.03 31.8341 32.8081 33.5385C29.5323 37.1783 31.4955 39.7752 33.6366 41.0854M35.0313 41.7642C34.5944 41.6029 34.1111 41.3757 33.6366 41.0854M3.66891 24.6019L4.74573 22.4474L5.77816 24.6019L7.97734 25.4545L5.77816 26.397L4.74573 29.0001L3.66891 26.397L1.54883 25.4545L3.66891 24.6019ZM51.4775 7.76709L52.5543 5.61265L53.5868 7.76709L55.7859 8.61975L53.5868 9.56226L52.5543 12.1654L51.4775 9.56226L49.3574 8.61975L51.4775 7.76709Z" stroke="black" stroke-width="1.3" stroke-linecap="round" stroke-linejoin="round"/>
</svg>
