<svg width="32" height="32" viewBox="0 0 32 32" fill="none" xmlns="http://www.w3.org/2000/svg">
<path d="M8.44447 10.6667L6.66669 24.5333C6.66669 25.0991 6.8852 25.6418 7.27417 26.0418C7.66313 26.4419 8.19068 26.6667 8.74076 26.6667H23.2593C23.8094 26.6667 24.3369 26.4419 24.7259 26.0418C25.1148 25.6418 25.3334 25.0991 25.3334 24.5333L23.5556 10.6667H8.44447Z" stroke="white" stroke-width="1.5" stroke-linecap="round" stroke-linejoin="round"/>
<path d="M8.44447 10.6667L6.66669 24.5333C6.66669 25.0991 6.8852 25.6418 7.27417 26.0418C7.66313 26.4419 8.19068 26.6667 8.74076 26.6667H23.2593C23.8094 26.6667 24.3369 26.4419 24.7259 26.0418C25.1148 25.6418 25.3334 25.0991 25.3334 24.5333L23.5556 10.6667H8.44447Z" stroke="url(#paint0_linear)" stroke-width="1.5" stroke-linecap="round" stroke-linejoin="round"/>
<path d="M12 9.33333C12 8.27246 12.4214 7.25505 13.1716 6.5049C13.9217 5.75476 14.9391 5.33333 16 5.33333C17.0609 5.33333 18.0783 5.75476 18.8284 6.5049C19.5786 7.25505 20 8.27246 20 9.33333" stroke="white" stroke-width="1.5" stroke-linecap="round" stroke-linejoin="round"/>
<path d="M12 9.33333C12 8.27246 12.4214 7.25505 13.1716 6.5049C13.9217 5.75476 14.9391 5.33333 16 5.33333C17.0609 5.33333 18.0783 5.75476 18.8284 6.5049C19.5786 7.25505 20 8.27246 20 9.33333" stroke="url(#paint1_linear)" stroke-width="1.5" stroke-linecap="round" stroke-linejoin="round"/>
<defs>
<linearGradient id="paint0_linear" x1="16" y1="10.6667" x2="16" y2="26.6667" gradientUnits="userSpaceOnUse">
<stop stop-color="white"/>
<stop offset="1" stop-color="white" stop-opacity="0"/>
</linearGradient>
<linearGradient id="paint1_linear" x1="16" y1="9.33333" x2="16" y2="5.33333" gradientUnits="userSpaceOnUse">
<stop stop-color="white"/>
<stop offset="1" stop-color="white" stop-opacity="0"/>
</linearGradient>
</defs>
</svg>
