<svg width="56" height="50" viewBox="0 0 56 50" fill="none" xmlns="http://www.w3.org/2000/svg">
<path d="M42.9926 15.0452C43.0815 15.393 43.4355 15.6029 43.7833 15.5141C44.1311 15.4252 44.341 15.0712 44.2522 14.7234L42.9926 15.0452ZM21.9457 41.8473C22.2987 41.9129 22.638 41.68 22.7037 41.3271C22.7693 40.9742 22.5365 40.6349 22.1836 40.5692L21.9457 41.8473ZM8.60716 17.3379C8.67626 16.9856 8.4467 16.644 8.09442 16.575C7.74215 16.5059 7.40056 16.7354 7.33147 17.0877L8.60716 17.3379ZM11.1323 8.40367C10.919 8.69246 10.9803 9.09943 11.2691 9.31267C11.5578 9.52592 11.9648 9.46467 12.1781 9.17588L11.1323 8.40367ZM24.0528 42.0673C23.8388 41.7791 23.4317 41.7189 23.1435 41.9329C22.8553 42.147 22.7951 42.5541 23.0091 42.8423L24.0528 42.0673ZM49.7773 18.0683C49.5109 17.8277 49.0999 17.8485 48.8592 18.1149C48.6186 18.3812 48.6394 18.7923 48.9058 19.0329L49.7773 18.0683ZM46.3035 19.8333L45.8317 20.2804L46.3035 19.8333ZM43.135 37.9772L42.6878 37.5055L43.135 37.9772ZM24.8473 40.1688L25.3191 39.7217L24.8473 40.1688ZM34.8023 17.1784C34.4608 17.2889 34.2735 17.6554 34.384 17.9969C34.4945 18.3385 34.861 18.5258 35.2025 18.4153L34.8023 17.1784ZM23.7376 29.8291C23.8467 29.4871 23.658 29.1214 23.316 29.0123C22.974 28.9031 22.6083 29.0919 22.4991 29.4338L23.7376 29.8291ZM26.2424 40.5663C26.1556 40.9146 26.3676 41.2674 26.7159 41.3542C27.0642 41.4411 27.417 41.2291 27.5038 40.8807L26.2424 40.5663ZM31.6582 35.4299C31.9506 35.2217 32.0189 34.8158 31.8107 34.5234C31.6025 34.231 31.1966 34.1627 30.9042 34.3709L31.6582 35.4299ZM35.637 31.8975C35.2996 32.0203 35.1257 32.3932 35.2484 32.7306C35.3712 33.0679 35.7442 33.2419 36.0815 33.1191L35.637 31.8975ZM45.368 33.5543C45.6512 33.775 46.0596 33.7243 46.2803 33.4411C46.5009 33.1579 46.4502 32.7495 46.167 32.5289L45.368 33.5543ZM48.4931 17.8781L48.9649 17.431L48.4931 17.8781ZM23.073 41.9704L23.5448 41.5233L23.073 41.9704ZM20.9617 30.1412C21.0422 29.7914 20.8239 29.4425 20.4741 29.362C20.1242 29.2815 19.7754 29.4998 19.6949 29.8497L20.9617 30.1412ZM33.4855 14.6708C33.1473 14.791 32.9705 15.1627 33.0907 15.5009C33.2109 15.8392 33.5826 16.016 33.9208 15.8958L33.4855 14.6708ZM30.0277 13.3161L30.1705 13.9502L30.0277 13.3161ZM38.8906 6.27608C38.6873 6.57199 38.7625 6.97663 39.0584 7.17988C39.3543 7.38313 39.7589 7.30803 39.9622 7.01212L38.8906 6.27608ZM41.8057 3.18021L41.2699 2.81219V2.81219L41.8057 3.18021ZM46.3324 11.1137L46.9557 11.2978L46.3324 11.1137ZM45.0888 15.3243L44.4654 15.1401C44.3716 15.4579 44.5317 15.7953 44.8372 15.9236L45.0888 15.3243ZM43.8463 3.28132L43.2767 3.59457L43.8463 3.28132ZM50.682 5.92746L50.8226 6.56208L50.682 5.92746ZM49.7134 12.668L50.0371 13.2317L49.7134 12.668ZM52.1089 7.37688L52.7413 7.52737V7.52737L52.1089 7.37688ZM51.3811 10.4354L50.7487 10.2849L51.3811 10.4354ZM54.5996 13.8164L54.1288 14.2646L54.5996 13.8164ZM54.3819 15.6516L54.7348 16.1974V16.1974L54.3819 15.6516ZM53.6895 16.0992L53.3367 15.5533L53.6895 16.0992ZM48.1093 16.5925L48.361 15.9932V15.9932L48.1093 16.5925ZM13.0422 26.4141C12.9372 26.0708 12.5738 25.8776 12.2305 25.9827C11.8872 26.0877 11.6941 26.4511 11.7991 26.7944L13.0422 26.4141ZM13.4901 29.2581L12.9248 29.5789L13.4901 29.2581ZM14.7843 31.9895C15.0295 32.2517 15.4408 32.2655 15.7031 32.0203C15.9653 31.7751 15.9791 31.3638 15.7339 31.1016L14.7843 31.9895ZM4.35978 16.2126L4.52811 15.5848H4.52811L4.35978 16.2126ZM30.1496 13.6953L29.9894 14.3252L30.1496 13.6953ZM6.66846 7.54447L6.50221 8.17285L6.66846 7.54447ZM1.16615 10.8084L1.79731 10.9637L1.16615 10.8084ZM26.3517 1.78916C34.6831 1.78916 40.8695 6.7344 42.9926 15.0452L44.2522 14.7234C41.9891 5.86468 35.3051 0.48916 26.3517 0.48916V1.78916ZM22.1836 40.5692C13.7145 38.9933 8.21085 31.2392 8.21085 21.4433H6.91085C6.91085 31.7087 12.7188 40.1304 21.9457 41.8473L22.1836 40.5692ZM8.21085 21.4433C8.21085 20.0347 8.34757 18.6614 8.60716 17.3379L7.33147 17.0877C7.05575 18.4934 6.91085 19.9504 6.91085 21.4433H8.21085ZM12.1781 9.17588C15.5112 4.66193 20.6287 1.78916 26.3517 1.78916V0.48916C20.1753 0.48916 14.6852 3.59204 11.1323 8.40367L12.1781 9.17588ZM54.4805 31.8854C54.4805 40.7971 47.0006 48.0588 37.727 48.0588V49.3588C47.6767 49.3588 55.7805 41.5563 55.7805 31.8854H54.4805ZM37.727 48.0588C32.0375 48.0588 27.054 46.1088 24.0528 42.0673L23.0091 42.8423C26.3246 47.3072 31.7577 49.3588 37.727 49.3588V48.0588ZM48.9058 19.0329C52.8388 22.5866 54.4805 26.7422 54.4805 31.8854H55.7805C55.7805 26.407 54.0063 21.8894 49.7773 18.0683L48.9058 19.0329ZM45.8317 20.2804C47.7452 22.2994 48.4135 25.2069 47.8664 28.3396C47.3194 31.4722 45.5591 34.7842 42.6878 37.5055L43.5821 38.449C46.6358 35.5548 48.5473 31.9974 49.147 28.5632C49.7468 25.129 49.0368 21.7723 46.7753 19.3862L45.8317 20.2804ZM42.6878 37.5055C39.8166 40.2267 36.415 41.807 33.2576 42.1854C30.1001 42.5637 27.2326 41.7407 25.3191 39.7217L24.3755 40.6159C26.637 43.0021 29.9509 43.8909 33.4123 43.4761C36.8737 43.0613 40.5284 41.3432 43.5821 38.449L42.6878 37.5055ZM35.2025 18.4153C39.3627 17.0692 43.3858 17.6997 45.8317 20.2804L46.7753 19.3862C43.8774 16.3286 39.2699 15.7329 34.8023 17.1784L35.2025 18.4153ZM25.3191 39.7217C23.0372 37.314 22.524 33.6313 23.7376 29.8291L22.4991 29.4338C21.1884 33.5406 21.6738 37.7653 24.3755 40.6159L25.3191 39.7217ZM27.5038 40.8807C27.9971 38.902 29.4279 37.0177 31.6582 35.4299L30.9042 34.3709C28.5064 36.078 26.8325 38.199 26.2424 40.5663L27.5038 40.8807ZM36.0815 33.1191C39.8652 31.7422 43.3062 31.9477 45.368 33.5543L46.167 32.5289C43.6017 30.5299 39.6238 30.4467 35.637 31.8975L36.0815 33.1191ZM48.0213 18.3252C52.9315 23.506 51.7111 32.9718 44.8418 39.4823L45.7361 40.4258C52.906 33.6305 54.5547 23.3288 48.9649 17.431L48.0213 18.3252ZM44.8418 39.4823C37.9726 45.9927 28.4549 46.704 23.5448 41.5233L22.6013 42.4176C28.1911 48.3154 38.5662 47.2212 45.7361 40.4258L44.8418 39.4823ZM23.5448 41.5233C20.8062 38.6338 19.9711 34.4462 20.9617 30.1412L19.6949 29.8497C18.6297 34.4781 19.4982 39.1435 22.6013 42.4176L23.5448 41.5233ZM33.9208 15.8958C39.2568 13.9995 44.6846 14.8046 48.0213 18.3252L48.9649 17.431C45.178 13.4354 39.1588 12.6547 33.4855 14.6708L33.9208 15.8958ZM26.5657 7.22662C26.6532 7.61552 26.522 8.08419 26.1023 8.54334C25.6845 9.00049 25.0184 9.39623 24.1943 9.58176L24.4799 10.85C25.5312 10.6133 26.4436 10.0968 27.0619 9.42039C27.6783 8.74596 28.0407 7.85972 27.8339 6.94108L26.5657 7.22662ZM24.1943 9.58176C23.3702 9.7673 22.5988 9.6952 22.0254 9.46123C21.4495 9.22623 21.1301 8.85902 21.0425 8.47012L19.7742 8.75566C19.9811 9.6743 20.6883 10.3197 21.5343 10.6649C22.3828 11.0111 23.4286 11.0867 24.4799 10.85L24.1943 9.58176ZM21.0425 8.47012C20.9549 8.08121 21.0862 7.61255 21.5058 7.15339C21.9237 6.69625 22.5897 6.30051 23.4138 6.11497L23.1283 4.84671C22.077 5.08341 21.1645 5.59992 20.5462 6.27635C19.9298 6.95077 19.5674 7.83701 19.7742 8.75566L21.0425 8.47012ZM23.4138 6.11497C24.2379 5.92943 25.0093 6.00153 25.5827 6.23551C26.1587 6.4705 26.4781 6.83771 26.5657 7.22662L27.8339 6.94108C27.6271 6.02243 26.9198 5.37702 26.0739 5.03184C25.2254 4.68564 24.1796 4.61002 23.1283 4.84671L23.4138 6.11497ZM32.0028 10.6041C32.0773 10.9351 31.968 11.3438 31.5942 11.7528C31.2222 12.1597 30.626 12.5151 29.8849 12.6819L30.1705 13.9502C31.1388 13.7322 31.9813 13.2561 32.5537 12.6298C33.1243 12.0056 33.4649 11.1793 33.2711 10.3185L32.0028 10.6041ZM29.8849 12.6819C29.8075 12.6994 29.5937 12.7118 29.2666 12.6778C28.9567 12.6457 28.5986 12.5775 28.2563 12.4724C27.9096 12.366 27.6083 12.2305 27.392 12.0779C27.1716 11.9225 27.0991 11.7934 27.0809 11.7122L25.8126 11.9977C25.9285 12.5125 26.2799 12.8844 26.6427 13.1402C27.0094 13.3989 27.4504 13.5848 27.8746 13.7151C28.3032 13.8467 28.7446 13.9306 29.1323 13.9709C29.5028 14.0093 29.8847 14.0145 30.1705 13.9502L29.8849 12.6819ZM27.0809 11.7122C27.0063 11.3812 27.1157 10.9725 27.4895 10.5635C27.8615 10.1565 28.4577 9.80117 29.1988 9.63432L28.9132 8.36607C27.9449 8.58407 27.1023 9.0602 26.53 9.68646C25.9594 10.3107 25.6188 11.137 25.8126 11.9977L27.0809 11.7122ZM29.1988 9.63432C29.9398 9.46747 30.6308 9.53304 31.1413 9.74133C31.6543 9.95065 31.9283 10.273 32.0028 10.6041L33.2711 10.3185C33.0773 9.45776 32.4155 8.85717 31.6324 8.53767C30.8469 8.21715 29.8815 8.14806 28.9132 8.36607L29.1988 9.63432ZM39.9622 7.01212L42.3414 3.54823L41.2699 2.81219L38.8906 6.27608L39.9622 7.01212ZM45.709 10.9296L44.4654 15.1401L45.7122 15.5084L46.9557 11.2978L45.709 10.9296ZM43.2767 3.59457L45.3164 7.30306L46.4555 6.67657L44.4158 2.96808L43.2767 3.59457ZM46.0265 7.62444L50.8226 6.56208L50.5414 5.29285L45.7454 6.3552L46.0265 7.62444ZM49.3897 12.1044L44.7651 14.7606L45.4125 15.8879L50.0371 13.2317L49.3897 12.1044ZM51.4766 7.2264L50.7487 10.2849L52.0134 10.5859L52.7413 7.52737L51.4766 7.2264ZM50.9103 10.8835L54.1288 14.2646L55.0704 13.3683L51.8519 9.98721L50.9103 10.8835ZM54.029 15.1057L53.3367 15.5533L54.0424 16.645L54.7348 16.1974L54.029 15.1057ZM48.361 15.9932L45.3404 14.7249L44.8372 15.9236L47.8577 17.1918L48.361 15.9932ZM53.3367 15.5533C51.8525 16.5127 49.9904 16.6774 48.361 15.9932L47.8577 17.1918C49.883 18.0422 52.1977 17.8376 54.0424 16.645L53.3367 15.5533ZM54.1288 14.2646C54.3665 14.5143 54.3185 14.9186 54.029 15.1057L54.7348 16.1974C55.7085 15.5679 55.8698 14.2081 55.0704 13.3683L54.1288 14.2646ZM50.8226 6.56208C51.219 6.47429 51.5706 6.83146 51.4766 7.2264L52.7413 7.52737C53.0574 6.19892 51.8747 4.99753 50.5414 5.29285L50.8226 6.56208ZM46.9557 11.2978C47.4122 9.75235 47.2321 8.08856 46.4555 6.67657L45.3164 7.30306C45.9258 8.41113 46.0672 9.71679 45.709 10.9296L46.9557 11.2978ZM50.0371 13.2317C51.0325 12.66 51.7476 11.7026 52.0134 10.5859L50.7487 10.2849C50.566 11.0528 50.0742 11.7112 49.3897 12.1044L50.0371 13.2317ZM42.3414 3.54823C42.5733 3.21073 43.0794 3.23581 43.2767 3.59457L44.4158 2.96808C43.7521 1.76133 42.0496 1.67697 41.2699 2.81219L42.3414 3.54823ZM12.4207 26.6042C11.7991 26.7944 11.7991 26.7944 11.7991 26.7945C11.7991 26.7945 11.7992 26.7946 11.7992 26.7946C11.7992 26.7947 11.7993 26.7949 11.7993 26.795C11.7994 26.7954 11.7995 26.7958 11.7997 26.7963C11.8 26.7973 11.8005 26.7988 11.801 26.8006C11.8021 26.8043 11.8038 26.8095 11.8059 26.8162C11.81 26.8297 11.8161 26.8492 11.824 26.874C11.8397 26.9238 11.8627 26.9952 11.8918 27.0838C11.9501 27.2607 12.0337 27.507 12.1354 27.7852C12.3354 28.3323 12.6176 29.0377 12.9248 29.5789L14.0554 28.9373C13.8039 28.4941 13.5515 27.8726 13.3564 27.3389C13.2605 27.0766 13.1815 26.844 13.1266 26.6771C13.0991 26.5938 13.0778 26.5272 13.0634 26.4817C13.0562 26.459 13.0508 26.4417 13.0472 26.4302C13.0454 26.4245 13.0441 26.4202 13.0433 26.4175C13.0429 26.4161 13.0426 26.4152 13.0424 26.4146C13.0423 26.4143 13.0422 26.4141 13.0422 26.414C13.0422 26.414 13.0422 26.414 13.0422 26.414C13.0422 26.414 13.0422 26.414 13.0422 26.414C13.0422 26.414 13.0422 26.4141 12.4207 26.6042ZM12.9248 29.5789C13.2399 30.1342 13.7127 30.7422 14.0889 31.1947C14.2802 31.4248 14.453 31.6223 14.5781 31.7624C14.6407 31.8326 14.6916 31.8886 14.7271 31.9274C14.7449 31.9469 14.7588 31.962 14.7685 31.9724C14.7734 31.9777 14.7771 31.9817 14.7798 31.9846C14.7811 31.986 14.7822 31.9872 14.7829 31.988C14.7833 31.9884 14.7836 31.9887 14.7838 31.989C14.784 31.9891 14.7841 31.9892 14.7841 31.9893C14.7842 31.9893 14.7842 31.9894 14.7843 31.9894C14.7843 31.9894 14.7843 31.9895 15.2591 31.5455C15.7339 31.1016 15.7339 31.1016 15.734 31.1017C15.734 31.1017 15.734 31.1017 15.734 31.1017C15.734 31.1017 15.734 31.1017 15.734 31.1017C15.7339 31.1016 15.7338 31.1015 15.7336 31.1012C15.7332 31.1008 15.7325 31.1001 15.7315 31.0991C15.7296 31.097 15.7266 31.0938 15.7225 31.0894C15.7144 31.0806 15.7021 31.0672 15.686 31.0496C15.6537 31.0144 15.6066 30.9625 15.5479 30.8968C15.4306 30.7653 15.2681 30.5795 15.0885 30.3636C14.7229 29.9238 14.3113 29.3882 14.0554 28.9373L12.9248 29.5789ZM24.8518 27.3852V26.114H23.5518V27.3852H24.8518ZM29.3056 26.114V32.47H30.6056V26.114H29.3056ZM36.2255 32.4699V20.6733H34.9255V32.4699H36.2255ZM17.9317 19.2228V20.0258H19.2317V19.2228H17.9317ZM17.9317 20.0258V27.3852H19.2317V20.0258H17.9317ZM4.19145 16.8405L18.4134 20.6536L18.75 19.398L4.52811 15.5848L4.19145 16.8405ZM30.3098 13.0653L24.3619 11.5532L24.0416 12.8131L29.9894 14.3252L30.3098 13.0653ZM24.368 11.5547L6.83471 6.91609L6.50221 8.17285L24.0355 12.8115L24.368 11.5547ZM24.8518 13.6028V12.1831H23.5518V13.6028H24.8518ZM0.534995 10.653C-0.133069 13.3669 1.49192 16.1167 4.19145 16.8405L4.52811 15.5848C2.51198 15.0443 1.29837 12.9906 1.79731 10.9637L0.534995 10.653ZM1.79731 10.9637C2.3098 8.88187 4.4295 7.62449 6.50221 8.17285L6.83471 6.91609C4.05942 6.18185 1.2212 7.86545 0.534995 10.653L1.79731 10.9637ZM36.2255 20.6733C36.2255 17.0828 33.7895 13.95 30.3098 13.0653L29.9894 14.3252C32.8929 15.0634 34.9255 17.6774 34.9255 20.6733H36.2255ZM32.7656 35.9299C34.6765 35.9299 36.2255 34.3809 36.2255 32.4699H34.9255C34.9255 33.6629 33.9585 34.6299 32.7656 34.6299V35.9299ZM29.3056 32.47C29.3056 34.3809 30.8546 35.9299 32.7656 35.9299V34.6299C31.5726 34.6299 30.6056 33.6629 30.6056 32.47H29.3056ZM27.0787 23.8871C28.3085 23.8871 29.3056 24.8841 29.3056 26.114H30.6056C30.6056 24.1662 29.0265 22.5871 27.0787 22.5871V23.8871ZM24.8518 26.114C24.8518 24.8841 25.8488 23.8871 27.0787 23.8871V22.5871C25.1308 22.5871 23.5518 24.1662 23.5518 26.114H24.8518ZM21.3917 30.8452C23.3027 30.8452 24.8518 29.2961 24.8518 27.3852H23.5518C23.5518 28.5782 22.5847 29.5452 21.3917 29.5452V30.8452ZM21.3917 29.5452C20.1988 29.5452 19.2317 28.5782 19.2317 27.3852H17.9317C17.9317 29.2961 19.4808 30.8452 21.3917 30.8452V29.5452ZM21.3917 17.0628C23.3027 17.0628 24.8518 15.5137 24.8518 13.6028H23.5518C23.5518 14.7957 22.5847 15.7628 21.3917 15.7628V17.0628ZM19.2317 19.2228C19.2317 18.0299 20.1988 17.0628 21.3917 17.0628V15.7628C19.4808 15.7628 17.9317 17.3119 17.9317 19.2228H19.2317Z" fill="black"/>
</svg>
