<svg width="56" height="42" viewBox="0 0 56 42" fill="none" xmlns="http://www.w3.org/2000/svg">
<path d="M13.4452 33.1286L12.8058 33.0117V33.0117L13.4452 33.1286ZM17.4397 24.7457L17.9061 25.1984L17.9061 25.1984L17.4397 24.7457ZM18.1283 20.7966C18.1283 20.4376 17.8373 20.1466 17.4783 20.1466C17.1193 20.1466 16.8283 20.4376 16.8283 20.7966H18.1283ZM11.0627 29.178L10.826 28.5727L10.826 28.5727L11.0627 29.178ZM10.5328 28.948L9.9289 29.1885L10.5328 28.948ZM9.50773 26.3743L10.1116 26.1338L10.1116 26.1338L9.50773 26.3743ZM7.12755 25.7088L6.47874 25.6695L7.12755 25.7088ZM7.4227 20.8424L8.07151 20.8818V20.8817L7.4227 20.8424ZM4.63307 12.6986L3.98908 12.6104L3.98158 12.6652L3.98344 12.7204L4.63307 12.6986ZM7.90106 6.77058L8.27399 7.30295L8.274 7.30294L7.90106 6.77058ZM7.91842 6.75636L8.36638 7.22734L7.91842 6.75636ZM14.4066 3.26047L13.9909 2.76084C13.9631 2.78393 13.9373 2.8093 13.9138 2.83668L14.4066 3.26047ZM21.5854 7.57531L21.679 6.93209L21.679 6.93209L21.5854 7.57531ZM21.6129 7.58229L21.8372 6.9722L21.8372 6.97218L21.6129 7.58229ZM23.5285 12.047L24.1626 12.1902C24.1732 12.1432 24.1785 12.0951 24.1785 12.047H23.5285ZM10.6158 8.60043C10.4386 8.28822 10.0418 8.17876 9.72962 8.35594C9.41741 8.53313 9.30795 8.92987 9.48514 9.24208L10.6158 8.60043ZM21.6264 5.22564C21.766 5.55637 22.1473 5.71131 22.478 5.57172C22.8088 5.43212 22.9637 5.05084 22.8241 4.72011L21.6264 5.22564ZM23.0212 18.1952L22.547 18.6398L23.0212 18.1952ZM27.4378 19.1992C27.7968 19.1992 28.0878 18.9082 28.0878 18.5492C28.0878 18.1903 27.7968 17.8992 27.4378 17.8992V19.1992ZM11.3802 15.7702L11.2116 15.1425L11.3802 15.7702ZM19.5364 15.3788C19.8459 15.5608 20.2443 15.4575 20.4263 15.1481C20.6083 14.8386 20.505 14.4403 20.1955 14.2582L19.5364 15.3788ZM7.40006 20.7583L6.85837 21.1176L6.85837 21.1176L7.40006 20.7583ZM0.863627 26.2883L0.23459 26.452L0.863627 26.2883ZM5.89383 31.1311L5.55886 31.6881L5.55887 31.6881L5.89383 31.1311ZM6.06876 31.0962L5.55289 30.7007L5.55289 30.7007L6.06876 31.0962ZM7.42548 29.3263L7.98573 29.6559C8.15993 29.3598 8.0736 28.9792 7.78867 28.7873C7.50374 28.5953 7.11863 28.6582 6.90961 28.9309L7.42548 29.3263ZM4.63307 39.5057L4.10417 39.8835L4.63307 39.5057ZM12.452 39.5057L12.7125 40.1012C12.7227 40.0967 12.7327 40.092 12.7427 40.087L12.452 39.5057ZM26.3415 32.5608L26.0508 31.9794L26.0508 31.9794L26.3415 32.5608ZM26.4792 32.5683L26.8332 32.0232L26.8332 32.0232L26.4792 32.5683ZM36.0943 35.5963L35.9736 36.235L36.0943 35.5963ZM24.5586 24.6711C24.5394 24.3126 24.2332 24.0376 23.8747 24.0569C23.5163 24.0761 23.2413 24.3823 23.2605 24.7408L24.5586 24.6711ZM13.6346 33.2762L13.3438 32.6949L13.3438 32.6949L13.6346 33.2762ZM20.0538 25.666C19.7102 25.5623 19.3475 25.7568 19.2437 26.1005C19.14 26.4441 19.3345 26.8068 19.6782 26.9106L20.0538 25.666ZM44.6406 2.26098C44.8393 1.96198 44.7579 1.55854 44.4589 1.35987C44.1599 1.1612 43.7565 1.24254 43.5578 1.54155L44.6406 2.26098ZM34.9046 15.7396L35.446 16.0994L35.446 16.0993L34.9046 15.7396ZM34.8524 15.7861L34.5618 15.2046L34.5618 15.2047L34.8524 15.7861ZM27.4378 23.682L28.0628 23.5034V23.5034L27.4378 23.682ZM35.2777 20.2312L34.8063 19.7836L34.8063 19.7836L35.2777 20.2312ZM35.3582 20.2851L34.7753 19.9973V19.9973L35.3582 20.2851ZM34.8843 23.8857L34.631 24.4843V24.4843L34.8843 23.8857ZM55.6026 1.83297C55.8734 1.59722 55.9017 1.18664 55.666 0.915916C55.4302 0.645188 55.0196 0.61683 54.7489 0.852576L55.6026 1.83297ZM45.253 18.4655C45.6106 18.4966 45.9257 18.2319 45.9568 17.8743C45.9879 17.5167 45.7232 17.2015 45.3656 17.1704L45.253 18.4655ZM54.4403 13.9805C54.6856 13.7184 54.672 13.3071 54.4099 13.0618C54.1478 12.8165 53.7365 12.8301 53.4912 13.0922L54.4403 13.9805ZM46.3444 21.345L46.8055 21.8031L46.8056 21.803L46.3444 21.345ZM46.2453 21.3823L46.2208 22.0319H46.2208L46.2453 21.3823ZM41.6477 22.3829L42.0315 22.9075L41.6477 22.3829ZM38.0695 27.2407L37.5238 27.5938L37.5238 27.5938L38.0695 27.2407ZM45.3093 26.2883L45.0221 25.7052L45.3093 26.2883ZM55.4951 20.7112C55.8078 20.5348 55.9183 20.1384 55.7419 19.8257C55.5655 19.513 55.1691 19.4025 54.8564 19.5789L55.4951 20.7112ZM51.3929 35.4777L51.3161 34.8322L51.3929 35.4777ZM54.0685 35.7727C54.423 35.716 54.6643 35.3826 54.6076 35.0281C54.5508 34.6737 54.2175 34.4323 53.863 34.4891L54.0685 35.7727ZM30.0924 25.5252L30.6998 25.7567L30.0924 25.5252ZM34.4258 26.8857L33.7951 26.7284L34.4258 26.8857ZM31.5694 28.5158L31.7548 27.8928L31.5694 28.5158ZM43.4694 27.2059L44.0793 27.4304V27.4304L43.4694 27.2059ZM47.7769 28.5603L48.4056 28.7252V28.7252L47.7769 28.5603ZM45.5905 30.2471V30.8971V30.2471ZM14.0846 33.2455L15.046 27.9876L13.7672 27.7537L12.8058 33.0117L14.0846 33.2455ZM14.8731 28.3234L17.9061 25.1984L16.9733 24.293L13.9402 27.4179L14.8731 28.3234ZM18.1283 24.6505V20.7966H16.8283V24.6505H18.1283ZM14.17 27.2653L10.826 28.5727L11.2994 29.7834L14.6433 28.476L14.17 27.2653ZM11.1366 28.7075L10.1116 26.1338L8.90386 26.6149L9.9289 29.1885L11.1366 28.7075ZM9.38083 25.6383H7.67294V26.9383H9.38083V25.6383ZM7.77636 25.7482L8.07151 20.8818L6.77389 20.803L6.47874 25.6695L7.77636 25.7482ZM5.27706 12.7868C5.78374 9.08651 8.17072 7.3753 8.27399 7.30295L7.52813 6.2382C7.29085 6.40442 4.56652 8.39335 3.98908 12.6104L5.27706 12.7868ZM8.36638 7.22734C9.30721 6.33252 10.2906 6.06101 11.4206 5.71922C12.5483 5.3781 13.7941 4.9698 14.8995 3.68426L13.9138 2.83668C13.0671 3.82132 12.1379 4.14407 11.0442 4.4749C9.95263 4.80507 8.66797 5.1464 7.47046 6.28537L8.36638 7.22734ZM13.9693 3.74131C16.4725 6.01824 18.5288 7.78742 21.4918 8.21854L21.679 6.93209C19.1625 6.56593 17.3798 5.08622 14.844 2.77963L13.9693 3.74131ZM21.3887 8.19237C22.1849 8.48506 22.5337 8.98505 22.7099 9.61959C22.9038 10.3178 22.8785 11.1342 22.8785 12.047H24.1785C24.1785 11.2255 24.216 10.1846 23.9625 9.2717C23.6912 8.29506 23.0822 7.42986 21.8372 6.9722L21.3887 8.19237ZM23.9872 11.5864C21.4826 9.09201 18.2527 8.41826 14.9598 9.70332L15.4324 10.9144C18.2455 9.81657 20.9302 10.3766 23.0698 12.5075L23.9872 11.5864ZM14.9598 9.70332C13.5525 10.2525 12.6101 10.165 11.9784 9.89474C11.3321 9.61816 10.9011 9.10326 10.6158 8.60043L9.48514 9.24208C9.85128 9.88723 10.4666 10.6618 11.467 11.0899C12.482 11.5243 13.7866 11.5566 15.4324 10.9144L14.9598 9.70332ZM14.8224 3.7601C15.9766 2.79962 17.4307 2.58885 18.7394 2.9204C20.0601 3.25499 21.1609 4.12261 21.6264 5.22564L22.8241 4.72011C22.1725 3.17635 20.6999 2.076 19.0586 1.66021C17.4053 1.24136 15.5086 1.49779 13.9909 2.76084L14.8224 3.7601ZM22.8945 11.9038C22.7768 12.4248 22.5953 12.9517 22.3996 13.5044C22.2086 14.0437 22.0003 14.6174 21.8607 15.1768C21.5773 16.312 21.5354 17.5611 22.547 18.6398L23.4953 17.7506C22.9264 17.144 22.8838 16.4458 23.122 15.4917C23.2431 15.0064 23.4262 14.4999 23.625 13.9384C23.819 13.3904 24.0257 12.796 24.1626 12.1902L22.8945 11.9038ZM22.547 18.6398C22.8591 18.9726 23.1902 19.2018 23.5758 19.3269C23.9513 19.4486 24.3255 19.4538 24.6863 19.4277C25.4602 19.3717 26.1534 19.1992 27.4378 19.1992V17.8992C26.1304 17.8992 25.1244 18.0926 24.5925 18.1311C24.3004 18.1522 24.12 18.1367 23.9768 18.0903C23.8439 18.0472 23.6923 17.9607 23.4953 17.7506L22.547 18.6398ZM4.13949 13.1215C5.58819 14.8123 6.751 15.8434 7.92299 16.3355C9.13771 16.8456 10.2718 16.741 11.5489 16.398L11.2116 15.1425C10.0634 15.4509 9.26051 15.4872 8.42631 15.1369C7.54938 14.7687 6.55126 13.9383 5.12666 12.2757L4.13949 13.1215ZM11.5489 16.398C12.4784 16.1482 13.2854 15.8412 14.0043 15.5604C14.7346 15.275 15.3487 15.0274 15.9474 14.8633C16.5343 14.7025 17.076 14.6315 17.6362 14.693C18.1953 14.7544 18.8108 14.9519 19.5364 15.3788L20.1955 14.2582C19.3388 13.7543 18.5488 13.4854 17.7781 13.4008C17.0085 13.3163 16.2962 13.4198 15.6037 13.6096C14.9229 13.7962 14.2322 14.0756 13.5312 14.3495C12.8186 14.6279 12.0677 14.9125 11.2116 15.1425L11.5489 16.398ZM7.94174 20.3991C7.68013 20.0046 7.37359 19.5104 7.05973 18.9593L5.93006 19.6026C6.25799 20.1785 6.57993 20.6978 6.85837 21.1176L7.94174 20.3991ZM7.05973 18.9593C5.87791 16.884 5.36303 15.0636 5.28271 12.6767L3.98344 12.7204C4.07085 15.318 4.64393 17.3441 5.93006 19.6026L7.05973 18.9593ZM6.49489 19.2809C6.10082 18.764 6.10073 18.7641 6.10061 18.7642C6.10054 18.7642 6.1004 18.7643 6.10026 18.7645C6.09998 18.7647 6.0996 18.765 6.09913 18.7653C6.09819 18.766 6.09687 18.767 6.09518 18.7683C6.09181 18.7709 6.08697 18.7746 6.0807 18.7795C6.06816 18.7891 6.04992 18.8032 6.02638 18.8215C5.9793 18.858 5.91099 18.9115 5.82464 18.98C5.652 19.1171 5.40695 19.3147 5.11513 19.5587C4.53255 20.0459 3.75856 20.7222 3.00055 21.4737C2.2469 22.2208 1.48786 23.0629 0.951191 23.8815C0.682694 24.291 0.456318 24.7149 0.31872 25.1343C0.181894 25.5512 0.118804 26.0072 0.23459 26.452L1.49266 26.1245C1.46106 26.0031 1.4634 25.8154 1.55392 25.5396C1.64368 25.266 1.80658 24.9478 2.03838 24.5943C2.50229 23.8866 3.18792 23.1185 3.91579 22.3969C4.63928 21.6796 5.38367 21.0288 5.94907 20.556C6.23124 20.32 6.46759 20.1294 6.63284 19.9983C6.71544 19.9327 6.78021 19.882 6.82396 19.848C6.84584 19.831 6.86246 19.8182 6.87343 19.8098C6.87891 19.8056 6.88298 19.8024 6.88559 19.8004C6.88689 19.7995 6.88783 19.7987 6.88839 19.7983C6.88867 19.7981 6.88886 19.7979 6.88896 19.7979C6.88901 19.7978 6.88901 19.7978 6.88903 19.7978C6.88901 19.7978 6.88896 19.7979 6.49489 19.2809ZM0.23459 26.452C0.404906 27.1063 0.816328 27.7304 1.28738 28.281C1.76553 28.8399 2.34605 29.37 2.91625 29.835C4.05703 30.7654 5.21027 31.4785 5.55886 31.6881L6.2288 30.574C5.90247 30.3778 4.80918 29.7013 3.73787 28.8276C3.20203 28.3906 2.68512 27.915 2.27521 27.4359C1.85819 26.9484 1.59092 26.502 1.49266 26.1245L0.23459 26.452ZM6.58463 31.4916L7.94135 29.7218L6.90961 28.9309L5.55289 30.7007L6.58463 31.4916ZM6.86523 28.9967C6.07931 30.3327 4.98599 32.3967 4.27606 34.4066C3.92161 35.4101 3.65236 36.4287 3.57512 37.3522C3.49901 38.2621 3.60107 39.1792 4.10417 39.8835L5.16198 39.1278C4.92035 38.7896 4.80517 38.2427 4.87059 37.4606C4.93488 36.692 5.16594 35.7906 5.50185 34.8396C6.17263 32.9404 7.22024 30.9572 7.98573 29.6559L6.86523 28.9967ZM4.10417 39.8835C5.07034 41.236 6.86894 41.4153 8.42111 41.2601C10.0279 41.0994 11.6776 40.5539 12.7125 40.1012L12.1914 38.9102C11.2406 39.3261 9.72566 39.8232 8.29176 39.9665C6.80326 40.1154 5.68526 39.8603 5.16198 39.1278L4.10417 39.8835ZM12.7427 40.087L26.6322 33.1421L26.0508 31.9794L12.1613 38.9243L12.7427 40.087ZM26.1252 33.1135C26.8587 33.5898 28.3841 34.1878 30.1415 34.747C31.9252 35.3146 34.0292 35.8673 35.9736 36.235L36.2151 34.9576C34.3293 34.601 32.2765 34.0622 30.5357 33.5082C28.7684 32.9459 27.4013 32.3921 26.8332 32.0232L26.1252 33.1135ZM23.9096 24.7059C23.2605 24.7408 23.2605 24.7406 23.2605 24.7404C23.2605 24.7403 23.2605 24.7401 23.2605 24.74C23.2605 24.7398 23.2604 24.7396 23.2604 24.7394C23.2604 24.7391 23.2604 24.7388 23.2604 24.7386C23.2604 24.7383 23.2604 24.7383 23.2604 24.7386C23.2604 24.7394 23.2605 24.7415 23.2606 24.745C23.2609 24.7521 23.2612 24.7645 23.2614 24.7818C23.2617 24.8164 23.2613 24.8702 23.2583 24.939C23.2521 25.0775 23.2352 25.272 23.1924 25.4911C23.1045 25.9413 22.9208 26.4291 22.5662 26.7764L23.4761 27.705C24.0949 27.0986 24.3553 26.319 24.4683 25.7402C24.526 25.4448 24.5486 25.1845 24.557 24.9967C24.5612 24.9024 24.5618 24.8252 24.5613 24.7697C24.561 24.7419 24.5605 24.7194 24.5599 24.7028C24.5597 24.6945 24.5594 24.6877 24.5592 24.6823C24.5591 24.6797 24.559 24.6774 24.5589 24.6755C24.5588 24.6746 24.5588 24.6738 24.5587 24.673C24.5587 24.6726 24.5587 24.6723 24.5587 24.672C24.5587 24.6718 24.5587 24.6716 24.5587 24.6715C24.5587 24.6713 24.5586 24.6711 23.9096 24.7059ZM22.5662 26.7764C21.3023 28.015 19.3156 29.3397 17.4579 30.4447C15.6121 31.5427 13.9422 32.3956 13.3438 32.6949L13.9254 33.8576C14.5386 33.5508 16.2392 32.6822 18.1225 31.562C19.9938 30.4489 22.0945 29.0588 23.4761 27.705L22.5662 26.7764ZM19.6782 26.9106L22.8333 27.863L23.209 26.6184L20.0538 25.666L19.6782 26.9106ZM43.5578 1.54155L34.3632 15.3799L35.446 16.0993L44.6406 2.26098L43.5578 1.54155ZM34.5618 15.2047C33.0687 15.9508 31.0211 17.4849 29.4177 19.0724C28.6142 19.8678 27.8965 20.7017 27.4114 21.4827C27.1687 21.8733 26.9721 22.2699 26.8573 22.6569C26.7434 23.0412 26.6979 23.4585 26.8128 23.8606L28.0628 23.5034C28.0385 23.4187 28.032 23.2684 28.1037 23.0265C28.1746 22.7872 28.3104 22.4991 28.5156 22.1687C28.9263 21.5076 29.5663 20.7545 30.3323 19.9962C31.8677 18.4761 33.8056 17.0359 35.143 16.3675L34.5618 15.2047ZM26.8128 23.8606C26.9213 24.2404 27.155 24.5401 27.4894 24.727C27.8047 24.9032 28.1637 24.9542 28.5051 24.9453C29.18 24.9278 29.9815 24.6703 30.7876 24.2961C32.4176 23.5395 34.3178 22.1862 35.7491 20.6787L34.8063 19.7836C33.4829 21.1775 31.7154 22.4322 30.2402 23.117C29.4937 23.4635 28.8832 23.6351 28.4713 23.6458C28.2693 23.651 28.1661 23.6159 28.1236 23.5921C28.1001 23.5791 28.0804 23.565 28.0628 23.5034L26.8128 23.8606ZM34.7753 19.9973C34.3863 20.7853 34.1581 21.7225 34.0737 22.4837C34.0315 22.8639 34.0217 23.2298 34.057 23.5306C34.0744 23.6785 34.106 23.8414 34.1679 23.9913C34.2221 24.1229 34.3494 24.3651 34.631 24.4843L35.1376 23.287C35.2349 23.3282 35.2952 23.388 35.3265 23.4269C35.3568 23.4645 35.3684 23.4925 35.3696 23.4955C35.3709 23.4986 35.3584 23.4659 35.3482 23.3791C35.3284 23.2105 35.3298 22.9508 35.3657 22.6271C35.4375 21.9805 35.6332 21.1964 35.941 20.5728L34.7753 19.9973ZM34.631 24.4843C35.5075 24.8551 36.3097 24.4518 36.8868 23.9138C37.4677 23.3723 37.9697 22.5741 38.3699 21.7521C38.7749 20.9202 39.0999 20.0133 39.3068 19.2118C39.4103 18.8107 39.4866 18.427 39.5273 18.0857C39.5668 17.7551 39.5784 17.4215 39.5256 17.1397L38.2479 17.3793C38.2648 17.4698 38.27 17.6506 38.2365 17.9315C38.2042 18.2017 38.1409 18.5268 38.048 18.8868C37.862 19.6075 37.5665 20.4323 37.2011 21.183C36.8308 21.9435 36.4124 22.5787 36.0004 22.9628C35.5846 23.3504 35.3215 23.3648 35.1376 23.287L34.631 24.4843ZM39.5256 17.1397C39.535 17.1896 39.5341 17.2289 39.5321 17.2518C39.5302 17.2749 39.5266 17.2886 39.526 17.2907C39.5255 17.2929 39.5308 17.2734 39.5537 17.2277C39.5996 17.1359 39.6846 16.9997 39.8198 16.8156C40.088 16.4506 40.501 15.9678 41.038 15.3877C42.1085 14.2313 43.6215 12.7414 45.3234 11.1297C48.7244 7.90903 52.8452 4.23413 55.6026 1.83297L54.7489 0.852576C51.9836 3.26056 47.8482 6.94831 44.4295 10.1858C42.7215 11.8033 41.1839 13.3164 40.084 14.5046C39.5358 15.0968 39.0838 15.6217 38.7722 16.0459C38.6175 16.2564 38.484 16.4601 38.3907 16.6467C38.344 16.7403 38.2996 16.8447 38.2702 16.9546C38.2423 17.059 38.2162 17.2105 38.2479 17.3793L39.5256 17.1397ZM38.8304 17.907L45.253 18.4655L45.3656 17.1704L38.9431 16.6119L38.8304 17.907ZM53.4912 13.0922C51.3482 15.382 46.3806 20.3863 45.8833 20.8869L46.8056 21.803C47.2968 21.3085 52.2809 16.2878 54.4403 13.9805L53.4912 13.0922ZM46.2697 20.7328C46.0344 20.7239 45.2118 20.7052 44.25 20.8298C43.3089 20.9517 42.1327 21.2226 41.2639 21.8583L42.0315 22.9075C42.6283 22.4709 43.5342 22.2334 44.417 22.119C45.2794 22.0073 46.0227 22.0244 46.2208 22.0319L46.2697 20.7328ZM41.2639 21.8583C40.476 22.4347 39.2684 23.2923 38.3973 24.2146C37.9624 24.675 37.5658 25.1975 37.3601 25.755C37.1447 26.3384 37.1324 26.9889 37.5238 27.5938L38.6152 26.8876C38.4947 26.7013 38.4721 26.4965 38.5796 26.2051C38.6968 25.8878 38.9563 25.516 39.3424 25.1072C40.1132 24.2912 41.2065 23.5111 42.0315 22.9075L41.2639 21.8583ZM37.5238 27.5938C37.8817 28.147 38.5103 28.3693 39.1012 28.4475C39.7094 28.528 40.4211 28.4772 41.1474 28.3522C42.6055 28.1013 44.27 27.5246 45.5964 26.8714L45.0221 25.7052C43.7902 26.3118 42.2445 26.8443 40.9269 27.0711C40.2655 27.1849 39.6981 27.2152 39.2718 27.1587C38.8282 27.1 38.6668 26.9674 38.6152 26.8876L37.5238 27.5938ZM45.5964 26.8714C46.6088 26.3729 47.1994 25.6685 47.7124 25.0917C48.2276 24.5123 48.6795 24.0392 49.46 23.7271L48.9773 22.52C47.8962 22.9524 47.2745 23.6279 46.741 24.2278C46.2052 24.8302 45.7719 25.3359 45.0221 25.7052L45.5964 26.8714ZM49.46 23.7271C51.3655 22.9649 54.2839 21.3945 55.4951 20.7112L54.8564 19.5789C53.6476 20.2608 50.795 21.793 48.9773 22.52L49.46 23.7271ZM35.9736 36.235C40.8814 37.1631 47.8022 36.5591 51.4696 36.1232L51.3161 34.8322C47.6401 35.2692 40.9032 35.8442 36.2151 34.9576L35.9736 36.235ZM51.4696 36.1232C52.264 36.0287 52.9121 35.9414 53.3623 35.8775C53.5874 35.8456 53.7631 35.8195 53.883 35.8014C53.9429 35.7923 53.9888 35.7852 54.02 35.7803C54.0356 35.7779 54.0475 35.776 54.0556 35.7748C54.0597 35.7741 54.0628 35.7736 54.0649 35.7733C54.066 35.7731 54.0668 35.773 54.0674 35.7729C54.0677 35.7728 54.068 35.7728 54.0681 35.7728C54.0682 35.7728 54.0683 35.7727 54.0684 35.7727C54.0684 35.7727 54.0684 35.7727 54.0684 35.7727C54.0685 35.7727 54.0685 35.7727 53.9657 35.1309C53.863 34.4891 53.863 34.4891 53.863 34.4891C53.863 34.4891 53.863 34.4891 53.863 34.4891C53.863 34.4891 53.863 34.4891 53.863 34.4891C53.8629 34.4891 53.8628 34.4891 53.8626 34.4891C53.8622 34.4892 53.8616 34.4893 53.8607 34.4894C53.859 34.4897 53.8563 34.4901 53.8527 34.4907C53.8455 34.4918 53.8345 34.4936 53.8198 34.4959C53.7904 34.5004 53.7463 34.5072 53.6883 34.516C53.5723 34.5336 53.4006 34.5591 53.1798 34.5904C52.738 34.6531 52.0997 34.7391 51.3161 34.8322L51.4696 36.1232ZM45.8833 20.8869C45.9318 20.838 45.9962 20.7935 46.0745 20.7646C46.1509 20.7365 46.2197 20.7309 46.2697 20.7328L46.2208 22.0319C46.4193 22.0394 46.6354 21.9744 46.8055 21.8031L45.8833 20.8869ZM34.3632 15.3799C34.4106 15.3086 34.4784 15.2463 34.5618 15.2046L35.1429 16.3675C35.2694 16.3043 35.372 16.2107 35.446 16.0994L34.3632 15.3799ZM8.274 7.30294C8.30734 7.27959 8.33796 7.25438 8.36638 7.22734L7.47046 6.28537C7.48785 6.26883 7.50726 6.25282 7.52812 6.23821L8.274 7.30294ZM8.07151 20.8817C8.08191 20.7103 8.03586 20.541 7.94174 20.3991L6.85837 21.1176C6.79719 21.0254 6.7671 20.9151 6.77389 20.803L8.07151 20.8817ZM7.67294 25.6383C7.73262 25.6383 7.77997 25.6886 7.77636 25.7482L6.47874 25.6695C6.43702 26.3574 6.98371 26.9383 7.67294 26.9383V25.6383ZM26.6322 33.1421C26.4721 33.2222 26.278 33.2127 26.1252 33.1135L26.8332 32.0232C26.5968 31.8697 26.3002 31.8547 26.0508 31.9794L26.6322 33.1421ZM10.826 28.5727C10.949 28.5246 11.0878 28.5848 11.1366 28.7075L9.9289 29.1885C10.1445 29.7299 10.7567 29.9956 11.2994 29.7834L10.826 28.5727ZM17.9061 25.1984C18.0486 25.0516 18.1283 24.8551 18.1283 24.6505H16.8283C16.8283 24.517 16.8803 24.3888 16.9733 24.293L17.9061 25.1984ZM10.1116 26.1338C9.99242 25.8346 9.70289 25.6383 9.38083 25.6383V26.9383C9.17062 26.9383 8.98165 26.8102 8.90386 26.6149L10.1116 26.1338ZM5.55887 31.6881C5.91379 31.9015 6.35071 31.7968 6.58463 31.4916L5.55289 30.7007C5.7032 30.5046 5.99164 30.4314 6.2288 30.574L5.55887 31.6881ZM35.7491 20.6787C35.7622 20.6649 35.745 20.6863 35.701 20.7148C35.6811 20.7276 35.6222 20.7642 35.5337 20.787C35.4501 20.8085 35.2408 20.8409 35.0293 20.7013C34.8128 20.5585 34.7607 20.3466 34.749 20.2516C34.7372 20.1556 34.7517 20.0834 34.757 20.0593C34.7687 20.0054 34.7839 19.98 34.7753 19.9973L35.941 20.5728C35.9687 20.5168 36.0059 20.4333 36.0269 20.3371C36.0368 20.2917 36.0527 20.2024 36.0393 20.0932C36.026 19.9851 35.9692 19.764 35.7452 19.6162C35.5261 19.4717 35.3064 19.5032 35.2096 19.5281C35.1079 19.5542 35.0332 19.5985 34.9948 19.6233C34.9139 19.6756 34.8495 19.7382 34.8063 19.7836L35.7491 20.6787ZM21.4918 8.21854C21.4572 8.21351 21.4229 8.20495 21.3887 8.19239L21.8372 6.97218C21.7854 6.95316 21.7321 6.93982 21.679 6.93209L21.4918 8.21854ZM12.8058 33.0117C12.6973 33.6051 13.3064 34.1672 13.9254 33.8576L13.3438 32.6949C13.7625 32.4855 14.1528 32.8723 14.0846 33.2455L12.8058 33.0117ZM30.1062 23.6637L29.485 25.2938L30.6998 25.7567L31.321 24.1266L30.1062 23.6637ZM35.0565 27.0429L35.9932 23.2859L34.7318 22.9714L33.7951 26.7284L35.0565 27.0429ZM31.384 29.1388C32.9818 29.6143 34.6533 28.6604 35.0565 27.0429L33.7951 26.7284C33.5711 27.627 32.6425 28.157 31.7548 27.8928L31.384 29.1388ZM29.485 25.2938C28.8791 26.8838 29.7531 28.6535 31.384 29.1388L31.7548 27.8928C30.8488 27.6232 30.3632 26.6401 30.6998 25.7567L29.485 25.2938ZM42.8988 26.8743L42.8594 26.9813L44.0793 27.4304L44.1188 27.3234L42.8988 26.8743ZM48.4056 28.7252L49.8354 23.275L48.5779 22.9452L47.1482 28.3954L48.4056 28.7252ZM45.5905 30.8971C46.9135 30.8971 48.07 30.0049 48.4056 28.7252L47.1482 28.3954C46.9624 29.1034 46.3225 29.5971 45.5905 29.5971V30.8971ZM42.8594 26.9813C42.16 28.8812 43.566 30.8971 45.5905 30.8971V29.5971C44.4703 29.5971 43.6923 28.4817 44.0793 27.4304L42.8594 26.9813Z" fill="black"/>
</svg>
