<svg width="51" height="60" viewBox="0 0 51 60" fill="none" xmlns="http://www.w3.org/2000/svg">
<mask id="path-1-outside-1" maskUnits="userSpaceOnUse" x="-0.199219" y="-0.209961" width="51" height="60" fill="black">
<rect fill="white" x="-0.199219" y="-0.209961" width="51" height="60"/>
<path fill-rule="evenodd" clip-rule="evenodd" d="M13.2633 24.0221V18.5687C13.2633 18.1549 13.5977 17.8202 14.0111 17.8202L25.1051 17.8191C25.5186 17.8191 25.8529 18.1549 25.8529 18.5676V24.0317C27.4746 24.6038 29.9885 26.0207 31.4008 27.0002L29.8643 28.2002C28.6155 27.4078 26.3764 25.7746 24.9716 25.3116H14.1147C5.07068 28.3152 0.172636 38.0896 3.17449 47.1421C3.61249 48.4627 4.20752 49.7255 4.94891 50.9039C6.60367 53.529 8.93357 55.6611 11.694 57.0769H27.388C27.8357 56.8277 28.2694 56.5561 28.6871 56.2621L30.0769 57.1143C29.3889 57.6286 28.6625 58.0895 27.904 58.4947C27.8004 58.5461 27.6861 58.5728 27.5707 58.5739H11.5156C11.4002 58.5739 11.2859 58.5461 11.1823 58.4947C4.81964 55.32 0.798646 48.8166 0.800782 41.7016C0.800782 33.7622 5.7907 26.6835 13.2633 24.0221ZM14.7589 19.3161H24.3573V23.8136H14.7589V19.3161Z"/>
<path fill-rule="evenodd" clip-rule="evenodd" d="M18.9993 18.644C18.7213 18.787 18.3919 18.7006 18.2635 18.451L9.58175 1.56979C9.4534 1.32022 9.57471 1.002 9.85272 0.859027C10.1307 0.716054 10.4601 0.802468 10.5885 1.05204L19.2703 17.9333C19.3986 18.1829 19.2773 18.5011 18.9993 18.644Z"/>
<path fill-rule="evenodd" clip-rule="evenodd" d="M20.0912 18.543C19.7909 18.6302 19.4863 18.4899 19.4108 18.2298L15.2703 3.96802C15.1948 3.7079 15.3769 3.42637 15.6772 3.33921C15.9774 3.25205 16.282 3.39226 16.3575 3.65239L20.498 17.9142C20.5735 18.1743 20.3914 18.4558 20.0912 18.543Z"/>
<path fill-rule="evenodd" clip-rule="evenodd" d="M21.2079 18.4746C20.8992 18.524 20.613 18.3389 20.5685 18.0612L18.6927 6.33732C18.6483 6.05964 18.8625 5.79449 19.1712 5.7451C19.4799 5.69571 19.7661 5.88078 19.8106 6.15846L21.6864 17.8824C21.7308 18.1601 21.5166 18.4252 21.2079 18.4746Z"/>
<path d="M37.1853 39.1233L32.2245 43.9768L29.8437 41.4397C29.5797 41.1582 29.1451 41.1518 28.8736 41.4252C28.6019 41.6989 28.5957 42.1488 28.8597 42.4302L31.7152 45.4665C31.9804 45.743 32.4091 45.7525 32.6854 45.4877L38.1419 40.1568C38.2744 40.0273 38.3518 39.8486 38.3569 39.6601C38.362 39.4716 38.2946 39.2887 38.1693 39.1517C37.9038 38.8658 37.4659 38.8533 37.1853 39.1233Z"/>
<path d="M33.5041 31.654C27.8345 31.654 23.2244 36.4292 23.2244 42.3019C23.2244 48.1749 27.8345 52.9501 33.5041 52.9501C39.174 52.9501 43.7841 48.1749 43.7841 42.3019C43.7841 36.4292 39.174 31.654 33.5041 31.654ZM33.5041 51.5247C28.5914 51.5247 24.6006 47.3837 24.6006 42.3019C24.6006 37.2202 28.5914 33.0794 33.5041 33.0794C38.4217 33.0794 42.408 37.2085 42.408 42.3019C42.408 47.3954 38.4217 51.5247 33.5041 51.5247Z"/>
<path d="M47.6511 38.3819L47.8782 34.1554C47.894 33.8717 47.7451 33.6053 47.4997 33.4784L43.8666 31.5754L42.0295 27.8122C41.9046 27.5603 41.649 27.4069 41.3759 27.4202L37.2886 27.6485L33.8826 25.3177C33.653 25.161 33.3555 25.161 33.1257 25.3177L29.7197 27.6485L25.6397 27.4133C25.3655 27.3966 25.1086 27.5508 24.986 27.8053L23.1486 31.5685L19.5158 33.4714C19.2723 33.6006 19.1245 33.8653 19.1374 34.1485L19.3642 38.375L17.1143 41.9029C16.963 42.1407 16.963 42.4489 17.1143 42.6869L19.3575 46.2219L19.1304 50.4483C19.1145 50.732 19.2632 50.9985 19.5088 51.1254L23.1419 53.0283L24.979 56.7916C25.1037 57.0438 25.3593 57.1969 25.6327 57.1836L29.713 56.9483L33.119 59.2788C33.3472 59.4406 33.6477 59.4406 33.8759 59.2788L37.2818 56.9483L41.3622 57.1836C41.6361 57.2 41.893 57.0457 42.0158 56.7916L43.8529 53.0283L47.486 51.1254C47.7293 50.996 47.8774 50.7315 47.8645 50.4483L47.6373 46.2219L49.8873 42.6939C50.0386 42.4561 50.0386 42.1477 49.8873 41.9099L47.6511 38.3819ZM46.3711 45.6375C46.2873 45.765 46.2483 45.9184 46.2612 46.0723L46.4743 50.0705L43.041 51.8665C42.9101 51.9345 42.8039 52.0447 42.7383 52.1803L41.0042 55.7367L37.1442 55.5159C36.9964 55.5103 36.8504 55.5499 36.7244 55.6298L33.5041 57.8322L30.2842 55.6298C30.1724 55.5515 30.0407 55.5092 29.9057 55.5087H29.8713L26.0111 55.7297L24.2772 52.1731C24.2117 52.0375 24.1055 51.9275 23.9743 51.8596L20.534 50.0705L20.7474 46.0723C20.7527 45.9192 20.7143 45.7681 20.6372 45.6375L18.5111 42.3019L20.6372 38.9663C20.7213 38.8391 20.7603 38.6854 20.7474 38.5317L20.534 34.5332L23.9676 32.7372C24.0985 32.6693 24.2047 32.5593 24.2702 32.4238L26.0041 28.8671L29.8643 29.0882C30.0119 29.0935 30.1579 29.0539 30.2842 28.974L33.5041 26.7718L36.7244 28.974C36.8475 29.0612 36.9959 29.1015 37.1442 29.0882L41.0042 28.8671L42.7383 32.4238C42.8039 32.5593 42.9101 32.6693 43.041 32.7372L46.4743 34.5332L46.2612 38.5317C46.2558 38.6846 46.2943 38.8357 46.3711 38.9663L48.4974 42.3019L46.3711 45.6375Z"/>
</mask>
<path fill-rule="evenodd" clip-rule="evenodd" d="M13.2633 24.0221V18.5687C13.2633 18.1549 13.5977 17.8202 14.0111 17.8202L25.1051 17.8191C25.5186 17.8191 25.8529 18.1549 25.8529 18.5676V24.0317C27.4746 24.6038 29.9885 26.0207 31.4008 27.0002L29.8643 28.2002C28.6155 27.4078 26.3764 25.7746 24.9716 25.3116H14.1147C5.07068 28.3152 0.172636 38.0896 3.17449 47.1421C3.61249 48.4627 4.20752 49.7255 4.94891 50.9039C6.60367 53.529 8.93357 55.6611 11.694 57.0769H27.388C27.8357 56.8277 28.2694 56.5561 28.6871 56.2621L30.0769 57.1143C29.3889 57.6286 28.6625 58.0895 27.904 58.4947C27.8004 58.5461 27.6861 58.5728 27.5707 58.5739H11.5156C11.4002 58.5739 11.2859 58.5461 11.1823 58.4947C4.81964 55.32 0.798646 48.8166 0.800782 41.7016C0.800782 33.7622 5.7907 26.6835 13.2633 24.0221ZM14.7589 19.3161H24.3573V23.8136H14.7589V19.3161Z" fill="black"/>
<path fill-rule="evenodd" clip-rule="evenodd" d="M18.9993 18.644C18.7213 18.787 18.3919 18.7006 18.2635 18.451L9.58175 1.56979C9.4534 1.32022 9.57471 1.002 9.85272 0.859027C10.1307 0.716054 10.4601 0.802468 10.5885 1.05204L19.2703 17.9333C19.3986 18.1829 19.2773 18.5011 18.9993 18.644Z" fill="black"/>
<path fill-rule="evenodd" clip-rule="evenodd" d="M20.0912 18.543C19.7909 18.6302 19.4863 18.4899 19.4108 18.2298L15.2703 3.96802C15.1948 3.7079 15.3769 3.42637 15.6772 3.33921C15.9774 3.25205 16.282 3.39226 16.3575 3.65239L20.498 17.9142C20.5735 18.1743 20.3914 18.4558 20.0912 18.543Z" fill="black"/>
<path fill-rule="evenodd" clip-rule="evenodd" d="M21.2079 18.4746C20.8992 18.524 20.613 18.3389 20.5685 18.0612L18.6927 6.33732C18.6483 6.05964 18.8625 5.79449 19.1712 5.7451C19.4799 5.69571 19.7661 5.88078 19.8106 6.15846L21.6864 17.8824C21.7308 18.1601 21.5166 18.4252 21.2079 18.4746Z" fill="black"/>
<path d="M37.1853 39.1233L32.2245 43.9768L29.8437 41.4397C29.5797 41.1582 29.1451 41.1518 28.8736 41.4252C28.6019 41.6989 28.5957 42.1488 28.8597 42.4302L31.7152 45.4665C31.9804 45.743 32.4091 45.7525 32.6854 45.4877L38.1419 40.1568C38.2744 40.0273 38.3518 39.8486 38.3569 39.6601C38.362 39.4716 38.2946 39.2887 38.1693 39.1517C37.9038 38.8658 37.4659 38.8533 37.1853 39.1233Z" fill="black"/>
<path d="M33.5041 31.654C27.8345 31.654 23.2244 36.4292 23.2244 42.3019C23.2244 48.1749 27.8345 52.9501 33.5041 52.9501C39.174 52.9501 43.7841 48.1749 43.7841 42.3019C43.7841 36.4292 39.174 31.654 33.5041 31.654ZM33.5041 51.5247C28.5914 51.5247 24.6006 47.3837 24.6006 42.3019C24.6006 37.2202 28.5914 33.0794 33.5041 33.0794C38.4217 33.0794 42.408 37.2085 42.408 42.3019C42.408 47.3954 38.4217 51.5247 33.5041 51.5247Z" fill="black"/>
<path d="M47.6511 38.3819L47.8782 34.1554C47.894 33.8717 47.7451 33.6053 47.4997 33.4784L43.8666 31.5754L42.0295 27.8122C41.9046 27.5603 41.649 27.4069 41.3759 27.4202L37.2886 27.6485L33.8826 25.3177C33.653 25.161 33.3555 25.161 33.1257 25.3177L29.7197 27.6485L25.6397 27.4133C25.3655 27.3966 25.1086 27.5508 24.986 27.8053L23.1486 31.5685L19.5158 33.4714C19.2723 33.6006 19.1245 33.8653 19.1374 34.1485L19.3642 38.375L17.1143 41.9029C16.963 42.1407 16.963 42.4489 17.1143 42.6869L19.3575 46.2219L19.1304 50.4483C19.1145 50.732 19.2632 50.9985 19.5088 51.1254L23.1419 53.0283L24.979 56.7916C25.1037 57.0438 25.3593 57.1969 25.6327 57.1836L29.713 56.9483L33.119 59.2788C33.3472 59.4406 33.6477 59.4406 33.8759 59.2788L37.2818 56.9483L41.3622 57.1836C41.6361 57.2 41.893 57.0457 42.0158 56.7916L43.8529 53.0283L47.486 51.1254C47.7293 50.996 47.8774 50.7315 47.8645 50.4483L47.6373 46.2219L49.8873 42.6939C50.0386 42.4561 50.0386 42.1477 49.8873 41.9099L47.6511 38.3819ZM46.3711 45.6375C46.2873 45.765 46.2483 45.9184 46.2612 46.0723L46.4743 50.0705L43.041 51.8665C42.9101 51.9345 42.8039 52.0447 42.7383 52.1803L41.0042 55.7367L37.1442 55.5159C36.9964 55.5103 36.8504 55.5499 36.7244 55.6298L33.5041 57.8322L30.2842 55.6298C30.1724 55.5515 30.0407 55.5092 29.9057 55.5087H29.8713L26.0111 55.7297L24.2772 52.1731C24.2117 52.0375 24.1055 51.9275 23.9743 51.8596L20.534 50.0705L20.7474 46.0723C20.7527 45.9192 20.7143 45.7681 20.6372 45.6375L18.5111 42.3019L20.6372 38.9663C20.7213 38.8391 20.7603 38.6854 20.7474 38.5317L20.534 34.5332L23.9676 32.7372C24.0985 32.6693 24.2047 32.5593 24.2702 32.4238L26.0041 28.8671L29.8643 29.0882C30.0119 29.0935 30.1579 29.0539 30.2842 28.974L33.5041 26.7718L36.7244 28.974C36.8475 29.0612 36.9959 29.1015 37.1442 29.0882L41.0042 28.8671L42.7383 32.4238C42.8039 32.5593 42.9101 32.6693 43.041 32.7372L46.4743 34.5332L46.2612 38.5317C46.2558 38.6846 46.2943 38.8357 46.3711 38.9663L48.4974 42.3019L46.3711 45.6375Z" fill="black"/>
<path d="M32.4079 57.604L32.4075 57.654H32.4079V57.604ZM32.4592 57.554H32.4079V57.654H32.4592V57.554ZM32.4082 57.554C31.6126 57.5487 30.8266 57.3844 30.0968 57.0684L30.057 57.1602C30.7993 57.4815 31.5986 57.6486 32.4075 57.654L32.4082 57.554ZM17.0183 17.8691H22.099V17.7691H17.0183V17.8691ZM28.7188 56.2234C28.509 56.0516 28.3108 55.866 28.1254 55.6666L28.0522 55.7347C28.2407 55.9375 28.4422 56.1261 28.6554 56.3008L28.7188 56.2234ZM28.3557 27.8205C28.3667 27.8091 28.3889 27.7993 28.4331 27.8006C28.4765 27.8018 28.5323 27.8137 28.5988 27.8346C28.7316 27.8764 28.8938 27.95 29.0607 28.0265C29.2259 28.1022 29.3957 28.1806 29.5386 28.2286C29.61 28.2525 29.6775 28.2699 29.7361 28.2748C29.7934 28.2797 29.8515 28.2735 29.895 28.2396L29.8337 28.1607C29.8198 28.1715 29.7928 28.1793 29.7445 28.1752C29.6975 28.1712 29.6388 28.1567 29.5704 28.1337C29.4337 28.0879 29.2694 28.0121 29.1024 27.9356C28.9371 27.8598 28.7688 27.7833 28.6288 27.7392C28.559 27.7172 28.4929 27.7023 28.436 27.7006C28.3797 27.699 28.323 27.7101 28.2835 27.7513L28.3557 27.8205ZM13.2633 24.0221L13.2968 24.1163L13.3633 24.0926V24.0221H13.2633ZM14.0111 17.8202V17.9202H14.0111L14.0111 17.8202ZM25.1051 17.8191V17.7191H25.1051L25.1051 17.8191ZM25.8529 24.0317H25.7529V24.1025L25.8197 24.126L25.8529 24.0317ZM31.4008 27.0002L31.4623 27.079L31.5694 26.9954L31.4578 26.918L31.4008 27.0002ZM30.0769 57.1143L30.1368 57.1944L30.2549 57.1061L30.1292 57.029L30.0769 57.1143ZM27.904 58.4947L27.9484 58.5844L27.9511 58.5829L27.904 58.4947ZM27.5707 58.5739V58.6739L27.5716 58.6739L27.5707 58.5739ZM11.1823 58.4947L11.1376 58.5842L11.1379 58.5843L11.1823 58.4947ZM0.800782 41.7016L0.900782 41.7016V41.7016H0.800782ZM24.3573 19.3161H24.4573V19.2161H24.3573V19.3161ZM14.7589 19.3161V19.2161H14.6589V19.3161H14.7589ZM14.7589 23.8136H14.6589V23.9136H14.7589V23.8136ZM24.3573 23.8136V23.9136H24.4573V23.8136H24.3573ZM4.94891 50.9039L4.86427 50.9571L4.86431 50.9572L4.94891 50.9039ZM11.694 57.0769L11.6484 57.1658L11.6698 57.1769H11.694V57.0769ZM27.388 57.0769V57.1769H27.414L27.4367 57.1642L27.388 57.0769ZM28.6871 56.2621L28.7393 56.1768L28.6833 56.1424L28.6295 56.1803L28.6871 56.2621ZM29.8643 28.2002L29.8108 28.2846L29.8703 28.3224L29.9259 28.279L29.8643 28.2002ZM24.9716 25.3116L25.0029 25.2166L24.9877 25.2116H24.9716V25.3116ZM14.1147 25.3116V25.2116H14.0985L14.0832 25.2167L14.1147 25.3116ZM3.17449 47.1421L3.07958 47.1736L3.07958 47.1736L3.17449 47.1421ZM18.2635 18.451L18.3525 18.4053L18.2635 18.451ZM9.58175 1.56979L9.49282 1.61552L9.58175 1.56979ZM10.5885 1.05204L10.6774 1.0063L10.5885 1.05204ZM19.2703 17.9333L19.1813 17.979L19.2703 17.9333ZM19.4108 18.2298L19.5069 18.2019L19.4108 18.2298ZM15.2703 3.96802L15.1743 3.9959L15.2703 3.96802ZM16.3575 3.65239L16.4535 3.6245L16.3575 3.65239ZM20.498 17.9142L20.402 17.9421L20.498 17.9142ZM20.5685 18.0612L20.4698 18.077L20.5685 18.0612ZM18.6927 6.33732L18.7914 6.32152L18.6927 6.33732ZM19.8106 6.15846L19.9093 6.14266L19.8106 6.15846ZM21.6864 17.8824L21.5876 17.8982L21.6864 17.8824ZM37.1853 39.1233L37.116 39.0513L37.1154 39.0519L37.1853 39.1233ZM32.2245 43.9768L32.1516 44.0452L32.2214 44.1197L32.2944 44.0483L32.2245 43.9768ZM29.8437 41.4397L29.7707 41.5081L29.7707 41.5081L29.8437 41.4397ZM28.8736 41.4252L28.8027 41.3547H28.8027L28.8736 41.4252ZM28.8597 42.4302L28.7867 42.4986L28.7868 42.4988L28.8597 42.4302ZM31.7152 45.4665L31.6423 45.535L31.643 45.5358L31.7152 45.4665ZM32.6854 45.4877L32.7546 45.5599L32.7553 45.5592L32.6854 45.4877ZM38.1419 40.1568L38.2118 40.2283L38.1419 40.1568ZM38.3569 39.6601L38.257 39.6574L38.3569 39.6601ZM38.1693 39.1517L38.2431 39.0843L38.2426 39.0837L38.1693 39.1517ZM47.6511 38.3819L47.5512 38.3766L47.5495 38.4085L47.5666 38.4355L47.6511 38.3819ZM47.8782 34.1554L47.7783 34.1499L47.7783 34.1501L47.8782 34.1554ZM47.4997 33.4784L47.4533 33.5669L47.4538 33.5672L47.4997 33.4784ZM43.8666 31.5754L43.7768 31.6193L43.7912 31.6488L43.8203 31.664L43.8666 31.5754ZM42.0295 27.8122L42.1194 27.7684L42.1191 27.7678L42.0295 27.8122ZM41.3759 27.4202L41.371 27.3204L41.3703 27.3204L41.3759 27.4202ZM37.2886 27.6485L37.2321 27.7311L37.2602 27.7503L37.2941 27.7484L37.2886 27.6485ZM33.8826 25.3177L33.9391 25.2352L33.939 25.2351L33.8826 25.3177ZM33.1257 25.3177L33.0694 25.2351L33.0692 25.2352L33.1257 25.3177ZM29.7197 27.6485L29.714 27.7484L29.7481 27.7503L29.7762 27.7311L29.7197 27.6485ZM25.6397 27.4133L25.6336 27.5131L25.6339 27.5131L25.6397 27.4133ZM24.986 27.8053L25.0759 27.8491L25.0761 27.8487L24.986 27.8053ZM23.1486 31.5685L23.195 31.6571L23.2241 31.6418L23.2385 31.6124L23.1486 31.5685ZM19.5158 33.4714L19.4694 33.3828L19.469 33.3831L19.5158 33.4714ZM19.1374 34.1485L19.0375 34.153L19.0375 34.1538L19.1374 34.1485ZM19.3642 38.375L19.4485 38.4287L19.4658 38.4017L19.4641 38.3696L19.3642 38.375ZM17.1143 41.9029L17.03 41.8492L17.0299 41.8492L17.1143 41.9029ZM17.1143 42.6869L17.1987 42.6334L17.1987 42.6333L17.1143 42.6869ZM19.3575 46.2219L19.4574 46.2272L19.4591 46.1953L19.4419 46.1683L19.3575 46.2219ZM19.1304 50.4483L19.2302 50.4539L19.2302 50.4537L19.1304 50.4483ZM19.5088 51.1254L19.5552 51.0368L19.5547 51.0366L19.5088 51.1254ZM23.1419 53.0283L23.2318 52.9845L23.2174 52.955L23.1883 52.9397L23.1419 53.0283ZM24.979 56.7916L24.8892 56.8354L24.8894 56.8359L24.979 56.7916ZM25.6327 57.1836L25.6376 57.2834L25.6384 57.2834L25.6327 57.1836ZM29.713 56.9483L29.7695 56.8658L29.7413 56.8465L29.7073 56.8485L29.713 56.9483ZM33.119 59.2788L33.1768 59.1972L33.1755 59.1963L33.119 59.2788ZM33.8759 59.2788L33.8194 59.1963L33.818 59.1973L33.8759 59.2788ZM37.2818 56.9483L37.2876 56.8485L37.2535 56.8465L37.2254 56.8658L37.2818 56.9483ZM41.3622 57.1836L41.3682 57.0837L41.3679 57.0837L41.3622 57.1836ZM42.0158 56.7916L41.926 56.7477L41.9258 56.748L42.0158 56.7916ZM43.8529 53.0283L43.8065 52.9397L43.7775 52.955L43.7631 52.9845L43.8529 53.0283ZM47.486 51.1254L47.5324 51.214L47.533 51.2137L47.486 51.1254ZM47.8645 50.4483L47.9644 50.4438L47.9643 50.443L47.8645 50.4483ZM47.6373 46.2219L47.553 46.1681L47.5358 46.1952L47.5375 46.2272L47.6373 46.2219ZM49.8873 42.6939L49.9716 42.7477L49.9717 42.7476L49.8873 42.6939ZM49.8873 41.9099L49.8028 41.9634L49.8029 41.9636L49.8873 41.9099ZM46.3711 45.6375L46.4547 45.6924L46.4555 45.6912L46.3711 45.6375ZM46.2612 46.0723L46.3611 46.067L46.3608 46.064L46.2612 46.0723ZM46.4743 50.0705L46.5207 50.1592L46.5776 50.1294L46.5742 50.0652L46.4743 50.0705ZM43.041 51.8665L43.087 51.9553L43.0873 51.9552L43.041 51.8665ZM42.7383 52.1803L42.8282 52.2241L42.8283 52.2239L42.7383 52.1803ZM41.0042 55.7367L40.9984 55.8365L41.0649 55.8403L41.094 55.7805L41.0042 55.7367ZM37.1442 55.5159L37.1499 55.416L37.148 55.416L37.1442 55.5159ZM36.7244 55.6298L36.6708 55.5452L36.6679 55.5472L36.7244 55.6298ZM33.5041 57.8322L33.4477 57.9148L33.5041 57.9534L33.5606 57.9148L33.5041 57.8322ZM30.2842 55.6298L30.2268 55.7117L30.2277 55.7123L30.2842 55.6298ZM29.9057 55.5087L29.9061 55.4087H29.9057V55.5087ZM29.8713 55.5087V55.4085L29.8656 55.4088L29.8713 55.5087ZM26.0111 55.7297L25.9212 55.7735L25.9504 55.8334L26.0168 55.8295L26.0111 55.7297ZM24.2772 52.1731L24.1872 52.2166L24.1873 52.2169L24.2772 52.1731ZM23.9743 51.8596L23.9282 51.9483L23.9283 51.9484L23.9743 51.8596ZM20.534 50.0705L20.4341 50.0652L20.4307 50.1295L20.4878 50.1593L20.534 50.0705ZM20.7474 46.0723L20.8472 46.0777L20.8473 46.0759L20.7474 46.0723ZM20.6372 45.6375L20.7233 45.5866L20.7215 45.5837L20.6372 45.6375ZM18.5111 42.3019L18.4268 42.2481L18.3925 42.3019L18.4268 42.3556L18.5111 42.3019ZM20.6372 38.9663L20.5537 38.9111L20.5528 38.9126L20.6372 38.9663ZM20.7474 38.5317L20.6475 38.537L20.6477 38.5401L20.7474 38.5317ZM20.534 34.5332L20.4876 34.4446L20.4307 34.4744L20.4341 34.5386L20.534 34.5332ZM23.9676 32.7372L23.9215 32.6485L23.9213 32.6486L23.9676 32.7372ZM24.2702 32.4238L24.1804 32.3799L24.1802 32.3802L24.2702 32.4238ZM26.0041 28.8671L26.0099 28.7673L25.9434 28.7635L25.9143 28.8233L26.0041 28.8671ZM29.8643 29.0882L29.8586 29.188L29.8608 29.1881L29.8643 29.0882ZM30.2842 28.974L30.3377 29.0586L30.3406 29.0566L30.2842 28.974ZM33.5041 26.7718L33.5606 26.6893L33.5041 26.6507L33.4477 26.6893L33.5041 26.7718ZM36.7244 28.974L36.7822 28.8924L36.7808 28.8915L36.7244 28.974ZM37.1442 29.0882L37.1385 28.9883L37.1352 28.9886L37.1442 29.0882ZM41.0042 28.8671L41.094 28.8233L41.0649 28.7635L40.9984 28.7673L41.0042 28.8671ZM42.7383 32.4238L42.8283 32.3802L42.8282 32.3799L42.7383 32.4238ZM43.041 32.7372L43.0873 32.6486L43.087 32.6485L43.041 32.7372ZM46.4743 34.5332L46.5742 34.5386L46.5776 34.4744L46.5207 34.4446L46.4743 34.5332ZM46.2612 38.5317L46.1613 38.5264L46.1613 38.5282L46.2612 38.5317ZM46.3711 38.9663L46.2849 39.0171L46.2868 39.0201L46.3711 38.9663ZM48.4974 42.3019L48.5818 42.3556L48.616 42.3019L48.5818 42.2481L48.4974 42.3019ZM13.3633 24.0221V18.5687H13.1633V24.0221H13.3633ZM13.3633 18.5687C13.3633 18.21 13.653 17.9202 14.0111 17.9202V17.7202C13.5423 17.7202 13.1633 18.0998 13.1633 18.5687H13.3633ZM25.1051 17.9191C25.4632 17.9191 25.7529 18.2099 25.7529 18.5676H25.9529C25.9529 18.0998 25.574 17.7191 25.1051 17.7191V17.9191ZM25.7529 18.5676V24.0317H25.9529V18.5676H25.7529ZM25.8197 24.126C27.43 24.6941 29.9358 26.1058 31.3438 27.0823L31.4578 26.918C30.0413 25.9356 27.5192 24.5135 25.8862 23.9374L25.8197 24.126ZM30.017 57.0342C29.3331 57.5455 28.611 58.0036 27.8569 58.4065L27.9511 58.5829C28.714 58.1753 29.4447 57.7118 30.1368 57.1944L30.017 57.0342ZM27.8596 58.4051C27.7698 58.4496 27.6704 58.4729 27.5698 58.4739L27.5716 58.6739C27.7018 58.6726 27.831 58.6425 27.9484 58.5843L27.8596 58.4051ZM11.5156 58.4739C11.4162 58.4739 11.3171 58.4499 11.2267 58.4051L11.1379 58.5843C11.2548 58.6422 11.3842 58.6739 11.5156 58.6739V58.4739ZM11.2269 58.4052C4.89823 55.2475 0.898657 48.7788 0.900782 41.7016L0.700782 41.7016C0.698634 48.8545 4.74105 55.3926 11.1376 58.5842L11.2269 58.4052ZM0.900782 41.7016C0.900782 33.8044 5.86414 26.7635 13.2968 24.1163L13.2297 23.9279C5.71726 26.6035 0.700782 33.7199 0.700782 41.7016H0.900782ZM24.3573 19.2161H14.7589V19.4161H24.3573V19.2161ZM14.6589 19.3161V23.8136H14.8589V19.3161H14.6589ZM14.7589 23.9136H24.3573V23.7136H14.7589V23.9136ZM24.4573 23.8136V19.3161H24.2573V23.8136H24.4573ZM4.86431 50.9572C6.52863 53.5975 8.87199 55.7419 11.6484 57.1658L11.7396 56.9879C8.99516 55.5803 6.67871 53.4605 5.0335 50.8506L4.86431 50.9572ZM11.694 57.1769H27.388V56.9769H11.694V57.1769ZM27.4367 57.1642C27.8873 56.9134 28.324 56.64 28.7446 56.3438L28.6295 56.1803C28.2148 56.4723 27.784 56.742 27.3394 56.9895L27.4367 57.1642ZM29.9179 28.1157C29.6069 27.9184 29.234 27.6686 28.826 27.3965C28.4186 27.1247 27.9768 26.8312 27.53 26.5479C26.6389 25.983 25.7185 25.4525 25.0029 25.2166L24.9403 25.4066C25.6295 25.6338 26.531 26.1514 27.4229 26.7168C27.8676 26.9988 28.3076 27.2911 28.7151 27.5629C29.122 27.8343 29.4973 28.0857 29.8108 28.2846L29.9179 28.1157ZM24.9716 25.2116H14.1147V25.4116H24.9716V25.2116ZM14.0832 25.2167C4.98669 28.2378 0.0603663 38.0687 3.07958 47.1736L3.26941 47.1107C0.284906 38.1104 5.15467 28.3927 14.1462 25.4065L14.0832 25.2167ZM3.07958 47.1736C3.52009 48.5018 4.11857 49.7719 4.86427 50.9571L5.03355 50.8506C4.29647 49.6791 3.70488 48.4236 3.26941 47.1107L3.07958 47.1736ZM30.1292 57.029L28.7393 56.1768L28.6348 56.3473L30.0246 57.1995L30.1292 57.029ZM29.9259 28.279L31.4623 27.079L31.3392 26.9213L29.8028 28.1213L29.9259 28.279ZM18.1746 18.4968C18.3327 18.8042 18.7272 18.8964 19.045 18.733L18.9536 18.5551C18.7154 18.6776 18.451 18.597 18.3525 18.4053L18.1746 18.4968ZM9.49282 1.61552L18.1746 18.4968L18.3525 18.4053L9.67067 1.52405L9.49282 1.61552ZM9.80698 0.770099C9.48913 0.933564 9.33469 1.30806 9.49282 1.61552L9.67067 1.52405C9.5721 1.33238 9.6603 1.07044 9.89845 0.947956L9.80698 0.770099ZM10.6774 1.0063C10.5193 0.698837 10.1248 0.606633 9.80698 0.770099L9.89845 0.947956C10.1366 0.825475 10.401 0.906098 10.4996 1.09777L10.6774 1.0063ZM19.3592 17.8876L10.6774 1.0063L10.4996 1.09777L19.1813 17.979L19.3592 17.8876ZM19.045 18.733C19.3629 18.5695 19.5173 18.195 19.3592 17.8876L19.1813 17.979C19.2799 18.1707 19.1917 18.4326 18.9536 18.5551L19.045 18.733ZM19.3148 18.2577C19.4093 18.5833 19.7792 18.7377 20.119 18.639L20.0633 18.447C19.8027 18.5226 19.5634 18.3966 19.5069 18.2019L19.3148 18.2577ZM15.1743 3.9959L19.3148 18.2577L19.5069 18.2019L15.3663 3.94014L15.1743 3.9959ZM15.6493 3.24317C15.3094 3.34184 15.0797 3.67028 15.1743 3.9959L15.3663 3.94014C15.3098 3.74552 15.4445 3.51089 15.705 3.43524L15.6493 3.24317ZM16.4535 3.6245C16.359 3.29888 15.9891 3.1445 15.6493 3.24317L15.705 3.43524C15.9656 3.35959 16.2049 3.48564 16.2615 3.68027L16.4535 3.6245ZM20.594 17.8863L16.4535 3.6245L16.2615 3.68027L20.402 17.9421L20.594 17.8863ZM20.119 18.639C20.4589 18.5404 20.6886 18.2119 20.594 17.8863L20.402 17.9421C20.4585 18.1367 20.3238 18.3713 20.0633 18.447L20.119 18.639ZM20.4698 18.077C20.5245 18.4188 20.8706 18.6299 21.2237 18.5733L21.1921 18.3759C20.9279 18.4181 20.7014 18.259 20.6673 18.0454L20.4698 18.077ZM18.594 6.35312L20.4698 18.077L20.6673 18.0454L18.7914 6.32152L18.594 6.35312ZM19.1554 5.64636C18.8023 5.70286 18.5393 6.01133 18.594 6.35312L18.7914 6.32152C18.7573 6.10794 18.9227 5.88613 19.187 5.84385L19.1554 5.64636ZM19.9093 6.14266C19.8546 5.80087 19.5085 5.58986 19.1554 5.64636L19.187 5.84385C19.4512 5.80157 19.6776 5.96069 19.7118 6.17426L19.9093 6.14266ZM21.7851 17.8666L19.9093 6.14266L19.7118 6.17426L21.5876 17.8982L21.7851 17.8666ZM21.2237 18.5733C21.5768 18.5168 21.8398 18.2084 21.7851 17.8666L21.5876 17.8982C21.6218 18.1118 21.4564 18.3336 21.1921 18.3759L21.2237 18.5733ZM37.1154 39.0519L32.1546 43.9053L32.2944 44.0483L37.2553 39.1948L37.1154 39.0519ZM32.2974 43.9084L29.9166 41.3712L29.7707 41.5081L32.1516 44.0452L32.2974 43.9084ZM29.9166 41.3713C29.614 41.0486 29.1141 41.0411 28.8027 41.3547L28.9446 41.4957C29.1761 41.2625 29.5454 41.2678 29.7707 41.5081L29.9166 41.3713ZM28.8027 41.3547C28.4929 41.6667 28.486 42.178 28.7867 42.4986L28.9326 42.3618C28.7054 42.1196 28.7108 41.7311 28.9446 41.4957L28.8027 41.3547ZM28.7868 42.4988L31.6423 45.535L31.788 45.398L28.9325 42.3617L28.7868 42.4988ZM31.643 45.5358C31.9464 45.8519 32.4383 45.863 32.7546 45.5599L32.6163 45.4155C32.3799 45.6419 32.0145 45.634 31.7873 45.3973L31.643 45.5358ZM32.7553 45.5592L38.2118 40.2283L38.072 40.0853L32.6156 45.4162L32.7553 45.5592ZM38.2118 40.2283C38.3633 40.0803 38.4511 39.8768 38.4569 39.6628L38.257 39.6574C38.2526 39.8204 38.1856 39.9743 38.072 40.0853L38.2118 40.2283ZM38.4569 39.6628C38.4627 39.4489 38.3862 39.2407 38.2431 39.0843L38.0955 39.2192C38.203 39.3367 38.2614 39.4943 38.257 39.6574L38.4569 39.6628ZM38.2426 39.0837C37.9391 38.7569 37.437 38.7424 37.116 39.0513L37.2547 39.1954C37.4949 38.9642 37.8685 38.9747 38.0961 39.2198L38.2426 39.0837ZM33.5041 31.554C27.776 31.554 23.1244 36.3773 23.1244 42.3019H23.3244C23.3244 36.4811 27.893 31.754 33.5041 31.754V31.554ZM23.1244 42.3019C23.1244 48.2268 27.776 53.0501 33.5041 53.0501V52.8501C27.893 52.8501 23.3244 48.123 23.3244 42.3019H23.1244ZM33.5041 53.0501C39.2326 53.0501 43.8841 48.2268 43.8841 42.3019H43.6841C43.6841 48.123 39.1155 52.8501 33.5041 52.8501V53.0501ZM43.8841 42.3019C43.8841 36.3773 39.2326 31.554 33.5041 31.554V31.754C39.1155 31.754 43.6841 36.4811 43.6841 42.3019H43.8841ZM33.5041 51.4247C28.65 51.4247 24.7006 47.3318 24.7006 42.3019H24.5006C24.5006 47.4355 28.5328 51.6247 33.5041 51.6247V51.4247ZM24.7006 42.3019C24.7006 37.272 28.65 33.1794 33.5041 33.1794V32.9794C28.5328 32.9794 24.5006 37.1683 24.5006 42.3019H24.7006ZM33.5041 33.1794C38.3632 33.1794 42.308 37.2604 42.308 42.3019H42.508C42.508 37.1566 38.4802 32.9794 33.5041 32.9794V33.1794ZM42.308 42.3019C42.308 47.3435 38.3632 51.4247 33.5041 51.4247V51.6247C38.4802 51.6247 42.508 47.4472 42.508 42.3019H42.308ZM47.7509 38.3873L47.978 34.1608L47.7783 34.1501L47.5512 38.3766L47.7509 38.3873ZM47.978 34.161C47.996 33.8394 47.8273 33.5353 47.5457 33.3895L47.4538 33.5672C47.6629 33.6754 47.7921 33.904 47.7783 34.1499L47.978 34.161ZM47.5461 33.3898L43.913 31.4869L43.8203 31.664L47.4533 33.5669L47.5461 33.3898ZM43.9565 31.5316L42.1194 27.7684L41.9397 27.8561L43.7768 31.6193L43.9565 31.5316ZM42.1191 27.7678C41.9772 27.4816 41.6853 27.305 41.371 27.3204L41.3808 27.5201C41.6126 27.5088 41.832 27.639 41.94 27.8567L42.1191 27.7678ZM41.3703 27.3204L37.283 27.5487L37.2941 27.7484L41.3815 27.5201L41.3703 27.3204ZM37.345 27.566L33.9391 25.2352L33.8261 25.4002L37.2321 27.7311L37.345 27.566ZM33.939 25.2351C33.6754 25.0551 33.3331 25.0552 33.0694 25.2351L33.1821 25.4003C33.3779 25.2667 33.6307 25.2668 33.8262 25.4003L33.939 25.2351ZM33.0692 25.2352L29.6633 27.566L29.7762 27.7311L33.1822 25.4002L33.0692 25.2352ZM29.7255 27.5487L25.6454 27.3134L25.6339 27.5131L29.714 27.7484L29.7255 27.5487ZM25.6458 27.3135C25.3295 27.2942 25.0354 27.4722 24.8959 27.7619L25.0761 27.8487C25.1817 27.6294 25.4015 27.4989 25.6336 27.5131L25.6458 27.3135ZM24.8961 27.7614L23.0588 31.5246L23.2385 31.6124L25.0759 27.8491L24.8961 27.7614ZM23.1022 31.4799L19.4694 33.3828L19.5622 33.56L23.195 31.6571L23.1022 31.4799ZM19.469 33.3831C19.19 33.531 19.0229 33.8327 19.0375 34.153L19.2373 34.1439C19.2261 33.8979 19.3546 33.6701 19.5627 33.5597L19.469 33.3831ZM19.0375 34.1538L19.2644 38.3803L19.4641 38.3696L19.2372 34.1431L19.0375 34.1538ZM19.2799 38.3212L17.03 41.8492L17.1986 41.9567L19.4485 38.4287L19.2799 38.3212ZM17.0299 41.8492C16.8577 42.1198 16.8578 42.4698 17.0299 42.7406L17.1987 42.6333C17.0681 42.428 17.0682 42.1616 17.1986 41.9566L17.0299 41.8492ZM17.0298 42.7405L19.2731 46.2754L19.4419 46.1683L17.1987 42.6334L17.0298 42.7405ZM19.2577 46.2165L19.0305 50.443L19.2302 50.4537L19.4574 46.2272L19.2577 46.2165ZM19.0305 50.4428C19.0126 50.7643 19.1809 51.0685 19.4629 51.2143L19.5547 51.0366C19.3454 50.9284 19.2165 50.6998 19.2302 50.4539L19.0305 50.4428ZM19.4624 51.214L23.0955 53.1169L23.1883 52.9397L19.5552 51.0368L19.4624 51.214ZM23.052 53.0722L24.8892 56.8354L25.0689 56.7477L23.2318 52.9845L23.052 53.0722ZM24.8894 56.8359C25.0311 57.1225 25.3231 57.2988 25.6376 57.2834L25.6278 57.0837C25.3956 57.095 25.1763 56.965 25.0687 56.7472L24.8894 56.8359ZM25.6384 57.2834L29.7188 57.0481L29.7073 56.8485L25.6269 57.0837L25.6384 57.2834ZM29.6565 57.0308L33.0625 59.3614L33.1755 59.1963L29.7695 56.8658L29.6565 57.0308ZM33.0612 59.3604C33.324 59.5467 33.6709 59.5467 33.9337 59.3604L33.818 59.1973C33.6245 59.3344 33.3704 59.3344 33.1768 59.1973L33.0612 59.3604ZM33.9323 59.3614L37.3383 57.0308L37.2254 56.8658L33.8194 59.1963L33.9323 59.3614ZM37.2761 57.0481L41.3564 57.2834L41.3679 57.0837L37.2876 56.8485L37.2761 57.0481ZM41.3562 57.2834C41.6721 57.3023 41.9661 57.1243 42.1059 56.8351L41.9258 56.748C41.8199 56.9672 41.6 57.0976 41.3682 57.0837L41.3562 57.2834ZM42.1057 56.8354L43.9428 53.0722L43.7631 52.9845L41.926 56.7477L42.1057 56.8354ZM43.8993 53.1169L47.5324 51.214L47.4396 51.0368L43.8065 52.9397L43.8993 53.1169ZM47.533 51.2137C47.8115 51.0655 47.979 50.7642 47.9644 50.4438L47.7646 50.4529C47.7758 50.6988 47.6471 50.9264 47.439 51.0371L47.533 51.2137ZM47.9643 50.443L47.7372 46.2165L47.5375 46.2272L47.7646 50.4537L47.9643 50.443ZM47.7217 46.2756L49.9716 42.7477L49.803 42.6401L47.553 46.1681L47.7217 46.2756ZM49.9717 42.7476C50.1438 42.4771 50.1438 42.1267 49.9717 41.8562L49.8029 41.9636C49.9334 42.1686 49.9334 42.4352 49.8029 42.6402L49.9717 42.7476ZM49.9718 41.8564L47.7355 38.3284L47.5666 38.4355L49.8028 41.9634L49.9718 41.8564ZM46.2876 45.5825C46.1913 45.7289 46.1468 45.9046 46.1615 46.0807L46.3608 46.064C46.3498 45.9322 46.3832 45.8011 46.4547 45.6924L46.2876 45.5825ZM46.1613 46.0777L46.3745 50.0759L46.5742 50.0652L46.3611 46.067L46.1613 46.0777ZM46.428 49.9819L42.9946 51.7779L43.0873 51.9552L46.5207 50.1592L46.428 49.9819ZM42.9949 51.7778C42.8443 51.8559 42.723 51.9823 42.6483 52.1368L42.8283 52.2239C42.8848 52.1072 42.9758 52.013 43.087 51.9553L42.9949 51.7778ZM42.6484 52.1365L40.9143 55.6928L41.094 55.7805L42.8282 52.2241L42.6484 52.1365ZM41.0099 55.6368L37.1499 55.4161L37.1385 55.6157L40.9984 55.8365L41.0099 55.6368ZM37.148 55.416C36.9798 55.4096 36.8139 55.4546 36.6708 55.5453L36.7779 55.7142C36.887 55.6451 37.013 55.611 37.1405 55.6158L37.148 55.416ZM36.6679 55.5472L33.4477 57.7497L33.5606 57.9148L36.7808 55.7123L36.6679 55.5472ZM33.5606 57.7497L30.3406 55.5472L30.2277 55.7123L33.4477 57.9148L33.5606 57.7497ZM30.3415 55.5478C30.2133 55.4581 30.0618 55.4093 29.9061 55.4087L29.9053 55.6087C30.0195 55.6091 30.1314 55.6449 30.2268 55.7117L30.3415 55.5478ZM29.9057 55.4087H29.8713V55.6087H29.9057V55.4087ZM29.8656 55.4088L26.0054 55.6299L26.0168 55.8295L29.877 55.6085L29.8656 55.4088ZM26.101 55.6859L24.3671 52.1292L24.1873 52.2169L25.9212 55.7735L26.101 55.6859ZM24.3673 52.1295C24.2925 51.975 24.1711 51.8489 24.0203 51.7708L23.9283 51.9484C24.0399 52.0061 24.1308 52.1 24.1872 52.2166L24.3673 52.1295ZM24.0205 51.7709L20.5801 49.9818L20.4878 50.1593L23.9282 51.9483L24.0205 51.7709ZM20.6338 50.0759L20.8472 46.0777L20.6475 46.067L20.4341 50.0652L20.6338 50.0759ZM20.8473 46.0759C20.8533 45.9038 20.8102 45.7337 20.7233 45.5866L20.5511 45.6883C20.6184 45.8024 20.6521 45.9347 20.6474 46.0688L20.8473 46.0759ZM20.7215 45.5837L18.5954 42.2481L18.4268 42.3556L20.5528 45.6912L20.7215 45.5837ZM18.5954 42.3556L20.7215 39.0201L20.5528 38.9126L18.4268 42.2481L18.5954 42.3556ZM20.7206 39.0215C20.8172 38.8753 20.8618 38.6992 20.847 38.5233L20.6477 38.5401C20.6588 38.6716 20.6253 38.8029 20.5537 38.9111L20.7206 39.0215ZM20.8472 38.5264L20.6338 34.5279L20.4341 34.5386L20.6475 38.537L20.8472 38.5264ZM20.5803 34.6218L24.014 32.8258L23.9213 32.6486L20.4876 34.4446L20.5803 34.6218ZM24.0137 32.826C24.1641 32.7479 24.2855 32.6219 24.3603 32.4673L24.1802 32.3802C24.1238 32.4968 24.0329 32.5907 23.9215 32.6485L24.0137 32.826ZM24.3601 32.4676L26.094 28.9109L25.9143 28.8233L24.1804 32.3799L24.3601 32.4676ZM25.9984 28.9669L29.8586 29.188L29.8701 28.9883L26.0099 28.7673L25.9984 28.9669ZM29.8608 29.1881C30.0286 29.1941 30.1944 29.1491 30.3376 29.0585L30.2307 28.8895C30.1213 28.9587 29.9952 28.9928 29.8679 28.9882L29.8608 29.1881ZM30.3406 29.0566L33.5606 26.8544L33.4477 26.6893L30.2277 28.8915L30.3406 29.0566ZM33.4477 26.8544L36.6679 29.0566L36.7808 28.8915L33.5606 26.6893L33.4477 26.8544ZM36.6666 29.0556C36.8088 29.1563 36.9808 29.2033 37.1532 29.1878L37.1352 28.9886C37.0109 28.9998 36.8861 28.966 36.7822 28.8924L36.6666 29.0556ZM37.1499 29.188L41.0099 28.9669L40.9984 28.7673L37.1385 28.9883L37.1499 29.188ZM40.9143 28.9109L42.6484 32.4676L42.8282 32.3799L41.094 28.8233L40.9143 28.9109ZM42.6483 32.4673C42.7231 32.6219 42.8444 32.7479 42.9949 32.826L43.087 32.6485C42.9757 32.5907 42.8847 32.4968 42.8283 32.3802L42.6483 32.4673ZM42.9946 32.8258L46.428 34.6218L46.5207 34.4446L43.0873 32.6486L42.9946 32.8258ZM46.3745 34.5279L46.1613 38.5264L46.3611 38.537L46.5742 34.5386L46.3745 34.5279ZM46.1613 38.5282C46.1552 38.7 46.1984 38.87 46.285 39.017L46.4573 38.9156C46.3901 38.8014 46.3564 38.6691 46.3611 38.5352L46.1613 38.5282ZM46.2868 39.0201L48.4131 42.3556L48.5818 42.2481L46.4555 38.9126L46.2868 39.0201ZM48.4131 42.2481L46.2868 45.5837L46.4555 45.6912L48.5818 42.3556L48.4131 42.2481ZM14.0111 17.9202L25.1051 17.9191L25.1051 17.7191L14.0111 17.7202L14.0111 17.9202ZM27.5707 58.4739H11.5156V58.6739H27.5707V58.4739Z" fill="black" mask="url(#path-1-outside-1)"/>
</svg>
