<svg width="60" height="56" viewBox="0 0 60 56" fill="none" xmlns="http://www.w3.org/2000/svg">
<path fill-rule="evenodd" clip-rule="evenodd" d="M36.7537 13.1897C36.7537 10.2769 34.31 7.9603 31.4013 8.11582C28.7044 8.26002 26.5915 10.4889 26.5915 13.1897L26.5915 13.9024C26.5916 17.0047 29.1953 19.4715 32.2931 19.304C34.1514 19.2035 35.8276 18.1549 36.7309 16.5278L36.8517 16.3101C37.0608 15.9335 37.5356 15.7976 37.9123 16.0067C38.2889 16.2158 38.4247 16.6906 38.2157 17.0673L38.0948 17.285C37.0586 19.1517 35.2326 20.4275 33.1545 20.7759C33.2215 20.8731 33.3046 20.9827 33.4064 21.1043C33.5069 21.2244 33.6176 21.3469 33.7355 21.47C33.7372 21.4718 33.7389 21.4736 33.7406 21.4754C33.9879 21.7334 34.2668 21.9945 34.5508 22.2437C34.6931 22.3685 34.8348 22.4887 34.9721 22.6024V22.4249C34.9721 21.9941 35.3213 21.6449 35.7521 21.6449C36.1829 21.6449 36.5321 21.9941 36.5321 22.4249V24.1877C36.5321 24.3407 36.4871 24.4903 36.4027 24.618L34.6279 27.3018C34.5045 27.4883 34.3468 27.6519 34.2432 27.7593L34.2321 27.7708C34.1061 27.9015 34.043 27.9692 34.0032 28.0271C33.982 28.0579 33.9757 28.077 33.9739 28.0839C33.9721 28.0904 33.9723 28.0935 33.9725 28.096C33.973 28.1009 33.9784 28.1364 34.0274 28.1942C34.1354 28.3213 34.364 28.4436 34.6241 28.4436H34.871C35.1891 28.4436 35.4897 28.2981 35.6871 28.0487L38.5268 24.4596V22.9041C38.5268 22.4733 38.876 22.1241 39.3068 22.1241C39.7376 22.1241 40.0868 22.4733 40.0868 22.9041V23.9508H40.3289V16.4265H38.9404C38.5096 16.4265 38.1604 16.0772 38.1604 15.6465C38.1604 15.2157 38.5096 14.8665 38.9404 14.8665H41.2323C44.9624 14.8665 47.9862 17.8903 47.9862 21.6204V24.7408H50.0945C51.5478 24.7408 52.7259 25.9189 52.7259 27.3722V28.1763C52.7259 29.1855 51.9078 30.0036 50.8986 30.0036C50.4139 30.0036 49.9492 29.8111 49.6065 29.4684L49.4002 29.2621C49.1529 29.0148 48.7918 28.9195 48.4547 29.0125L44.5241 30.0968C43.8228 30.2903 43.0952 30.0156 42.6885 29.4496L41.7887 29.2136C40.3905 28.8468 39.4155 27.5832 39.4155 26.1377V25.8505L36.9105 29.0166C36.4172 29.64 35.6659 30.0036 34.871 30.0036H34.6241C33.9317 30.0036 33.2587 29.6993 32.838 29.2035C32.6227 28.9499 32.4571 28.6248 32.42 28.249C32.382 27.8635 32.4855 27.4811 32.7176 27.1435C32.8371 26.9695 32.9883 26.813 33.089 26.7088C33.0959 26.7017 33.1025 26.6948 33.1089 26.6883C33.2315 26.561 33.2915 26.4946 33.3267 26.4413L34.6936 24.3742C34.4811 24.2113 34.2263 24.0107 33.9546 23.7852V24.1877C33.9546 24.3718 33.8896 24.5499 33.7709 24.6905L30.0623 29.0886C29.705 29.5123 29.1791 29.7568 28.6248 29.7568C27.9247 29.7568 27.3312 29.3792 27.0208 28.8433C26.703 28.2949 26.6802 27.5673 27.1348 26.9643C27.209 26.8659 27.2875 26.7684 27.3686 26.6784C27.43 26.6103 27.5138 26.5243 27.578 26.4584C27.6074 26.4283 27.6326 26.4024 27.6499 26.3843C27.7278 26.3022 27.7727 26.2473 27.8016 26.2021L29.4912 23.5643V20.4355C29.4912 20.4259 29.4913 20.4163 29.4917 20.4068C26.8927 19.4023 25.0316 16.8795 25.0315 13.9024L25.0315 13.1898C25.0315 9.65973 27.793 6.74652 31.318 6.55804C35.1197 6.35477 38.3137 9.38257 38.3137 13.1897V13.4906C38.3137 13.9214 37.9645 14.2706 37.5337 14.2706C37.1029 14.2706 36.7537 13.9214 36.7537 13.4906V13.1897ZM31.0512 20.8084V23.7927C31.0512 23.9419 31.0084 24.0879 30.928 24.2134L29.1153 27.0435C29.0066 27.2133 28.8818 27.3524 28.7816 27.4579C28.7279 27.5145 28.6883 27.5549 28.6538 27.5899C28.6094 27.6351 28.5736 27.6715 28.5277 27.7225C28.4849 27.77 28.4354 27.8305 28.3804 27.9034C28.3511 27.9424 28.3476 27.9676 28.3471 27.9814C28.3464 27.9993 28.3508 28.0272 28.3706 28.0613C28.4116 28.1322 28.5001 28.1968 28.6248 28.1968C28.7193 28.1968 28.8088 28.1551 28.8697 28.0829L32.3946 23.9028V22.3182C32.3313 22.2476 32.2696 22.1767 32.2102 22.1056C31.9105 21.7476 31.6007 21.312 31.45 20.851C31.316 20.8406 31.183 20.8263 31.0512 20.8084ZM40.9755 25.5108V26.1377C40.9755 26.8565 41.4488 27.487 42.1339 27.6905C42.1319 27.6451 42.1309 27.5996 42.1309 27.5541V25.5108H40.9755ZM42.1309 23.9508V22.9041C42.1309 22.5593 42.3573 22.2554 42.6876 22.1567L46.3951 21.0487C46.1342 18.6653 44.2606 16.7667 41.8889 16.4676V23.9508H42.1309ZM46.4262 22.6676L43.6909 23.485V27.5541C43.6909 27.7484 43.7259 27.9411 43.7941 28.1229L43.9375 28.5054C43.9635 28.5746 44.038 28.6126 44.1093 28.5929L48.0398 27.5087C48.9182 27.2663 49.859 27.5147 50.5032 28.159L50.7095 28.3653C50.7597 28.4155 50.8277 28.4436 50.8986 28.4436C51.0462 28.4436 51.1659 28.3239 51.1659 28.1763V27.3722C51.1659 26.7804 50.6862 26.3008 50.0945 26.3008H47.2062C46.7755 26.3008 46.4262 25.9515 46.4262 25.5208V22.6676ZM32.154 12.2636C32.2601 12.5951 32.1337 12.9567 31.8443 13.15C31.5549 13.3433 31.1724 13.3214 30.9069 13.0964L31.4111 12.5013C30.9069 13.0964 30.9069 13.0964 30.9069 13.0964L30.9057 13.0954L30.9041 13.094L30.8994 13.0901L30.8851 13.0777C30.8734 13.0675 30.8574 13.0534 30.8378 13.0357C30.7985 13.0004 30.7444 12.9506 30.6805 12.8887C30.5541 12.7662 30.3837 12.5909 30.2146 12.3839C30.0482 12.1803 29.8656 11.925 29.7311 11.6423C29.6009 11.3685 29.4799 10.9942 29.5408 10.5846C29.6041 10.1585 30.0009 9.86446 30.427 9.92779C30.8512 9.99084 31.1445 10.3844 31.0846 10.8083C31.0846 10.8083 31.0849 10.8103 31.0853 10.8139C31.1216 10.7596 31.1588 10.707 31.1966 10.6561C31.3952 10.3893 31.6318 10.1438 31.878 9.95689C32.0911 9.79521 32.4382 9.57931 32.8392 9.57931C33.2699 9.57931 33.6192 9.92853 33.6192 10.3593C33.6192 10.7635 33.3117 11.0959 32.918 11.1354C32.9005 11.1447 32.8684 11.1637 32.821 11.1997C32.7074 11.2859 32.5716 11.4215 32.4482 11.5874C32.3244 11.7537 32.2343 11.922 32.1874 12.064C32.1434 12.1971 32.153 12.257 32.154 12.2636ZM33.0762 16.5928C33.3319 16.9395 33.258 17.4278 32.9113 17.6834C32.2612 18.1627 31.6134 18.3368 31.0111 18.2577C30.4277 18.181 29.9931 17.8806 29.7196 17.6072C29.415 17.3025 29.415 16.8087 29.7196 16.5041C30.0242 16.1995 30.5181 16.1995 30.8227 16.5041C30.9277 16.6091 31.0631 16.6911 31.2144 16.711C31.3468 16.7284 31.5984 16.7133 31.9855 16.4278C32.3323 16.1722 32.8206 16.246 33.0762 16.5928Z" fill="black"/>
<path fill-rule="evenodd" clip-rule="evenodd" d="M38.0799 14.8631C38.0799 14.5092 37.7931 14.2224 37.4392 14.2224V12.6624C38.6546 12.6624 39.6399 13.6477 39.6399 14.8631V15.374C39.6399 16.5894 38.6546 17.5747 37.4392 17.5747V16.0147C37.7931 16.0147 38.0799 15.7278 38.0799 15.374V14.8631Z" fill="black"/>
<path fill-rule="evenodd" clip-rule="evenodd" d="M25.7748 14.3796C25.7748 14.0354 26.0538 13.7564 26.398 13.7564V12.1964C25.1922 12.1964 24.2148 13.1738 24.2148 14.3796V14.9255C24.2148 16.1312 25.1922 17.1087 26.398 17.1087V15.5487C26.0538 15.5487 25.7748 15.2697 25.7748 14.9255V14.3796Z" fill="black"/>
<path d="M29.3914 14.6525C29.3914 15.3209 28.9869 15.8626 28.488 15.8626C27.989 15.8626 27.5845 15.3209 27.5845 14.6525C27.5845 13.9842 27.989 13.4424 28.488 13.4424C28.9869 13.4424 29.3914 13.9842 29.3914 14.6525Z" fill="black"/>
<path d="M35.0202 14.6525C35.0202 15.3209 34.5837 15.8626 34.0454 15.8626C33.507 15.8626 33.0706 15.3209 33.0706 14.6525C33.0706 13.9842 33.507 13.4424 34.0454 13.4424C34.5837 13.4424 35.0202 13.9842 35.0202 14.6525Z" fill="black"/>
<path fill-rule="evenodd" clip-rule="evenodd" d="M15.4187 2.81863C14.2549 2.47369 12.6113 2.33166 10.6775 2.45586C9.77288 2.51396 9.2286 3.14784 8.58979 4.48171C8.45822 4.75643 8.32399 5.06067 8.18181 5.38293C7.68997 6.49774 7.10302 7.82812 6.20202 8.89779C5.91456 9.23906 5.63529 9.56504 5.36575 9.87966C4.85116 10.4803 4.37202 11.0396 3.93897 11.585C3.28214 12.4122 2.79109 13.136 2.50984 13.8021C2.23525 14.4525 2.17787 15.0057 2.33157 15.5318C2.48928 16.0717 2.90153 16.6938 3.78233 17.4086C4.36217 17.8791 4.88168 18.0738 5.3269 18.1231C5.77471 18.1727 6.2018 18.0811 6.60235 17.8946C7.43049 17.5089 8.07638 16.7464 8.35002 16.246C9.01253 15.0342 9.76644 14.4367 10.3878 13.9443C10.4055 13.9303 10.423 13.9164 10.4404 13.9026C11.0393 13.4274 11.477 13.0607 11.8084 12.2446C11.9227 11.9632 11.9717 11.5654 12.0412 10.9631C12.1049 10.4112 12.1846 9.72588 12.4125 9.06901C12.6471 8.39293 13.046 7.72113 13.7575 7.1982C14.4322 6.70238 15.3279 6.38457 16.4968 6.26738C16.8771 6.0648 17.0405 5.85145 17.1253 5.61205C17.2356 5.30039 17.2559 4.82276 17.1189 4.03203C17.0565 3.67179 16.6431 3.18152 15.4187 2.81863ZM16.6427 7.82057C15.6757 7.9187 15.0714 8.16858 14.6813 8.45525C14.281 8.74946 14.043 9.12877 13.8863 9.58041C13.7229 10.0513 13.6569 10.5703 13.5909 11.1419C13.5875 11.1716 13.584 11.2018 13.5806 11.2322C13.5229 11.7364 13.4541 12.3382 13.2537 12.8316C12.7636 14.0384 12.0538 14.6139 11.4101 15.1246C11.3981 15.1341 11.3862 15.1435 11.3743 15.153C11.0322 15.4243 10.7064 15.6827 10.3946 16.0292C12.4696 16.6203 13.9891 18.5301 13.9891 20.7948V23.165L16.4699 24.7614C16.4806 24.6566 16.4952 24.5539 16.5133 24.4532C16.6169 23.8761 16.8289 23.4021 17.0349 22.9961C17.0971 22.8735 17.1576 22.7579 17.2156 22.6471C17.5528 22.003 17.8039 21.5233 17.8039 20.7736C17.8039 20.3574 17.6762 20.1154 17.4905 19.9217C17.2717 19.6933 16.9444 19.5032 16.4742 19.2728C16.3911 19.2321 16.3023 19.1901 16.2093 19.146C15.3705 18.7488 14.1829 18.1864 13.6379 16.9307C13.4088 16.4027 13.3264 15.9118 13.3798 15.4617C13.4336 15.0079 13.6193 14.6496 13.8402 14.3821C14.0558 14.1208 14.3005 13.9505 14.4834 13.8466C14.5764 13.7937 14.6585 13.7552 14.7207 13.7288C14.7513 13.7158 14.7776 13.7055 14.7984 13.6977C14.8099 13.6926 14.8272 13.6846 14.8498 13.6737C14.9009 13.6493 14.9783 13.6105 15.0746 13.5573C15.2681 13.4504 15.5321 13.288 15.8091 13.0698C16.3736 12.625 16.9284 11.9993 17.131 11.1929C17.5273 9.61583 17.3501 8.7617 17.1346 8.33202C16.9687 8.00122 16.7551 7.86821 16.6427 7.82057ZM15.088 14.4225C15.391 15.1412 15.3915 15.141 15.3915 15.141L15.3934 15.1402L15.3966 15.1388L15.4055 15.135L15.433 15.1229C15.4554 15.1128 15.486 15.0987 15.5238 15.0806C15.5993 15.0445 15.7039 14.9919 15.8293 14.9226C16.079 14.7846 16.417 14.5769 16.7745 14.2952C17.4792 13.74 18.3242 12.8459 18.644 11.5731C19.0943 9.78076 18.9695 8.51079 18.5291 7.63268C18.4018 7.37877 18.2516 7.1653 18.09 6.9878C18.3083 6.74468 18.4792 6.46207 18.5959 6.13258C18.8426 5.4356 18.8062 4.63288 18.656 3.7658C18.4313 2.46822 17.2021 1.72013 15.862 1.32294C14.4613 0.907791 12.6184 0.767997 10.5775 0.899067C8.71604 1.01862 7.82544 2.46605 7.18282 3.80789C7.00879 4.17125 6.84772 4.53508 6.68845 4.89483C6.2119 5.97124 5.75152 7.01112 5.00889 7.89278C4.74185 8.2098 4.47275 8.52398 4.2075 8.83366C3.67994 9.44958 3.16764 10.0477 2.71725 10.6149C2.03736 11.4712 1.43851 12.3289 1.07269 13.1953C0.700202 14.0775 0.55331 15.0079 0.83415 15.9693C1.11097 16.9169 1.77205 17.7863 2.79935 18.6199C3.57838 19.2521 4.37288 19.5869 5.15516 19.6736C5.93483 19.76 6.64873 19.5939 7.26099 19.3087C7.62379 19.1397 7.95626 18.9267 8.25441 18.6919V24.4605C8.25441 25.5391 8.71188 26.5485 9.48587 27.257C6.34812 31.1707 6.26777 35.273 8.08045 37.844H4.27645C2.2139 37.844 0.516278 39.4927 0.495878 41.5683C0.487313 42.4397 0.484748 43.3068 0.494737 43.9827C0.511038 45.0859 1.41156 45.8777 2.45312 45.8777C3.27058 45.8777 4.01152 45.3967 4.34434 44.6501L5.01436 43.147L24.6735 42.7432C26.5209 42.7052 28.0975 41.397 28.4755 39.5883C28.8273 37.9049 28.0546 36.1866 26.5619 35.3328L23.2108 33.416C24.1485 31.4481 23.5111 28.9395 21.4567 27.7438L18.0577 25.7657C17.9867 25.3455 17.998 25.0114 18.0488 24.7288C18.1127 24.3724 18.2461 24.0569 18.4261 23.7018C18.4728 23.6099 18.5237 23.5141 18.5771 23.4139C18.9216 22.7665 19.3639 21.9353 19.3639 20.7736C19.3639 19.9525 19.079 19.3245 18.6168 18.8422C18.1877 18.3946 17.6318 18.1028 17.1606 17.8719C17.081 17.8329 17.0033 17.7951 16.9275 17.7583C16.0037 17.3092 15.3688 17.0005 15.0689 16.3096C14.9261 15.9805 14.9143 15.7683 14.9289 15.6456C14.943 15.5266 14.9875 15.4427 15.0433 15.3751C15.1043 15.3012 15.1827 15.2435 15.2538 15.2031C15.2877 15.1838 15.3153 15.1712 15.3311 15.1644C15.3364 15.1622 15.3421 15.1599 15.3421 15.1599C15.3586 15.1543 15.3754 15.1478 15.3915 15.141L15.088 14.4225ZM21.8495 32.6373C22.3815 31.3876 21.9579 29.8405 20.672 29.0921L16.9727 26.9392C16.9627 26.9334 16.9527 26.9273 16.943 26.921L13.0903 24.4417C12.6782 24.1765 12.4291 23.7201 12.4291 23.23V20.7948C12.4291 19.1884 11.3133 17.8426 9.81441 17.4902V24.4605C9.81441 25.2843 10.2678 26.0401 10.9953 26.4291L10.6275 27.117L11.0148 26.4399L21.8495 32.6373ZM10.799 28.1136L20.8557 33.866L16.1069 37.844H10.1979C8.16388 36.1887 7.35681 32.2951 10.799 28.1136ZM18.5362 37.844L22.0662 34.887C22.1437 34.8221 22.2184 34.7552 22.2901 34.6865L25.7873 36.6869C26.6931 37.205 27.162 38.2477 26.9485 39.2691C26.7191 40.3666 25.7624 41.1605 24.6415 41.1835L4.48744 41.5974C4.18537 41.6037 3.91404 41.7838 3.79103 42.0597L2.91948 44.015C2.83741 44.1991 2.6547 44.3177 2.45312 44.3177C2.20175 44.3177 2.05737 44.1493 2.05457 43.9597C2.04486 43.3029 2.04728 42.4509 2.0558 41.5837C2.06766 40.3767 3.05631 39.404 4.27645 39.404H19.1464C19.5771 39.404 19.9264 39.0548 19.9264 38.624C19.9264 38.1932 19.5771 37.844 19.1464 37.844H18.5362Z" fill="black"/>
<path d="M37.6717 34.7849C37.6989 35.284 37.4304 35.7044 37.0721 35.7239C36.7138 35.7434 36.4013 35.3546 36.3742 34.8555C36.347 34.3564 36.6154 33.936 36.9737 33.9165C37.332 33.897 37.6445 34.2858 37.6717 34.7849Z" fill="black"/>
<path fill-rule="evenodd" clip-rule="evenodd" d="M41.0245 35.6546C40.8401 34.4951 40.8657 33.3734 41.0856 32.542C42.7565 32.9408 44.6235 34.1939 45.2407 36.1448C45.4398 36.7743 45.5666 37.4609 45.5817 38.0437C45.5981 38.68 45.4764 38.9895 45.401 39.0745C44.9386 39.5954 44.4641 39.8628 44.0298 39.8986C43.7847 39.9188 43.4858 39.8705 43.1385 39.6682C43.126 39.6603 43.1133 39.6527 43.1003 39.6455C42.8863 39.5152 42.6544 39.3265 42.4057 39.0601C41.7741 38.3834 41.2539 37.0972 41.0245 35.6546ZM46.5677 40.1101C46.0535 40.6893 45.3961 41.1849 44.6196 41.3774C46.8438 42.5525 49.8522 44.2367 51.5404 45.618C52.7652 46.6201 53.308 48.0402 53.4673 49.3194C53.5123 49.6809 53.5281 50.0426 53.5177 50.3927C53.7592 50.2313 54.0167 50.0654 54.283 49.903C54.9429 49.5006 55.6856 49.102 56.3877 48.8532C57.0376 48.6229 57.874 48.4384 58.5729 48.7703C58.8417 48.898 59.0955 49.0821 59.2743 49.3498C59.4595 49.6274 59.5239 49.9351 59.5056 50.2315C59.4725 50.7673 59.1689 51.2748 58.8663 51.6856C57.5394 53.4863 55.2301 54.2618 53.4164 54.6104C52.4873 54.789 51.6369 54.8652 51.0194 54.897C50.7099 54.913 50.457 54.9179 50.2796 54.9187C50.1909 54.9192 50.1209 54.9186 50.0721 54.9179L50.0533 54.9175C50.0196 54.9213 49.9714 54.9268 49.9102 54.9334C49.7849 54.947 49.6053 54.9657 49.3857 54.9865C48.9472 55.028 48.3464 55.0779 47.6998 55.1113C47.0554 55.1446 46.3536 55.162 45.7166 55.1362C45.1044 55.1113 44.4633 55.0445 43.9918 54.8661C43.7549 54.7764 43.5074 54.6426 43.3184 54.4284C43.1094 54.1915 43.0059 53.8924 43.0324 53.5772C43.0564 53.2933 43.18 53.0609 43.2961 52.8957C43.4157 52.7255 43.5637 52.5753 43.7103 52.447C44.047 52.1523 44.4887 51.8772 44.9066 51.6554C44.3262 51.3669 43.5634 51.097 43.0589 50.9809C42.7635 50.913 42.3196 50.9064 41.8977 50.9292L41.8694 50.9308V52.8979C41.8694 54.016 40.9442 54.9123 39.8266 54.8769L37.2082 54.7938C35.0518 54.7253 34.5443 51.7468 36.5564 50.9682L37.2795 50.6884V49.9234C36.3963 49.369 35.7828 48.6953 35.4094 47.9363C34.9823 47.0683 34.9004 46.1525 35.0111 45.2918C35.2126 43.7249 36.0606 42.2569 36.8223 41.3052C36.8342 40.8827 36.8387 40.4529 36.8359 40.0249C36.4444 40.1229 36.0569 40.1785 35.6613 40.187C34.9159 40.2032 34.1915 40.051 33.4098 39.7655C32.8234 39.5513 32.2542 39.1389 31.7741 38.6917C31.2864 38.2374 30.8422 37.7017 30.515 37.1833C30.2114 36.7023 29.9239 36.1052 29.9283 35.5573C29.9308 35.2517 30.0286 34.8679 30.3691 34.5948C30.6891 34.3383 31.0778 34.2995 31.3956 34.3259L31.4207 34.328C32.1067 34.385 32.5541 34.4222 32.8996 34.4175C33.23 34.4129 33.3929 34.3692 33.5182 34.3057C33.6573 34.2353 33.8255 34.1024 34.1059 33.789C34.3207 33.5489 34.5643 33.2467 34.8881 32.8449C34.9931 32.7146 35.1066 32.5739 35.2303 32.4214C35.9654 31.5147 36.809 31.0454 37.7673 30.8589C38.679 30.6814 39.6654 30.7681 40.6646 30.8849C42.8872 31.1447 45.8 32.7407 46.728 35.6743C46.9626 36.4161 47.1217 37.2487 47.1411 38.0035C47.1592 38.7046 47.064 39.5509 46.5677 40.1101ZM52.3657 53.2035L52.8157 52.8308L52.8236 52.8244L52.8573 52.7976C52.8874 52.7738 52.9325 52.7383 52.991 52.6929C53.1081 52.6022 53.2782 52.4726 53.4876 52.3189C53.9076 52.0106 54.4797 51.6103 55.0952 51.2349C55.7166 50.856 56.3539 50.5202 56.9087 50.3236C57.5157 50.1085 57.8134 50.1366 57.9037 50.1795C57.9158 50.1852 57.9262 50.1906 57.9353 50.1955C57.9257 50.2269 57.9094 50.2708 57.8817 50.3283C57.8258 50.4443 57.7375 50.5877 57.6104 50.7602C56.6486 52.0655 54.847 52.7468 53.1219 53.0785C52.8623 53.1284 52.6088 53.1696 52.3657 53.2035ZM36.442 33.4039C36.9468 32.7812 37.4672 32.5065 38.0653 32.3901C38.4898 32.3075 38.9652 32.3016 39.5288 32.3409C39.2797 33.4305 39.2947 34.7099 39.4839 35.8996C39.7358 37.4834 40.3305 39.123 41.2653 40.1245C41.4853 40.3602 41.7109 40.5653 41.941 40.7395V41.2705C41.941 41.5634 42.1052 41.8317 42.3661 41.965C44.5159 43.0635 48.5791 45.2107 50.5526 46.8253C51.3788 47.5014 51.7933 48.5004 51.9193 49.5121C52.0365 50.4537 51.8895 51.2878 51.6976 51.7312L49.6983 53.3872C49.5823 53.3996 49.4258 53.4157 49.2388 53.4334C48.815 53.4735 48.2374 53.5215 47.6194 53.5534C46.9991 53.5854 46.35 53.6006 45.7798 53.5774C45.4188 53.5628 45.1213 53.5336 44.8943 53.4945C45.2865 53.1996 45.862 52.901 46.2797 52.7301C46.4815 52.6475 46.8003 52.4713 46.9413 52.0988C47.0956 51.691 46.934 51.3391 46.8074 51.1532C46.6799 50.966 46.5075 50.8178 46.3581 50.7072C46.1999 50.59 46.0194 50.4801 45.8342 50.3795C45.1085 49.9852 44.0975 49.6191 43.4087 49.4606C42.9093 49.3457 42.3112 49.347 41.8694 49.3686V48.6358C41.8694 48.205 41.5202 47.8558 41.0894 47.8558C40.6586 47.8558 40.3094 48.205 40.3094 48.6358V52.8979C40.3094 53.135 40.1132 53.3252 39.8761 53.3176L37.2577 53.2345C36.8002 53.22 36.6926 52.5882 37.1194 52.4231L38.341 51.9503C38.6415 51.834 38.8395 51.545 38.8395 51.2229V49.4749C38.8395 49.1878 38.6818 48.9239 38.4289 48.7879C37.559 48.3202 37.0714 47.7806 36.8091 47.2475C36.5451 46.711 36.4779 46.1164 36.5583 45.4908C36.7231 44.2092 37.4962 42.9087 38.1857 42.1044C38.3006 41.9703 38.3666 41.8011 38.3729 41.6246C38.3993 40.8873 38.4037 40.1238 38.3864 39.3775L39.2188 38.8686C39.5863 38.6439 39.7021 38.1638 39.4774 37.7963C39.2527 37.4287 38.7721 37.3133 38.4045 37.538L37.2395 38.2503C36.6204 38.502 36.1134 38.6169 35.6276 38.6274C35.1274 38.6382 34.6002 38.5395 33.945 38.3002C33.6312 38.1856 33.2388 37.9242 32.8375 37.5503C32.4437 37.1834 32.0867 36.7506 31.8342 36.3507C31.7238 36.1757 31.6462 36.0273 31.593 35.9076C32.1125 35.9503 32.5519 35.9824 32.9209 35.9773C33.3842 35.971 33.8086 35.9072 34.2228 35.6975C34.6231 35.4949 34.9466 35.1889 35.2686 34.8291C35.5125 34.5564 35.7918 34.2098 36.1242 33.7973C36.2251 33.6721 36.3309 33.5409 36.442 33.4039ZM37.6717 34.7849C37.6989 35.284 37.4304 35.7044 37.0721 35.7239C36.7138 35.7434 36.4013 35.3546 36.3742 34.8555C36.347 34.3564 36.6154 33.936 36.9737 33.9165C37.332 33.897 37.6445 34.2858 37.6717 34.7849Z" fill="black"/>
</svg>
