<svg width="60" height="60" viewBox="0 0 60 60" fill="none" xmlns="http://www.w3.org/2000/svg">
<g clip-path="url(#clip0)">
<path d="M46.879 25.6648L51.1459 29.9317C51.521 30.3068 51.7317 30.8155 51.7317 31.346V57.2025C51.7317 58.307 50.8363 59.2025 49.7317 59.2025H32.9961C31.8915 59.2025 30.9961 58.307 30.9961 57.2025L30.9961 54.3385M46.879 25.6648H35.8488M46.879 25.6648V21.2511M35.8488 25.6648L31.5819 29.9317C31.2068 30.3068 30.9961 30.8155 30.9961 31.346V31.596M35.8488 25.6648V21.2511M35.8488 21.2511H34.1561C33.6038 21.2511 33.1561 20.8034 33.1561 20.2511V16.0737C33.1561 15.5214 33.6038 15.0737 34.1561 15.0737H38.3832M35.8488 21.2511H46.879M46.879 21.2511H48.6037C49.156 21.2511 49.6037 20.8034 49.6037 20.2511V16.0737C49.6037 15.5214 49.156 15.0737 48.6037 15.0737H45.036M38.3832 15.0737V6.75754C38.3832 4.92042 39.8725 3.43115 41.7096 3.43115V3.43115C43.5467 3.43115 45.036 4.92043 45.036 6.75754V15.0737M38.3832 15.0737H45.036M32.6727 52.931H41.056C42.1606 52.931 43.056 52.0356 43.056 50.931V35.8439C43.056 34.7393 42.1606 33.8439 41.056 33.8439H33.3389" stroke="black" stroke-width="1.5" stroke-linecap="round" stroke-linejoin="round"/>
<path fill-rule="evenodd" clip-rule="evenodd" d="M24.3261 25.7684C23.5597 25.466 22.7441 25.3113 21.9203 25.3125H21.864C20.064 25.3195 18.3484 26.0754 17.1273 27.3984C16.1687 28.4332 15.5675 29.7481 15.4117 31.1496C15.114 30.9984 14.7976 30.8859 14.4695 30.8156C13.3117 30.566 12.1047 30.9094 11.2504 31.732C11.2082 31.7719 11.166 31.8129 11.125 31.8539C11.084 31.8961 11.0429 31.9383 11.0054 31.9816C10.1769 32.8758 9.84528 34.1215 10.1195 35.3086C10.1933 35.6332 10.3082 35.9484 10.4617 36.2438C9.03786 36.4102 7.70661 37.0371 6.67185 38.0297C4.06677 40.5352 3.98591 44.6789 6.49255 47.284C6.57575 47.3707 6.6613 47.4551 6.74919 47.5371C7.79919 48.5109 9.13747 49.1156 10.5613 49.2598C10.4148 49.5574 10.3058 49.8727 10.2379 50.1973C9.98356 51.3891 10.3351 52.6289 11.1777 53.509C11.2175 53.5512 11.2586 53.5922 11.2996 53.6332C11.3406 53.6742 11.384 53.7152 11.4273 53.7539C12.0859 54.3656 12.9508 54.7066 13.8496 54.709C14.1226 54.709 14.3945 54.6785 14.6605 54.6164C14.9886 54.5414 15.305 54.4231 15.6015 54.2649C15.7785 55.6664 16.4019 56.9742 17.3793 57.9938C18.6086 59.2828 20.3136 60.0082 22.0937 60H22.15C23.03 59.9941 23.8996 59.8125 24.707 59.4633L26.2316 58.5293C26.4636 58.3395 26.6828 58.1344 26.8879 57.9141C27.4211 57.3387 27.8476 56.6731 28.1465 55.9465L28.6035 54.1559C28.9023 54.3094 29.2211 54.4219 29.5504 54.4922C29.7976 54.5449 30.0508 54.5719 30.305 54.5719C31.2238 54.5695 32.1062 54.2133 32.7695 53.5758C32.8117 53.5359 32.8539 53.4949 32.8937 53.4539C32.9347 53.4129 32.9757 53.3695 33.0144 53.3262C33.8429 52.4332 34.1734 51.1875 33.9004 50.0004C33.8265 49.6758 33.7129 49.3629 33.5605 49.0676C34.982 48.9 36.3097 48.2742 37.3433 47.2828C39.9484 44.7774 40.0281 40.6336 37.5215 38.0285C37.4383 37.9418 37.3527 37.8574 37.2648 37.7754C36.216 36.8027 34.8789 36.1981 33.455 36.0539C33.6039 35.7551 33.714 35.4387 33.782 35.1117C34.0363 33.9211 33.6847 32.6813 32.8422 31.8012C32.8023 31.759 32.7613 31.7168 32.7203 31.6758L32.718 31.6736C32.6776 31.6344 32.6351 31.593 32.5925 31.5551C31.7254 30.7477 30.5125 30.4242 29.3582 30.6926C29.0289 30.7688 28.7101 30.8883 28.4125 31.0477C28.3949 30.9164 28.375 30.7863 28.3504 30.6574L27.8254 29.0473C27.523 28.4109 27.1211 27.8285 26.6347 27.3211C26.4133 27.0902 26.1754 26.8758 25.9234 26.6801L24.3261 25.7684ZM21.8781 26.9543C20.5293 26.959 19.2437 27.525 18.3285 28.5152C17.4121 29.5008 16.9398 30.8191 17.0218 32.1633C17.0394 32.4281 17.098 32.6895 17.1953 32.9367C17.2422 33.0281 17.2879 33.1207 17.3289 33.2168L17.9863 34.4496C18.0086 34.4918 18.0273 34.5363 18.0425 34.5809L20.3031 38.8676C20.548 38.7574 20.8035 38.6707 21.066 38.6098L21.0531 35.9731C21.0508 35.5207 21.4164 35.1516 21.8699 35.1492H21.8734C22.3246 35.1492 22.6914 35.5149 22.6937 35.966L22.7054 38.5617C23.03 38.6156 23.3465 38.7094 23.6488 38.8395L25.8695 34.4555C25.8789 34.432 25.8906 34.4074 25.9023 34.384L26.2539 33.6984L26.534 33.1453C26.5539 33.1055 26.5715 33.0668 26.589 33.0281L26.5911 33.0239L26.5951 33.0146L26.5984 33.0059C26.7285 32.7141 26.8023 32.4012 26.8187 32.0813C26.8785 30.7371 26.384 29.427 25.4511 28.4566C24.5312 27.4922 23.2539 26.9484 21.9203 26.9543H21.8781ZM28.6867 41.8594H28.6961C29.1484 41.857 29.5175 42.2227 29.5199 42.675C29.5222 43.1285 29.1578 43.4977 28.7043 43.5L26.0699 43.5293C26.0125 43.793 25.9304 44.0508 25.8238 44.2981L30.1925 46.5106C30.1994 46.514 30.2064 46.517 30.2134 46.52C30.2233 46.5242 30.2333 46.5285 30.2429 46.534L31 46.9207L31.5191 47.1832L31.5296 47.1883L31.548 47.1966L31.5536 47.1991C31.559 47.2016 31.5643 47.204 31.5695 47.2066L31.6855 47.2594C31.9691 47.3813 32.2738 47.4516 32.582 47.468C33.9261 47.5277 35.2375 47.0344 36.2066 46.1004C36.2711 46.0395 36.3343 45.975 36.3941 45.9094C38.241 43.9277 38.1308 40.8246 36.148 38.9777C35.1625 38.0613 33.8441 37.5891 32.5011 37.6711C32.1308 37.6957 31.7711 37.7988 31.4441 37.9734L30.6015 38.4176L30.1832 38.6402L30.1702 38.6459L30.1597 38.6508L25.798 40.9512C25.9328 41.25 26.0312 41.5652 26.091 41.8875L28.6867 41.8594ZM30.7855 48.6516L30.2699 48.3891L25.2508 45.8473L28.1172 51.2801L28.1558 51.3527C28.1629 51.366 28.1688 51.3793 28.1748 51.3926L28.184 51.4125C28.2168 51.4781 28.2472 51.5426 28.2765 51.6082C28.5941 52.2563 29.1871 52.7262 29.8902 52.8879C30.5218 53.0262 31.1816 52.8363 31.6433 52.3828C31.6715 52.357 31.6972 52.3324 31.7242 52.3043L31.7441 52.2837C31.7643 52.2628 31.7842 52.2423 31.8027 52.2211C32.2703 51.7242 32.4566 51.0246 32.2996 50.3602C32.1343 49.6594 31.6609 49.0699 31.0129 48.7559C30.9775 48.7411 30.9429 48.7247 30.9078 48.7081L30.8875 48.6984C30.8746 48.6926 30.8605 48.6867 30.8465 48.6809L30.8319 48.6741C30.8164 48.6669 30.8006 48.6596 30.7855 48.6516ZM31.4863 32.768C31.0175 32.3215 30.3554 32.1434 29.725 32.2922C29.0101 32.4691 28.4172 32.9648 28.1136 33.6352L28.0961 33.675L28.0785 33.7149L28.0735 33.727L28.0633 33.75C28.058 33.7617 28.0527 33.7734 28.048 33.7852C28.0386 33.8086 28.0281 33.832 28.0164 33.8555L27.7129 34.4484L25.198 39.4125L29.8199 36.975L30.6906 36.5121C30.7105 36.5016 30.7304 36.491 30.7515 36.4828C30.782 36.4688 30.8125 36.4547 30.8418 36.4406C30.8605 36.4313 30.8793 36.4219 30.898 36.4137C31.5508 36.0914 32.0207 35.4902 32.1765 34.7789C32.323 34.1121 32.125 33.416 31.6492 32.9274C31.6222 32.8992 31.5976 32.8746 31.5695 32.8465L31.5489 32.8266C31.528 32.8064 31.5075 32.7865 31.4863 32.768ZM22.007 45.1711C23.3957 45.1711 24.5218 44.0438 24.5218 42.6539C24.5218 41.2641 23.3957 40.1367 22.007 40.1367C20.6183 40.1367 19.4922 41.2641 19.4922 42.6539C19.4922 44.0438 20.6183 45.1711 22.007 45.1711ZM12.2957 33.0047C12.2878 33.0126 12.2799 33.0206 12.2722 33.0287C12.2622 33.0391 12.2523 33.0496 12.2425 33.06L12.2172 33.0867C11.7496 33.5848 11.5633 34.2832 11.7203 34.9477C11.9019 35.7106 12.4433 36.3375 13.1722 36.6281C13.1933 36.6363 13.2144 36.6457 13.2343 36.6563L14.5234 37.3149C14.5343 37.3203 14.5453 37.3268 14.5562 37.3333L14.5726 37.343L18.7633 39.4664L15.8734 33.9856C15.8113 33.8684 15.7562 33.7477 15.7047 33.627C15.3789 33.0152 14.8047 32.5758 14.1297 32.4211C13.4968 32.2828 12.8383 32.4727 12.3765 32.9262C12.3484 32.952 12.3226 32.9777 12.2957 33.0047ZM7.61989 39.4031C5.77419 41.3848 5.88435 44.4891 7.86599 46.3348C8.85153 47.2512 10.1699 47.7234 11.5129 47.6414C11.8234 47.6215 12.1269 47.5453 12.4093 47.4176C12.4445 47.4 12.4785 47.3836 12.5136 47.3672L12.5261 47.3614C12.5415 47.3542 12.5563 47.3474 12.5711 47.3391L13.1066 47.0566L13.8367 46.6688C13.8507 46.6608 13.8655 46.6545 13.8797 46.6485L13.8871 46.6453L18.216 44.3613C18.1047 44.1129 18.0179 43.8527 17.957 43.5867L15.3273 43.6102H15.3203C14.8668 43.6125 14.4976 43.2469 14.4953 42.7934C14.4941 42.341 14.8597 41.9719 15.3121 41.9695L17.9136 41.9461C17.9687 41.6262 18.0625 41.3133 18.1902 41.0145L12.4949 38.1293C12.1656 37.9606 11.8035 37.8633 11.432 37.8445C10.0879 37.7848 8.77771 38.2793 7.80739 39.2121C7.74411 39.2742 7.68083 39.3375 7.61989 39.4031ZM15.8875 51.7102C15.9144 51.6445 15.9449 51.5789 15.9754 51.5145L15.9814 51.5007C15.9884 51.4846 15.9953 51.4691 16.0035 51.4535L16.0398 51.3844L18.8172 45.9L13.8918 48.4992L13.3304 48.7969C13.3105 48.8074 13.2906 48.8168 13.2695 48.8262C13.2591 48.8306 13.2492 48.8351 13.2394 48.8396L13.2226 48.8473C13.184 48.8672 13.1453 48.8859 13.1054 48.9035C12.4621 49.2281 11.998 49.8258 11.8445 50.5301C11.698 51.1969 11.8961 51.8918 12.3718 52.3816C12.3976 52.4086 12.4246 52.4356 12.4515 52.4625C12.4785 52.4895 12.5054 52.5152 12.5336 52.541C13.0023 52.9863 13.6644 53.1656 14.2949 53.0168C14.9945 52.8434 15.5793 52.3629 15.8875 51.7102ZM22.0949 58.3594H22.1371C23.4859 58.3547 24.7715 57.7887 25.6867 56.7961C26.6031 55.8117 27.0754 54.4934 26.9933 53.1504C26.9746 52.8668 26.909 52.5879 26.8 52.3254C26.7625 52.2516 26.7273 52.1754 26.6945 52.0981C26.6933 52.0957 26.6922 52.0945 26.691 52.0922L26.6781 52.0676L26.0336 50.8606C26.0183 50.8301 26.0043 50.7996 25.9925 50.768L23.7121 46.4449C23.4179 46.5774 23.1086 46.6758 22.7922 46.7367L22.8039 49.3406C22.8062 49.7941 22.4406 50.1633 21.9883 50.1656H21.9836C21.5324 50.1656 21.1656 49.8 21.1633 49.3488L21.1504 46.7238C20.8808 46.6676 20.6183 46.5844 20.3652 46.4754L18.1574 50.8336C18.1457 50.8652 18.1328 50.8957 18.1175 50.9262L17.5 52.1309L17.4812 52.1684C17.4789 52.1719 17.4777 52.1742 17.4765 52.1777C17.4449 52.2539 17.4109 52.3301 17.3758 52.4039C17.2703 52.6676 17.2105 52.9477 17.1965 53.2313C17.1367 54.5754 17.63 55.8856 18.5629 56.8559C19.484 57.8215 20.7613 58.3652 22.0949 58.3594Z" fill="black"/>
</g>
<defs>
<clipPath id="clip0">
<rect width="60" height="60" fill="white"/>
</clipPath>
</defs>
</svg>
