<svg width="60" height="54" viewBox="0 0 60 54" fill="none" xmlns="http://www.w3.org/2000/svg">
<path d="M4.17794 48.4911H2.67964C1.56 48.4911 0.652344 49.3988 0.652344 50.5184V50.5184C0.652344 51.6381 1.56 52.5457 2.67964 52.5457H57.3281C58.4477 52.5457 59.3554 51.6381 59.3554 50.5184V50.5184C59.3554 49.3988 58.4477 48.4911 57.3281 48.4911H56.1822M4.17794 48.4911V46.7282C4.17794 45.3652 5.2829 44.2602 6.64594 44.2602V44.2602M4.17794 48.4911H56.1822M56.1822 48.4911V48.1385C56.1822 45.9966 54.4458 44.2602 52.3039 44.2602V44.2602M52.3039 44.2602V7.06394M52.3039 44.2602H47.5442M52.3039 7.06394H56.3586C58.0137 7.06394 59.3554 5.72222 59.3554 4.06713V4.06713C59.3554 2.41203 58.0137 1.07031 56.3586 1.07031H3.64916C1.99406 1.07031 0.652344 2.41203 0.652344 4.06713V4.06713C0.652344 5.72222 1.99406 7.06394 3.64916 7.06394H6.64594M52.3039 7.06394H6.64594M6.64594 7.06394V44.2602M6.64594 44.2602H11.9345M11.9345 44.2602V29.3779C11.9345 19.5446 19.906 11.5731 29.7393 11.5731V11.5731C39.5727 11.5731 47.5442 19.5446 47.5442 29.3779V44.2602M11.9345 44.2602H18.1045M47.5442 44.2602H41.9031M41.9031 44.2602V41.5582C41.9031 41.0059 41.4553 40.5582 40.9031 40.5582H35.9876M41.9031 44.2602H18.1045M18.1045 44.2602V41.5582C18.1045 41.0059 18.5522 40.5582 19.1045 40.5582H24.5797M24.5797 40.5582C22.7654 39.6065 19.9312 36.0089 22.951 29.1904C22.9858 29.1118 23.0993 29.1093 23.137 29.1865C24.5688 32.1159 27.6519 33.2318 28.2557 33.4261C28.3117 33.4442 28.367 33.4079 28.3711 33.3492C28.4053 32.8518 28.3564 30.6757 25.4392 27.3658C23.0429 24.647 28.7764 18.9966 29.9586 19.1148C31.1407 19.233 29.165 26.3085 30.9272 29.9839C31.1901 30.5324 32.4267 24.0122 32.8404 23.5393C33.2542 23.0665 36.3648 26.326 36.3648 29.9839C36.3648 34.554 34.9259 36.02 34.2459 36.4576C34.1588 36.5136 34.1832 36.6283 34.2844 36.6064C34.9944 36.453 36.6677 35.6291 39.1843 31.5951C41.2213 28.33 38.3519 40.1906 35.9876 40.5582M24.5797 40.5582H35.9876" stroke="black" stroke-width="1.3"/>
</svg>
