<svg width="52" height="44" viewBox="0 0 52 44" fill="none" xmlns="http://www.w3.org/2000/svg">
<path fill-rule="evenodd" clip-rule="evenodd" d="M30.4632 0.302734C30.894 0.302734 31.2432 0.651952 31.2432 1.08273V4.02027H41.7709V1.0828C41.7709 0.652013 42.1202 0.302795 42.5509 0.302795C42.9817 0.302795 43.3309 0.652013 43.3309 1.0828V4.02027H46.084C49.1657 4.02027 51.664 6.51852 51.664 9.60027V32.1173C51.664 35.1991 49.1657 37.6973 46.084 37.6973H18.7825C18.3517 37.6973 18.0025 37.3481 18.0025 36.9173C18.0025 36.4865 18.3517 36.1373 18.7825 36.1373H46.084C48.3042 36.1373 50.104 34.3375 50.104 32.1173V9.60027C50.104 7.38008 48.3042 5.58027 46.084 5.58027H43.3309V7.4855C43.3309 7.91628 42.9817 8.2655 42.5509 8.2655C42.1202 8.2655 41.7709 7.91628 41.7709 7.4855V5.58027H31.2432V7.48544C31.2432 7.91622 30.894 8.26544 30.4632 8.26544C30.0324 8.26544 29.6832 7.91622 29.6832 7.48544V5.58027H17.7257V7.4855C17.7257 7.91628 17.3765 8.2655 16.9457 8.2655C16.5149 8.2655 16.1657 7.91628 16.1657 7.4855V5.58027H13.9122C11.692 5.58027 9.89221 7.38008 9.89221 9.60027V23.6131C9.89221 24.0438 9.40461 24.0786 9.11221 24.3931C8.68143 24.3931 8.33221 24.5094 8.33221 24.0786V9.60027C8.33221 6.51852 10.8305 4.02027 13.9122 4.02027H16.1657V1.0828C16.1657 0.652013 16.5149 0.302795 16.9457 0.302795C17.3765 0.302795 17.7257 0.652013 17.7257 1.0828V4.02027H29.6832V1.08273C29.6832 0.651952 30.0324 0.302734 30.4632 0.302734ZM23.9642 13.9843C23.9642 13.5535 24.3135 13.2043 24.7442 13.2043H27.6037C28.0345 13.2043 28.3837 13.5535 28.3837 13.9843C28.3837 14.4151 28.0345 14.7643 27.6037 14.7643H24.7442C24.3135 14.7643 23.9642 14.4151 23.9642 13.9843ZM32.5427 13.9843C32.5427 13.5535 32.8919 13.2043 33.3227 13.2043H36.3121C36.7429 13.2043 37.0921 13.5535 37.0921 13.9843C37.0921 14.4151 36.7429 14.7643 36.3121 14.7643H33.3227C32.8919 14.7643 32.5427 14.4151 32.5427 13.9843ZM40.2112 13.9843C40.2112 13.5535 40.5604 13.2043 40.9912 13.2043H43.7207C44.1515 13.2043 44.5007 13.5535 44.5007 13.9843C44.5007 14.4151 44.1515 14.7643 43.7207 14.7643H40.9912C40.5604 14.7643 40.2112 14.4151 40.2112 13.9843ZM16.1657 21.7829C16.1657 21.3521 16.5149 21.0029 16.9457 21.0029H20.0651C20.4959 21.0029 20.8451 21.3521 20.8451 21.7829C20.8451 22.2136 20.4959 22.5629 20.0651 22.5629H16.9457C16.5149 22.5629 16.1657 22.2136 16.1657 21.7829ZM23.9642 21.7829C23.9642 21.3521 24.3135 21.0029 24.7442 21.0029H27.6037C28.0345 21.0029 28.3837 21.3521 28.3837 21.7829C28.3837 22.2136 28.0345 22.5629 27.6037 22.5629H24.7442C24.3135 22.5629 23.9642 22.2136 23.9642 21.7829ZM32.5427 21.7829C32.5427 21.3521 32.8919 21.0029 33.3227 21.0029H36.3121C36.7429 21.0029 37.0921 21.3521 37.0921 21.7829C37.0921 22.2136 36.7429 22.5629 36.3121 22.5629H33.3227C32.8919 22.5629 32.5427 22.2136 32.5427 21.7829ZM40.2112 21.7829C40.2112 21.3521 40.5604 21.0029 40.9912 21.0029H43.7207C44.1515 21.0029 44.5007 21.3521 44.5007 21.7829C44.5007 22.2136 44.1515 22.5629 43.7207 22.5629H40.9912C40.5604 22.5629 40.2112 22.2136 40.2112 21.7829ZM18.2038 29.5814C18.2038 29.1506 18.0321 28.8014 18.4629 28.8014H20.0651C20.4959 28.8014 20.8451 29.1506 20.8451 29.5814C20.8451 30.0122 20.4959 30.3614 20.0651 30.3614L19.5572 30.3C19.1264 30.3 18.2038 30.0122 18.2038 29.5814ZM23.9642 29.5814C23.9642 29.1506 24.3135 28.8014 24.7442 28.8014H27.6037C28.0345 28.8014 28.3837 29.1506 28.3837 29.5814C28.3837 30.0122 28.0345 30.3614 27.6037 30.3614H24.7442C24.3135 30.3614 23.9642 30.0122 23.9642 29.5814ZM32.5427 29.5814C32.5427 29.1506 32.8919 28.8014 33.3227 28.8014H36.3121C36.7429 28.8014 37.0921 29.1506 37.0921 29.5814C37.0921 30.0122 36.7429 30.3614 36.3121 30.3614H33.3227C32.8919 30.3614 32.5427 30.0122 32.5427 29.5814Z" fill="black"/>
<path fill-rule="evenodd" clip-rule="evenodd" d="M12.9427 22.8122C12.4701 22.6258 11.9673 22.5304 11.4594 22.5311H11.4247C10.3149 22.5354 9.25718 23.0015 8.50434 23.8172C7.91333 24.4551 7.54269 25.2658 7.44659 26.1299C7.26308 26.0367 7.068 25.9673 6.8657 25.924C6.15187 25.7701 5.4077 25.9818 4.88099 26.489C4.85498 26.5135 4.82897 26.5388 4.80368 26.5641C4.7784 26.5901 4.75311 26.6161 4.72999 26.6429C4.21918 27.1941 4.01471 27.9622 4.18378 28.694C4.2293 28.8942 4.3001 29.0885 4.39475 29.2706C3.51691 29.3732 2.69615 29.7597 2.05818 30.3717C0.45206 31.9164 0.402208 34.4712 1.94764 36.0773C1.99894 36.1308 2.05168 36.1828 2.10587 36.2333C2.75323 36.8337 3.57832 37.2066 4.45616 37.2954C4.36585 37.4789 4.29866 37.6733 4.25675 37.8734C4.09997 38.6082 4.31672 39.3726 4.8362 39.9152C4.86076 39.9412 4.88605 39.9665 4.91134 39.9918C4.93663 40.0171 4.96336 40.0424 4.99009 40.0662C5.39614 40.4434 5.92934 40.6536 6.4835 40.6551C6.65184 40.6551 6.81946 40.6363 6.98347 40.598C7.18577 40.5517 7.38085 40.4788 7.56364 40.3812C7.67274 41.2453 8.05711 42.0517 8.65967 42.6802C9.41758 43.475 10.4688 43.9222 11.5663 43.9171H11.601C12.1436 43.9135 12.6797 43.8015 13.1775 43.5862L14.1174 43.0104C14.2605 42.8934 14.3956 42.7669 14.522 42.6311C14.8508 42.2763 15.1138 41.866 15.298 41.418L15.5798 40.314C15.764 40.4087 15.9605 40.478 16.1636 40.5214C16.316 40.5539 16.4721 40.5705 16.6289 40.5705C17.1953 40.5691 17.7393 40.3494 18.1483 39.9564C18.1743 39.9318 18.2003 39.9065 18.2249 39.8813C18.2502 39.856 18.2754 39.8292 18.2993 39.8025C18.8101 39.252 19.0138 38.4839 18.8455 37.752C18.8 37.5519 18.7299 37.359 18.636 37.1769C19.5124 37.0736 20.331 36.6878 20.9682 36.0766C22.5743 34.5319 22.6235 31.9771 21.078 30.371C21.0267 30.3175 20.974 30.2655 20.9198 30.2149C20.2732 29.6152 19.4488 29.2424 18.5709 29.1536C18.6627 28.9693 18.7306 28.7742 18.7725 28.5727C18.9293 27.8386 18.7126 27.0742 18.1931 26.5316C18.1685 26.5056 18.1432 26.4796 18.1179 26.4543L18.1165 26.4529C18.0916 26.4288 18.0654 26.4033 18.0392 26.3799C17.5045 25.8821 16.7567 25.6827 16.0451 25.8481C15.8421 25.8951 15.6455 25.9688 15.462 26.067C15.4512 25.9861 15.4389 25.9059 15.4237 25.8264L15.1 24.8337C14.9136 24.4414 14.6658 24.0823 14.366 23.7695C14.2294 23.6271 14.0828 23.4949 13.9274 23.3743L12.9427 22.8122ZM11.4334 23.5433C10.6018 23.5462 9.80917 23.8952 9.2449 24.5057C8.6799 25.1133 8.38874 25.9261 8.43931 26.7549C8.45015 26.9181 8.48627 27.0793 8.54624 27.2317C8.57514 27.2881 8.60332 27.3451 8.62861 27.4044L9.03393 28.1645C9.04766 28.1905 9.05922 28.2179 9.06861 28.2454L10.4623 30.8883C10.6133 30.8204 10.7708 30.7669 10.9327 30.7293L10.9247 29.1037C10.9233 28.8248 11.1487 28.5972 11.4283 28.5958H11.4305C11.7086 28.5958 11.9348 28.8212 11.9362 29.0994L11.9434 30.6997C12.1436 30.7329 12.3386 30.7907 12.5251 30.8709L13.8942 28.1681C13.9 28.1536 13.9072 28.1384 13.9144 28.124L14.1312 27.7013L14.3039 27.3603C14.3161 27.3357 14.327 27.3119 14.3378 27.2881L14.3391 27.2855L14.3416 27.2797L14.3436 27.2743C14.4238 27.0944 14.4693 26.9015 14.4794 26.7043C14.5163 25.8756 14.2114 25.0678 13.6363 24.4696C13.0691 23.875 12.2816 23.5397 11.4594 23.5433H11.4334ZM15.6311 32.7328H15.6369C15.9158 32.7314 16.1433 32.9568 16.1448 33.2357C16.1462 33.5153 15.9215 33.7429 15.6419 33.7443L14.0177 33.7624C13.9823 33.925 13.9318 34.0839 13.866 34.2364L16.5595 35.6004C16.5637 35.6025 16.568 35.6044 16.5724 35.6062C16.5785 35.6089 16.5846 35.6115 16.5906 35.6149L17.0573 35.8533L17.3774 36.0152L17.3838 36.0183L17.3952 36.0234L17.3986 36.025C17.4019 36.0265 17.4052 36.028 17.4084 36.0296L17.48 36.0621C17.6548 36.1373 17.8427 36.1806 18.0327 36.1907C18.8614 36.2276 19.6699 35.9234 20.2674 35.3476C20.3071 35.31 20.3461 35.2703 20.383 35.2298C21.5216 34.008 21.4537 32.0949 20.2313 30.9562C19.6236 30.3912 18.8108 30.1 17.9828 30.1506C17.7545 30.1658 17.5327 30.2294 17.3311 30.337L16.8117 30.6108L16.5537 30.7481L16.5457 30.7516L16.5393 30.7546L13.8501 32.1729C13.9332 32.3571 13.9939 32.5515 14.0307 32.7502L15.6311 32.7328ZM16.9251 36.9204L16.6072 36.7586L13.5127 35.1915L15.28 38.541L15.3038 38.5858C15.3081 38.594 15.3118 38.6022 15.3155 38.6104L15.3211 38.6227C15.3414 38.6631 15.3601 38.7029 15.3782 38.7433C15.574 39.1429 15.9396 39.4326 16.3731 39.5323C16.7625 39.6175 17.1693 39.5005 17.454 39.2209C17.4713 39.205 17.4872 39.1898 17.5038 39.1725L17.5161 39.1598C17.5285 39.1469 17.5408 39.1343 17.5522 39.1212C17.8405 38.8148 17.9554 38.3835 17.8586 37.9739C17.7567 37.5418 17.4648 37.1784 17.0653 36.9847C17.0434 36.9757 17.0221 36.9655 17.0005 36.9553L16.9879 36.9493C16.98 36.9457 16.9713 36.9421 16.9627 36.9385L16.9537 36.9343C16.9441 36.9299 16.9344 36.9254 16.9251 36.9204ZM17.3571 27.1277C17.0681 26.8524 16.6599 26.7426 16.2712 26.8343C15.8305 26.9434 15.4649 27.249 15.2778 27.6623L15.2669 27.6869L15.2561 27.7114L15.253 27.7189L15.2467 27.7331C15.2435 27.7403 15.2402 27.7476 15.2373 27.7548C15.2315 27.7692 15.225 27.7837 15.2178 27.7981L15.0307 28.1637L13.4802 31.2242L16.3297 29.7214L16.8666 29.4361C16.8788 29.4296 16.8911 29.4231 16.9041 29.418C16.9229 29.4093 16.9417 29.4007 16.9598 29.392C16.9713 29.3862 16.9829 29.3804 16.9944 29.3754C17.3969 29.1767 17.6866 28.806 17.7827 28.3675C17.873 27.9564 17.7509 27.5272 17.4576 27.2259C17.441 27.2086 17.4258 27.1934 17.4084 27.1761L17.3958 27.1638C17.3829 27.1514 17.3702 27.1391 17.3571 27.1277ZM11.5128 34.7746C12.369 34.7746 13.0633 34.0796 13.0633 33.2227C13.0633 32.3658 12.369 31.6708 11.5128 31.6708C10.6567 31.6708 9.96234 32.3658 9.96234 33.2227C9.96234 34.0796 10.6567 34.7746 11.5128 34.7746ZM5.52546 27.2736C5.52058 27.2785 5.51576 27.2834 5.51099 27.2884C5.50484 27.2948 5.49871 27.3013 5.49267 27.3077L5.47706 27.3242C5.18878 27.6312 5.0739 28.0619 5.17072 28.4715C5.2827 28.9419 5.6165 29.3284 6.06589 29.5076C6.0789 29.5126 6.0919 29.5184 6.10419 29.5249L6.89894 29.931C6.90568 29.9343 6.91243 29.9384 6.91918 29.9424L6.92928 29.9483L9.51295 31.2575L7.73126 27.8783C7.69297 27.8061 7.65901 27.7317 7.62722 27.6573C7.42636 27.2801 7.07234 27.0092 6.65618 26.9138C6.26603 26.8286 5.85998 26.9456 5.57532 27.2252C5.55798 27.2411 5.54208 27.257 5.52546 27.2736ZM2.64268 31.2185C1.50474 32.4402 1.57266 34.3541 2.79441 35.4921C3.40203 36.0571 4.21485 36.3482 5.04283 36.2976C5.2343 36.2854 5.42142 36.2384 5.59555 36.1597C5.61722 36.1488 5.63817 36.1387 5.65985 36.1286L5.66755 36.125C5.67702 36.1206 5.68613 36.1164 5.69525 36.1112L6.02543 35.9371L6.47555 35.698C6.48416 35.6931 6.49329 35.6892 6.50206 35.6855L6.50662 35.6835L9.17554 34.2754C9.1069 34.1222 9.05344 33.9618 9.01587 33.7978L7.39457 33.8122H7.39024C7.11063 33.8137 6.88304 33.5883 6.8816 33.3087C6.88088 33.0298 7.1063 32.8022 7.38518 32.8007L8.98913 32.7863C9.02309 32.5891 9.08089 32.3961 9.15964 32.2119L5.64829 30.4331C5.44527 30.3291 5.22201 30.2691 4.99298 30.2575C4.16427 30.2207 3.35651 30.5256 2.75828 31.1007C2.71927 31.139 2.68025 31.178 2.64268 31.2185ZM7.73993 38.8062C7.75655 38.7657 7.77533 38.7253 7.79412 38.6855L7.79784 38.6771C7.80218 38.6671 7.80638 38.6575 7.81146 38.6479L7.83385 38.6053L9.54618 35.224L6.50951 36.8265L6.16343 37.01C6.15115 37.0165 6.13887 37.0223 6.12586 37.0281C6.11945 37.0308 6.11332 37.0336 6.10731 37.0363L6.09696 37.0411C6.07312 37.0534 6.04928 37.0649 6.02471 37.0758C5.62806 37.2759 5.34195 37.6444 5.2473 38.0786C5.15699 38.4897 5.27909 38.9182 5.57243 39.2202C5.58832 39.2368 5.60494 39.2534 5.62156 39.27C5.63817 39.2866 5.65479 39.3025 5.67213 39.3184C5.96113 39.593 6.36934 39.7035 6.75805 39.6118C7.18938 39.5048 7.54991 39.2086 7.73993 38.8062ZM11.567 42.9056H11.593C12.4246 42.9028 13.2172 42.5538 13.7815 41.9418C14.3465 41.3349 14.6376 40.5221 14.5871 39.6941C14.5755 39.5193 14.5351 39.3473 14.4679 39.1855C14.4447 39.14 14.4231 39.093 14.4028 39.0453L14.4007 39.0417L14.3927 39.0265L13.9953 38.2824C13.986 38.2636 13.9773 38.2448 13.9701 38.2253L12.5641 35.56C12.3827 35.6416 12.192 35.7023 11.9969 35.7399L12.0041 37.3453C12.0056 37.6249 11.7802 37.8525 11.5013 37.8539H11.4984C11.2202 37.8539 10.9941 37.6285 10.9926 37.3503L10.9847 35.7319C10.8185 35.6973 10.6567 35.646 10.5006 35.5788L9.13941 38.2657C9.13219 38.2853 9.12424 38.304 9.11485 38.3228L8.73409 39.0656L8.72253 39.0887C8.72109 39.0908 8.71964 39.0945 8.71964 39.0945C8.70013 39.1414 8.67918 39.1884 8.65751 39.2339C8.59248 39.3965 8.55563 39.5691 8.54696 39.744C8.51012 40.5727 8.81429 41.3804 9.3894 41.9787C9.95728 42.574 10.7448 42.9093 11.567 42.9056Z" fill="black"/>
</svg>
