<svg width="60" height="60" viewBox="0 0 60 60" fill="none" xmlns="http://www.w3.org/2000/svg">
<path d="M8.49608 38.2161C7.99902 38.2161 7.59608 38.6191 7.59608 39.1161C7.59608 39.6132 7.99902 40.0161 8.49608 40.0161V38.2161ZM10.5898 40.0161C11.0868 40.0161 11.4898 39.6132 11.4898 39.1161C11.4898 38.6191 11.0868 38.2161 10.5898 38.2161V40.0161ZM49.498 38.2161C49.0009 38.2161 48.598 38.6191 48.598 39.1161C48.598 39.6132 49.0009 40.0161 49.498 40.0161V38.2161ZM51.33 40.0161C51.827 40.0161 52.23 39.6132 52.23 39.1161C52.23 38.6191 51.827 38.2161 51.33 38.2161V40.0161ZM27.3395 30.3647C26.8425 30.3647 26.4395 30.7677 26.4395 31.2647C26.4395 31.7618 26.8425 32.1647 27.3395 32.1647V30.3647ZM33.3589 32.1647C33.856 32.1647 34.2589 31.7618 34.2589 31.2647C34.2589 30.7677 33.856 30.3647 33.3589 30.3647V32.1647ZM10.922 52.1367V49.4074H9.12197V52.1367H10.922ZM49.4228 49.4074V52.1367H51.2228V49.4074H49.4228ZM49.1228 52.4367H11.222V54.2367H49.1228V52.4367ZM11.222 49.1074H12.7591V47.3074H11.222V49.1074ZM12.7591 49.1074H47.9542V47.3074H12.7591V49.1074ZM47.9542 49.1074H49.1228V47.3074H47.9542V49.1074ZM44.6999 41.1095H46.7542V39.3095H44.6999V41.1095ZM37.4999 24.607H23.4603V26.407H37.4999V24.607ZM13.9591 41.1095H16.2603V39.3095H13.9591V41.1095ZM45.5999 40.2095V35.7139H43.7999V40.2095H45.5999ZM45.5999 35.7139V32.707H43.7999V35.7139H45.5999ZM55.577 36.9139V44.6335H57.377V36.9139H55.577ZM47.0542 41.4095V45.8335H48.8542V41.4095H47.0542ZM47.0542 45.8335V48.2074H48.8542V45.8335H47.0542ZM55.277 44.9335H47.9542V46.7335H55.277V44.9335ZM15.3603 32.707V35.7139H17.1603V32.707H15.3603ZM15.3603 35.7139V40.2095H17.1603V35.7139H15.3603ZM2.62344 36.9139V44.6335H4.42344V36.9139H2.62344ZM13.6591 48.2074V45.8335H11.8591V48.2074H13.6591ZM13.6591 45.8335V41.4095H11.8591V45.8335H13.6591ZM4.72344 46.7335H12.7591V44.9335H4.72344V46.7335ZM8.49608 40.0161H10.5898V38.2161H8.49608V40.0161ZM49.498 40.0161H51.33V38.2161H49.498V40.0161ZM27.3395 32.1647H33.3589V30.3647H27.3395V32.1647ZM16.2603 41.1095H20.5349V39.3095H16.2603V41.1095ZM21.4349 40.2095V39.3139H19.6349V40.2095H21.4349ZM24.1349 36.6139H24.2629V34.8139H24.1349V36.6139ZM20.5349 41.1095H27.8629V39.3095H20.5349V41.1095ZM26.9629 39.3139V40.2095H28.7629V39.3139H26.9629ZM27.8629 41.1095H32.3993V39.3095H27.8629V41.1095ZM33.2993 40.2095V39.3139H31.4993V40.2095H33.2993ZM35.9993 36.6139H36.2146V34.8139H35.9993V36.6139ZM32.3993 41.1095H39.8146V39.3095H32.3993V41.1095ZM39.8146 41.1095H44.6999V39.3095H39.8146V41.1095ZM38.9146 39.3139V40.2095H40.7146V39.3139H38.9146ZM22.3946 17.8727V9.06358H20.5946V17.8727H22.3946ZM19.0946 5.76357H14.6473V7.56357H19.0946V5.76357ZM11.3473 9.06357V17.8727H13.1473V9.06357H11.3473ZM14.6473 21.1727H19.0946V19.3727H14.6473V21.1727ZM28.6054 21.1727H32.1803V19.3727H28.6054V21.1727ZM35.4803 17.8727V9.06358H33.6803V17.8727H35.4803ZM32.1803 5.76357H28.6054V7.56357H32.1803V5.76357ZM25.3054 9.06357V17.8727H27.1054V9.06357H25.3054ZM41.4294 21.1727H45.5542V19.3727H41.4294V21.1727ZM48.8542 17.8727V9.06358H47.0542V17.8727H48.8542ZM45.5542 5.76357H41.4294V7.56357H45.5542V5.76357ZM38.1294 9.06357V17.8727H39.9294V9.06357H38.1294ZM45.5542 21.1727C47.3767 21.1727 48.8542 19.6953 48.8542 17.8727H47.0542C47.0542 18.7011 46.3826 19.3727 45.5542 19.3727V21.1727ZM41.4294 19.3727C40.601 19.3727 39.9294 18.7011 39.9294 17.8727H38.1294C38.1294 19.6952 39.6069 21.1727 41.4294 21.1727V19.3727ZM28.6054 5.76357C26.7829 5.76357 25.3054 7.24103 25.3054 9.06357H27.1054C27.1054 8.23515 27.777 7.56357 28.6054 7.56357V5.76357ZM32.1803 21.1727C34.0028 21.1727 35.4803 19.6953 35.4803 17.8727H33.6803C33.6803 18.7011 33.0087 19.3727 32.1803 19.3727V21.1727ZM28.6054 19.3727C27.777 19.3727 27.1054 18.7011 27.1054 17.8727H25.3054C25.3054 19.6952 26.7829 21.1727 28.6054 21.1727V19.3727ZM11.3473 17.8727C11.3473 19.6952 12.8248 21.1727 14.6473 21.1727V19.3727C13.8189 19.3727 13.1473 18.7011 13.1473 17.8727H11.3473ZM14.6473 5.76357C12.8248 5.76357 11.3473 7.24103 11.3473 9.06357H13.1473C13.1473 8.23515 13.8189 7.56357 14.6473 7.56357V5.76357ZM22.3946 9.06358C22.3946 7.24104 20.9171 5.76357 19.0946 5.76357V7.56357C19.923 7.56357 20.5946 8.23515 20.5946 9.06358H22.3946ZM36.2146 36.6139C37.7057 36.6139 38.9146 37.8227 38.9146 39.3139H40.7146C40.7146 36.8286 38.6998 34.8139 36.2146 34.8139V36.6139ZM33.2993 39.3139C33.2993 37.8227 34.5081 36.6139 35.9993 36.6139V34.8139C33.514 34.8139 31.4993 36.8286 31.4993 39.3139H33.2993ZM24.2629 36.6139C25.7541 36.6139 26.9629 37.8227 26.9629 39.3139H28.7629C28.7629 36.8286 26.7482 34.8139 24.2629 34.8139V36.6139ZM21.4349 39.3139C21.4349 37.8227 22.6438 36.6139 24.1349 36.6139V34.8139C21.6497 34.8139 19.6349 36.8286 19.6349 39.3139H21.4349ZM2.62344 44.6335C2.62344 45.7933 3.56364 46.7335 4.72344 46.7335V44.9335C4.55775 44.9335 4.42344 44.7992 4.42344 44.6335H2.62344ZM23.4603 24.607C18.9868 24.607 15.3603 28.2335 15.3603 32.707H17.1603C17.1603 29.2276 19.9809 26.407 23.4603 26.407V24.607ZM35.4803 9.06358C35.4803 7.24104 34.0028 5.76357 32.1803 5.76357V7.56357C33.0087 7.56357 33.6803 8.23515 33.6803 9.06358H35.4803ZM4.72344 34.8139C3.56364 34.8139 2.62344 35.7541 2.62344 36.9139H4.42344C4.42344 36.7482 4.55775 36.6139 4.72344 36.6139V34.8139ZM37.4999 26.407C40.9793 26.407 43.7999 29.2276 43.7999 32.707H45.5999C45.5999 28.2335 41.9734 24.607 37.4999 24.607V26.407ZM46.7542 41.1095C46.9199 41.1095 47.0542 41.2439 47.0542 41.4095H48.8542C48.8542 40.2497 47.914 39.3095 46.7542 39.3095V41.1095ZM20.5946 17.8727C20.5946 18.7011 19.923 19.3727 19.0946 19.3727V21.1727C20.9171 21.1727 22.3946 19.6953 22.3946 17.8727H20.5946ZM55.577 44.6335C55.577 44.7992 55.4427 44.9335 55.277 44.9335V46.7335C56.4368 46.7335 57.377 45.7933 57.377 44.6335H55.577ZM49.4228 52.1367C49.4228 52.3024 49.2884 52.4367 49.1228 52.4367V54.2367C50.2826 54.2367 51.2228 53.2965 51.2228 52.1367H49.4228ZM57.377 36.9139C57.377 35.7541 56.4368 34.8139 55.277 34.8139V36.6139C55.4427 36.6139 55.577 36.7482 55.577 36.9139H57.377ZM51.2228 49.4074C51.2228 48.2476 50.2826 47.3074 49.1228 47.3074V49.1074C49.2884 49.1074 49.4228 49.2418 49.4228 49.4074H51.2228ZM41.4294 5.76357C39.6069 5.76357 38.1294 7.24104 38.1294 9.06357H39.9294C39.9294 8.23515 40.601 7.56357 41.4294 7.56357V5.76357ZM10.922 49.4074C10.922 49.2418 11.0563 49.1074 11.222 49.1074V47.3074C10.0622 47.3074 9.12197 48.2476 9.12197 49.4074H10.922ZM13.9591 39.3095C12.7993 39.3095 11.8591 40.2497 11.8591 41.4095H13.6591C13.6591 41.2439 13.7934 41.1095 13.9591 41.1095V39.3095ZM48.8542 9.06358C48.8542 7.24104 47.3767 5.76357 45.5542 5.76357V7.56357C46.3826 7.56357 47.0542 8.23515 47.0542 9.06358H48.8542ZM9.12197 52.1367C9.12197 53.2965 10.0622 54.2367 11.222 54.2367V52.4367C11.0563 52.4367 10.922 52.3024 10.922 52.1367H9.12197ZM11.9877 16.8076C13.0811 17.1124 14.8581 17.3213 16.7537 17.0037C18.6614 16.6842 20.7436 15.8203 22.3376 13.9247L20.96 12.7662C19.7088 14.2541 18.0584 14.9601 16.4563 15.2285C14.842 15.4989 13.3318 15.3137 12.4709 15.0737L11.9877 16.8076ZM26.4376 13.3386C27.2499 13.0821 28.6912 12.8363 30.2065 12.8843C31.7384 12.9328 33.1898 13.2764 34.1597 14.0493L35.2815 12.6416C33.869 11.516 31.9565 11.1388 30.2635 11.0852C28.554 11.0311 26.9095 11.302 25.8955 11.6222L26.4376 13.3386ZM38.6356 16.6843C39.7845 17.4676 41.6814 18.3329 43.6341 18.2748C44.6299 18.2452 45.6545 17.9738 46.5801 17.3143C47.505 16.6553 48.2719 15.6509 48.823 14.252L47.1482 13.5923C46.6996 14.731 46.1257 15.4279 45.5355 15.8484C44.9461 16.2684 44.2814 16.4548 43.5806 16.4756C42.1403 16.5185 40.6154 15.8555 39.6496 15.1971L38.6356 16.6843ZM44.6999 36.6139H55.277V34.8139H44.6999V36.6139ZM4.72344 36.6139H16.2603V34.8139H4.72344V36.6139Z" fill="black"/>
</svg>
