<svg width="54" height="56" viewBox="0 0 54 56" fill="none" xmlns="http://www.w3.org/2000/svg">
<path fill-rule="evenodd" clip-rule="evenodd" d="M39.407 11.9385V17.915C47.6043 20.8318 53.0781 28.5896 53.0781 37.2908C53.0804 45.0885 48.6695 52.2158 41.6898 55.6951C41.5761 55.7514 41.4508 55.7818 41.3242 55.7818H23.7121C23.5855 55.7807 23.4601 55.7514 23.3465 55.6951C22.5144 55.251 21.7176 54.7459 20.9629 54.1822C20.1554 54.5314 19.2859 54.7131 18.4058 54.7189H18.3496C16.5695 54.7271 14.8644 54.0018 13.6351 52.7127C12.6578 51.6932 12.0343 50.3853 11.8574 48.9838C11.5609 49.142 11.2445 49.2603 10.9164 49.3354C10.6504 49.3975 10.3785 49.4279 10.1054 49.4279C9.20661 49.4256 8.34177 49.0846 7.68318 48.4728C7.63982 48.4342 7.59646 48.3932 7.55544 48.3521C7.51442 48.3111 7.47341 48.2701 7.43357 48.2279C6.59099 47.3478 6.23942 46.108 6.49372 44.9162C6.56169 44.5916 6.67067 44.2764 6.81716 43.9787C5.39333 43.8346 4.05505 43.2299 3.00505 42.2561C2.91716 42.174 2.83161 42.0896 2.74841 42.0029C0.241768 39.3979 0.322628 35.2541 2.92771 32.7486C3.96247 31.7561 5.29372 31.1291 6.71755 30.9627C6.56403 30.6674 6.44919 30.3521 6.37536 30.0275C6.10114 28.8404 6.43278 27.5947 7.2613 26.7006C7.2988 26.6572 7.33982 26.615 7.38083 26.5728C7.42185 26.5318 7.46404 26.4908 7.50622 26.451C8.36052 25.6283 9.56755 25.285 10.7254 25.5346C11.0535 25.6049 11.3699 25.7174 11.6675 25.8686C11.8234 24.467 12.4246 23.1521 13.3832 22.1174C14.6043 20.7943 16.3199 20.0385 18.1199 20.0314H18.1761C19 20.0303 19.8156 20.185 20.582 20.4873C22.1312 19.4139 23.8176 18.5525 25.5965 17.9256V11.9373C25.5965 11.485 25.9633 11.117 26.4168 11.117H28.0738V7.32715H26.4168C25.9633 7.32715 25.5965 6.95918 25.5965 6.50683C25.5965 6.05332 25.9633 5.68652 26.4168 5.68652H28.0738V1.04004C28.0738 0.586523 28.4418 0.219727 28.8941 0.219727H36.1082C36.5617 0.219727 36.9285 0.586523 36.9285 1.04004V5.04082L39.6168 3.4752C40.6199 2.84004 41.6406 2.52246 42.5863 2.52246C43.6047 2.52246 44.5351 2.89043 45.2593 3.62402C46.8508 5.23184 46.8367 7.82637 45.2289 9.41777C44.5211 10.1162 43.5636 10.5029 42.5687 10.4889C41.6043 10.4889 40.5683 10.1607 39.5793 9.50332L36.9285 7.91543V11.1182H38.5867C39.0402 11.1182 39.407 11.485 39.407 11.9385ZM40.4693 4.87617C40.4649 4.8791 40.4605 4.88203 40.4558 4.88496L37.7218 6.47754L40.4394 8.10644C40.4453 8.10996 40.4509 8.11348 40.4564 8.11699C40.462 8.12051 40.4676 8.12402 40.4734 8.12754C42.1129 9.22441 43.409 8.91035 44.0746 8.25176C45.039 7.29785 45.0472 5.7416 44.0933 4.77715C42.85 3.5209 41.016 4.52871 40.4828 4.86738C40.4781 4.87031 40.4737 4.87324 40.4693 4.87617ZM35.2879 1.86035H29.7144V11.117H35.2879V1.86035ZM37.7664 12.7576H27.2371V17.6865H37.7664V12.7576ZM18.134 21.6732C16.7851 21.6779 15.4996 22.2439 14.5843 23.2342C13.6679 24.2197 13.1957 25.5381 13.2777 26.8822C13.2953 27.1471 13.3539 27.4084 13.4511 27.6557C13.498 27.7471 13.5437 27.8396 13.5847 27.9357L14.2422 29.1686C14.2644 29.2107 14.2832 29.2553 14.2984 29.2998L16.559 33.5865C16.8039 33.4764 17.0593 33.3896 17.3218 33.3287L17.309 30.692C17.3066 30.2396 17.6722 29.8705 18.1258 29.8682H18.1293C18.5804 29.8682 18.9472 30.2338 18.9496 30.685L18.9613 33.2807C19.2859 33.3346 19.6023 33.4283 19.9047 33.5584L22.1254 29.1744C22.1347 29.151 22.1465 29.1264 22.1582 29.1029L22.5097 28.4174L22.7898 27.8643C22.8097 27.8244 22.8273 27.7857 22.8449 27.7471C22.847 27.7428 22.8491 27.7381 22.851 27.7336C22.8522 27.7306 22.8533 27.7276 22.8543 27.7248C22.9843 27.433 23.0582 27.1201 23.0746 26.8002C23.1343 25.4561 22.6398 24.1459 21.707 23.1756C20.7871 22.2111 19.5097 21.6674 18.1761 21.6732H18.134ZM24.9426 36.5783H24.9519C25.4043 36.576 25.7734 36.9416 25.7758 37.3939C25.7781 37.8475 25.4136 38.2166 24.9601 38.2189L22.3258 38.2482C22.2683 38.5119 22.1863 38.7697 22.0797 39.017L26.4484 41.2295C26.4552 41.2329 26.4622 41.2359 26.4693 41.2389C26.4792 41.2432 26.4892 41.2474 26.4988 41.2529L27.2558 41.6396L27.775 41.9021C27.7844 41.9068 27.7941 41.9111 27.8038 41.9155C27.8111 41.9188 27.8183 41.9221 27.8254 41.9256L27.9414 41.9783C28.225 42.1002 28.5297 42.1705 28.8379 42.1869C30.182 42.2467 31.4933 41.7533 32.4625 40.8193C32.5269 40.7584 32.5902 40.6939 32.65 40.6283C34.4968 38.6467 34.3867 35.5435 32.4039 33.6967C31.4183 32.7803 30.1 32.308 28.757 32.39C28.3867 32.4146 28.0269 32.5178 27.7 32.6924L26.8574 33.1365L26.439 33.3592C26.4347 33.3611 26.4303 33.3629 26.4261 33.3648C26.4224 33.3664 26.4189 33.3681 26.4156 33.3697L22.0539 35.6701C22.1886 35.9689 22.2871 36.2842 22.3468 36.6064L24.9426 36.5783ZM27.0414 43.3705L26.5258 43.108L21.5066 40.5662L24.373 45.999L24.4117 46.0717C24.4187 46.085 24.4247 46.0982 24.4307 46.1115C24.4337 46.1182 24.4367 46.1248 24.4398 46.1314C24.4726 46.1971 24.5031 46.2615 24.5324 46.3271C24.85 46.9752 25.4429 47.4451 26.1461 47.6068C26.7777 47.7451 27.4375 47.5553 27.8992 47.1018C27.9273 47.076 27.9531 47.0514 27.9801 47.0232C27.9867 47.0163 27.9933 47.0095 27.9999 47.0026C28.0201 46.9818 28.04 46.9612 28.0586 46.94C28.5261 46.4432 28.7125 45.7436 28.5554 45.0791C28.3902 44.3783 27.9168 43.7889 27.2687 43.4748C27.2333 43.4601 27.1988 43.4437 27.1636 43.427C27.1569 43.4238 27.1501 43.4206 27.1433 43.4174C27.1304 43.4115 27.1164 43.4057 27.1023 43.3998C27.0975 43.3975 27.0926 43.3953 27.0877 43.393C27.0723 43.3858 27.0565 43.3785 27.0414 43.3705ZM27.7422 27.4869C27.2734 27.0404 26.6113 26.8623 25.9808 27.0111C25.266 27.1881 24.673 27.6838 24.3695 28.3541C24.3636 28.3676 24.3578 28.3808 24.3519 28.3939C24.3461 28.4071 24.3402 28.4203 24.3343 28.4338C24.3297 28.4455 24.3244 28.4572 24.3191 28.4689C24.3138 28.4807 24.3086 28.4924 24.3039 28.5041C24.2945 28.5275 24.284 28.551 24.2722 28.5744L23.9687 29.1674L21.4539 34.1314L26.0758 31.6939L26.9465 31.2311C26.9664 31.2205 26.9863 31.21 27.0074 31.2018C27.0379 31.1877 27.0683 31.1736 27.0976 31.1596C27.1164 31.1502 27.1351 31.1408 27.1539 31.1326C27.8066 30.8104 28.2765 30.2092 28.4324 29.4979C28.5789 28.8311 28.3808 28.135 27.9051 27.6463C27.8781 27.6182 27.8535 27.5936 27.8254 27.5654C27.7972 27.5385 27.7703 27.5115 27.7422 27.4869ZM18.2629 39.89C19.6515 39.89 20.7777 38.7627 20.7777 37.3728C20.7777 35.983 19.6515 34.8557 18.2629 34.8557C16.8742 34.8557 15.748 35.983 15.748 37.3728C15.748 38.7627 16.8742 39.89 18.2629 39.89ZM8.49834 27.7789C8.48987 27.7879 8.48144 27.7969 8.47302 27.8057C8.00544 28.3037 7.81911 29.0021 7.97614 29.6666C8.15778 30.4295 8.69919 31.0564 9.4281 31.3471C9.44919 31.3553 9.47028 31.3646 9.49021 31.3752L10.7793 32.0338C10.7902 32.0393 10.8012 32.0458 10.8121 32.0523C10.8176 32.0555 10.823 32.0588 10.8285 32.0619L15.0191 34.1853L12.1293 28.7045C12.0672 28.5873 12.0121 28.4666 11.9605 28.3459C11.6347 27.7342 11.0605 27.2947 10.3855 27.14C9.75271 27.0018 9.09411 27.1916 8.63239 27.6451C8.60427 27.6709 8.57849 27.6967 8.55153 27.7236C8.53339 27.7418 8.51578 27.7605 8.49834 27.7789ZM3.87575 34.1221C2.03005 36.1037 2.14021 39.208 4.12185 41.0537C5.10739 41.9701 6.42575 42.4424 7.76872 42.3603C8.07927 42.3404 8.38278 42.2643 8.66521 42.1365C8.70036 42.1189 8.73435 42.1025 8.7695 42.0861C8.77371 42.0841 8.77787 42.0822 8.78199 42.0803C8.79735 42.0732 8.81214 42.0663 8.82692 42.058L9.36247 41.7756L10.0926 41.3877C10.1065 41.3797 10.1213 41.3734 10.1355 41.3674C10.138 41.3664 10.1405 41.3653 10.1429 41.3643L14.4718 39.0803C14.3605 38.8318 14.2738 38.5717 14.2129 38.3057L11.5832 38.3291H11.5761C11.1226 38.3314 10.7535 37.9658 10.7511 37.5123C10.75 37.06 11.1156 36.6908 11.5679 36.6885L14.1695 36.665C14.2246 36.3451 14.3183 36.0322 14.4461 35.7334L8.75075 32.8482C8.42146 32.6795 8.05935 32.5822 7.68786 32.5635C6.34372 32.5037 5.03357 32.9982 4.06325 33.931C3.99997 33.9932 3.93669 34.0564 3.87575 34.1221ZM12.2373 46.2197C12.2443 46.2036 12.2511 46.188 12.2593 46.1725L12.2957 46.1033L15.073 40.6189L10.1476 43.2182L9.5863 43.5158C9.56638 43.5264 9.54646 43.5357 9.52536 43.5451C9.51496 43.5496 9.50503 43.554 9.49527 43.5585C9.48964 43.5611 9.48406 43.5636 9.47849 43.5662C9.43982 43.5861 9.40114 43.6049 9.3613 43.6225C8.71794 43.9471 8.25388 44.5447 8.10036 45.249C7.95388 45.9158 8.15193 46.6107 8.62771 47.1006C8.65349 47.1275 8.68044 47.1545 8.70739 47.1814C8.73435 47.2084 8.7613 47.2342 8.78942 47.26C9.25817 47.7053 9.92028 47.8846 10.5508 47.7357C11.2504 47.5623 11.8351 47.0818 12.1433 46.4291C12.1703 46.3635 12.2008 46.2978 12.2312 46.2334C12.2333 46.2288 12.2353 46.2242 12.2373 46.2197ZM18.3508 53.0783H18.3929C19.7418 53.0736 21.0273 52.5076 21.9426 51.515C22.859 50.5307 23.3312 49.2123 23.2492 47.8693C23.2304 47.5857 23.1648 47.3068 23.0558 47.0443C23.0183 46.9705 22.9832 46.8943 22.9504 46.817C22.9492 46.8146 22.948 46.8135 22.9468 46.8111L22.934 46.7865L22.2894 45.5795C22.2742 45.549 22.2601 45.5186 22.2484 45.4869L19.9679 41.1639C19.6738 41.2963 19.3644 41.3947 19.048 41.4557L19.0597 44.0596C19.0621 44.5131 18.6965 44.8822 18.2441 44.8846H18.2394C17.7883 44.8846 17.4215 44.5189 17.4191 44.0678L17.4062 41.4428C17.1367 41.3865 16.8742 41.3033 16.6211 41.1943L14.4133 45.5525C14.4015 45.5842 14.3886 45.6146 14.3734 45.6451L13.7558 46.8498L13.7371 46.8873C13.7347 46.8908 13.7336 46.8932 13.7324 46.8967C13.7008 46.9728 13.6668 47.049 13.6316 47.1228C13.5261 47.3865 13.4664 47.6666 13.4523 47.9502C13.3925 49.2943 13.8859 50.6045 14.8187 51.5748C15.7398 52.5404 17.0172 53.0842 18.3508 53.0783ZM25.8062 49.2111C25.4769 49.1408 25.1582 49.0283 24.8593 48.8748L24.4023 50.6654C24.1035 51.392 23.6769 52.0576 23.1437 52.633C22.9386 52.8533 22.7195 53.0584 22.4875 53.2482C22.9457 53.5705 23.4215 53.8682 23.9125 54.1412H41.1285C44.1566 52.5896 46.7125 50.2529 48.5277 47.376C49.341 46.0846 49.9937 44.7006 50.4742 43.2533C53.7672 33.3322 48.3941 22.6201 38.473 19.3283H26.5633C25.0222 19.8357 23.5492 20.5307 22.1793 21.399C22.4312 21.5947 22.6691 21.8092 22.8906 22.04C23.3769 22.5475 23.7789 23.1299 24.0812 23.7662L24.6062 25.3764C24.6308 25.5053 24.6508 25.6353 24.6683 25.7666C24.966 25.6072 25.2847 25.4877 25.614 25.4115C26.7683 25.1432 27.9812 25.4666 28.8484 26.274C28.891 26.312 28.9335 26.3533 28.9738 26.3925L28.9761 26.3947C29.0172 26.4357 29.0582 26.4779 29.098 26.5201C29.9406 27.4002 30.2922 28.64 30.0379 29.8307C29.9699 30.1576 29.8597 30.474 29.7109 30.7729C31.1347 30.917 32.4718 31.5217 33.5207 32.4943C33.6086 32.5764 33.6941 32.6607 33.7773 32.7475C36.284 35.3525 36.2043 39.4963 33.5992 42.0018C32.5656 42.9932 31.2379 43.6189 29.8164 43.7865C29.9687 44.0818 30.0824 44.3947 30.1562 44.7193C30.4293 45.9064 30.0988 47.1521 29.2703 48.0451C29.2316 48.0885 29.1906 48.1318 29.1496 48.1728C29.1097 48.2139 29.0676 48.2549 29.0254 48.2947C28.3621 48.9322 27.4797 49.2885 26.5609 49.2908C26.3066 49.2908 26.0535 49.2639 25.8062 49.2111Z" fill="black"/>
</svg>
