<svg width="49" height="58" viewBox="0 0 49 58" fill="none" xmlns="http://www.w3.org/2000/svg">
<path fill-rule="evenodd" clip-rule="evenodd" d="M36.0456 17.995V23.4483C43.5182 26.1098 48.5081 33.1884 48.5081 41.1279C48.5103 48.2429 44.4893 54.7463 38.1266 57.921C38.023 57.9723 37.9087 58.0001 37.7933 58.0001H21.7382C21.6228 57.9991 21.5085 57.9723 21.4049 57.921C20.6464 57.5157 19.92 57.0549 19.232 56.5406C18.496 56.8592 17.7033 57.0249 16.901 57.0303H16.8497C15.227 57.0378 13.6727 56.3759 12.5521 55.1997C11.6611 54.2694 11.0928 53.0761 10.9315 51.7972C10.6612 51.9416 10.3728 52.0496 10.0737 52.118C9.83117 52.1747 9.58333 52.2025 9.33442 52.2025C8.51505 52.2003 7.72666 51.8892 7.12629 51.331C7.08676 51.2957 7.04724 51.2583 7.00985 51.2209C6.97246 51.1834 6.93507 51.146 6.89875 51.1075C6.13066 50.3045 5.81017 49.1732 6.04199 48.0857C6.10395 47.7895 6.2033 47.5019 6.33683 47.2303C5.03888 47.0988 3.81891 46.547 2.86173 45.6584C2.78161 45.5836 2.70363 45.5066 2.62778 45.4275C0.342736 43.0505 0.416447 39.2695 2.79123 36.9833C3.73451 36.0776 4.94808 35.5056 6.24603 35.3537C6.10609 35.0843 6.0014 34.7966 5.93409 34.5005C5.68412 33.4173 5.98644 32.2806 6.74171 31.4648C6.7759 31.4252 6.81329 31.3867 6.85068 31.3482C6.88806 31.3108 6.92652 31.2734 6.96498 31.237C7.74375 30.4864 8.84408 30.1731 9.89954 30.4008C10.1987 30.465 10.4871 30.5676 10.7584 30.7056C10.9005 29.4267 11.4485 28.227 12.3224 27.2828C13.4355 26.0756 14.9995 25.3859 16.6404 25.3795H16.6916C17.4426 25.3784 18.1862 25.5195 18.8848 25.7954C20.2971 24.8159 21.8343 24.03 23.456 23.458V17.9939C23.456 17.5812 23.7903 17.2454 24.2038 17.2454L35.2978 17.2465C35.7112 17.2465 36.0456 17.5812 36.0456 17.995ZM24.9516 18.7424H34.55V23.2398H24.9516V18.7424ZM13.4174 28.3018C14.2517 27.3983 15.4236 26.8818 16.6532 26.8775H16.6916C17.9073 26.8722 19.0718 27.3683 19.9104 28.2483C20.7607 29.1337 21.2115 30.3292 21.157 31.5556C21.1421 31.8476 21.0748 32.1331 20.9562 32.3993C20.9549 32.4033 20.9531 32.4077 20.9512 32.4121C20.9501 32.4147 20.9489 32.4172 20.9477 32.4196C20.9316 32.4549 20.9156 32.4902 20.8974 32.5266L20.6421 33.0313L20.3216 33.6568C20.311 33.6782 20.3003 33.7006 20.2917 33.722L18.2673 37.7222C17.9917 37.6035 17.7033 37.518 17.4074 37.4688L17.3967 35.1003C17.3946 34.6886 17.0602 34.355 16.6489 34.355H16.6457C16.2323 34.3572 15.899 34.694 15.9011 35.1067L15.9129 37.5126C15.6736 37.5682 15.4407 37.6474 15.2174 37.7479L13.1567 33.8364C13.1428 33.7958 13.1257 33.7552 13.1054 33.7167L12.5061 32.5918C12.4687 32.5041 12.4271 32.4196 12.3843 32.3362C12.2957 32.1106 12.2423 31.8722 12.2262 31.6305C12.1515 30.404 12.582 29.2011 13.4174 28.3018ZM22.8684 40.4778H22.8599L20.4936 40.5034C20.4392 40.2094 20.3494 39.9217 20.2266 39.6491L24.2027 37.5501L24.2088 37.5472C24.2136 37.5449 24.2188 37.5427 24.2241 37.5404L24.6054 37.3373L25.3735 36.932C25.6716 36.7727 25.9995 36.6786 26.3371 36.6561C27.5614 36.5813 28.7632 37.0122 29.6616 37.8484C31.4691 39.5336 31.5695 42.365 29.8859 44.1732C29.8314 44.2331 29.7737 44.2919 29.715 44.3475C28.8315 45.1997 27.6361 45.6499 26.4108 45.5954C26.1299 45.5804 25.8521 45.5162 25.5936 45.405L25.4878 45.3569C25.4803 45.3532 25.4726 45.3497 25.4649 45.3462C25.4571 45.3427 25.4494 45.3393 25.4419 45.3355L24.9686 45.096L24.2785 44.7431C24.2738 44.7404 24.269 44.7381 24.2642 44.7358C24.26 44.7339 24.2558 44.7321 24.2516 44.7303L24.241 44.7257C24.2382 44.7244 24.2354 44.7231 24.2326 44.7218L20.2501 42.7029C20.3473 42.4773 20.4221 42.2421 20.4744 42.0015L22.8759 41.9748C23.2893 41.9726 23.6215 41.6358 23.6194 41.222C23.6173 40.8092 23.2808 40.4756 22.8684 40.4778ZM24.3031 46.4358L24.7731 46.6753C24.7786 46.6782 24.7842 46.6811 24.7899 46.6838C24.7984 46.6879 24.8069 46.6919 24.8154 46.6959L24.8287 46.7021C24.8415 46.7074 24.8543 46.7128 24.8661 46.7181L24.8847 46.7269C24.9167 46.7421 24.9482 46.757 24.9804 46.7705C25.5711 47.0571 26.0027 47.5949 26.1534 48.2343C26.2965 48.8406 26.1267 49.479 25.7004 49.9324C25.6835 49.9517 25.6653 49.9705 25.6469 49.9896L25.6288 50.0083C25.6043 50.034 25.5808 50.0564 25.5551 50.0799C25.1342 50.4937 24.5328 50.667 23.957 50.5408C23.316 50.3932 22.7755 49.9645 22.486 49.3731C22.4593 49.3133 22.4315 49.2544 22.4016 49.1946C22.3987 49.1885 22.396 49.1824 22.3933 49.1764C22.3878 49.1643 22.3823 49.1521 22.3759 49.14L22.3407 49.0737L19.7277 44.1165L24.3031 46.4358ZM22.784 51.6978C23.0564 51.8378 23.347 51.9405 23.6472 52.0047C23.8726 52.0528 24.1033 52.0774 24.3352 52.0774C25.1727 52.0752 25.9771 51.7502 26.5817 51.1685C26.6202 51.1321 26.6587 51.0947 26.695 51.0573C26.7324 51.0198 26.7698 50.9803 26.805 50.9407C27.5603 50.1259 27.8615 48.9893 27.6126 47.9061C27.5453 47.6099 27.4417 47.3244 27.3028 47.0549C28.5986 46.902 29.809 46.331 30.7512 45.4264C33.126 43.1403 33.1986 39.3593 30.9136 36.9823C30.8378 36.9031 30.7598 36.8261 30.6797 36.7513C29.7235 35.8638 28.5046 35.312 27.2067 35.1805C27.3424 34.9079 27.4428 34.6191 27.5047 34.3208C27.7365 33.2344 27.4161 32.1031 26.648 31.3001C26.6117 31.2616 26.5743 31.2231 26.5369 31.1857L26.5348 31.1836C26.498 31.1479 26.4592 31.1102 26.4204 31.0755C25.6299 30.3388 24.5242 30.0437 23.472 30.2885C23.1718 30.358 22.8812 30.4671 22.6099 30.6125C22.5939 30.4928 22.5757 30.3741 22.5533 30.2565L22.0747 28.7873C21.7991 28.2066 21.4326 27.6752 20.9893 27.2122C20.7874 27.0016 20.5705 26.8059 20.3409 26.6273C21.5897 25.835 22.9325 25.2009 24.3373 24.7379H35.1942C44.2382 27.7415 49.1363 37.5158 46.1344 46.5684C45.6964 47.889 45.1014 49.1518 44.36 50.3301C42.7052 52.9552 40.3753 55.0874 37.6149 56.5031H21.9209C21.4732 56.254 21.0395 55.9824 20.6218 55.6883C20.8333 55.5151 21.0331 55.328 21.2201 55.127C21.7061 54.6019 22.095 53.9946 22.3674 53.3316L22.7723 51.7919C22.7765 51.7609 22.7808 51.7298 22.784 51.6978ZM23.8064 31.7481C24.3811 31.6123 24.9847 31.7748 25.412 32.1822C25.4313 32.1992 25.45 32.2173 25.4691 32.2358L25.4878 32.2539C25.5135 32.2795 25.5359 32.302 25.5605 32.3277C25.9942 32.7736 26.1747 33.4087 26.0412 34.0171C25.8991 34.6662 25.4707 35.2147 24.8757 35.5088C24.8586 35.5163 24.8415 35.5248 24.8244 35.5334C24.7977 35.5462 24.7699 35.559 24.7422 35.5719C24.7229 35.5794 24.7048 35.589 24.6866 35.5986L23.8929 36.021L19.6796 38.2451L21.9721 33.7156L22.2488 33.1745C22.2595 33.1532 22.2691 33.1318 22.2777 33.1104C22.2819 33.0997 22.2867 33.089 22.2915 33.0783C22.2963 33.0676 22.3012 33.0569 22.3054 33.0462C22.3106 33.0344 22.3157 33.0227 22.3209 33.0111L22.3215 33.0099C22.3267 32.998 22.3322 32.9856 22.3375 32.9735C22.6142 32.3619 23.1547 31.9096 23.8064 31.7481ZM19.0632 41.2027C19.0632 42.4709 18.0366 43.4996 16.7707 43.4996C15.5048 43.4996 14.4782 42.4709 14.4782 41.2027C14.4782 39.9346 15.5048 38.9059 16.7707 38.9059C18.0366 38.9059 19.0632 39.9346 19.0632 41.2027ZM7.86938 32.4487C7.88528 32.4318 7.90134 32.4148 7.91788 32.3982C7.94245 32.3736 7.96596 32.3501 7.99159 32.3266C8.41249 31.9128 9.01287 31.7396 9.58974 31.8657C10.2051 32.0069 10.7285 32.4079 11.0255 32.966C11.0725 33.0762 11.1227 33.1863 11.1793 33.2932L13.8137 38.2943L9.99355 36.3567C9.99042 36.3549 9.9873 36.3531 9.98418 36.3513C9.98232 36.3502 9.98046 36.3491 9.9786 36.3479C9.96863 36.342 9.95865 36.3361 9.94868 36.3311L8.77357 35.7301C8.75541 35.7205 8.73618 35.712 8.71695 35.7045C8.05249 35.4393 7.55894 34.8672 7.39336 34.1711C7.25021 33.5648 7.42007 32.9275 7.84631 32.4731L7.8597 32.459L7.86938 32.4487ZM3.8798 44.5614C2.07334 42.8772 1.97293 40.0447 3.65546 38.2365C3.71101 38.1767 3.7687 38.1189 3.82638 38.0622C4.71092 37.2111 5.90525 36.7599 7.13056 36.8144C7.46921 36.8315 7.7993 36.9202 8.09949 37.0742L13.2913 39.7068C13.1749 39.9795 13.0894 40.265 13.0392 40.5569L10.6676 40.5783C10.2553 40.5804 9.92197 40.9172 9.92304 41.33C9.92517 41.7438 10.2617 42.0774 10.6751 42.0753H10.6815L13.0787 42.0539C13.1343 42.2966 13.2133 42.534 13.3148 42.7607L9.3686 44.8447L9.36182 44.8476C9.34887 44.8531 9.33538 44.8588 9.32267 44.8661L8.65713 45.22L8.16893 45.4777C8.15543 45.4853 8.14193 45.4916 8.12791 45.4981L8.11658 45.5034C8.08454 45.5184 8.05356 45.5333 8.02151 45.5494C7.76405 45.6659 7.48737 45.7354 7.20428 45.7536C5.98003 45.8285 4.77822 45.3975 3.8798 44.5614ZM11.2778 49.2751L11.2723 49.2876C11.2445 49.3464 11.2167 49.4063 11.1922 49.4662C10.9112 50.0618 10.3781 50.5002 9.74036 50.6584C9.16563 50.7942 8.56205 50.6306 8.13474 50.2243C8.10911 50.2008 8.08454 50.1772 8.05997 50.1526C8.03539 50.128 8.01082 50.1035 7.98732 50.0789C7.5536 49.6319 7.37306 48.9978 7.5066 48.3894C7.64654 47.7468 8.06958 47.2014 8.65606 46.9052C8.69238 46.8892 8.72764 46.8721 8.76289 46.8539C8.77678 46.8475 8.79067 46.8411 8.80562 46.8347C8.82485 46.8261 8.84301 46.8175 8.86117 46.8079L9.37288 46.5363L13.8628 44.1646L11.331 49.1689L11.2979 49.232C11.2904 49.2462 11.2842 49.2604 11.2778 49.2751ZM16.8893 55.5333H16.8508C15.6351 55.5386 14.4707 55.0425 13.631 54.1614C12.7807 53.276 12.3309 52.0806 12.3854 50.8541C12.3982 50.5953 12.4527 50.3398 12.5489 50.0992C12.5809 50.0318 12.6119 49.9623 12.6407 49.8928C12.6418 49.8896 12.6429 49.8875 12.645 49.8843L12.6621 49.85L13.2251 48.7508C13.239 48.723 13.2507 48.6952 13.2614 48.6663L15.274 44.6897C15.5048 44.7891 15.7441 44.865 15.9898 44.9164L16.0015 47.3116C16.0037 47.7232 16.338 48.0568 16.7493 48.0568H16.7536C17.166 48.0547 17.4993 47.7179 17.4971 47.3041L17.4864 44.9281C17.7749 44.8725 18.0569 44.7827 18.325 44.6619L20.4039 48.6065C20.4146 48.6353 20.4274 48.6631 20.4413 48.6909L21.0288 49.7923L21.0406 49.8148C21.0417 49.8169 21.0427 49.818 21.0438 49.8201C21.0737 49.8907 21.1058 49.9602 21.1399 50.0275C21.2393 50.2671 21.2991 50.5215 21.3162 50.7803C21.391 52.0057 20.9605 53.2087 20.1251 54.1069C19.2908 55.0125 18.1189 55.529 16.8893 55.5333Z" fill="black"/>
<path fill-rule="evenodd" clip-rule="evenodd" d="M28.7595 18.0703C28.4815 18.2133 28.152 18.1269 28.0237 17.8773L19.3419 0.996059C19.2135 0.74649 19.3349 0.42827 19.6129 0.285297C19.8909 0.142324 20.2203 0.228737 20.3486 0.478307L29.0304 17.3596C29.1588 17.6091 29.0375 17.9273 28.7595 18.0703Z" fill="black"/>
<path fill-rule="evenodd" clip-rule="evenodd" d="M29.8513 17.9693C29.5511 18.0564 29.2465 17.9162 29.171 17.6561L25.0305 3.39429C24.9549 3.13416 25.1371 2.85263 25.4373 2.76547C25.7375 2.67831 26.0421 2.81853 26.1176 3.07865L30.2582 17.3405C30.3337 17.6006 30.1515 17.8821 29.8513 17.9693Z" fill="black"/>
<path fill-rule="evenodd" clip-rule="evenodd" d="M30.968 17.9009C30.6593 17.9503 30.3731 17.7652 30.3287 17.4875L28.4528 5.76359C28.4084 5.48591 28.6226 5.22077 28.9313 5.17138C29.24 5.12199 29.5263 5.30705 29.5707 5.58473L31.4465 17.3087C31.4909 17.5863 31.2767 17.8515 30.968 17.9009Z" fill="black"/>
</svg>
