<svg width="45" height="59" viewBox="0 0 45 59" fill="none" xmlns="http://www.w3.org/2000/svg">
<path d="M20.5778 52.9998H41.2046C42.4173 52.9998 43.4004 52.0167 43.4004 50.804C43.4004 49.5913 42.4173 48.6083 41.2046 48.6083H38.5098M19.4004 48.6083H38.5098M38.5098 48.6083V16.7367C38.5098 14.9361 37.0501 13.4764 35.2494 13.4764M35.2494 13.4764V22.5532C35.2494 23.6036 34.3979 24.4551 33.3476 24.4551C32.2972 24.4551 31.4457 23.5939 31.4457 22.5436C31.4457 21.4825 30.5855 20.6125 29.5244 20.6125H29.2721C28.0717 20.6125 27.0985 21.5857 27.0985 22.7861V29.6894C27.0985 30.7398 26.247 31.5913 25.1966 31.5913C24.1462 31.5913 23.2947 30.7398 23.2947 29.6894V18.9436C23.2947 17.7431 22.3216 16.77 21.1211 16.77C19.9207 16.77 18.9476 17.7431 18.9476 18.9436V20.4998C18.9476 22.6457 17.1413 24.349 14.9991 24.2232L14.6004 24.1998V17.0764C14.6004 15.0881 16.2122 13.4764 18.2004 13.4764H26.5551M35.2494 13.4764H26.5551M26.5551 13.4764V10.7317M26.5551 10.7317C30.3693 9.14512 30.7431 3.88841 27.1918 1.7781L26.664 1.46449C26.5969 1.4246 26.5133 1.4246 26.4462 1.46449L25.9184 1.7781C22.3671 3.88841 22.7409 9.14512 26.5551 10.7317ZM3.80039 28.3998H2.60039C1.93765 28.3998 1.40039 27.8625 1.40039 27.1998C1.40039 26.537 1.93765 25.9998 2.60039 25.9998H23.0004V27.1998C23.0004 27.8625 22.4631 28.3998 21.8004 28.3998H20.6004M3.80039 28.3998H20.6004M3.80039 28.3998C3.80039 28.3998 3.84092 33.9433 5.60039 36.7998C6.30746 37.9477 7.61145 39.1801 8.5796 40.0109C9.33046 40.6553 9.80039 41.5826 9.80039 42.5721C9.80039 43.479 9.40558 44.3388 8.75608 44.9718C7.7713 45.9315 6.33933 47.4477 5.60039 48.7998C4.21046 51.3431 3.80039 55.9998 3.80039 55.9998M3.80039 55.9998H2.60039C1.93765 55.9998 1.40039 56.537 1.40039 57.1998V57.7998C1.40039 58.4625 1.93765 58.9998 2.60039 58.9998H21.8004C22.4631 58.9998 23.0004 58.4625 23.0004 57.7998V57.1998C23.0004 56.537 22.4631 55.9998 21.8004 55.9998H20.6004M3.80039 55.9998H20.6004M20.6004 28.3998C20.6004 28.3998 20.5309 33.9738 18.8004 36.7998C18.0532 38.02 16.7786 39.2242 15.829 40.0282C15.078 40.664 14.6004 41.5835 14.6004 42.5675C14.6004 43.4748 15.0062 44.3318 15.6627 44.9582C16.6372 45.8882 18.041 47.3654 18.8004 48.7998C20.1341 51.3191 20.6004 55.9998 20.6004 55.9998M12.2004 43.9998V44.5998M12.2004 46.9998V47.5998M31.4457 29.6506V31.8851C31.4457 32.9355 32.2972 33.787 33.3476 33.787C34.3979 33.787 35.2494 32.9355 35.2494 31.8851V29.6506C35.2494 28.6002 34.3979 27.7487 33.3476 27.7487C32.2972 27.7487 31.4457 28.6002 31.4457 29.6506ZM7.40039 35.5998C7.40039 35.5998 8.06201 33.4767 9.20039 33.1998C10.9343 32.778 11.5182 34.8786 13.4004 35.5998C14.3025 35.9454 16.4004 36.1998 16.4004 36.1998C16.4004 36.1998 14.7902 36.9353 14.0004 37.9998C13.0638 39.2621 12.2004 41.5998 12.2004 41.5998C12.2004 41.5998 11.4872 39.2936 10.4004 37.9998C9.54785 36.9848 7.40039 35.5998 7.40039 35.5998ZM10.2004 49.9998H14.1565C14.4429 49.9998 14.7199 50.1022 14.9374 50.2887L16.3374 51.4887C17.1833 52.2137 16.6706 53.5998 15.5565 53.5998H8.60039C7.44718 53.5998 6.95782 52.1317 7.88039 51.4398L9.48039 50.2398C9.68811 50.084 9.94075 49.9998 10.2004 49.9998Z" stroke="black" stroke-width="1.3" stroke-linecap="round" stroke-linejoin="round"/>
</svg>
