<svg width="47" height="54" viewBox="0 0 47 54" fill="none" xmlns="http://www.w3.org/2000/svg">
<path fill-rule="evenodd" clip-rule="evenodd" d="M14.6563 2.38043C13.4307 2.38043 12.4372 3.37393 12.4372 4.59947C12.4372 5.82501 13.4307 6.81851 14.6563 6.81851H21.4395C21.8371 6.81851 22.1595 7.14087 22.1595 7.53851C22.1595 7.93616 21.8371 8.25851 21.4395 8.25851H14.6563C12.6354 8.25851 10.9972 6.6203 10.9972 4.59947C10.9972 2.57864 12.6354 0.94043 14.6563 0.94043H15.8839C16.2815 0.94043 16.6039 1.26278 16.6039 1.66043C16.6039 2.05807 16.2815 2.38043 15.8839 2.38043H14.6563ZM17.9417 1.66043C17.9417 1.26278 18.264 0.94043 18.6617 0.94043H34.7728C35.1704 0.94043 35.4928 1.26278 35.4928 1.66043C35.4928 2.05807 35.1704 2.38043 34.7728 2.38043H18.6617C18.264 2.38043 17.9417 2.05807 17.9417 1.66043ZM24.6083 7.53851C24.6083 7.14087 24.9307 6.81851 25.3283 6.81851H38.7782C40.799 6.81851 42.4372 8.45672 42.4372 10.4776C42.4372 12.4984 40.799 14.1366 38.7782 14.1366H30.7996C29.4956 14.1366 28.3992 15.0259 28.084 16.2311C27.9833 16.6158 27.6704 16.9434 27.2728 16.9434C26.8751 16.9434 26.5464 16.6186 26.613 16.2266C26.9537 14.2225 28.6985 12.6966 30.7996 12.6966H38.7782C40.0037 12.6966 40.9972 11.7031 40.9972 10.4776C40.9972 9.25201 40.0037 8.25851 38.7782 8.25851H25.3283C24.9307 8.25851 24.6083 7.93616 24.6083 7.53851Z" fill="black"/>
<path fill-rule="evenodd" clip-rule="evenodd" d="M20.9656 20.6945C20.9656 20.1009 21.4468 19.6197 22.0404 19.6197H32.0962C32.9185 19.6197 33.5851 20.2863 33.5851 21.1086V23.0283C33.5851 25.6525 35.6364 27.8189 38.2566 27.9622C43.1415 28.2293 46.9655 32.2682 46.9655 37.1604V37.5348C46.9655 45.0044 40.9102 51.0597 33.4407 51.0597H18.0003C17.6026 51.0597 17.2803 50.7373 17.2803 50.3397C17.2803 49.942 17.6026 49.6197 18.0003 49.6197H33.4407C39.8732 49.6197 45.132 44.5939 45.5044 38.2548H24.8559C24.4583 38.2548 24.1359 37.9324 24.1359 37.5348C24.1359 37.1371 24.4583 36.8148 24.8559 36.8148H45.518C45.3438 32.8443 42.1836 29.6191 38.178 29.4001C34.7941 29.215 32.1451 26.4172 32.1451 23.0283V21.1086C32.1451 21.0816 32.1232 21.0597 32.0962 21.0597H22.4056V22.4851C22.4056 26.2306 19.6511 29.406 15.9431 29.9349L15.7397 28.5093C18.7382 28.0816 20.9656 25.5139 20.9656 22.4851V20.6945Z" fill="black"/>
<path fill-rule="evenodd" clip-rule="evenodd" d="M15.156 28.0404C14.5807 27.8134 13.9685 27.6973 13.35 27.6982H13.3078C11.9566 27.7034 10.6688 28.2708 9.75215 29.2639C9.03257 30.0407 8.5813 31.0276 8.4643 32.0797C8.24086 31.9662 8.00335 31.8818 7.75704 31.829C6.88791 31.6416 5.98184 31.8994 5.34056 32.5169C5.30889 32.5468 5.27722 32.5776 5.24643 32.6084C5.21564 32.6401 5.18485 32.6717 5.1567 32.7043C4.53477 33.3754 4.28582 34.3105 4.49167 35.2016C4.54709 35.4453 4.6333 35.6819 4.74853 35.9036C3.67972 36.0285 2.68041 36.4991 1.90365 37.2441C-0.0518804 39.1248 -0.112578 42.2353 1.76906 44.1908C1.83151 44.2558 1.89573 44.3192 1.96171 44.3808C2.7499 45.1117 3.75449 45.5656 4.82331 45.6738C4.71335 45.8973 4.63154 46.1339 4.58051 46.3776C4.38962 47.2722 4.65353 48.2028 5.28602 48.8635C5.31593 48.8951 5.34672 48.9259 5.3775 48.9567C5.40829 48.9875 5.44084 49.0183 5.47339 49.0473C5.96777 49.5065 6.61697 49.7625 7.29169 49.7642C7.49665 49.7642 7.70074 49.7414 7.90043 49.6947C8.14674 49.6384 8.38425 49.5496 8.60681 49.4308C8.73964 50.4829 9.20763 51.4646 9.94128 52.2299C10.8641 53.1975 12.144 53.742 13.4802 53.7358H13.5225C14.1831 53.7314 14.8358 53.5951 15.4419 53.333L16.5864 52.6319C16.7606 52.4894 16.9251 52.3354 17.079 52.1701C17.4793 51.7382 17.7995 51.2385 18.0238 50.6931L18.3669 49.349C18.5912 49.4643 18.8305 49.5487 19.0776 49.6015C19.2633 49.6411 19.4533 49.6613 19.6442 49.6613C20.3338 49.6595 20.9962 49.3921 21.4941 48.9136C21.5258 48.8837 21.5575 48.8529 21.5874 48.8221C21.6182 48.7913 21.6489 48.7588 21.678 48.7262C22.2999 48.0559 22.548 47.1209 22.343 46.2298C22.2876 45.9861 22.2023 45.7513 22.0879 45.5296C23.155 45.4038 24.1516 44.9341 24.9275 44.1899C26.883 42.3092 26.9429 39.1987 25.0612 37.2433C24.9988 37.1782 24.9345 37.1148 24.8686 37.0533C24.0813 36.3232 23.0775 35.8692 22.0087 35.7611C22.1205 35.5367 22.2031 35.2992 22.2542 35.0538C22.4451 34.1601 22.1812 33.2294 21.5487 32.5688C21.5188 32.5371 21.488 32.5055 21.4572 32.4747L21.4554 32.473C21.4252 32.4436 21.3932 32.4126 21.3613 32.3841C20.7103 31.778 19.7999 31.5352 18.9334 31.7366C18.6862 31.7938 18.4469 31.8836 18.2235 32.0032C18.2103 31.9047 18.1953 31.807 18.1768 31.7103L17.7828 30.5016C17.5558 30.024 17.2541 29.5868 16.889 29.2059C16.7227 29.0326 16.5442 28.8716 16.355 28.7247L15.156 28.0404ZM13.3184 28.9306C12.3059 28.9341 11.3409 29.3589 10.6538 30.1023C9.96591 30.842 9.6114 31.8317 9.67298 32.8406C9.68618 33.0394 9.73016 33.2356 9.80317 33.4212C9.83836 33.4898 9.87267 33.5593 9.90346 33.6314L10.397 34.5568C10.4137 34.5885 10.4277 34.6219 10.4392 34.6553L12.1361 37.8731C12.3199 37.7904 12.5117 37.7253 12.7088 37.6796L12.6991 35.7004C12.6973 35.3608 12.9718 35.0837 13.3122 35.082H13.3149C13.6535 35.082 13.9289 35.3564 13.9306 35.6951L13.9394 37.6435C14.1831 37.684 14.4206 37.7543 14.6476 37.852L16.3146 34.5612C16.3216 34.5436 16.3304 34.5251 16.3392 34.5075L16.6031 33.993L16.8133 33.5778C16.8283 33.5478 16.8415 33.5188 16.8547 33.4898L16.8576 33.4836C16.8592 33.48 16.8606 33.4764 16.8617 33.4731C16.9594 33.254 17.0148 33.0192 17.0271 32.779C17.072 31.7701 16.7007 30.7866 16.0005 30.0583C15.31 29.3343 14.3511 28.9262 13.35 28.9306H13.3184ZM18.4293 40.1189H18.4364C18.7759 40.1171 19.053 40.3915 19.0548 40.7311C19.0565 41.0715 18.7829 41.3486 18.4425 41.3504L16.465 41.3724C16.4219 41.5703 16.3603 41.7638 16.2803 41.9494L19.5597 43.6102C19.562 43.6113 19.5643 43.6124 19.5666 43.6134L19.5754 43.6172C19.5828 43.6204 19.5903 43.6237 19.5975 43.6278L20.1658 43.9181L20.5555 44.1151C20.5617 44.1182 20.568 44.121 20.5744 44.1239C20.5808 44.1268 20.5872 44.1296 20.5933 44.1327L20.6804 44.1723C20.8933 44.2638 21.122 44.3165 21.3534 44.3289C22.3624 44.3737 23.3467 44.0034 24.0742 43.3023C24.1226 43.2566 24.1701 43.2082 24.215 43.1589C25.6013 41.6714 25.5187 39.3421 24.0302 37.9558C23.2904 37.2679 22.3008 36.9134 21.2927 36.975C21.0147 36.9934 20.7446 37.0709 20.4992 37.2019L19.8667 37.5353L19.5527 37.7024C19.5484 37.7043 19.5441 37.7061 19.5401 37.708L19.5351 37.7104L16.2609 39.4371C16.3621 39.6614 16.436 39.8981 16.4808 40.14L18.4293 40.1189ZM20.0048 45.2173L19.6178 45.0203L15.8501 43.1123L18.0018 47.1904L18.0308 47.2449C18.0361 47.2549 18.0406 47.2648 18.0451 47.2748C18.0461 47.2771 18.0472 47.2794 18.0482 47.2818C18.0494 47.2844 18.0507 47.2871 18.0519 47.2898C18.0766 47.339 18.0994 47.3874 18.1214 47.4367C18.3598 47.9231 18.8049 48.2759 19.3327 48.3972C19.8069 48.501 20.3022 48.3585 20.6487 48.0181C20.6699 47.9988 20.6892 47.9803 20.7094 47.9592L20.7243 47.9438C20.7395 47.9281 20.7544 47.9126 20.7684 47.8967C21.1194 47.5238 21.2592 46.9986 21.1414 46.4998C21.0173 45.9738 20.6619 45.5313 20.1755 45.2956C20.1489 45.2845 20.123 45.2722 20.0967 45.2597L20.0814 45.2525C20.0771 45.2506 20.0727 45.2486 20.0681 45.2467C20.0624 45.2442 20.0565 45.2418 20.0506 45.2393L20.0396 45.2342C20.0327 45.231 20.0256 45.2277 20.0186 45.2243C20.014 45.222 20.0094 45.2197 20.0048 45.2173ZM20.5309 33.2945C20.179 32.9594 19.682 32.8257 19.2087 32.9374C18.6721 33.0702 18.227 33.4423 17.9992 33.9454C17.9948 33.9554 17.9903 33.9656 17.986 33.9754C17.9816 33.9853 17.9772 33.9952 17.9728 34.0053C17.9692 34.0141 17.9653 34.0229 17.9613 34.0317C17.9574 34.0405 17.9534 34.0492 17.9499 34.058C17.9429 34.0756 17.9349 34.0932 17.9261 34.1108L17.6983 34.5559L15.8105 38.2821L19.28 36.4525L19.9336 36.105C19.9485 36.0971 19.9635 36.0892 19.9793 36.083C20.0022 36.0725 20.0251 36.0619 20.047 36.0513C20.0611 36.0443 20.0752 36.0373 20.0893 36.0311C20.5793 35.7892 20.932 35.3379 21.049 34.804C21.159 34.3035 21.0103 33.781 20.6531 33.4141C20.6329 33.393 20.6144 33.3746 20.5933 33.3534L20.5779 33.3385C20.5622 33.3234 20.5468 33.3084 20.5309 33.2945ZM13.4151 42.6047C14.4576 42.6047 15.3029 41.7585 15.3029 40.7153C15.3029 39.672 14.4576 38.8258 13.4151 38.8258C12.3727 38.8258 11.5273 39.672 11.5273 40.7153C11.5273 41.7585 12.3727 42.6047 13.4151 42.6047ZM6.12523 33.4722C6.11161 33.4858 6.09838 33.4998 6.08529 33.5137L6.07732 33.5222L6.06629 33.5338C5.7153 33.9076 5.57543 34.4319 5.69331 34.9307C5.82966 35.5033 6.23607 35.9739 6.78323 36.1921C6.79907 36.1982 6.8149 36.2053 6.82985 36.2132L7.7975 36.7076C7.80572 36.7117 7.81393 36.7166 7.82215 36.7214C7.82422 36.7227 7.8263 36.7239 7.82837 36.7251L7.83445 36.7287L10.9802 38.3226L8.81089 34.2085C8.76427 34.1205 8.72293 34.0299 8.68422 33.9393C8.43967 33.4801 8.00863 33.1502 7.50193 33.0341C7.0269 32.9303 6.53252 33.0728 6.18593 33.4133C6.16482 33.4326 6.14546 33.452 6.12523 33.4722ZM2.61531 38.2751C1.22981 39.7626 1.3125 42.0928 2.80004 43.4782C3.53985 44.1661 4.52949 44.5206 5.53761 44.459C5.77072 44.4441 5.99856 44.3869 6.21056 44.291C6.23695 44.2778 6.26246 44.2655 6.28885 44.2532L6.29818 44.2489C6.30973 44.2435 6.32084 44.2383 6.33196 44.2321L6.73397 44.0201L7.28201 43.7289C7.29248 43.7229 7.30359 43.7182 7.31425 43.7137L7.31984 43.7113L10.5694 41.9969C10.4858 41.8104 10.4207 41.6151 10.375 41.4155L8.40096 41.433H8.39569C8.05525 41.4348 7.77815 41.1604 7.77639 40.8199C7.77551 40.4804 8.04997 40.2033 8.38953 40.2015L10.3424 40.1839C10.3838 39.9438 10.4541 39.7089 10.55 39.4846L6.27478 37.3189C6.02759 37.1922 5.75577 37.1192 5.47691 37.1052C4.46792 37.0603 3.48443 37.4315 2.75606 38.1317C2.70855 38.1783 2.66105 38.2258 2.61531 38.2751ZM8.82145 47.5132C8.84168 47.4639 8.86456 47.4147 8.88743 47.3663L8.89196 47.356C8.89725 47.3439 8.90236 47.3322 8.90854 47.3206L8.93581 47.2687L11.0207 43.1519L7.32336 45.1029L6.90199 45.3264C6.88703 45.3343 6.87208 45.3413 6.85625 45.3484C6.84393 45.3536 6.83249 45.3589 6.82106 45.3642C6.79203 45.3792 6.763 45.3932 6.73309 45.4064C6.25015 45.6501 5.90179 46.0987 5.78656 46.6274C5.6766 47.1279 5.82526 47.6495 6.18241 48.0172C6.20176 48.0375 6.222 48.0577 6.24223 48.0779C6.26246 48.0982 6.2827 48.1175 6.30381 48.1369C6.65568 48.4711 7.1527 48.6057 7.62597 48.494C8.15113 48.3638 8.59009 48.0032 8.82145 47.5132ZM13.4811 52.5043H13.5128C14.5253 52.5008 15.4903 52.0759 16.1773 51.3309C16.8652 50.592 17.2198 49.6024 17.1582 48.5943C17.1441 48.3814 17.0948 48.1721 17.013 47.975C16.9849 47.9196 16.9585 47.8624 16.9339 47.8044L16.9325 47.8022L16.9312 47.8L16.9215 47.7815L16.4377 46.8755C16.4263 46.8526 16.4157 46.8297 16.4069 46.806L14.6951 43.5609C14.4743 43.6603 14.242 43.7342 14.0045 43.78L14.0133 45.7345C14.0151 46.075 13.7406 46.3521 13.4011 46.3538H13.3975C13.0589 46.3538 12.7835 46.0794 12.7818 45.7407L12.7721 43.7703C12.5698 43.7281 12.3727 43.6656 12.1827 43.5838L10.5254 46.8552C10.5166 46.879 10.5069 46.9018 10.4955 46.9247L10.0319 47.829L10.0178 47.8571C10.0161 47.8598 10.0152 47.8615 10.0143 47.8642C9.99055 47.9214 9.96503 47.9785 9.93864 48.0339C9.85947 48.2319 9.81461 48.4421 9.80405 48.655C9.75919 49.6639 10.1295 50.6474 10.8298 51.3757C11.5212 52.1006 12.48 52.5087 13.4811 52.5043Z" fill="black"/>
</svg>
