<svg width="51" height="50" viewBox="0 0 51 50" fill="none" xmlns="http://www.w3.org/2000/svg">
<path d="M29.8818 2.93767C30.3672 3.0446 30.8474 2.73777 30.9543 2.25236C31.0612 1.76694 30.7544 1.28674 30.269 1.17981L29.8818 2.93767ZM44.7353 12.2548L45.0505 11.4118C44.8108 11.3222 44.5442 11.3389 44.3175 11.4577C44.0908 11.5765 43.9254 11.7862 43.8627 12.0343L44.7353 12.2548ZM42.7129 16.5847C42.5911 17.0666 42.8831 17.556 43.365 17.6778C43.8469 17.7995 44.3363 17.5076 44.4581 17.0257L42.7129 16.5847ZM49.2917 14.9191C49.7573 15.0932 50.2758 14.8568 50.4499 14.3913C50.6239 13.9257 50.3876 13.4071 49.922 13.2331L49.2917 14.9191ZM22.0457 22.829L22.8219 23.2844L22.0457 22.829ZM21.2607 24.1221C21.6795 24.3897 22.236 24.2671 22.5036 23.8482C22.7712 23.4293 22.6486 22.8728 22.2298 22.6052L21.2607 24.1221ZM18.523 20.237C18.1042 19.9694 17.5477 20.092 17.2801 20.5109C17.0124 20.9298 17.1351 21.4863 17.5539 21.7539L18.523 20.237ZM23.8712 11.7056C23.8712 12.2026 24.2741 12.6056 24.7712 12.6056C25.2682 12.6056 25.6712 12.2026 25.6712 11.7056H23.8712ZM25.6712 9.79232C25.6712 9.29527 25.2682 8.89232 24.7712 8.89232C24.2741 8.89232 23.8712 9.29527 23.8712 9.79232H25.6712ZM23.8712 39.3236C23.8712 39.8206 24.2741 40.2236 24.7712 40.2236C25.2682 40.2236 25.6712 39.8206 25.6712 39.3236H23.8712ZM25.6712 37.4103C25.6712 36.9133 25.2682 36.5103 24.7712 36.5103C24.2741 36.5103 23.8712 36.9133 23.8712 37.4103H25.6712ZM38.4035 22.878C37.9065 22.878 37.5035 23.2809 37.5035 23.778C37.5035 24.275 37.9065 24.678 38.4035 24.678V22.878ZM40.3168 24.678C40.8138 24.678 41.2168 24.275 41.2168 23.778C41.2168 23.2809 40.8138 22.878 40.3168 22.878V24.678ZM10.7857 22.878C10.2886 22.878 9.88566 23.2809 9.88566 23.778C9.88566 24.275 10.2886 24.678 10.7857 24.678V22.878ZM12.6989 24.678C13.196 24.678 13.5989 24.275 13.5989 23.778C13.5989 23.2809 13.196 22.878 12.6989 22.878V24.678ZM26.8581 21.4446C26.5365 21.8236 26.5831 22.3916 26.9621 22.7132C27.3411 23.0347 27.909 22.9882 28.2306 22.6092L26.8581 21.4446ZM34.2124 15.559C34.5339 15.18 34.4874 14.6121 34.1084 14.2905C33.7294 13.9689 33.1614 14.0155 32.8398 14.3945L34.2124 15.559ZM47.59 24.9999C47.59 37.4766 37.4756 47.591 24.9989 47.591V49.391C38.4697 49.391 49.39 38.4707 49.39 24.9999H47.59ZM24.9989 47.591C12.5222 47.591 2.40781 37.4766 2.40781 24.9999H0.607813C0.607813 38.4707 11.5281 49.391 24.9989 49.391V47.591ZM2.40781 24.9999C2.40781 12.5232 12.5222 2.40879 24.9989 2.40879V0.608789C11.5281 0.608789 0.607813 11.529 0.607813 24.9999H2.40781ZM24.9989 2.40879C26.6764 2.40879 28.3101 2.59147 29.8818 2.93767L30.269 1.17981C28.571 0.805779 26.8074 0.608789 24.9989 0.608789V2.40879ZM43.9797 12.7438C46.2638 16.2736 47.59 20.4805 47.59 24.9999H49.39C49.39 20.1232 47.9578 15.5782 45.4909 11.7659L43.9797 12.7438ZM43.8627 12.0343L42.7129 16.5847L44.4581 17.0257L45.6079 12.4753L43.8627 12.0343ZM44.4201 13.0978L49.2917 14.9191L49.922 13.2331L45.0505 11.4118L44.4201 13.0978ZM42.9402 24.9999C42.9402 34.9085 34.9076 42.941 24.999 42.941V44.741C35.9017 44.741 44.7402 35.9026 44.7402 24.9999H42.9402ZM24.999 42.941C15.0904 42.941 7.05781 34.9085 7.05781 24.9999H5.25781C5.25781 35.9026 14.0962 44.741 24.999 44.741V42.941ZM7.05781 24.9999C7.05781 15.0912 15.0904 7.05868 24.999 7.05868V5.25868C14.0962 5.25868 5.25781 14.0971 5.25781 24.9999H7.05781ZM24.999 7.05868C34.9076 7.05868 42.9402 15.0912 42.9402 24.9999H44.7402C44.7402 14.0971 35.9017 5.25868 24.999 5.25868V7.05868ZM27.5205 24.558C27.5205 25.9506 26.3916 27.0795 24.9989 27.0795V28.8795C27.3857 28.8795 29.3205 26.9447 29.3205 24.558H27.5205ZM24.9989 27.0795C23.6063 27.0795 22.4773 25.9506 22.4773 24.558H20.6773C20.6773 26.9447 22.6122 28.8795 24.9989 28.8795V27.0795ZM24.9989 22.0364C26.3916 22.0364 27.5205 23.1653 27.5205 24.558H29.3205C29.3205 22.1712 27.3857 20.2364 24.9989 20.2364V22.0364ZM22.4773 24.558C22.4773 24.0916 22.6031 23.6574 22.8219 23.2844L21.2694 22.3735C20.8929 23.0152 20.6773 23.7628 20.6773 24.558H22.4773ZM22.8219 23.2844C23.2612 22.5358 24.0722 22.0364 24.9989 22.0364V20.2364C23.4077 20.2364 22.0185 21.0968 21.2694 22.3735L22.8219 23.2844ZM22.2298 22.6052L18.523 20.237L17.5539 21.7539L21.2607 24.1221L22.2298 22.6052ZM25.6712 11.7056V9.79232H23.8712V11.7056H25.6712ZM25.6712 39.3236V37.4103H23.8712V39.3236H25.6712ZM38.4035 24.678H40.3168V22.878H38.4035V24.678ZM10.7857 24.678H12.6989V22.878H10.7857V24.678ZM28.2306 22.6092L34.2124 15.559L32.8398 14.3945L26.8581 21.4446L28.2306 22.6092Z" fill="black"/>
</svg>
