<svg width="50" height="50" viewBox="0 0 50 50" fill="none" xmlns="http://www.w3.org/2000/svg">
<path fill-rule="evenodd" clip-rule="evenodd" d="M16.8854 20.0183V15.4738C16.8854 15.1289 17.1641 14.85 17.5086 14.85L26.7536 14.8492C27.0981 14.8492 27.3768 15.1289 27.3768 15.4729V20.0263C28.7282 20.503 30.0092 21.1579 31.1861 21.9742L29.9727 22.6674C28.932 22.0071 27.813 21.4787 26.6424 21.0929H17.5949C10.0583 23.5959 5.97655 31.7412 8.47809 39.285C8.84309 40.3855 9.33895 41.4378 9.95677 42.4198C11.3357 44.6073 13.2773 46.3841 15.5777 47.5639H28.6561C29.0291 47.3563 29.3905 47.13 29.7386 46.8849L30.8968 47.5951C30.3235 48.0237 29.7181 48.4078 29.086 48.7455C28.9997 48.7882 28.9044 48.8105 28.8083 48.8114H15.429C15.3329 48.8114 15.2376 48.7882 15.1513 48.7455C9.84905 46.0999 6.49822 40.6804 6.5 34.7512C6.5 28.135 10.6583 22.2361 16.8854 20.0183ZM18.1318 16.0967H26.1305V19.8445H18.1318V16.0967Z" fill="black"/>
<path fill-rule="evenodd" clip-rule="evenodd" d="M21.6654 15.5366C21.4338 15.6557 21.1593 15.5837 21.0523 15.3757L13.8175 1.30803C13.7105 1.10005 13.8116 0.834868 14.0433 0.715724C14.275 0.596579 14.5495 0.668591 14.6564 0.876565L21.8912 14.9443C21.9982 15.1522 21.8971 15.4174 21.6654 15.5366Z" fill="black"/>
<path fill-rule="evenodd" clip-rule="evenodd" d="M22.5753 15.4524C22.3251 15.525 22.0713 15.4081 22.0084 15.1914L18.5579 3.30655C18.495 3.08978 18.6468 2.85517 18.897 2.78254C19.1472 2.70991 19.401 2.82675 19.4639 3.04352L22.9144 14.9284C22.9773 15.1451 22.8255 15.3797 22.5753 15.4524Z" fill="black"/>
<path fill-rule="evenodd" clip-rule="evenodd" d="M23.5059 15.3954C23.2487 15.4365 23.0101 15.2823 22.9731 15.0509L21.4099 5.28096C21.3729 5.04956 21.5514 4.82861 21.8087 4.78745C22.0659 4.74629 22.3045 4.90052 22.3415 5.13192L23.9047 14.9019C23.9417 15.1333 23.7632 15.3542 23.5059 15.3954Z" fill="black"/>
<path d="M30.5 33.5V31.5C30.5 30.837 30.7634 30.2011 31.2322 29.7322C31.7011 29.2634 32.337 29 33 29C33.663 29 34.2989 29.2634 34.7678 29.7322C35.2366 30.2011 35.5 30.837 35.5 31.5V33.5M33 48.5C33 48.5 44 43.1 44 35V25.55L33 21.5L22 25.55V35C22 43.1 33 48.5 33 48.5ZM29.5 33.5H36.5C37.0523 33.5 37.5 33.9477 37.5 34.5V38C37.5 38.5523 37.0523 39 36.5 39H29.5C28.9477 39 28.5 38.5523 28.5 38V34.5C28.5 33.9477 28.9477 33.5 29.5 33.5Z" stroke="black" stroke-width="1.2" stroke-linecap="round" stroke-linejoin="round"/>
</svg>
