<svg width="40" height="45" viewBox="0 0 40 45" fill="none" xmlns="http://www.w3.org/2000/svg">
<path fill-rule="evenodd" clip-rule="evenodd" d="M12.7134 1.31697C11.6921 1.31697 10.8642 2.14489 10.8642 3.16618C10.8642 4.18746 11.6921 5.01538 12.7134 5.01538H18.366C18.6974 5.01538 18.966 5.28401 18.966 5.61538C18.966 5.94675 18.6974 6.21538 18.366 6.21538H12.7134C11.0293 6.21538 9.66416 4.8502 9.66416 3.16618C9.66416 1.48215 11.0293 0.116974 12.7134 0.116974H13.7364C14.0678 0.116974 14.3364 0.385603 14.3364 0.716974C14.3364 1.04834 14.0678 1.31697 13.7364 1.31697H12.7134ZM15.4512 0.716974C15.4512 0.385603 15.7198 0.116974 16.0512 0.116974H29.4771C29.8085 0.116974 30.0771 0.385603 30.0771 0.716974C30.0771 1.04834 29.8085 1.31697 29.4771 1.31697H16.0512C15.7198 1.31697 15.4512 1.04834 15.4512 0.716974ZM21.0068 5.61538C21.0068 5.28401 21.2754 5.01538 21.6068 5.01538H32.815C34.499 5.01538 35.8642 6.38055 35.8642 8.06458C35.8642 9.7486 34.499 11.1138 32.815 11.1138H26.1662C25.0795 11.1138 24.1658 11.8549 23.9031 12.8592C23.8193 13.1798 23.5585 13.4528 23.2271 13.4528C22.8958 13.4528 22.6218 13.1821 22.6773 12.8554C22.9613 11.1853 24.4152 9.91378 26.1662 9.91378H32.815C33.8362 9.91378 34.6642 9.08587 34.6642 8.06458C34.6642 7.04329 33.8362 6.21538 32.815 6.21538H21.6068C21.2754 6.21538 21.0068 5.94675 21.0068 5.61538Z" fill="black"/>
<path fill-rule="evenodd" clip-rule="evenodd" d="M17.9711 16.5787C17.9711 16.084 18.3721 15.683 18.8668 15.683H27.2467C27.9319 15.683 28.4874 16.2385 28.4874 16.9238V18.5235C28.4874 20.7103 30.1968 22.5157 32.3803 22.6351C36.451 22.8577 39.6377 26.2235 39.6377 30.3003V30.6123C39.6377 36.8369 34.5917 41.883 28.367 41.883H15.5C15.1686 41.883 14.9 41.6144 14.9 41.283C14.9 40.9516 15.1686 40.683 15.5 40.683H28.367C33.7275 40.683 38.1098 36.4949 38.4202 31.2123H21.2131C20.8817 31.2123 20.6131 30.9437 20.6131 30.6123C20.6131 30.2809 20.8817 30.0123 21.2131 30.0123H38.4314C38.2863 26.7035 35.6528 24.0159 32.3148 23.8333C29.4949 23.6791 27.2874 21.3476 27.2874 18.5235V16.9238C27.2874 16.9013 27.2692 16.883 27.2467 16.883H19.1711V18.0708C19.1711 21.1921 16.8757 23.8383 13.7857 24.279L13.6162 23.0911C16.1149 22.7346 17.9711 20.5948 17.9711 18.0708V16.5787Z" fill="black"/>
<path fill-rule="evenodd" clip-rule="evenodd" d="M13.1298 22.7002C12.6504 22.5111 12.1402 22.4144 11.6248 22.4151H11.5896C10.4637 22.4195 9.39045 22.8923 8.62659 23.7199C8.02694 24.3672 7.65088 25.1897 7.55338 26.0664C7.36718 25.9718 7.16925 25.9014 6.964 25.8575C6.23973 25.7013 5.48467 25.9161 4.95026 26.4307C4.92387 26.4556 4.89748 26.4813 4.87182 26.5069C4.84617 26.5333 4.82051 26.5597 4.79705 26.5868C4.27877 27.1461 4.07131 27.9254 4.24285 28.6679C4.28904 28.871 4.36088 29.0682 4.45691 29.2529C3.56623 29.357 2.73347 29.7492 2.08617 30.3701C0.456563 31.9373 0.405981 34.5294 1.97401 36.1589C2.02606 36.2132 2.07957 36.2659 2.13455 36.3172C2.79138 36.9264 3.62854 37.3047 4.51922 37.3948C4.42758 37.581 4.35941 37.7782 4.31689 37.9813C4.15782 38.7268 4.37774 39.5023 4.90481 40.0528C4.92974 40.0792 4.95539 40.1049 4.98105 40.1305C5.00671 40.1562 5.03383 40.1819 5.06095 40.206C5.47294 40.5887 6.01394 40.802 6.5762 40.8035C6.74701 40.8035 6.91708 40.7844 7.08349 40.7456C7.28874 40.6986 7.48667 40.6246 7.67214 40.5256C7.78283 41.4024 8.17282 42.2204 8.7842 42.8582C9.55319 43.6645 10.6198 44.1183 11.7333 44.1132H11.7685C12.319 44.1095 12.863 43.9959 13.3681 43.7774L14.3218 43.1932C14.4669 43.0744 14.604 42.9462 14.7323 42.8083C15.0658 42.4484 15.3327 42.0321 15.5196 41.5776L15.8055 40.4575C15.9924 40.5535 16.1918 40.6239 16.3978 40.6679C16.5525 40.7008 16.7109 40.7177 16.8699 40.7177C17.4447 40.7162 17.9967 40.4934 18.4116 40.0946C18.438 40.0697 18.4643 40.044 18.4893 40.0184C18.5149 39.9927 18.5406 39.9656 18.5648 39.9385C19.0831 39.3799 19.2898 38.6007 19.119 37.8581C19.0728 37.6551 19.0017 37.4593 18.9064 37.2746C19.7956 37.1698 20.6262 36.7783 21.2727 36.1582C22.9023 34.5909 22.9522 31.9989 21.3841 30.3693C21.3321 30.3151 21.2786 30.2623 21.2236 30.211C20.5675 29.6026 19.7311 29.2243 18.8404 29.1342C18.9335 28.9472 19.0024 28.7493 19.0449 28.5448C19.204 27.8 18.9841 27.0245 18.457 26.4739C18.4321 26.4476 18.4064 26.4212 18.3808 26.3955L18.3793 26.3941C18.3541 26.3696 18.3275 26.3438 18.3009 26.32C17.7584 25.8149 16.9997 25.6126 16.2776 25.7805C16.0716 25.8281 15.8722 25.9029 15.686 26.0026C15.675 25.9205 15.6626 25.8391 15.6472 25.7585L15.3188 24.7513C15.1296 24.3533 14.8782 23.9889 14.574 23.6715C14.4354 23.5271 14.2866 23.393 14.129 23.2706L13.1298 22.7002ZM11.5984 23.4421C10.7547 23.445 9.95051 23.7991 9.37798 24.4185C8.80473 25.035 8.5093 25.8597 8.56061 26.7005C8.57161 26.8661 8.60826 27.0296 8.66911 27.1843C8.69843 27.2414 8.72702 27.2994 8.75268 27.3595L9.16393 28.1306C9.17786 28.157 9.18959 28.1849 9.19912 28.2127L10.6132 30.8942C10.7664 30.8253 10.9262 30.771 11.0904 30.7329L11.0824 29.0836C11.0809 28.8006 11.3096 28.5697 11.5933 28.5683H11.5955C11.8777 28.5683 12.1072 28.797 12.1087 29.0792L12.116 30.7029C12.319 30.7366 12.517 30.7952 12.7061 30.8766L14.0953 28.1343C14.1011 28.1196 14.1085 28.1042 14.1158 28.0896L14.3357 27.6607L14.5109 27.3147C14.5234 27.2898 14.5344 27.2656 14.5454 27.2414L14.5478 27.2363C14.5491 27.2333 14.5503 27.2303 14.5512 27.2275C14.6326 27.045 14.6788 26.8493 14.6891 26.6491C14.7264 25.8083 14.4171 24.9888 13.8336 24.3818C13.2581 23.7786 12.4591 23.4384 11.6248 23.4421H11.5984ZM15.8576 32.7657H15.8634C16.1464 32.7642 16.3773 32.9929 16.3788 33.2759C16.3802 33.5595 16.1523 33.7905 15.8686 33.7919L14.2206 33.8102C14.1847 33.9752 14.1334 34.1364 14.0667 34.2911L16.7996 35.6751C16.8014 35.6761 16.8034 35.677 16.8053 35.6778L16.8126 35.681C16.8188 35.6837 16.8251 35.6863 16.8311 35.6898L17.3046 35.9317L17.6294 36.0959C17.6345 36.0984 17.6398 36.1008 17.6451 36.1032C17.6505 36.1056 17.6558 36.108 17.6609 36.1105L17.7335 36.1435C17.9109 36.2198 18.1015 36.2637 18.2943 36.274C19.1351 36.3114 19.9554 36.0028 20.5616 35.4185C20.602 35.3804 20.6416 35.3401 20.6789 35.2991C21.8343 34.0595 21.7653 32.1184 20.525 30.9631C19.9085 30.3899 19.0838 30.0944 18.2437 30.1458C18.012 30.1612 17.787 30.2257 17.5825 30.3349L17.0554 30.6127L16.7937 30.752C16.7901 30.7535 16.7865 30.7551 16.7832 30.7566L16.779 30.7586L14.0506 32.1975C14.1349 32.3845 14.1964 32.5817 14.2338 32.7832L15.8576 32.7657ZM17.1705 37.0144L16.8479 36.8502L13.7082 35.2602L15.5013 38.6586L15.5255 38.704C15.5299 38.7123 15.5336 38.7206 15.5374 38.729C15.5382 38.7309 15.5391 38.7328 15.54 38.7348C15.541 38.737 15.542 38.7392 15.5431 38.7414C15.5636 38.7825 15.5827 38.8228 15.601 38.8638C15.7996 39.2692 16.1706 39.5632 16.6104 39.6643C17.0055 39.7508 17.4183 39.6321 17.7071 39.3484C17.7247 39.3322 17.7408 39.3169 17.7577 39.2993L17.7701 39.2864C17.7827 39.2733 17.7952 39.2605 17.8068 39.2472C18.0993 38.9364 18.2158 38.4988 18.1176 38.0831C18.0142 37.6448 17.7181 37.2761 17.3127 37.0796C17.2906 37.0704 17.269 37.0602 17.247 37.0497L17.2343 37.0437C17.2307 37.0421 17.227 37.0405 17.2232 37.0389C17.2185 37.0368 17.2135 37.0348 17.2086 37.0327L17.1995 37.0284C17.1937 37.0258 17.1878 37.023 17.182 37.0202C17.1781 37.0183 17.1743 37.0164 17.1705 37.0144ZM17.6089 27.0787C17.3156 26.7994 16.9014 26.688 16.5071 26.7811C16.0599 26.8918 15.689 27.2019 15.4991 27.6212C15.4955 27.6295 15.4917 27.638 15.4881 27.6461C15.4844 27.6543 15.4808 27.6626 15.4771 27.671C15.4742 27.6783 15.4709 27.6857 15.4676 27.693C15.4643 27.7003 15.461 27.7077 15.458 27.715C15.4522 27.7297 15.4456 27.7443 15.4382 27.759L15.2484 28.1299L13.6752 31.2351L16.5664 29.7103L17.1111 29.4208C17.1236 29.4142 17.136 29.4076 17.1492 29.4025C17.1683 29.3937 17.1873 29.3849 17.2057 29.3761C17.2174 29.3702 17.2291 29.3643 17.2409 29.3592C17.6492 29.1576 17.9431 28.7816 18.0406 28.3366C18.1323 27.9195 18.0084 27.4841 17.7108 27.1784C17.6939 27.1608 17.6785 27.1454 17.6609 27.1278L17.648 27.1154C17.635 27.1028 17.6221 27.0903 17.6089 27.0787ZM11.6791 34.8372C12.5478 34.8372 13.2522 34.132 13.2522 33.2627C13.2522 32.3933 12.5478 31.6881 11.6791 31.6881C10.8104 31.6881 10.1059 32.3933 10.1059 33.2627C10.1059 34.132 10.8104 34.8372 11.6791 34.8372ZM5.60416 27.2268C5.5928 27.2381 5.58178 27.2498 5.57087 27.2614L5.56423 27.2684L5.55504 27.2781C5.26255 27.5896 5.14599 28.0265 5.24422 28.4422C5.35785 28.9194 5.69652 29.3116 6.15249 29.4934C6.16569 29.4985 6.17888 29.5043 6.19134 29.5109L6.99772 29.9229C7.00456 29.9263 7.01141 29.9304 7.01825 29.9345C7.01998 29.9355 7.02171 29.9365 7.02344 29.9376L7.02851 29.9405L9.64995 31.2688L7.84221 27.8403C7.80336 27.767 7.7689 27.6915 7.73665 27.616C7.53286 27.2334 7.17365 26.9585 6.75141 26.8617C6.35555 26.7752 5.94357 26.894 5.65474 27.1777C5.63714 27.1938 5.62102 27.2099 5.60416 27.2268ZM2.67922 31.2292C1.52464 32.4688 1.59355 34.4106 2.83316 35.5651C3.44967 36.1384 4.27437 36.4338 5.11447 36.3825C5.30873 36.37 5.4986 36.3224 5.67526 36.2425C5.69726 36.2315 5.71852 36.2212 5.74051 36.211L5.74828 36.2073C5.7579 36.2029 5.76716 36.1986 5.77643 36.1934L6.11144 36.0167L6.56814 35.7741C6.57687 35.7691 6.58612 35.7651 6.59501 35.7614L6.59966 35.7594L9.30761 34.3307C9.23797 34.1753 9.18372 34.0126 9.1456 33.8462L7.5006 33.8608H7.4962C7.21251 33.8623 6.98159 33.6336 6.98012 33.3499C6.97939 33.0669 7.20811 32.836 7.49107 32.8346L9.11848 32.8199C9.15293 32.6198 9.21158 32.4241 9.29148 32.2371L5.72878 30.4324C5.52279 30.3268 5.29627 30.266 5.06389 30.2543C4.22306 30.2169 3.40349 30.5262 2.79651 31.1097C2.75693 31.1486 2.71734 31.1881 2.67922 31.2292ZM7.85101 38.9276C7.86787 38.8866 7.88693 38.8455 7.90599 38.8052L7.90976 38.7966C7.91417 38.7865 7.91843 38.7768 7.92358 38.7671L7.9463 38.7238L9.68367 35.2932L6.60259 36.9191L6.25145 37.1053C6.23899 37.1119 6.22653 37.1177 6.21334 37.1236C6.20307 37.128 6.19354 37.1324 6.18401 37.1368C6.15982 37.1493 6.13563 37.161 6.11071 37.172C5.70825 37.375 5.41796 37.7489 5.32193 38.1894C5.23029 38.6065 5.35418 39.0412 5.65181 39.3476C5.66793 39.3645 5.68479 39.3814 5.70165 39.3982C5.71852 39.4151 5.73538 39.4312 5.75297 39.4473C6.0462 39.7259 6.46038 39.8381 6.85477 39.745C7.29241 39.6365 7.65821 39.3359 7.85101 38.9276ZM11.7341 43.0869H11.7605C12.6042 43.084 13.4084 42.7299 13.9809 42.109C14.5542 41.4933 14.8496 40.6686 14.7983 39.8285C14.7865 39.6511 14.7455 39.4767 14.6773 39.3125C14.6539 39.2663 14.6319 39.2186 14.6113 39.1702L14.6102 39.1684L14.6091 39.1666L14.6011 39.1512L14.1979 38.3962C14.1884 38.3771 14.1796 38.358 14.1722 38.3382L12.7457 35.6341C12.5617 35.7169 12.3682 35.7785 12.1702 35.8166L12.1776 37.4454C12.179 37.7291 11.9503 37.96 11.6674 37.9615H11.6644C11.3822 37.9615 11.1527 37.7328 11.1513 37.4505L11.1432 35.8085C10.9746 35.7733 10.8104 35.7213 10.6521 35.6531L9.27096 38.3793C9.26363 38.3991 9.25556 38.4181 9.24603 38.4372L8.85971 39.1908L8.84798 39.2142C8.84651 39.2164 8.84578 39.2179 8.84504 39.2201C8.82525 39.2677 8.80399 39.3154 8.782 39.3616C8.71602 39.5265 8.67864 39.7017 8.66984 39.8791C8.63245 40.7199 8.94108 41.5394 9.5246 42.1464C10.1008 42.7504 10.8998 43.0906 11.7341 43.0869Z" fill="black"/>
</svg>
