<svg width="42" height="50" viewBox="0 0 42 50" fill="none" xmlns="http://www.w3.org/2000/svg">
<mask id="path-1-outside-1" maskUnits="userSpaceOnUse" x="-0.5" y="-0.341766" width="43" height="50" fill="black">
<rect fill="white" x="-0.5" y="-0.341766" width="43" height="50"/>
<path fill-rule="evenodd" clip-rule="evenodd" d="M10.8854 20.0183V15.4738C10.8854 15.1289 11.1641 14.85 11.5086 14.85L20.7536 14.8492C21.0981 14.8492 21.3768 15.1289 21.3768 15.4729V20.0263C22.7282 20.503 24.8231 21.6838 26 22.5L24.7196 23.5C23.679 22.8397 21.813 21.4787 20.6424 21.0929H11.5949C4.05825 23.5959 -0.0234542 31.7412 2.47809 39.285C2.84309 40.3855 3.33895 41.4378 3.95677 42.4198C5.33574 44.6073 7.27732 46.3841 9.57768 47.5639H22.6561C23.0291 47.3563 23.3905 47.13 23.7386 46.8849L24.8968 47.5951C24.3235 48.0237 23.7181 48.4078 23.086 48.7455C22.9997 48.7882 22.9044 48.8105 22.8083 48.8114H9.42901C9.33287 48.8114 9.23761 48.7882 9.15126 48.7455C3.84905 46.0999 0.49822 40.6804 0.500001 34.7512C0.500001 28.135 4.65827 22.2361 10.8854 20.0183ZM12.1318 16.0967H20.1305V19.8445H12.1318V16.0967Z"/>
<path fill-rule="evenodd" clip-rule="evenodd" d="M15.6654 15.5366C15.4338 15.6557 15.1593 15.5837 15.0523 15.3757L7.81747 1.30803C7.71051 1.10005 7.81161 0.834868 8.04328 0.715724C8.27495 0.596579 8.54946 0.668591 8.65642 0.876565L15.8912 14.9443C15.9982 15.1522 15.8971 15.4174 15.6654 15.5366Z"/>
<path fill-rule="evenodd" clip-rule="evenodd" d="M16.5753 15.4524C16.3251 15.525 16.0713 15.4082 16.0084 15.1914L12.5579 3.30655C12.495 3.08978 12.6468 2.85517 12.897 2.78254C13.1472 2.70991 13.401 2.82675 13.4639 3.04352L16.9144 14.9284C16.9773 15.1451 16.8255 15.3797 16.5753 15.4524Z"/>
<path fill-rule="evenodd" clip-rule="evenodd" d="M17.5059 15.3954C17.2487 15.4365 17.0101 15.2823 16.9731 15.0509L15.4099 5.28096C15.3729 5.04956 15.5514 4.82861 15.8087 4.78745C16.0659 4.74629 16.3045 4.90052 16.3415 5.13192L17.9047 14.9019C17.9417 15.1333 17.7632 15.3542 17.5059 15.3954Z"/>
<path d="M30.8205 32.6026L26.6864 36.6472L24.7024 34.5329C24.4824 34.2984 24.1203 34.293 23.894 34.5209C23.6676 34.7489 23.6624 35.1238 23.8824 35.3584L26.262 37.8886C26.483 38.119 26.8403 38.1269 27.0706 37.9063L31.6176 33.4639C31.728 33.356 31.7925 33.207 31.7968 33.05C31.8011 32.8929 31.7448 32.7405 31.6405 32.6263C31.4192 32.388 31.0543 32.3776 30.8205 32.6026Z"/>
<path d="M27.7528 26.3782C23.0281 26.3782 19.1864 30.3575 19.1864 35.2515C19.1864 40.1456 23.0281 44.125 27.7528 44.125C32.4777 44.125 36.3195 40.1456 36.3195 35.2515C36.3195 30.3575 32.4777 26.3782 27.7528 26.3782ZM27.7528 42.9371C23.6589 42.9371 20.3332 39.4863 20.3332 35.2515C20.3332 31.0167 23.6589 27.5661 27.7528 27.5661C31.8508 27.5661 35.1727 31.0069 35.1727 35.2515C35.1727 39.496 31.8508 42.9371 27.7528 42.9371Z"/>
<path d="M39.5419 31.9848L39.7312 28.4627C39.7444 28.2263 39.6203 28.0043 39.4158 27.8985L36.3882 26.3127L34.8573 23.1767C34.7532 22.9668 34.5401 22.8389 34.3126 22.8501L30.9065 23.0403L28.0682 21.098C27.8769 20.9673 27.6289 20.9673 27.4374 21.098L24.5991 23.0403L21.1991 22.8443C20.9706 22.8303 20.7565 22.9589 20.6544 23.1709L19.1232 26.3069L16.0959 27.8927C15.8929 28.0003 15.7697 28.221 15.7805 28.4569L15.9695 31.979L14.0946 34.919C13.9685 35.1171 13.9685 35.3739 14.0946 35.5723L15.9639 38.5181L15.7747 42.0401C15.7615 42.2766 15.8853 42.4986 16.09 42.6044L19.1176 44.1901L20.6485 47.3262C20.7525 47.5364 20.9655 47.664 21.1933 47.6528L24.5935 47.4568L27.4318 49.3989C27.622 49.5337 27.8724 49.5337 28.0626 49.3989L30.9009 47.4568L34.3012 47.6528C34.5294 47.6665 34.7435 47.538 34.8459 47.3262L36.3768 44.1901L39.4044 42.6044C39.6071 42.4965 39.7305 42.2761 39.7197 42.0401L39.5305 38.5181L41.4054 35.5781C41.5315 35.38 41.5315 35.1229 41.4054 34.9248L39.5419 31.9848ZM38.4753 38.0311C38.4054 38.1374 38.3729 38.2652 38.3837 38.3935L38.5613 41.7253L35.7001 43.222C35.5911 43.2786 35.5026 43.3705 35.4479 43.4835L34.0028 46.4471L30.7862 46.2631C30.663 46.2585 30.5414 46.2914 30.4363 46.358L27.7528 48.1934L25.0695 46.358C24.9763 46.2928 24.8666 46.2575 24.7541 46.2571H24.7255L21.5086 46.4413L20.0637 43.4774C20.0091 43.3644 19.9206 43.2728 19.8113 43.2162L16.9443 41.7253L17.1222 38.3935C17.1266 38.2659 17.0946 38.1399 17.0303 38.0311L15.2586 35.2514L17.0303 32.4718C17.1004 32.3658 17.1329 32.2377 17.1222 32.1096L16.9443 28.7776L19.8057 27.2809C19.9148 27.2243 20.0032 27.1326 20.0579 27.0197L21.5028 24.0558L24.7196 24.24C24.8426 24.2444 24.9642 24.2115 25.0695 24.1449L27.7528 22.3097L30.4363 24.1449C30.5389 24.2175 30.6626 24.2511 30.7862 24.24L34.0028 24.0558L35.4479 27.0197C35.5026 27.1326 35.5911 27.2243 35.7001 27.2809L38.5613 28.7776L38.3837 32.1096C38.3792 32.237 38.4112 32.363 38.4753 32.4718L40.2472 35.2514L38.4753 38.0311Z"/>
</mask>
<path fill-rule="evenodd" clip-rule="evenodd" d="M10.8854 20.0183V15.4738C10.8854 15.1289 11.1641 14.85 11.5086 14.85L20.7536 14.8492C21.0981 14.8492 21.3768 15.1289 21.3768 15.4729V20.0263C22.7282 20.503 24.8231 21.6838 26 22.5L24.7196 23.5C23.679 22.8397 21.813 21.4787 20.6424 21.0929H11.5949C4.05825 23.5959 -0.0234542 31.7412 2.47809 39.285C2.84309 40.3855 3.33895 41.4378 3.95677 42.4198C5.33574 44.6073 7.27732 46.3841 9.57768 47.5639H22.6561C23.0291 47.3563 23.3905 47.13 23.7386 46.8849L24.8968 47.5951C24.3235 48.0237 23.7181 48.4078 23.086 48.7455C22.9997 48.7882 22.9044 48.8105 22.8083 48.8114H9.42901C9.33287 48.8114 9.23761 48.7882 9.15126 48.7455C3.84905 46.0999 0.49822 40.6804 0.500001 34.7512C0.500001 28.135 4.65827 22.2361 10.8854 20.0183ZM12.1318 16.0967H20.1305V19.8445H12.1318V16.0967Z" fill="black"/>
<path fill-rule="evenodd" clip-rule="evenodd" d="M15.6654 15.5366C15.4338 15.6557 15.1593 15.5837 15.0523 15.3757L7.81747 1.30803C7.71051 1.10005 7.81161 0.834868 8.04328 0.715724C8.27495 0.596579 8.54946 0.668591 8.65642 0.876565L15.8912 14.9443C15.9982 15.1522 15.8971 15.4174 15.6654 15.5366Z" fill="black"/>
<path fill-rule="evenodd" clip-rule="evenodd" d="M16.5753 15.4524C16.3251 15.525 16.0713 15.4082 16.0084 15.1914L12.5579 3.30655C12.495 3.08978 12.6468 2.85517 12.897 2.78254C13.1472 2.70991 13.401 2.82675 13.4639 3.04352L16.9144 14.9284C16.9773 15.1451 16.8255 15.3797 16.5753 15.4524Z" fill="black"/>
<path fill-rule="evenodd" clip-rule="evenodd" d="M17.5059 15.3954C17.2487 15.4365 17.0101 15.2823 16.9731 15.0509L15.4099 5.28096C15.3729 5.04956 15.5514 4.82861 15.8087 4.78745C16.0659 4.74629 16.3045 4.90052 16.3415 5.13192L17.9047 14.9019C17.9417 15.1333 17.7632 15.3542 17.5059 15.3954Z" fill="black"/>
<path d="M30.8205 32.6026L26.6864 36.6472L24.7024 34.5329C24.4824 34.2984 24.1203 34.293 23.894 34.5209C23.6676 34.7489 23.6624 35.1238 23.8824 35.3584L26.262 37.8886C26.483 38.119 26.8403 38.1269 27.0706 37.9063L31.6176 33.4639C31.728 33.356 31.7925 33.207 31.7968 33.05C31.8011 32.8929 31.7448 32.7405 31.6405 32.6263C31.4192 32.388 31.0543 32.3776 30.8205 32.6026Z" fill="black"/>
<path d="M27.7528 26.3782C23.0281 26.3782 19.1864 30.3575 19.1864 35.2515C19.1864 40.1456 23.0281 44.125 27.7528 44.125C32.4777 44.125 36.3195 40.1456 36.3195 35.2515C36.3195 30.3575 32.4777 26.3782 27.7528 26.3782ZM27.7528 42.9371C23.6589 42.9371 20.3332 39.4863 20.3332 35.2515C20.3332 31.0167 23.6589 27.5661 27.7528 27.5661C31.8508 27.5661 35.1727 31.0069 35.1727 35.2515C35.1727 39.496 31.8508 42.9371 27.7528 42.9371Z" fill="black"/>
<path d="M39.5419 31.9848L39.7312 28.4627C39.7444 28.2263 39.6203 28.0043 39.4158 27.8985L36.3882 26.3127L34.8573 23.1767C34.7532 22.9668 34.5401 22.8389 34.3126 22.8501L30.9065 23.0403L28.0682 21.098C27.8769 20.9673 27.6289 20.9673 27.4374 21.098L24.5991 23.0403L21.1991 22.8443C20.9706 22.8303 20.7565 22.9589 20.6544 23.1709L19.1232 26.3069L16.0959 27.8927C15.8929 28.0003 15.7697 28.221 15.7805 28.4569L15.9695 31.979L14.0946 34.919C13.9685 35.1171 13.9685 35.3739 14.0946 35.5723L15.9639 38.5181L15.7747 42.0401C15.7615 42.2766 15.8853 42.4986 16.09 42.6044L19.1176 44.1901L20.6485 47.3262C20.7525 47.5364 20.9655 47.664 21.1933 47.6528L24.5935 47.4568L27.4318 49.3989C27.622 49.5337 27.8724 49.5337 28.0626 49.3989L30.9009 47.4568L34.3012 47.6528C34.5294 47.6665 34.7435 47.538 34.8459 47.3262L36.3768 44.1901L39.4044 42.6044C39.6071 42.4965 39.7305 42.2761 39.7197 42.0401L39.5305 38.5181L41.4054 35.5781C41.5315 35.38 41.5315 35.1229 41.4054 34.9248L39.5419 31.9848ZM38.4753 38.0311C38.4054 38.1374 38.3729 38.2652 38.3837 38.3935L38.5613 41.7253L35.7001 43.222C35.5911 43.2786 35.5026 43.3705 35.4479 43.4835L34.0028 46.4471L30.7862 46.2631C30.663 46.2585 30.5414 46.2914 30.4363 46.358L27.7528 48.1934L25.0695 46.358C24.9763 46.2928 24.8666 46.2575 24.7541 46.2571H24.7255L21.5086 46.4413L20.0637 43.4774C20.0091 43.3644 19.9206 43.2728 19.8113 43.2162L16.9443 41.7253L17.1222 38.3935C17.1266 38.2659 17.0946 38.1399 17.0303 38.0311L15.2586 35.2514L17.0303 32.4718C17.1004 32.3658 17.1329 32.2377 17.1222 32.1096L16.9443 28.7776L19.8057 27.2809C19.9148 27.2243 20.0032 27.1326 20.0579 27.0197L21.5028 24.0558L24.7196 24.24C24.8426 24.2444 24.9642 24.2115 25.0695 24.1449L27.7528 22.3097L30.4363 24.1449C30.5389 24.2175 30.6626 24.2511 30.7862 24.24L34.0028 24.0558L35.4479 27.0197C35.5026 27.1326 35.5911 27.2243 35.7001 27.2809L38.5613 28.7776L38.3837 32.1096C38.3792 32.237 38.4112 32.363 38.4753 32.4718L40.2472 35.2514L38.4753 38.0311Z" fill="black"/>
<path d="M26.8392 48.0032L26.8389 48.0532H26.8392V48.0032ZM26.882 47.9532H26.8392V48.0532H26.882V47.9532ZM26.8396 47.9532C26.1777 47.9488 25.5238 47.8121 24.9166 47.5492L24.8769 47.641C25.4965 47.9092 26.1637 48.0487 26.8389 48.0532L26.8396 47.9532ZM14.0146 14.8992H18.2485V14.7992H14.0146V14.8992ZM23.7703 46.8462C23.5957 46.7033 23.4309 46.5489 23.2767 46.3831L23.2034 46.4512C23.3608 46.6204 23.5289 46.7778 23.7069 46.9236L23.7703 46.8462ZM23.4684 23.1894C23.4752 23.1824 23.4908 23.1743 23.5266 23.1753C23.5617 23.1764 23.6074 23.186 23.6625 23.2033C23.7726 23.2379 23.9072 23.299 24.0465 23.3628C24.184 23.4258 24.3259 23.4914 24.4455 23.5316C24.5053 23.5516 24.5622 23.5663 24.6121 23.5705C24.6606 23.5746 24.7116 23.5696 24.7503 23.5395L24.6889 23.4605C24.6798 23.4676 24.66 23.4742 24.6205 23.4709C24.5823 23.4676 24.534 23.4558 24.4773 23.4368C24.3639 23.3987 24.2275 23.3358 24.0881 23.2719C23.9505 23.2089 23.8098 23.1448 23.6926 23.1079C23.634 23.0895 23.5782 23.0768 23.5296 23.0754C23.4817 23.074 23.4315 23.0834 23.3962 23.1202L23.4684 23.1894ZM10.8854 20.0183L10.919 20.1125L10.9854 20.0888V20.0183H10.8854ZM11.5086 14.85V14.95H11.5086L11.5086 14.85ZM20.7536 14.8492V14.7492H20.7536L20.7536 14.8492ZM21.3768 20.0263H21.2768V20.097L21.3435 20.1206L21.3768 20.0263ZM26 22.5L26.0616 22.5788L26.1686 22.4952L26.057 22.4178L26 22.5ZM24.8968 47.5951L24.9566 47.6752L25.0747 47.5869L24.949 47.5099L24.8968 47.5951ZM23.086 48.7455L23.1304 48.8351L23.1332 48.8337L23.086 48.7455ZM22.8083 48.8114V48.9114L22.8092 48.9114L22.8083 48.8114ZM9.15126 48.7455L9.10661 48.835L9.10688 48.8351L9.15126 48.7455ZM0.500001 34.7512L0.600001 34.7512V34.7512H0.500001ZM20.1305 16.0967H20.2305V15.9967H20.1305V16.0967ZM12.1318 16.0967V15.9967H12.0318V16.0967H12.1318ZM12.1318 19.8445H12.0318V19.9445H12.1318V19.8445ZM20.1305 19.8445V19.9445H20.2305V19.8445H20.1305ZM3.95677 42.4198L3.87213 42.473L3.87218 42.4731L3.95677 42.4198ZM9.57768 47.5639L9.53204 47.6529L9.55353 47.6639H9.57768V47.5639ZM22.6561 47.5639V47.6639H22.682L22.7047 47.6513L22.6561 47.5639ZM23.7386 46.8849L23.7908 46.7997L23.7348 46.7653L23.681 46.8032L23.7386 46.8849ZM24.7196 23.5L24.6661 23.5844L24.7256 23.6222L24.7812 23.5788L24.7196 23.5ZM20.6424 21.0929L20.6737 20.9979L20.6584 20.9929H20.6424V21.0929ZM11.5949 21.0929V20.9929H11.5788L11.5634 20.998L11.5949 21.0929ZM2.47809 39.285L2.38318 39.3165L2.38318 39.3165L2.47809 39.285ZM15.0523 15.3757L15.1412 15.33L15.0523 15.3757ZM7.81747 1.30803L7.72854 1.35376L7.81747 1.30803ZM8.65642 0.876565L8.74535 0.83083L8.65642 0.876565ZM15.8912 14.9443L15.8023 14.99L15.8912 14.9443ZM16.0084 15.1914L16.1044 15.1635L16.0084 15.1914ZM12.5579 3.30655L12.4619 3.33443L12.5579 3.30655ZM13.4639 3.04352L13.56 3.01564L13.4639 3.04352ZM16.9144 14.9284L16.8183 14.9562L16.9144 14.9284ZM16.9731 15.0509L16.8744 15.0667L16.9731 15.0509ZM15.4099 5.28096L15.5087 5.26517L15.4099 5.28096ZM16.3415 5.13192L16.4402 5.11612L16.3415 5.13192ZM17.9047 14.9019L17.8059 14.9177L17.9047 14.9019ZM30.8205 32.6026L30.7511 32.5306L30.7505 32.5312L30.8205 32.6026ZM26.6864 36.6472L26.6135 36.7156L26.6834 36.7901L26.7564 36.7187L26.6864 36.6472ZM24.7024 34.5329L24.6294 34.6013L24.6295 34.6014L24.7024 34.5329ZM23.894 34.5209L23.8231 34.4504V34.4504L23.894 34.5209ZM23.8824 35.3584L23.8094 35.4268L23.8095 35.4269L23.8824 35.3584ZM26.262 37.8886L26.1891 37.9572L26.1898 37.9579L26.262 37.8886ZM27.0706 37.9063L27.1397 37.9785L27.1404 37.9778L27.0706 37.9063ZM31.6176 33.4639L31.6875 33.5354L31.6176 33.4639ZM31.7968 33.05L31.6968 33.0472L31.7968 33.05ZM31.6405 32.6263L31.7143 32.5588L31.7137 32.5583L31.6405 32.6263ZM39.5419 31.9848L39.442 31.9794L39.4403 32.0114L39.4574 32.0383L39.5419 31.9848ZM39.7312 28.4627L39.6313 28.4572L39.6313 28.4574L39.7312 28.4627ZM39.4158 27.8985L39.3694 27.9871L39.3698 27.9873L39.4158 27.8985ZM36.3882 26.3127L36.2984 26.3566L36.3128 26.3861L36.3418 26.4013L36.3882 26.3127ZM34.8573 23.1767L34.9472 23.1329L34.9469 23.1323L34.8573 23.1767ZM34.3126 22.8501L34.3077 22.7502L34.307 22.7502L34.3126 22.8501ZM30.9065 23.0403L30.85 23.1228L30.8781 23.142L30.9121 23.1402L30.9065 23.0403ZM28.0682 21.098L28.1246 21.0154L28.1246 21.0154L28.0682 21.098ZM27.4374 21.098L27.3811 21.0153L27.381 21.0154L27.4374 21.098ZM24.5991 23.0403L24.5934 23.1401L24.6274 23.1421L24.6556 23.1228L24.5991 23.0403ZM21.1991 22.8443L21.193 22.9441L21.1933 22.9441L21.1991 22.8443ZM20.6544 23.1709L20.7442 23.2148L20.7444 23.2143L20.6544 23.1709ZM19.1232 26.3069L19.1696 26.3955L19.1987 26.3803L19.2131 26.3508L19.1232 26.3069ZM16.0959 27.8927L16.0495 27.8041L16.049 27.8044L16.0959 27.8927ZM15.7805 28.4569L15.6806 28.4615L15.6806 28.4623L15.7805 28.4569ZM15.9695 31.979L16.0538 32.0328L16.0711 32.0057L16.0694 31.9736L15.9695 31.979ZM14.0946 34.919L14.0103 34.8652L14.0102 34.8653L14.0946 34.919ZM14.0946 35.5723L14.179 35.5187L14.179 35.5187L14.0946 35.5723ZM15.9639 38.5181L16.0638 38.5234L16.0655 38.4915L16.0484 38.4645L15.9639 38.5181ZM15.7747 42.0401L15.8745 42.0457L15.8745 42.0455L15.7747 42.0401ZM16.09 42.6044L16.1364 42.5158L16.1359 42.5155L16.09 42.6044ZM19.1176 44.1901L19.2075 44.1463L19.1931 44.1168L19.164 44.1016L19.1176 44.1901ZM20.6485 47.3262L20.5587 47.37L20.5589 47.3705L20.6485 47.3262ZM21.1933 47.6528L21.1981 47.7527L21.199 47.7527L21.1933 47.6528ZM24.5935 47.4568L24.65 47.3742L24.6218 47.355L24.5878 47.3569L24.5935 47.4568ZM27.4318 49.3989L27.4897 49.3173L27.4883 49.3164L27.4318 49.3989ZM28.0626 49.3989L28.0061 49.3164L28.0047 49.3173L28.0626 49.3989ZM30.9009 47.4568L30.9066 47.3569L30.8726 47.355L30.8444 47.3742L30.9009 47.4568ZM34.3012 47.6528L34.3071 47.553L34.3069 47.553L34.3012 47.6528ZM34.8459 47.3262L34.756 47.2823L34.7558 47.2826L34.8459 47.3262ZM36.3768 44.1901L36.3304 44.1016L36.3013 44.1168L36.2869 44.1463L36.3768 44.1901ZM39.4044 42.6044L39.4508 42.693L39.4514 42.6927L39.4044 42.6044ZM39.7197 42.0401L39.8196 42.0356L39.8196 42.0348L39.7197 42.0401ZM39.5305 38.5181L39.4462 38.4643L39.4289 38.4914L39.4306 38.5234L39.5305 38.5181ZM41.4054 35.5781L41.4897 35.6319L41.4898 35.6318L41.4054 35.5781ZM41.4054 34.9248L41.321 34.9783L41.3211 34.9785L41.4054 34.9248ZM38.4753 38.0311L38.5588 38.0861L38.5596 38.0849L38.4753 38.0311ZM38.3837 38.3935L38.4836 38.3882L38.4833 38.3851L38.3837 38.3935ZM38.5613 41.7253L38.6077 41.8139L38.6646 41.7841L38.6612 41.72L38.5613 41.7253ZM35.7001 43.222L35.7462 43.3107L35.7465 43.3106L35.7001 43.222ZM35.4479 43.4835L35.5378 43.5273L35.538 43.527L35.4479 43.4835ZM34.0028 46.4471L33.9971 46.5469L34.0635 46.5507L34.0927 46.4909L34.0028 46.4471ZM30.7862 46.2631L30.7919 46.1633L30.79 46.1632L30.7862 46.2631ZM30.4363 46.358L30.3828 46.2735L30.3799 46.2755L30.4363 46.358ZM27.7528 48.1934L27.6963 48.2759L27.7528 48.3145L27.8093 48.2759L27.7528 48.1934ZM25.0695 46.358L25.0122 46.4399L25.013 46.4405L25.0695 46.358ZM24.7541 46.2571L24.7545 46.1571H24.7541V46.2571ZM24.7255 46.2571V46.1569L24.7197 46.1572L24.7255 46.2571ZM21.5086 46.4413L21.4187 46.4851L21.4479 46.5449L21.5143 46.5411L21.5086 46.4413ZM20.0637 43.4774L19.9737 43.521L19.9738 43.5212L20.0637 43.4774ZM19.8113 43.2162L19.7651 43.3049L19.7653 43.305L19.8113 43.2162ZM16.9443 41.7253L16.8444 41.72L16.841 41.7843L16.8982 41.814L16.9443 41.7253ZM17.1222 38.3935L17.222 38.3988L17.2221 38.397L17.1222 38.3935ZM17.0303 38.0311L17.1165 37.9802L17.1146 37.9773L17.0303 38.0311ZM15.2586 35.2514L15.1743 35.1977L15.14 35.2514L15.1743 35.3052L15.2586 35.2514ZM17.0303 32.4718L16.9469 32.4166L16.946 32.418L17.0303 32.4718ZM17.1222 32.1096L17.0222 32.115L17.0225 32.118L17.1222 32.1096ZM16.9443 28.7776L16.898 28.689L16.841 28.7187L16.8444 28.7829L16.9443 28.7776ZM19.8057 27.2809L19.7596 27.1921L19.7593 27.1923L19.8057 27.2809ZM20.0579 27.0197L19.968 26.9758L19.9679 26.9761L20.0579 27.0197ZM21.5028 24.0558L21.5085 23.956L21.4421 23.9522L21.4129 24.012L21.5028 24.0558ZM24.7196 24.24L24.7139 24.3399L24.7161 24.3399L24.7196 24.24ZM25.0695 24.1449L25.123 24.2295L25.1259 24.2274L25.0695 24.1449ZM27.7528 22.3097L27.8093 22.2272L27.7528 22.1886L27.6964 22.2272L27.7528 22.3097ZM30.4363 24.1449L30.4941 24.0633L30.4928 24.0623L30.4363 24.1449ZM30.7862 24.24L30.7805 24.1401L30.7772 24.1404L30.7862 24.24ZM34.0028 24.0558L34.0927 24.012L34.0635 23.9522L33.9971 23.956L34.0028 24.0558ZM35.4479 27.0197L35.538 26.9761L35.5378 26.9758L35.4479 27.0197ZM35.7001 27.2809L35.7465 27.1923L35.7462 27.1921L35.7001 27.2809ZM38.5613 28.7776L38.6612 28.7829L38.6646 28.7187L38.6077 28.689L38.5613 28.7776ZM38.3837 32.1096L38.2838 32.1043L38.2837 32.1061L38.3837 32.1096ZM38.4753 32.4718L38.3891 32.5226L38.391 32.5255L38.4753 32.4718ZM40.2472 35.2514L40.3315 35.3052L40.3658 35.2514L40.3315 35.1977L40.2472 35.2514ZM10.9854 20.0183V15.4738H10.7854V20.0183H10.9854ZM10.9854 15.4738C10.9854 15.1841 11.2194 14.95 11.5086 14.95V14.75C11.1088 14.75 10.7854 15.0738 10.7854 15.4738H10.9854ZM20.7536 14.9492C21.0427 14.9492 21.2768 15.184 21.2768 15.4729H21.4768C21.4768 15.0739 21.1536 14.7492 20.7536 14.7492V14.9492ZM21.2768 15.4729V20.0263H21.4768V15.4729H21.2768ZM21.3435 20.1206C22.6836 20.5933 24.7704 21.7689 25.943 22.5822L26.057 22.4178C24.8759 21.5987 22.7728 20.4127 21.4101 19.932L21.3435 20.1206ZM24.8369 47.515C24.2677 47.9406 23.6666 48.3219 23.0389 48.6573L23.1332 48.8337C23.7696 48.4936 24.3792 48.1069 24.9566 47.6752L24.8369 47.515ZM23.0416 48.6559C22.9691 48.6918 22.8887 48.7107 22.8074 48.7114L22.8092 48.9114C22.9201 48.9104 23.0303 48.8847 23.1304 48.8351L23.0416 48.6559ZM9.42901 48.7114C9.34889 48.7114 9.26877 48.6921 9.19565 48.6559L9.10688 48.8351C9.20646 48.8844 9.31685 48.9114 9.42901 48.9114V48.7114ZM9.19591 48.656C3.92764 46.0273 0.598232 40.6425 0.600001 34.7512L0.400001 34.7512C0.398209 40.7183 3.77046 46.1724 9.10661 48.835L9.19591 48.656ZM0.600001 34.7512C0.600001 28.1773 4.73171 22.3161 10.919 20.1125L10.8519 19.924C4.58483 22.1561 0.400001 28.0928 0.400001 34.7512H0.600001ZM20.1305 15.9967H12.1318V16.1967H20.1305V15.9967ZM12.0318 16.0967V19.8445H12.2318V16.0967H12.0318ZM12.1318 19.9445H20.1305V19.7445H12.1318V19.9445ZM20.2305 19.8445V16.0967H20.0305V19.8445H20.2305ZM3.87218 42.4731C5.2607 44.6758 7.21574 46.4649 9.53204 47.6529L9.62331 47.4749C7.33891 46.3033 5.41078 44.5389 4.04137 42.3664L3.87218 42.4731ZM9.57768 47.6639H22.6561V47.4639H9.57768V47.6639ZM22.7047 47.6513C23.0807 47.442 23.4451 47.2138 23.7961 46.9667L23.681 46.8032C23.3359 47.0461 22.9774 47.2706 22.6074 47.4765L22.7047 47.6513ZM24.7732 23.4156C24.5143 23.2513 24.2037 23.0432 23.8636 22.8164C23.5241 22.5899 23.1558 22.3453 22.7833 22.1091C22.0408 21.6383 21.2721 21.1952 20.6737 20.9979L20.611 21.1879C21.1832 21.3764 21.9329 21.8067 22.6762 22.278C23.0466 22.5128 23.4131 22.7563 23.7527 22.9828C24.0917 23.2089 24.4047 23.4186 24.6661 23.5844L24.7732 23.4156ZM20.6424 20.9929H11.5949V21.1929H20.6424V20.9929ZM11.5634 20.998C3.97426 23.5184 -0.135724 31.7203 2.38318 39.3165L2.57301 39.2535C0.0888157 31.762 4.14224 23.6734 11.6265 21.1878L11.5634 20.998ZM2.38318 39.3165C2.7507 40.4245 3.25 41.4842 3.87213 42.473L4.04141 42.3665C3.4279 41.3914 2.93548 40.3464 2.57301 39.2535L2.38318 39.3165ZM24.949 47.5099L23.7908 46.7997L23.6863 46.9702L24.8445 47.6804L24.949 47.5099ZM24.7812 23.5788L26.0616 22.5788L25.9384 22.4212L24.6581 23.4212L24.7812 23.5788ZM14.9634 15.4215C15.1001 15.6873 15.4397 15.7651 15.7112 15.6255L15.6197 15.4476C15.4279 15.5463 15.2184 15.4801 15.1412 15.33L14.9634 15.4215ZM7.72854 1.35376L14.9634 15.4215L15.1412 15.33L7.9064 1.26229L7.72854 1.35376ZM7.99755 0.626795C7.72603 0.766432 7.59181 1.08789 7.72854 1.35376L7.9064 1.26229C7.82922 1.11221 7.89719 0.903305 8.08902 0.804653L7.99755 0.626795ZM8.74535 0.83083C8.60862 0.56496 8.26906 0.487158 7.99755 0.626795L8.08902 0.804653C8.28084 0.706001 8.49031 0.772221 8.56749 0.9223L8.74535 0.83083ZM15.9802 14.8985L8.74535 0.83083L8.56749 0.9223L15.8023 14.99L15.9802 14.8985ZM15.7112 15.6255C15.9827 15.4859 16.1169 15.1644 15.9802 14.8985L15.8023 14.99C15.8795 15.1401 15.8115 15.349 15.6197 15.4476L15.7112 15.6255ZM15.9123 15.2193C15.9943 15.5015 16.3134 15.6325 16.6032 15.5484L16.5474 15.3563C16.3369 15.4175 16.1483 15.3148 16.1044 15.1635L15.9123 15.2193ZM12.4619 3.33443L15.9123 15.2193L16.1044 15.1635L12.654 3.27867L12.4619 3.33443ZM12.8691 2.6865C12.5793 2.77065 12.3799 3.05216 12.4619 3.33443L12.654 3.27867C12.6101 3.1274 12.7143 2.9397 12.9249 2.87857L12.8691 2.6865ZM13.56 3.01564C13.478 2.73337 13.1589 2.60236 12.8691 2.6865L12.9249 2.87857C13.1354 2.81745 13.324 2.92013 13.3679 3.0714L13.56 3.01564ZM17.0104 14.9005L13.56 3.01564L13.3679 3.0714L16.8183 14.9562L17.0104 14.9005ZM16.6032 15.5484C16.893 15.4643 17.0923 15.1827 17.0104 14.9005L16.8183 14.9562C16.8622 15.1075 16.758 15.2952 16.5474 15.3563L16.6032 15.5484ZM16.8744 15.0667C16.9217 15.3622 17.2201 15.5424 17.5217 15.4941L17.4901 15.2966C17.2773 15.3307 17.0986 15.2024 17.0719 15.0351L16.8744 15.0667ZM15.3112 5.29676L16.8744 15.0667L17.0719 15.0351L15.5087 5.26517L15.3112 5.29676ZM15.7929 4.68871C15.4912 4.73698 15.2639 5.00126 15.3112 5.29676L15.5087 5.26517C15.4819 5.09787 15.6117 4.92024 15.8245 4.8862L15.7929 4.68871ZM16.4402 5.11612C16.3929 4.82061 16.0946 4.64044 15.7929 4.68871L15.8245 4.8862C16.0373 4.85215 16.216 4.98042 16.2427 5.14772L16.4402 5.11612ZM18.0034 14.8861L16.4402 5.11612L16.2427 5.14772L17.8059 14.9177L18.0034 14.8861ZM17.5217 15.4941C17.8234 15.4458 18.0507 15.1816 18.0034 14.8861L17.8059 14.9177C17.8327 15.085 17.7029 15.2626 17.4901 15.2966L17.5217 15.4941ZM30.7505 32.5312L26.6165 36.5757L26.7564 36.7187L30.8904 32.6741L30.7505 32.5312ZM26.7593 36.5788L24.7753 34.4645L24.6295 34.6014L26.6135 36.7156L26.7593 36.5788ZM24.7753 34.4645C24.5167 34.1887 24.0893 34.1823 23.8231 34.4504L23.965 34.5913C24.1512 34.4038 24.4482 34.408 24.6294 34.6013L24.7753 34.4645ZM23.8231 34.4504C23.5586 34.7167 23.5527 35.153 23.8094 35.4268L23.9553 35.29C23.7722 35.0947 23.7765 34.7811 23.965 34.5913L23.8231 34.4504ZM23.8095 35.4269L26.1891 37.9572L26.3348 37.8201L23.9552 35.2899L23.8095 35.4269ZM26.1898 37.9579C26.449 38.228 26.8695 38.2374 27.1397 37.9785L27.0014 37.8341C26.8111 38.0164 26.5171 38.0101 26.3341 37.8194L26.1898 37.9579ZM27.1404 37.9778L31.6875 33.5354L31.5477 33.3923L27.0007 37.8347L27.1404 37.9778ZM31.6875 33.5354C31.8169 33.409 31.8918 33.2352 31.8968 33.0527L31.6968 33.0472C31.6933 33.1788 31.6392 33.3029 31.5477 33.3923L31.6875 33.5354ZM31.8968 33.0527C31.9017 32.8702 31.8364 32.6925 31.7143 32.5588L31.5667 32.6938C31.6532 32.7885 31.7004 32.9156 31.6968 33.0472L31.8968 33.0527ZM31.7137 32.5583C31.4545 32.2791 31.0253 32.2667 30.7511 32.5306L30.8898 32.6747C31.0832 32.4885 31.3839 32.497 31.5672 32.6944L31.7137 32.5583ZM27.7528 26.2782C22.9696 26.2782 19.0864 30.3057 19.0864 35.2515H19.2864C19.2864 30.4094 23.0866 26.4782 27.7528 26.4782V26.2782ZM19.0864 35.2515C19.0864 40.1975 22.9696 44.225 27.7528 44.225V44.025C23.0866 44.025 19.2864 40.0937 19.2864 35.2515H19.0864ZM27.7528 44.225C32.5362 44.225 36.4195 40.1975 36.4195 35.2515H36.2195C36.2195 40.0937 32.4192 44.025 27.7528 44.025V44.225ZM36.4195 35.2515C36.4195 30.3057 32.5362 26.2782 27.7528 26.2782V26.4782C32.4192 26.4782 36.2195 30.4094 36.2195 35.2515H36.4195ZM27.7528 42.8371C23.7174 42.8371 20.4332 39.4344 20.4332 35.2515H20.2332C20.2332 39.5381 23.6003 43.0371 27.7528 43.0371V42.8371ZM20.4332 35.2515C20.4332 31.0685 23.7174 27.6661 27.7528 27.6661V27.4661C23.6003 27.4661 20.2332 30.9648 20.2332 35.2515H20.4332ZM27.7528 27.6661C31.7923 27.6661 35.0727 31.0588 35.0727 35.2515H35.2727C35.2727 30.955 31.9093 27.4661 27.7528 27.4661V27.6661ZM35.0727 35.2515C35.0727 39.4441 31.7923 42.8371 27.7528 42.8371V43.0371C31.9093 43.0371 35.2727 39.5479 35.2727 35.2515H35.0727ZM39.6418 31.9902L39.831 28.4681L39.6313 28.4574L39.442 31.9794L39.6418 31.9902ZM39.831 28.4683C39.8463 28.194 39.7025 27.9342 39.4617 27.8097L39.3698 27.9873C39.5381 28.0743 39.6424 28.2586 39.6313 28.4572L39.831 28.4683ZM39.4622 27.8099L36.4346 26.2242L36.3418 26.4013L39.3694 27.9871L39.4622 27.8099ZM36.4781 26.2689L34.9472 23.1329L34.7674 23.2206L36.2984 26.3566L36.4781 26.2689ZM34.9469 23.1323C34.8257 22.8881 34.5765 22.737 34.3077 22.7502L34.3175 22.9499C34.5038 22.9408 34.6806 23.0454 34.7677 23.2212L34.9469 23.1323ZM34.307 22.7502L30.9009 22.9405L30.9121 23.1402L34.3182 22.9499L34.307 22.7502ZM30.9629 22.9578L28.1246 21.0154L28.0117 21.1805L30.85 23.1228L30.9629 22.9578ZM28.1246 21.0154C27.8993 20.8615 27.6066 20.8616 27.3811 21.0153L27.4938 21.1806C27.6513 21.0731 27.8545 21.0732 28.0118 21.1805L28.1246 21.0154ZM27.381 21.0154L24.5427 22.9578L24.6556 23.1228L27.4939 21.1805L27.381 21.0154ZM24.6049 22.9405L21.2048 22.7444L21.1933 22.9441L24.5934 23.1401L24.6049 22.9405ZM21.2052 22.7444C20.9346 22.728 20.6833 22.8803 20.5643 23.1275L20.7444 23.2143C20.8296 23.0374 21.0066 22.9327 21.193 22.9441L21.2052 22.7444ZM20.5645 23.1271L19.0333 26.2631L19.2131 26.3508L20.7442 23.2148L20.5645 23.1271ZM19.0768 26.2184L16.0495 27.8041L16.1423 27.9813L19.1696 26.3955L19.0768 26.2184ZM16.049 27.8044C15.8107 27.9308 15.6682 28.1884 15.6806 28.4615L15.8804 28.4524C15.8713 28.2536 15.9752 28.0699 16.1427 27.981L16.049 27.8044ZM15.6806 28.4623L15.8697 31.9844L16.0694 31.9736L15.8804 28.4516L15.6806 28.4623ZM15.8852 31.9252L14.0103 34.8652L14.1789 34.9728L16.0538 32.0328L15.8852 31.9252ZM14.0102 34.8653C13.8633 35.0962 13.8633 35.3949 14.0102 35.626L14.179 35.5187C14.0737 35.353 14.0737 35.138 14.1789 34.9727L14.0102 34.8653ZM14.0101 35.6259L15.8795 38.5717L16.0484 38.4645L14.179 35.5187L14.0101 35.6259ZM15.8641 38.5127L15.6748 42.0348L15.8745 42.0455L16.0638 38.5234L15.8641 38.5127ZM15.6748 42.0346C15.6595 42.3088 15.8031 42.5686 16.0441 42.6932L16.1359 42.5155C15.9676 42.4285 15.8634 42.2443 15.8745 42.0457L15.6748 42.0346ZM16.0436 42.693L19.0712 44.2787L19.164 44.1016L16.1364 42.5158L16.0436 42.693ZM19.0277 44.234L20.5587 47.37L20.7384 47.2823L19.2075 44.1463L19.0277 44.234ZM20.5589 47.3705C20.6798 47.6151 20.9292 47.7659 21.1981 47.7527L21.1884 47.5529C21.0017 47.5621 20.8251 47.4576 20.7382 47.2818L20.5589 47.3705ZM21.199 47.7527L24.5993 47.5566L24.5878 47.3569L21.1875 47.553L21.199 47.7527ZM24.5371 47.5393L27.3754 49.4814L27.4883 49.3164L24.65 47.3742L24.5371 47.5393ZM27.374 49.4805C27.5988 49.6398 27.8956 49.6398 28.1204 49.4805L28.0047 49.3173C27.8492 49.4276 27.6452 49.4276 27.4897 49.3173L27.374 49.4805ZM28.119 49.4814L30.9573 47.5393L30.8444 47.3742L28.0061 49.3164L28.119 49.4814ZM30.8951 47.5566L34.2954 47.7527L34.3069 47.553L30.9066 47.3569L30.8951 47.5566ZM34.2952 47.7526C34.5654 47.7689 34.8166 47.6165 34.9359 47.3697L34.7558 47.2826C34.6704 47.4594 34.4933 47.5642 34.3071 47.553L34.2952 47.7526ZM34.9357 47.37L36.4667 44.234L36.2869 44.1463L34.756 47.2823L34.9357 47.37ZM36.4232 44.2787L39.4508 42.693L39.358 42.5158L36.3304 44.1016L36.4232 44.2787ZM39.4514 42.6927C39.6893 42.566 39.8321 42.3088 39.8196 42.0356L39.6198 42.0447C39.6289 42.2434 39.5249 42.427 39.3574 42.5161L39.4514 42.6927ZM39.8196 42.0348L39.6303 38.5127L39.4306 38.5234L39.6199 42.0455L39.8196 42.0348ZM39.6148 38.5718L41.4897 35.6319L41.3211 35.5243L39.4462 38.4643L39.6148 38.5718ZM41.4898 35.6318C41.6367 35.4009 41.6367 35.102 41.4898 34.8711L41.3211 34.9785C41.4263 35.1438 41.4263 35.359 41.3211 35.5244L41.4898 35.6318ZM41.4899 34.8712L39.6264 31.9313L39.4574 32.0383L41.321 34.9783L41.4899 34.8712ZM38.3917 37.9762C38.3095 38.1012 38.2714 38.2514 38.284 38.4018L38.4833 38.3851C38.4744 38.279 38.5013 38.1735 38.5588 38.086L38.3917 37.9762ZM38.2838 38.3988L38.4614 41.7306L38.6612 41.72L38.4835 38.3882L38.2838 38.3988ZM38.5149 41.6367L35.6538 43.1334L35.7465 43.3106L38.6077 41.8139L38.5149 41.6367ZM35.6541 43.1332C35.5253 43.2 35.4217 43.308 35.3579 43.4399L35.538 43.527C35.5835 43.4329 35.6568 43.3571 35.7462 43.3107L35.6541 43.1332ZM35.3581 43.4396L33.9129 46.4033L34.0927 46.4909L35.5378 43.5273L35.3581 43.4396ZM34.0085 46.3473L30.7919 46.1633L30.7805 46.3629L33.9971 46.5469L34.0085 46.3473ZM30.79 46.1632C30.6464 46.1578 30.5048 46.1962 30.3828 46.2735L30.4899 46.4425C30.578 46.3866 30.6796 46.3592 30.7824 46.363L30.79 46.1632ZM30.3799 46.2755L27.6964 48.1109L27.8093 48.2759L30.4928 46.4405L30.3799 46.2755ZM27.8093 48.1109L25.126 46.2755L25.013 46.4405L27.6963 48.2759L27.8093 48.1109ZM25.1268 46.2761C25.0173 46.1994 24.8877 46.1576 24.7545 46.1571L24.7537 46.3571C24.8454 46.3575 24.9354 46.3862 25.0122 46.4399L25.1268 46.2761ZM24.7541 46.1571H24.7255V46.3571H24.7541V46.1571ZM24.7197 46.1572L21.5029 46.3415L21.5143 46.5411L24.7312 46.3569L24.7197 46.1572ZM21.5985 46.3975L20.1536 43.4336L19.9738 43.5212L21.4187 46.4851L21.5985 46.3975ZM20.1537 43.4339C20.0899 43.3019 19.9862 43.1942 19.8573 43.1274L19.7653 43.305C19.855 43.3514 19.9282 43.427 19.9737 43.521L20.1537 43.4339ZM19.8574 43.1275L16.9904 41.6366L16.8982 41.814L19.7651 43.3049L19.8574 43.1275ZM17.0442 41.7306L17.222 38.3988L17.0223 38.3882L16.8444 41.72L17.0442 41.7306ZM17.2221 38.397C17.2272 38.2504 17.1905 38.1056 17.1164 37.9802L16.9442 38.082C16.9987 38.1742 17.026 38.2813 17.0222 38.39L17.2221 38.397ZM17.1146 37.9773L15.3429 35.1977L15.1743 35.3052L16.946 38.0848L17.1146 37.9773ZM15.3429 35.3052L17.1146 32.5255L16.946 32.418L15.1743 35.1977L15.3429 35.3052ZM17.1137 32.5269C17.1964 32.4019 17.2344 32.2515 17.2218 32.1013L17.0225 32.118C17.0314 32.2239 17.0045 32.3296 16.9469 32.4166L17.1137 32.5269ZM17.222 32.1043L17.0442 28.7722L16.8444 28.7829L17.0223 32.115L17.222 32.1043ZM16.9907 28.8662L19.852 27.3695L19.7593 27.1923L16.898 28.689L16.9907 28.8662ZM19.8517 27.3697C19.9804 27.3029 20.0841 27.1952 20.1479 27.0632L19.9679 26.9761C19.9224 27.0701 19.8491 27.1457 19.7596 27.1921L19.8517 27.3697ZM20.1478 27.0635L21.5927 24.0996L21.4129 24.012L19.968 26.9758L20.1478 27.0635ZM21.4971 24.1556L24.7139 24.3398L24.7253 24.1402L21.5085 23.956L21.4971 24.1556ZM24.7161 24.3399C24.8593 24.3451 25.0008 24.3067 25.1229 24.2294L25.016 24.0604C24.9277 24.1163 24.8259 24.1438 24.7232 24.1401L24.7161 24.3399ZM25.1259 24.2274L27.8093 22.3923L27.6964 22.2272L25.013 24.0623L25.1259 24.2274ZM27.6964 22.3923L30.3799 24.2274L30.4928 24.0623L27.8093 22.2272L27.6964 22.3923ZM30.3786 24.2265C30.5003 24.3127 30.6475 24.3529 30.7952 24.3396L30.7772 24.1404C30.6776 24.1494 30.5776 24.1223 30.4941 24.0633L30.3786 24.2265ZM30.7919 24.3398L34.0085 24.1556L33.9971 23.956L30.7805 24.1402L30.7919 24.3398ZM33.9129 24.0996L35.3581 27.0635L35.5378 26.9758L34.0927 24.012L33.9129 24.0996ZM35.3579 27.0632C35.4218 27.1952 35.5254 27.3029 35.6541 27.3697L35.7462 27.1921C35.6567 27.1457 35.5834 27.0701 35.538 26.9761L35.3579 27.0632ZM35.6538 27.3695L38.5149 28.8662L38.6077 28.689L35.7465 27.1923L35.6538 27.3695ZM38.4614 28.7722L38.2838 32.1043L38.4835 32.115L38.6612 28.7829L38.4614 28.7722ZM38.2837 32.1061C38.2786 32.2525 38.3154 32.3973 38.3891 32.5225L38.5615 32.4211C38.5071 32.3287 38.4798 32.2215 38.4836 32.1131L38.2837 32.1061ZM38.391 32.5255L40.1629 35.3052L40.3315 35.1977L38.5596 32.418L38.391 32.5255ZM40.1629 35.1977L38.391 37.9773L38.5596 38.0849L40.3315 35.3052L40.1629 35.1977ZM11.5086 14.95L20.7536 14.9492L20.7536 14.7492L11.5086 14.75L11.5086 14.95ZM22.8083 48.7114H9.42901V48.9114H22.8083V48.7114Z" fill="black" mask="url(#path-1-outside-1)"/>
</svg>
