<svg width="40" height="49" viewBox="0 0 40 49" fill="none" xmlns="http://www.w3.org/2000/svg">
    <path fill-rule="evenodd" clip-rule="evenodd" d="M29.5391 15.6624V20.2068C35.7663 22.4247 39.9245 28.3236 39.9245 34.9398C39.9263 40.869 36.5755 46.2885 31.2733 48.9341C31.1869 48.9768 31.0917 49 30.9955 49H17.6162C17.5201 48.9991 17.4248 48.9768 17.3385 48.9341C16.7064 48.5963 16.1011 48.2123 15.5278 47.7837C14.9144 48.0492 14.2538 48.1873 13.5853 48.1918H13.5425C12.1903 48.198 10.895 47.6465 9.96115 46.6663C9.2187 45.8911 8.7451 44.8966 8.61067 43.8309C8.38545 43.9512 8.14508 44.0412 7.89582 44.0982C7.69374 44.1454 7.4872 44.1686 7.27978 44.1686C6.59697 44.1668 5.93998 43.9075 5.43967 43.4424C5.40673 43.413 5.3738 43.3818 5.34264 43.3506C5.31148 43.3194 5.28032 43.2882 5.25005 43.2562C4.60998 42.587 4.34291 41.6442 4.53609 40.738C4.58772 40.4912 4.67051 40.2515 4.78179 40.0251C3.70016 39.9155 2.68352 39.4557 1.88587 38.7153C1.81911 38.6529 1.75412 38.5887 1.69091 38.5228C-0.213288 36.5419 -0.151862 33.3911 1.82712 31.486C2.61319 30.7313 3.62449 30.2545 4.70612 30.128C4.5895 29.9035 4.50226 29.6638 4.44618 29.4169C4.23786 28.5143 4.4898 27.5671 5.11919 26.8872C5.14768 26.8542 5.17884 26.8221 5.20999 26.7901C5.24115 26.7589 5.2732 26.7277 5.30525 26.6974C5.95423 26.0719 6.87116 25.8108 7.75071 26.0006C7.99998 26.054 8.24034 26.1396 8.46646 26.2545C8.58486 25.1888 9.04154 24.189 9.76975 23.4022C10.6974 22.3962 12.0007 21.8215 13.3681 21.8161H13.4108C14.0366 21.8152 14.6562 21.9328 15.2384 22.1627C16.4153 21.3465 17.6964 20.6916 19.0477 20.2149V15.6615C19.0477 15.3175 19.3264 15.0377 19.6709 15.0377L28.9159 15.0386C29.2605 15.0386 29.5391 15.3175 29.5391 15.6624ZM20.2941 16.2852H28.2928V20.0331H20.2941V16.2852ZM10.6822 24.2514C11.3775 23.4984 12.3541 23.0681 13.3787 23.0645H13.4108C14.4239 23.06 15.3942 23.4735 16.0931 24.2068C16.8017 24.9447 17.1774 25.9409 17.132 26.9629C17.1195 27.2062 17.0634 27.4441 16.9646 27.666C16.9635 27.6693 16.962 27.673 16.9604 27.6766C16.9595 27.6788 16.9585 27.6809 16.9575 27.6829C16.9441 27.7123 16.9308 27.7417 16.9156 27.772L16.7029 28.1926L16.4358 28.7139C16.4269 28.7317 16.418 28.7504 16.4109 28.7682L14.7239 32.1017C14.4942 32.0028 14.2538 31.9315 14.0072 31.8905L13.9983 29.9168C13.9966 29.5738 13.7179 29.2958 13.3752 29.2958H13.3725C13.028 29.2975 12.7502 29.5782 12.752 29.9222L12.7618 31.9271C12.5624 31.9734 12.3683 32.0394 12.1823 32.1231L10.465 28.8636C10.4535 28.8297 10.4392 28.7959 10.4223 28.7638L9.92287 27.8264C9.89171 27.7533 9.857 27.6829 9.82139 27.6134C9.7475 27.4254 9.70299 27.2267 9.68963 27.0253C9.62732 26.0032 9.98608 25.0008 10.6822 24.2514ZM18.5581 34.398H18.551L16.5791 34.4194C16.5337 34.1744 16.4589 33.9347 16.3566 33.7074L19.67 31.9583L19.6751 31.9559C19.6791 31.954 19.6835 31.9521 19.6878 31.9503L20.0056 31.7809L20.6457 31.4432C20.8941 31.3105 21.1674 31.232 21.4487 31.2133C22.4689 31.151 23.4704 31.5101 24.2191 32.2069C25.7253 33.6112 25.809 35.9708 24.406 37.4776C24.3606 37.5275 24.3126 37.5765 24.2636 37.6228C23.5274 38.333 22.5312 38.7081 21.5101 38.6627C21.276 38.6502 21.0445 38.5967 20.8291 38.5041L20.7409 38.464C20.7347 38.4609 20.7283 38.458 20.7218 38.4551C20.7154 38.4522 20.7089 38.4493 20.7027 38.4462L20.3083 38.2466L19.7332 37.9525C19.7293 37.9503 19.7253 37.9483 19.7212 37.9464C19.7178 37.9448 19.7143 37.9433 19.7108 37.9418L19.7019 37.938C19.6996 37.9369 19.6972 37.9358 19.6949 37.9347L16.3762 36.2523C16.4572 36.0643 16.5195 35.8683 16.5631 35.6678L18.5643 35.6455C18.9089 35.6437 19.1857 35.3631 19.1839 35.0182C19.1822 34.6743 18.9017 34.3962 18.5581 34.398ZM19.7537 39.3631L20.1454 39.5627C20.15 39.5651 20.1546 39.5674 20.1593 39.5697C20.1664 39.5732 20.1736 39.5765 20.1806 39.5798L20.1917 39.5849C20.2024 39.5894 20.213 39.5939 20.2228 39.5983L20.2383 39.6057C20.265 39.6183 20.2912 39.6308 20.3181 39.642C20.8104 39.8808 21.17 40.329 21.2956 40.8618C21.4149 41.3671 21.2733 41.8991 20.9181 42.2769C20.904 42.293 20.8889 42.3086 20.8735 42.3245L20.8585 42.3401C20.838 42.3615 20.8184 42.3802 20.797 42.3998C20.4463 42.7447 19.9451 42.889 19.4653 42.7839C18.9311 42.6609 18.4807 42.3036 18.2394 41.8108C18.2171 41.7609 18.194 41.7119 18.1691 41.662C18.1667 41.657 18.1644 41.6519 18.1621 41.6469C18.1576 41.6368 18.1531 41.6267 18.1477 41.6166L18.1183 41.5613L15.9408 37.4303L19.7537 39.3631ZM18.4878 43.748C18.7148 43.8648 18.9569 43.9503 19.2071 44.0038C19.3949 44.0439 19.5872 44.0644 19.7804 44.0644C20.4783 44.0626 21.1487 43.7917 21.6525 43.3069C21.6846 43.2766 21.7166 43.2455 21.7469 43.2143C21.7781 43.1831 21.8092 43.1501 21.8386 43.1171C22.468 42.4381 22.719 41.4909 22.5116 40.5883C22.4555 40.3415 22.3692 40.1035 22.2535 39.879C23.3333 39.7516 24.3419 39.2757 25.1271 38.5219C27.1061 36.6168 27.1666 33.466 25.2624 31.4851C25.1992 31.4192 25.1342 31.355 25.0675 31.2926C24.2707 30.5531 23.255 30.0933 22.1733 29.9837C22.2864 29.7564 22.3701 29.5158 22.4217 29.2672C22.6149 28.3619 22.3478 27.4192 21.7077 26.75C21.6775 26.7179 21.6463 26.6858 21.6152 26.6546L21.6134 26.6529C21.5828 26.6231 21.5504 26.5917 21.5181 26.5628C20.8594 25.9489 19.938 25.703 19.0611 25.907C18.8109 25.9649 18.5688 26.0558 18.3427 26.177C18.3293 26.0772 18.3142 25.9783 18.2955 25.8803L17.8967 24.6559C17.667 24.1721 17.3616 23.7292 16.9922 23.3434C16.8239 23.1679 16.6432 23.0048 16.4518 22.856C17.4925 22.1957 18.6115 21.6673 19.7822 21.2815H28.8296C36.3663 23.7845 40.448 31.9298 37.9464 39.4736C37.5814 40.574 37.0856 41.6264 36.4678 42.6083C35.0888 44.7959 33.1472 46.5727 30.8468 47.7525H17.7685C17.3955 47.5449 17.034 47.3185 16.686 47.0735C16.8622 46.9291 17.0287 46.7732 17.1845 46.6057C17.5895 46.1682 17.9136 45.662 18.1406 45.1096L18.478 43.8264C18.4815 43.8006 18.4851 43.7748 18.4878 43.748ZM19.3397 27.1233C19.8187 27.0102 20.3217 27.1456 20.6777 27.4851C20.6939 27.4992 20.7095 27.5143 20.7253 27.5297L20.7409 27.5448C20.7623 27.5662 20.781 27.5849 20.8015 27.6063C21.1629 27.9779 21.3134 28.5072 21.2021 29.0142C21.0837 29.5551 20.7267 30.0122 20.2308 30.2572C20.2166 30.2635 20.2024 30.2706 20.1881 30.2777C20.1659 30.2884 20.1427 30.2991 20.1196 30.3098C20.1035 30.316 20.0884 30.324 20.0733 30.3321L19.4118 30.684L15.9008 32.5375L17.8112 28.7629L18.0418 28.312C18.0507 28.2942 18.0587 28.2764 18.0658 28.2585C18.0694 28.2496 18.0734 28.2407 18.0774 28.2318C18.0814 28.2229 18.0854 28.214 18.089 28.2051C18.0933 28.1952 18.0975 28.1855 18.1018 28.1758L18.1023 28.1748C18.1067 28.1649 18.1113 28.1546 18.1157 28.1445C18.3462 27.6348 18.7967 27.2579 19.3397 27.1233ZM15.3871 35.0022C15.3871 36.059 14.5316 36.9162 13.4767 36.9162C12.4217 36.9162 11.5662 36.059 11.5662 35.0022C11.5662 33.9454 12.4217 33.0881 13.4767 33.0881C14.5316 33.0881 15.3871 33.9454 15.3871 35.0022ZM6.05891 27.7072C6.07216 27.6931 6.08555 27.6789 6.09933 27.6651C6.11981 27.6446 6.13939 27.625 6.16076 27.6054C6.51151 27.2605 7.01182 27.1162 7.49254 27.2213C8.00532 27.339 8.44153 27.6731 8.68901 28.1383C8.72818 28.23 8.77003 28.3218 8.81721 28.4109L11.0125 32.5785L7.82905 30.9638C7.82645 30.9623 7.82385 30.9608 7.82125 30.9593C7.8197 30.9584 7.81815 30.9574 7.8166 30.9565C7.80829 30.9516 7.79997 30.9466 7.79166 30.9425L6.81241 30.4417C6.79727 30.4336 6.78125 30.4265 6.76523 30.4203C6.2115 30.1993 5.80022 29.7226 5.66223 29.1425C5.54294 28.6373 5.68449 28.1062 6.03969 27.7275L6.05085 27.7157L6.05891 27.7072ZM2.73426 37.801C1.22888 36.3976 1.1452 34.0371 2.54732 32.5303C2.59361 32.4804 2.64168 32.4323 2.68975 32.3851C3.42686 31.6758 4.42214 31.2998 5.44323 31.3452C5.72544 31.3595 6.00052 31.4334 6.25067 31.5617L10.5772 33.7556C10.4802 33.9828 10.4089 34.2207 10.3671 34.464L8.39079 34.4818C8.04716 34.4836 7.76941 34.7643 7.7703 35.1082C7.77208 35.4531 8.0525 35.7311 8.39702 35.7293H8.40236L10.4 35.7115C10.4463 35.9137 10.5122 36.1115 10.5968 36.3005L7.30827 38.0372L7.30261 38.0396C7.29182 38.0441 7.28058 38.0489 7.26999 38.055L6.71537 38.3499L6.30854 38.5647C6.29729 38.571 6.28604 38.5762 6.27435 38.5817L6.26492 38.5861C6.23821 38.5985 6.21239 38.611 6.18569 38.6244C5.97114 38.7215 5.74057 38.7794 5.50466 38.7946C4.48446 38.8569 3.48295 38.4978 2.73426 37.801ZM8.89924 41.7291L8.89466 41.7396C8.87151 41.7886 8.84836 41.8385 8.82789 41.8884C8.59376 42.3847 8.14953 42.75 7.61807 42.8819C7.13912 42.9951 6.63614 42.8587 6.28005 42.5201C6.25869 42.5005 6.23821 42.4809 6.21774 42.4604C6.19726 42.4399 6.17678 42.4194 6.1572 42.3989C5.79577 42.0265 5.64532 41.4981 5.7566 40.9911C5.87322 40.4555 6.22575 40.0011 6.71448 39.7542C6.74475 39.7409 6.77413 39.7266 6.80351 39.7115C6.81508 39.7061 6.82665 39.7008 6.83912 39.6954C6.85514 39.6883 6.87027 39.6812 6.88541 39.6732L7.31183 39.4468L11.0535 37.4704L8.94362 41.6406L8.91602 41.6932C8.90977 41.705 8.9046 41.7169 8.89924 41.7291ZM13.5755 46.9443H13.5434C12.5304 46.9488 11.56 46.5353 10.8603 45.8011C10.1517 45.0632 9.77687 44.067 9.82228 43.045C9.83296 42.8293 9.87836 42.6164 9.95848 42.4159C9.98519 42.3597 10.011 42.3018 10.035 42.2439C10.0359 42.2412 10.0368 42.2394 10.0386 42.2368L10.0528 42.2083L10.522 41.2922C10.5336 41.2691 10.5434 41.2459 10.5523 41.2218L12.2295 37.9079C12.4217 37.9908 12.6212 38.0541 12.8259 38.0969L12.8357 40.0929C12.8375 40.4359 13.1161 40.7139 13.4589 40.7139H13.4624C13.8061 40.7122 14.0838 40.4315 14.082 40.0866L14.0731 38.1067C14.3135 38.0603 14.5485 37.9855 14.772 37.8848L16.5043 41.1719C16.5132 41.196 16.5239 41.2192 16.5355 41.2423L17.0251 42.1601L17.0349 42.1789C17.0358 42.1806 17.0367 42.1815 17.0376 42.1833C17.0625 42.2421 17.0892 42.3 17.1177 42.3562C17.2005 42.5558 17.2504 42.7678 17.2646 42.9835C17.3269 44.0047 16.9682 45.0071 16.272 45.7556C15.5767 46.5103 14.6001 46.9407 13.5755 46.9443Z" fill="black"/>
    <path fill-rule="evenodd" clip-rule="evenodd" d="M23.4673 15.7252C23.2356 15.8443 22.9611 15.7723 22.8542 15.5643L15.6193 1.49661C15.5124 1.28863 15.6135 1.02345 15.8452 0.904307C16.0768 0.785163 16.3513 0.857174 16.4583 1.06515L23.6931 15.1329C23.8001 15.3408 23.699 15.606 23.4673 15.7252Z" fill="black"/>
    <path fill-rule="evenodd" clip-rule="evenodd" d="M24.3772 15.6409C24.127 15.7136 23.8732 15.5967 23.8102 15.38L20.3598 3.49513C20.2969 3.27836 20.4487 3.04376 20.6989 2.97112C20.949 2.89849 21.2029 3.01533 21.2658 3.23211L24.7162 15.1169C24.7792 15.3337 24.6274 15.5683 24.3772 15.6409Z" fill="black"/>
    <path fill-rule="evenodd" clip-rule="evenodd" d="M25.3078 15.584C25.0506 15.6251 24.812 15.4709 24.775 15.2395L23.2118 5.46955C23.1748 5.23815 23.3533 5.0172 23.6105 4.97604C23.8678 4.93488 24.1063 5.0891 24.1433 5.3205L25.7065 15.0904C25.7436 15.3218 25.565 15.5428 25.3078 15.584Z" fill="black"/>
</svg>
