<svg width="32" height="32" viewBox="0 0 32 32" fill="none" xmlns="http://www.w3.org/2000/svg">
<path d="M8.44575 10.6667L6.66797 24.5334C6.66797 25.0992 6.88649 25.6418 7.27545 26.0419C7.66442 26.442 8.19196 26.6667 8.74204 26.6667H23.2606C23.8106 26.6667 24.3382 26.442 24.7272 26.0419C25.1161 25.6418 25.3346 25.0992 25.3346 24.5334L23.5569 10.6667H8.44575Z" stroke="#3B4857" stroke-width="1.5" stroke-linecap="round" stroke-linejoin="round"/>
<path d="M12 9.33325C12 8.27239 12.4214 7.25497 13.1716 6.50482C13.9217 5.75468 14.9391 5.33325 16 5.33325C17.0609 5.33325 18.0783 5.75468 18.8284 6.50483C19.5786 7.25497 20 8.27239 20 9.33325" stroke="#3B4857" stroke-width="1.5" stroke-linecap="round" stroke-linejoin="round"/>
</svg>
