<svg width="32" height="32" viewBox="0 0 32 32" fill="none" xmlns="http://www.w3.org/2000/svg">
<path d="M25.0204 8.31702C24.4991 7.79383 23.8802 7.37881 23.199 7.09565C22.5178 6.81249 21.7877 6.66675 21.0503 6.66675C20.3129 6.66675 19.5828 6.81249 18.9016 7.09565C18.2204 7.37881 17.6015 7.79383 17.0802 8.31702L15.9984 9.4023L14.9166 8.31702C13.8637 7.26072 12.4356 6.6673 10.9465 6.6673C9.45748 6.6673 8.02941 7.26072 6.97648 8.31702C5.92356 9.37332 5.33203 10.806 5.33203 12.2998C5.33203 13.7936 5.92356 15.2263 6.97648 16.2826L8.0583 17.3679L15.9984 25.3334L23.9385 17.3679L25.0204 16.2826C25.5419 15.7596 25.9556 15.1387 26.2378 14.4554C26.5201 13.772 26.6654 13.0395 26.6654 12.2998C26.6654 11.5601 26.5201 10.8276 26.2378 10.1442C25.9556 9.46085 25.5419 8.83995 25.0204 8.31702V8.31702Z" stroke="#3B4857" stroke-width="1.5" stroke-linecap="round" stroke-linejoin="round"/>
</svg>
