<svg width="80" height="80" viewBox="0 0 80 80" fill="none" xmlns="http://www.w3.org/2000/svg">
<path d="M21.1109 26.6667L16.6665 61.3334C16.6665 62.7479 17.2128 64.1045 18.1852 65.1046C19.1576 66.1048 20.4765 66.6667 21.8517 66.6667H58.148C59.5232 66.6667 60.8421 66.1048 61.8145 65.1046C62.7869 64.1045 63.3332 62.7479 63.3332 61.3334L58.8887 26.6667H21.1109Z" stroke="#8D6355" stroke-width="2" stroke-linecap="round" stroke-linejoin="round"/>
<path d="M30 23.3333C30 20.6811 31.0536 18.1375 32.9289 16.2622C34.8043 14.3868 37.3478 13.3333 40 13.3333C42.6522 13.3333 45.1957 14.3868 47.0711 16.2622C48.9464 18.1375 50 20.6811 50 23.3333" stroke="#8D6355" stroke-width="2" stroke-linecap="round" stroke-linejoin="round"/>
</svg>
