<svg width="37" height="36" viewBox="0 0 37 36" fill="none" xmlns="http://www.w3.org/2000/svg">
<path d="M21.5616 1.90918C21.9662 1.99828 22.3663 1.7426 22.4554 1.33808C22.5445 0.933567 22.2888 0.533405 21.8843 0.444297L21.5616 1.90918ZM32.4736 8.65385L32.7363 7.95134C32.5365 7.87665 32.3144 7.89055 32.1254 7.98956C31.9365 8.08857 31.7987 8.26333 31.7465 8.47011L32.4736 8.65385ZM30.9033 11.8071C30.8018 12.2086 31.0451 12.6165 31.4467 12.7179C31.8483 12.8194 32.2561 12.5761 32.3575 12.1745L30.9033 11.8071ZM35.7834 10.692C36.1714 10.837 36.6035 10.6401 36.7486 10.2521C36.8936 9.86411 36.6967 9.432 36.3087 9.28694L35.7834 10.692ZM15.8346 16.4082L16.4814 16.7878L15.8346 16.4082ZM15.2104 17.4324C15.5595 17.6554 16.0232 17.5532 16.2462 17.2041C16.4692 16.8551 16.367 16.3913 16.018 16.1683L15.2104 17.4324ZM13.2997 14.4316C12.9507 14.2086 12.4869 14.3108 12.2639 14.6599C12.0409 15.0089 12.1431 15.4727 12.4921 15.6957L13.2997 14.4316ZM17.0832 8.25107C17.0832 8.66528 17.419 9.00107 17.8332 9.00107C18.2474 9.00107 18.5832 8.66528 18.5832 8.25107H17.0832ZM18.5832 6.84803C18.5832 6.43382 18.2474 6.09803 17.8332 6.09803C17.419 6.09803 17.0832 6.43382 17.0832 6.84803H18.5832ZM17.0832 28.5043C17.0832 28.9185 17.419 29.2543 17.8332 29.2543C18.2474 29.2543 18.5832 28.9185 18.5832 28.5043H17.0832ZM18.5832 27.1012C18.5832 26.687 18.2474 26.3512 17.8332 26.3512C17.419 26.3512 17.0832 26.687 17.0832 27.1012H18.5832ZM27.8303 16.3542C27.4161 16.3542 27.0803 16.6899 27.0803 17.1042C27.0803 17.5184 27.4161 17.8542 27.8303 17.8542V16.3542ZM29.2333 17.8542C29.6476 17.8542 29.9833 17.5184 29.9833 17.1042C29.9833 16.6899 29.6476 16.3542 29.2333 16.3542V17.8542ZM7.5772 16.3542C7.16298 16.3542 6.8272 16.6899 6.8272 17.1042C6.8272 17.5184 7.16298 17.8542 7.5772 17.8542V16.3542ZM8.98023 17.8542C9.39445 17.8542 9.73023 17.5184 9.73023 17.1042C9.73023 16.6899 9.39445 16.3542 8.98023 16.3542V17.8542ZM19.295 15.3348C19.027 15.6507 19.0658 16.124 19.3817 16.3919C19.6975 16.6599 20.1708 16.6211 20.4388 16.3053L19.295 15.3348ZM24.8254 11.1352C25.0934 10.8193 25.0546 10.346 24.7387 10.0781C24.4229 9.81008 23.9496 9.84888 23.6816 10.1647L24.8254 11.1352ZM34.477 18.0002C34.477 27.1001 27.1001 34.477 18.0002 34.477V35.977C27.9285 35.977 35.977 27.9285 35.977 18.0002H34.477ZM18.0002 34.477C8.90035 34.477 1.52344 27.1001 1.52344 18.0002H0.0234375C0.0234375 27.9285 8.07192 35.977 18.0002 35.977V34.477ZM1.52344 18.0002C1.52344 8.90035 8.90035 1.52344 18.0002 1.52344V0.0234375C8.07192 0.0234375 0.0234375 8.07192 0.0234375 18.0002H1.52344ZM18.0002 1.52344C19.2238 1.52344 20.4154 1.65668 21.5616 1.90918L21.8843 0.444297C20.6328 0.168612 19.3331 0.0234375 18.0002 0.0234375V1.52344ZM31.8439 9.06131C33.5098 11.6357 34.477 14.7039 34.477 18.0002H35.977C35.977 14.4061 34.9215 11.0562 33.1033 8.2464L31.8439 9.06131ZM31.7465 8.47011L30.9033 11.8071L32.3575 12.1745L33.2008 8.83759L31.7465 8.47011ZM32.211 9.35636L35.7834 10.692L36.3087 9.28694L32.7363 7.95134L32.211 9.35636ZM31.0672 18.0002C31.0672 25.2169 25.2169 31.0671 18.0003 31.0671V32.5671C26.0454 32.5671 32.5672 26.0453 32.5672 18.0002H31.0672ZM18.0003 31.0671C10.7837 31.0671 4.93344 25.2169 4.93344 18.0002H3.43344C3.43344 26.0453 9.95525 32.5671 18.0003 32.5671V31.0671ZM4.93344 18.0002C4.93344 10.7836 10.7837 4.93336 18.0003 4.93336V3.43336C9.95525 3.43336 3.43344 9.95517 3.43344 18.0002H4.93344ZM18.0003 4.93336C25.2169 4.93336 31.0672 10.7836 31.0672 18.0002H32.5672C32.5672 9.95517 26.0454 3.43336 18.0003 3.43336V4.93336ZM19.7594 17.6762C19.7594 18.6477 18.9718 19.4353 18.0003 19.4353V20.9353C19.8002 20.9353 21.2594 19.4761 21.2594 17.6762H19.7594ZM18.0003 19.4353C17.0287 19.4353 16.2411 18.6477 16.2411 17.6762H14.7411C14.7411 19.4761 16.2003 20.9353 18.0003 20.9353V19.4353ZM18.0003 15.917C18.9718 15.917 19.7594 16.7046 19.7594 17.6762H21.2594C21.2594 15.8762 19.8002 14.417 18.0003 14.417V15.917ZM16.2411 17.6762C16.2411 17.3506 16.3288 17.0479 16.4814 16.7878L15.1877 16.0287C14.9037 16.5127 14.7411 17.0766 14.7411 17.6762H16.2411ZM16.4814 16.7878C16.7881 16.2652 17.3539 15.917 18.0003 15.917V14.417C16.8001 14.417 15.7525 15.0661 15.1877 16.0287L16.4814 16.7878ZM16.018 16.1683L13.2997 14.4316L12.4921 15.6957L15.2104 17.4324L16.018 16.1683ZM18.5832 8.25107V6.84803H17.0832V8.25107H18.5832ZM18.5832 28.5043V27.1012H17.0832V28.5043H18.5832ZM27.8303 17.8542H29.2333V16.3542H27.8303V17.8542ZM7.5772 17.8542H8.98023V16.3542H7.5772V17.8542ZM20.4388 16.3053L24.8254 11.1352L23.6816 10.1647L19.295 15.3348L20.4388 16.3053Z" fill="black"/>
</svg>
