<svg width="37" height="26" viewBox="0 0 37 26" fill="none" xmlns="http://www.w3.org/2000/svg">
<mask id="path-1-outside-1" maskUnits="userSpaceOnUse" x="-0.480469" y="-0.320312" width="38" height="26" fill="black">
<rect fill="white" x="-0.480469" y="-0.320312" width="38" height="26"/>
<path fill-rule="evenodd" clip-rule="evenodd" d="M4.54468 1.15565C4.54468 0.892781 4.75766 0.679688 5.02038 0.679688H22.5847C23.6558 0.679688 24.5241 1.54845 24.5241 2.62013V2.87642H29.6631C30.4434 2.87642 31.1477 3.34432 31.4505 4.06386L33.9764 10.0661L36.191 12.9149C36.4558 13.2556 36.5995 13.6748 36.5995 14.1063V19.8279C36.5995 20.8995 35.7312 21.7683 34.6601 21.7683H32.4646C32.2019 21.7683 31.9889 21.5552 31.9889 21.2923C31.9889 21.0295 32.2019 20.8164 32.4646 20.8164H34.6601C35.2058 20.8164 35.6481 20.3738 35.6481 19.8279V14.1063C35.6481 13.8864 35.5749 13.6729 35.44 13.4994L33.3297 10.7846H25.5121C24.441 10.7846 23.5727 9.91588 23.5727 8.8442V2.62013C23.5727 2.07418 23.1303 1.6316 22.5847 1.6316H5.02038C4.75766 1.6316 4.54468 1.41851 4.54468 1.15565ZM32.8459 9.83273L30.5737 4.43326C30.4194 4.0667 30.0606 3.82834 29.6631 3.82834H24.5241V8.8442C24.5241 9.39015 24.9664 9.83273 25.5121 9.83273H32.8459ZM2.34915 5.91523C2.34915 5.65237 2.56212 5.43927 2.82485 5.43927H13.4366C13.6993 5.43927 13.9123 5.65237 13.9123 5.91523C13.9123 6.17809 13.6993 6.39119 13.4366 6.39119H2.82485C2.56212 6.39119 2.34915 6.17809 2.34915 5.91523ZM0.519531 11.0409C0.519531 10.7781 0.732509 10.565 0.995231 10.565H12.3388C12.6016 10.565 12.8145 10.7781 12.8145 11.0409C12.8145 11.3038 12.6016 11.5169 12.3388 11.5169H0.995231C0.732509 11.5169 0.519531 11.3038 0.519531 11.0409ZM2.34915 15.0683C2.34915 14.8054 2.56212 14.5923 2.82485 14.5923H9.04553C9.30826 14.5923 9.52123 14.8054 9.52123 15.0683C9.52123 15.3311 9.30826 15.5442 9.04553 15.5442H2.82485C2.56212 15.5442 2.34915 15.3311 2.34915 15.0683ZM4.54468 21.2923C4.54468 21.0295 4.75766 20.8164 5.02038 20.8164H8.31369C8.57641 20.8164 8.78939 21.0295 8.78939 21.2923C8.78939 21.5552 8.57641 21.7683 8.31369 21.7683H5.02038C4.75766 21.7683 4.54468 21.5552 4.54468 21.2923ZM15.8883 21.2923C15.8883 21.0295 16.1013 20.8164 16.364 20.8164H24.0484C24.3111 20.8164 24.5241 21.0295 24.5241 21.2923C24.5241 21.5552 24.3111 21.7683 24.0484 21.7683H16.364C16.1013 21.7683 15.8883 21.5552 15.8883 21.2923Z"/>
<path fill-rule="evenodd" clip-rule="evenodd" d="M12.3388 24.3678C14.2385 24.3678 15.7785 22.8269 15.7785 20.9262C15.7785 19.0255 14.2385 17.4847 12.3388 17.4847C10.4392 17.4847 8.89917 19.0255 8.89917 20.9262C8.89917 22.8269 10.4392 24.3678 12.3388 24.3678ZM12.3388 25.3197C14.764 25.3197 16.7299 23.3527 16.7299 20.9262C16.7299 18.4998 14.764 16.5328 12.3388 16.5328C9.91372 16.5328 7.94777 18.4998 7.94777 20.9262C7.94777 23.3527 9.91372 25.3197 12.3388 25.3197Z"/>
<path fill-rule="evenodd" clip-rule="evenodd" d="M28.4394 24.3678C30.3391 24.3678 31.8791 22.8269 31.8791 20.9262C31.8791 19.0255 30.3391 17.4847 28.4394 17.4847C26.5398 17.4847 24.9998 19.0255 24.9998 20.9262C24.9998 22.8269 26.5398 24.3678 28.4394 24.3678ZM28.4394 25.3197C30.8646 25.3197 32.8305 23.3527 32.8305 20.9262C32.8305 18.4998 30.8646 16.5328 28.4394 16.5328C26.0143 16.5328 24.0484 18.4998 24.0484 20.9262C24.0484 23.3527 26.0143 25.3197 28.4394 25.3197Z"/>
<path fill-rule="evenodd" clip-rule="evenodd" d="M28.4394 21.4388C28.7224 21.4388 28.9517 21.2093 28.9517 20.9262C28.9517 20.6431 28.7224 20.4137 28.4394 20.4137C28.1565 20.4137 27.9272 20.6431 27.9272 20.9262C27.9272 21.2093 28.1565 21.4388 28.4394 21.4388ZM28.4394 22.3907C29.2478 22.3907 29.9031 21.735 29.9031 20.9262C29.9031 20.1174 29.2478 19.4617 28.4394 19.4617C27.6311 19.4617 26.9758 20.1174 26.9758 20.9262C26.9758 21.735 27.6311 22.3907 28.4394 22.3907Z"/>
<path fill-rule="evenodd" clip-rule="evenodd" d="M12.3388 21.4388C12.6218 21.4388 12.8511 21.2093 12.8511 20.9262C12.8511 20.6431 12.6218 20.4137 12.3388 20.4137C12.0559 20.4137 11.8265 20.6431 11.8265 20.9262C11.8265 21.2093 12.0559 21.4388 12.3388 21.4388ZM12.3388 22.3907C13.1472 22.3907 13.8025 21.735 13.8025 20.9262C13.8025 20.1174 13.1472 19.4617 12.3388 19.4617C11.5305 19.4617 10.8751 20.1174 10.8751 20.9262C10.8751 21.735 11.5305 22.3907 12.3388 22.3907Z"/>
</mask>
<path fill-rule="evenodd" clip-rule="evenodd" d="M4.54468 1.15565C4.54468 0.892781 4.75766 0.679688 5.02038 0.679688H22.5847C23.6558 0.679688 24.5241 1.54845 24.5241 2.62013V2.87642H29.6631C30.4434 2.87642 31.1477 3.34432 31.4505 4.06386L33.9764 10.0661L36.191 12.9149C36.4558 13.2556 36.5995 13.6748 36.5995 14.1063V19.8279C36.5995 20.8995 35.7312 21.7683 34.6601 21.7683H32.4646C32.2019 21.7683 31.9889 21.5552 31.9889 21.2923C31.9889 21.0295 32.2019 20.8164 32.4646 20.8164H34.6601C35.2058 20.8164 35.6481 20.3738 35.6481 19.8279V14.1063C35.6481 13.8864 35.5749 13.6729 35.44 13.4994L33.3297 10.7846H25.5121C24.441 10.7846 23.5727 9.91588 23.5727 8.8442V2.62013C23.5727 2.07418 23.1303 1.6316 22.5847 1.6316H5.02038C4.75766 1.6316 4.54468 1.41851 4.54468 1.15565ZM32.8459 9.83273L30.5737 4.43326C30.4194 4.0667 30.0606 3.82834 29.6631 3.82834H24.5241V8.8442C24.5241 9.39015 24.9664 9.83273 25.5121 9.83273H32.8459ZM2.34915 5.91523C2.34915 5.65237 2.56212 5.43927 2.82485 5.43927H13.4366C13.6993 5.43927 13.9123 5.65237 13.9123 5.91523C13.9123 6.17809 13.6993 6.39119 13.4366 6.39119H2.82485C2.56212 6.39119 2.34915 6.17809 2.34915 5.91523ZM0.519531 11.0409C0.519531 10.7781 0.732509 10.565 0.995231 10.565H12.3388C12.6016 10.565 12.8145 10.7781 12.8145 11.0409C12.8145 11.3038 12.6016 11.5169 12.3388 11.5169H0.995231C0.732509 11.5169 0.519531 11.3038 0.519531 11.0409ZM2.34915 15.0683C2.34915 14.8054 2.56212 14.5923 2.82485 14.5923H9.04553C9.30826 14.5923 9.52123 14.8054 9.52123 15.0683C9.52123 15.3311 9.30826 15.5442 9.04553 15.5442H2.82485C2.56212 15.5442 2.34915 15.3311 2.34915 15.0683ZM4.54468 21.2923C4.54468 21.0295 4.75766 20.8164 5.02038 20.8164H8.31369C8.57641 20.8164 8.78939 21.0295 8.78939 21.2923C8.78939 21.5552 8.57641 21.7683 8.31369 21.7683H5.02038C4.75766 21.7683 4.54468 21.5552 4.54468 21.2923ZM15.8883 21.2923C15.8883 21.0295 16.1013 20.8164 16.364 20.8164H24.0484C24.3111 20.8164 24.5241 21.0295 24.5241 21.2923C24.5241 21.5552 24.3111 21.7683 24.0484 21.7683H16.364C16.1013 21.7683 15.8883 21.5552 15.8883 21.2923Z" fill="black"/>
<path fill-rule="evenodd" clip-rule="evenodd" d="M12.3388 24.3678C14.2385 24.3678 15.7785 22.8269 15.7785 20.9262C15.7785 19.0255 14.2385 17.4847 12.3388 17.4847C10.4392 17.4847 8.89917 19.0255 8.89917 20.9262C8.89917 22.8269 10.4392 24.3678 12.3388 24.3678ZM12.3388 25.3197C14.764 25.3197 16.7299 23.3527 16.7299 20.9262C16.7299 18.4998 14.764 16.5328 12.3388 16.5328C9.91372 16.5328 7.94777 18.4998 7.94777 20.9262C7.94777 23.3527 9.91372 25.3197 12.3388 25.3197Z" fill="black"/>
<path fill-rule="evenodd" clip-rule="evenodd" d="M28.4394 24.3678C30.3391 24.3678 31.8791 22.8269 31.8791 20.9262C31.8791 19.0255 30.3391 17.4847 28.4394 17.4847C26.5398 17.4847 24.9998 19.0255 24.9998 20.9262C24.9998 22.8269 26.5398 24.3678 28.4394 24.3678ZM28.4394 25.3197C30.8646 25.3197 32.8305 23.3527 32.8305 20.9262C32.8305 18.4998 30.8646 16.5328 28.4394 16.5328C26.0143 16.5328 24.0484 18.4998 24.0484 20.9262C24.0484 23.3527 26.0143 25.3197 28.4394 25.3197Z" fill="black"/>
<path fill-rule="evenodd" clip-rule="evenodd" d="M28.4394 21.4388C28.7224 21.4388 28.9517 21.2093 28.9517 20.9262C28.9517 20.6431 28.7224 20.4137 28.4394 20.4137C28.1565 20.4137 27.9272 20.6431 27.9272 20.9262C27.9272 21.2093 28.1565 21.4388 28.4394 21.4388ZM28.4394 22.3907C29.2478 22.3907 29.9031 21.735 29.9031 20.9262C29.9031 20.1174 29.2478 19.4617 28.4394 19.4617C27.6311 19.4617 26.9758 20.1174 26.9758 20.9262C26.9758 21.735 27.6311 22.3907 28.4394 22.3907Z" fill="black"/>
<path fill-rule="evenodd" clip-rule="evenodd" d="M12.3388 21.4388C12.6218 21.4388 12.8511 21.2093 12.8511 20.9262C12.8511 20.6431 12.6218 20.4137 12.3388 20.4137C12.0559 20.4137 11.8265 20.6431 11.8265 20.9262C11.8265 21.2093 12.0559 21.4388 12.3388 21.4388ZM12.3388 22.3907C13.1472 22.3907 13.8025 21.735 13.8025 20.9262C13.8025 20.1174 13.1472 19.4617 12.3388 19.4617C11.5305 19.4617 10.8751 20.1174 10.8751 20.9262C10.8751 21.735 11.5305 22.3907 12.3388 22.3907Z" fill="black"/>
<path d="M24.5241 2.87642H24.2241C24.2241 3.0421 24.3584 3.17642 24.5241 3.17642V2.87642ZM31.4505 4.06386L31.174 4.18022V4.18022L31.4505 4.06386ZM33.9764 10.0661L33.6999 10.1824C33.7101 10.2067 33.7234 10.2294 33.7396 10.2502L33.9764 10.0661ZM36.191 12.9149L36.4279 12.7308L36.4279 12.7308L36.191 12.9149ZM35.44 13.4994L35.2032 13.6835V13.6835L35.44 13.4994ZM33.3297 10.7846L33.5666 10.6005C33.5097 10.5274 33.4223 10.4846 33.3297 10.4846V10.7846ZM30.5737 4.43326L30.2972 4.54962V4.54962L30.5737 4.43326ZM32.8459 9.83273V10.1327C32.9464 10.1327 33.0402 10.0824 33.0958 9.9987C33.1514 9.91499 33.1614 9.809 33.1224 9.71637L32.8459 9.83273ZM24.5241 3.82834V3.52834C24.3584 3.52834 24.2241 3.66265 24.2241 3.82834H24.5241ZM5.02038 0.379687C4.59182 0.379687 4.24468 0.72725 4.24468 1.15565H4.84468C4.84468 1.05831 4.9235 0.979688 5.02038 0.979688V0.379687ZM22.5847 0.379687H5.02038V0.979688H22.5847V0.379687ZM24.8241 2.62013C24.8241 1.38292 23.8216 0.379687 22.5847 0.379687V0.979688C23.4899 0.979688 24.2241 1.71399 24.2241 2.62013H24.8241ZM24.8241 2.87642V2.62013H24.2241V2.87642H24.8241ZM29.6631 2.57642H24.5241V3.17642H29.6631V2.57642ZM31.7271 3.9475C31.3775 3.11675 30.5642 2.57642 29.6631 2.57642V3.17642C30.3226 3.17642 30.918 3.57188 31.174 4.18022L31.7271 3.9475ZM34.2529 9.94972L31.7271 3.9475L31.174 4.18022L33.6999 10.1824L34.2529 9.94972ZM36.4279 12.7308L34.2133 9.88196L33.7396 10.2502L35.9541 13.0991L36.4279 12.7308ZM36.8995 14.1063C36.8995 13.6081 36.7336 13.1241 36.4279 12.7308L35.9541 13.0991C36.178 13.387 36.2995 13.7414 36.2995 14.1063H36.8995ZM36.8995 19.8279V14.1063H36.2995V19.8279H36.8995ZM34.6601 22.0683C35.8971 22.0683 36.8995 21.0651 36.8995 19.8279H36.2995C36.2995 20.734 35.5654 21.4683 34.6601 21.4683V22.0683ZM32.4646 22.0683H34.6601V21.4683H32.4646V22.0683ZM31.6889 21.2923C31.6889 21.7207 32.036 22.0683 32.4646 22.0683V21.4683C32.3677 21.4683 32.2889 21.3897 32.2889 21.2923H31.6889ZM32.4646 20.5164C32.036 20.5164 31.6889 20.8639 31.6889 21.2923H32.2889C32.2889 21.195 32.3677 21.1164 32.4646 21.1164V20.5164ZM34.6601 20.5164H32.4646V21.1164H34.6601V20.5164ZM35.3481 19.8279C35.3481 20.2083 35.0399 20.5164 34.6601 20.5164V21.1164C35.3716 21.1164 35.9481 20.5393 35.9481 19.8279H35.3481ZM35.3481 14.1063V19.8279H35.9481V14.1063H35.3481ZM35.2032 13.6835C35.2971 13.8043 35.3481 13.9531 35.3481 14.1063H35.9481C35.9481 13.8198 35.8527 13.5414 35.6769 13.3152L35.2032 13.6835ZM33.0929 10.9688L35.2032 13.6835L35.6769 13.3152L33.5666 10.6005L33.0929 10.9688ZM25.5121 11.0846H33.3297V10.4846H25.5121V11.0846ZM23.2727 8.8442C23.2727 10.0814 24.2751 11.0846 25.5121 11.0846V10.4846C24.6068 10.4846 23.8727 9.75035 23.8727 8.8442H23.2727ZM22.5847 1.9316C22.9645 1.9316 23.2727 2.23972 23.2727 2.62013H23.8727C23.8727 1.90865 23.2962 1.3316 22.5847 1.3316V1.9316ZM5.02038 1.9316H22.5847V1.3316H5.02038V1.9316ZM4.24468 1.15565C4.24468 1.58404 4.59182 1.9316 5.02038 1.9316V1.3316C4.9235 1.3316 4.84468 1.25298 4.84468 1.15565H4.24468ZM30.2972 4.54962L32.5694 9.9491L33.1224 9.71637L30.8502 4.3169L30.2972 4.54962ZM29.6631 4.12834C29.9398 4.12834 30.1897 4.29427 30.2972 4.54962L30.8502 4.3169C30.6492 3.83913 30.1814 3.52834 29.6631 3.52834V4.12834ZM24.5241 4.12834H29.6631V3.52834H24.5241V4.12834ZM24.8241 8.8442V3.82834H24.2241V8.8442H24.8241ZM25.5121 9.53273C25.1323 9.53273 24.8241 9.22462 24.8241 8.8442H24.2241C24.2241 9.55569 24.8006 10.1327 25.5121 10.1327V9.53273ZM32.8459 9.53273H25.5121V10.1327H32.8459V9.53273ZM2.82485 5.13927C2.39628 5.13927 2.04915 5.48683 2.04915 5.91523H2.64915C2.64915 5.8179 2.72796 5.73927 2.82485 5.73927V5.13927ZM13.4366 5.13927H2.82485V5.73927H13.4366V5.13927ZM14.2123 5.91523C14.2123 5.48683 13.8652 5.13927 13.4366 5.13927V5.73927C13.5335 5.73927 13.6123 5.8179 13.6123 5.91523H14.2123ZM13.4366 6.69119C13.8652 6.69119 14.2123 6.34363 14.2123 5.91523H13.6123C13.6123 6.01256 13.5335 6.09119 13.4366 6.09119V6.69119ZM2.82485 6.69119H13.4366V6.09119H2.82485V6.69119ZM2.04915 5.91523C2.04915 6.34363 2.39628 6.69119 2.82485 6.69119V6.09119C2.72796 6.09119 2.64915 6.01256 2.64915 5.91523H2.04915ZM0.995231 10.265C0.56667 10.265 0.219531 10.6125 0.219531 11.0409H0.819531C0.819531 10.9436 0.898348 10.865 0.995231 10.865V10.265ZM12.3388 10.265H0.995231V10.865H12.3388V10.265ZM13.1145 11.0409C13.1145 10.6125 12.7674 10.265 12.3388 10.265V10.865C12.4357 10.865 12.5145 10.9436 12.5145 11.0409H13.1145ZM12.3388 11.8169C12.7674 11.8169 13.1145 11.4693 13.1145 11.0409H12.5145C12.5145 11.1383 12.4357 11.2169 12.3388 11.2169V11.8169ZM0.995231 11.8169H12.3388V11.2169H0.995231V11.8169ZM0.219531 11.0409C0.219531 11.4693 0.56667 11.8169 0.995231 11.8169V11.2169C0.898348 11.2169 0.819531 11.1383 0.819531 11.0409H0.219531ZM2.82485 14.2923C2.39628 14.2923 2.04915 14.6399 2.04915 15.0683H2.64915C2.64915 14.9709 2.72796 14.8923 2.82485 14.8923V14.2923ZM9.04553 14.2923H2.82485V14.8923H9.04553V14.2923ZM9.82123 15.0683C9.82123 14.6399 9.47409 14.2923 9.04553 14.2923V14.8923C9.14242 14.8923 9.22123 14.9709 9.22123 15.0683H9.82123ZM9.04553 15.8442C9.47409 15.8442 9.82123 15.4967 9.82123 15.0683H9.22123C9.22123 15.1656 9.14242 15.2442 9.04553 15.2442V15.8442ZM2.82485 15.8442H9.04553V15.2442H2.82485V15.8442ZM2.04915 15.0683C2.04915 15.4967 2.39628 15.8442 2.82485 15.8442V15.2442C2.72796 15.2442 2.64915 15.1656 2.64915 15.0683H2.04915ZM5.02038 20.5164C4.59182 20.5164 4.24468 20.8639 4.24468 21.2923H4.84468C4.84468 21.195 4.9235 21.1164 5.02038 21.1164V20.5164ZM8.31369 20.5164H5.02038V21.1164H8.31369V20.5164ZM9.08939 21.2923C9.08939 20.8639 8.74225 20.5164 8.31369 20.5164V21.1164C8.41057 21.1164 8.48939 21.195 8.48939 21.2923H9.08939ZM8.31369 22.0683C8.74225 22.0683 9.08939 21.7207 9.08939 21.2923H8.48939C8.48939 21.3897 8.41057 21.4683 8.31369 21.4683V22.0683ZM5.02038 22.0683H8.31369V21.4683H5.02038V22.0683ZM4.24468 21.2923C4.24468 21.7207 4.59182 22.0683 5.02038 22.0683V21.4683C4.9235 21.4683 4.84468 21.3897 4.84468 21.2923H4.24468ZM16.364 20.5164C15.9354 20.5164 15.5883 20.8639 15.5883 21.2923H16.1883C16.1883 21.195 16.2671 21.1164 16.364 21.1164V20.5164ZM24.0484 20.5164H16.364V21.1164H24.0484V20.5164ZM24.8241 21.2923C24.8241 20.8639 24.4769 20.5164 24.0484 20.5164V21.1164C24.1453 21.1164 24.2241 21.195 24.2241 21.2923H24.8241ZM24.0484 22.0683C24.4769 22.0683 24.8241 21.7207 24.8241 21.2923H24.2241C24.2241 21.3897 24.1453 21.4683 24.0484 21.4683V22.0683ZM16.364 22.0683H24.0484V21.4683H16.364V22.0683ZM15.5883 21.2923C15.5883 21.7207 15.9354 22.0683 16.364 22.0683V21.4683C16.2671 21.4683 16.1883 21.3897 16.1883 21.2923H15.5883ZM23.2727 2.62013V8.8442H23.8727V2.62013H23.2727ZM15.4785 20.9262C15.4785 22.6614 14.0727 24.0678 12.3388 24.0678V24.6678C14.4044 24.6678 16.0785 22.9925 16.0785 20.9262H15.4785ZM12.3388 17.7847C14.0727 17.7847 15.4785 19.191 15.4785 20.9262H16.0785C16.0785 18.86 14.4044 17.1847 12.3388 17.1847V17.7847ZM9.19916 20.9262C9.19916 19.191 10.605 17.7847 12.3388 17.7847V17.1847C10.2733 17.1847 8.59916 18.86 8.59916 20.9262H9.19916ZM12.3388 24.0678C10.605 24.0678 9.19916 22.6614 9.19916 20.9262H8.59916C8.59916 22.9925 10.2733 24.6678 12.3388 24.6678V24.0678ZM16.4299 20.9262C16.4299 23.1871 14.5981 25.0197 12.3388 25.0197V25.6197C14.9298 25.6197 17.0299 23.5182 17.0299 20.9262H16.4299ZM12.3388 16.8328C14.5981 16.8328 16.4299 18.6653 16.4299 20.9262H17.0299C17.0299 18.3343 14.9298 16.2328 12.3388 16.2328V16.8328ZM8.24777 20.9262C8.24777 18.6653 10.0796 16.8328 12.3388 16.8328V16.2328C9.74788 16.2328 7.64777 18.3343 7.64777 20.9262H8.24777ZM12.3388 25.0197C10.0796 25.0197 8.24777 23.1871 8.24777 20.9262H7.64777C7.64777 23.5182 9.74788 25.6197 12.3388 25.6197V25.0197ZM31.5791 20.9262C31.5791 22.6614 30.1733 24.0678 28.4394 24.0678V24.6678C30.505 24.6678 32.1791 22.9925 32.1791 20.9262H31.5791ZM28.4394 17.7847C30.1733 17.7847 31.5791 19.191 31.5791 20.9262H32.1791C32.1791 18.86 30.505 17.1847 28.4394 17.1847V17.7847ZM25.2998 20.9262C25.2998 19.191 26.7056 17.7847 28.4394 17.7847V17.1847C26.3739 17.1847 24.6998 18.86 24.6998 20.9262H25.2998ZM28.4394 24.0678C26.7056 24.0678 25.2998 22.6614 25.2998 20.9262H24.6998C24.6998 22.9925 26.3739 24.6678 28.4394 24.6678V24.0678ZM32.5305 20.9262C32.5305 23.1871 30.6987 25.0197 28.4394 25.0197V25.6197C31.0304 25.6197 33.1305 23.5182 33.1305 20.9262H32.5305ZM28.4394 16.8328C30.6987 16.8328 32.5305 18.6653 32.5305 20.9262H33.1305C33.1305 18.3343 31.0304 16.2328 28.4394 16.2328V16.8328ZM24.3484 20.9262C24.3484 18.6653 26.1802 16.8328 28.4394 16.8328V16.2328C25.8485 16.2328 23.7484 18.3343 23.7484 20.9262H24.3484ZM28.4394 25.0197C26.1802 25.0197 24.3484 23.1871 24.3484 20.9262H23.7484C23.7484 23.5182 25.8485 25.6197 28.4394 25.6197V25.0197ZM28.6517 20.9262C28.6517 21.0438 28.5565 21.1388 28.4394 21.1388V21.7388C28.8882 21.7388 29.2517 21.3748 29.2517 20.9262H28.6517ZM28.4394 20.7137C28.5565 20.7137 28.6517 20.8087 28.6517 20.9262H29.2517C29.2517 20.4776 28.8882 20.1137 28.4394 20.1137V20.7137ZM28.2272 20.9262C28.2272 20.8087 28.3224 20.7137 28.4394 20.7137V20.1137C27.9907 20.1137 27.6272 20.4776 27.6272 20.9262H28.2272ZM28.4394 21.1388C28.3224 21.1388 28.2272 21.0438 28.2272 20.9262H27.6272C27.6272 21.3748 27.9907 21.7388 28.4394 21.7388V21.1388ZM29.6031 20.9262C29.6031 21.5695 29.082 22.0907 28.4394 22.0907V22.6907C29.4137 22.6907 30.2031 21.9006 30.2031 20.9262H29.6031ZM28.4394 19.7617C29.082 19.7617 29.6031 20.2829 29.6031 20.9262H30.2031C30.2031 19.9519 29.4137 19.1617 28.4394 19.1617V19.7617ZM27.2758 20.9262C27.2758 20.2829 27.7969 19.7617 28.4394 19.7617V19.1617C27.4652 19.1617 26.6758 19.9519 26.6758 20.9262H27.2758ZM28.4394 22.0907C27.7969 22.0907 27.2758 21.5695 27.2758 20.9262H26.6758C26.6758 21.9006 27.4652 22.6907 28.4394 22.6907V22.0907ZM12.5511 20.9262C12.5511 21.0438 12.4559 21.1388 12.3388 21.1388V21.7388C12.7876 21.7388 13.1511 21.3748 13.1511 20.9262H12.5511ZM12.3388 20.7137C12.4559 20.7137 12.5511 20.8087 12.5511 20.9262H13.1511C13.1511 20.4776 12.7876 20.1137 12.3388 20.1137V20.7137ZM12.1265 20.9262C12.1265 20.8087 12.2217 20.7137 12.3388 20.7137V20.1137C11.8901 20.1137 11.5265 20.4776 11.5265 20.9262H12.1265ZM12.3388 21.1388C12.2217 21.1388 12.1265 21.0438 12.1265 20.9262H11.5265C11.5265 21.3748 11.8901 21.7388 12.3388 21.7388V21.1388ZM13.5025 20.9262C13.5025 21.5695 12.9814 22.0907 12.3388 22.0907V22.6907C13.3131 22.6907 14.1025 21.9006 14.1025 20.9262H13.5025ZM12.3388 19.7617C12.9814 19.7617 13.5025 20.2829 13.5025 20.9262H14.1025C14.1025 19.9519 13.3131 19.1617 12.3388 19.1617V19.7617ZM11.1751 20.9262C11.1751 20.2829 11.6963 19.7617 12.3388 19.7617V19.1617C11.3646 19.1617 10.5751 19.9519 10.5751 20.9262H11.1751ZM12.3388 22.0907C11.6963 22.0907 11.1751 21.5695 11.1751 20.9262H10.5751C10.5751 21.9006 11.3646 22.6907 12.3388 22.6907V22.0907Z" fill="black" mask="url(#path-1-outside-1)"/>
</svg>
