<svg width="115" height="94" viewBox="0 0 115 94" fill="none" xmlns="http://www.w3.org/2000/svg">
<path fill-rule="evenodd" clip-rule="evenodd" d="M74.5427 26.584V34.5527C85.4724 38.4418 92.7708 48.7855 92.7708 60.3871C92.7739 70.784 86.8927 80.2871 77.5864 84.9262C77.4349 85.0012 77.2677 85.0418 77.0989 85.0418H53.6161C53.4474 85.0402 53.2802 85.0012 53.1286 84.9262C52.0192 84.334 50.9567 83.6606 49.9505 82.909C48.8739 83.3746 47.7145 83.6168 46.5411 83.6246H46.4661C44.0927 83.6356 41.8192 82.6684 40.1802 80.9496C38.877 79.5902 38.0458 77.8465 37.8099 75.9777C37.4145 76.1887 36.9927 76.3465 36.5552 76.4465C36.2005 76.5293 35.838 76.5699 35.4739 76.5699C34.2755 76.5668 33.1224 76.1121 32.2442 75.2965C32.1864 75.2449 32.1286 75.1902 32.0739 75.1356C32.0192 75.0809 31.9645 75.0262 31.9114 74.9699C30.788 73.7965 30.3192 72.1434 30.6583 70.5543C30.7489 70.1215 30.8942 69.7012 31.0895 69.3043C29.1911 69.1121 27.4067 68.3059 26.0067 67.0074C25.8895 66.8981 25.7755 66.7856 25.6645 66.6699C22.3224 63.1965 22.4302 57.6715 25.9036 54.3309C27.2833 53.0074 29.0583 52.1715 30.9567 51.9496C30.752 51.5559 30.5989 51.1355 30.5005 50.7027C30.1349 49.1199 30.577 47.459 31.6817 46.2668C31.7317 46.209 31.7864 46.1527 31.8411 46.0965C31.8958 46.0418 31.952 45.9871 32.0083 45.934C33.1474 44.8371 34.7567 44.3793 36.3005 44.7121C36.738 44.8059 37.1599 44.9559 37.5567 45.1574C37.7645 43.2887 38.5661 41.5355 39.8442 40.1559C41.4724 38.3918 43.7599 37.384 46.1599 37.3746H46.2349C47.3333 37.373 48.4208 37.5793 49.4427 37.9824C51.5083 36.5512 53.7567 35.4027 56.1286 34.5668V26.5824C56.1286 25.9793 56.6177 25.4887 57.2224 25.4887H59.4317V20.4355H57.2224C56.6177 20.4355 56.1286 19.9449 56.1286 19.3418C56.1286 18.7371 56.6177 18.248 57.2224 18.248H59.4317V12.0527C59.4317 11.448 59.9224 10.959 60.5255 10.959H70.1442C70.7489 10.959 71.238 11.448 71.238 12.0527V17.3871L74.8224 15.2996C76.1599 14.4527 77.5208 14.0293 78.7817 14.0293C80.1395 14.0293 81.3802 14.5199 82.3458 15.498C84.4677 17.6418 84.4489 21.1012 82.3052 23.223C81.3614 24.1543 80.0849 24.6699 78.7583 24.6512C77.4724 24.6512 76.0911 24.2137 74.7724 23.3371L71.238 21.2199V25.4902H73.4489C74.0536 25.4902 74.5427 25.9793 74.5427 26.584ZM75.9591 17.1676C75.9532 17.1715 75.9474 17.1754 75.9411 17.1793L72.2958 19.3027L75.9192 21.4746C75.927 21.4793 75.9345 21.484 75.9419 21.4887C75.9493 21.4934 75.9567 21.498 75.9646 21.5027C78.1505 22.9652 79.8786 22.5465 80.7661 21.6684C82.0521 20.3965 82.063 18.3215 80.7911 17.0355C79.1333 15.3605 76.688 16.7043 75.9771 17.1559C75.9708 17.1598 75.9649 17.1637 75.9591 17.1676ZM69.0505 13.1465H61.6192V25.4887H69.0505V13.1465ZM72.3552 27.6762H58.3161V34.248H72.3552V27.6762ZM46.1786 39.5637C44.3802 39.5699 42.6661 40.3246 41.4458 41.6449C40.2239 42.959 39.5942 44.7168 39.7036 46.509C39.727 46.8621 39.8052 47.2105 39.9349 47.5402C39.9974 47.6621 40.0583 47.7855 40.113 47.9137L40.9895 49.5574C41.0192 49.6137 41.0442 49.673 41.0645 49.7324L44.0786 55.4481C44.4052 55.3012 44.7458 55.1856 45.0958 55.1043L45.0786 51.5887C45.0755 50.9855 45.563 50.4934 46.1677 50.4902H46.1724C46.7739 50.4902 47.263 50.9777 47.2661 51.5793L47.2817 55.0402C47.7145 55.1121 48.1364 55.2371 48.5395 55.4105L51.5005 49.5652C51.513 49.534 51.5286 49.5012 51.5442 49.4699L52.013 48.5559L52.3864 47.8184C52.413 47.7652 52.4364 47.7137 52.4599 47.6621C52.4627 47.6564 52.4655 47.6502 52.468 47.6441C52.4696 47.6401 52.4711 47.6361 52.4724 47.6324C52.6458 47.2434 52.7442 46.8262 52.7661 46.3996C52.8458 44.6074 52.1864 42.8605 50.9427 41.5668C49.7161 40.2809 48.013 39.5559 46.2349 39.5637H46.1786ZM55.2567 59.4371H55.2692C55.8724 59.434 56.3645 59.9215 56.3677 60.5246C56.3708 61.1293 55.8849 61.6215 55.2802 61.6246L51.7677 61.6637C51.6911 62.0152 51.5817 62.359 51.4395 62.6887L57.2645 65.6387C57.2736 65.6432 57.283 65.6472 57.2923 65.6512C57.3056 65.6569 57.3189 65.6626 57.3317 65.6699L58.3411 66.1856L59.0333 66.5356C59.0458 66.5418 59.0588 66.5475 59.0718 66.5534C59.0815 66.5577 59.0911 66.5621 59.1005 66.5668L59.2552 66.6371C59.6333 66.7996 60.0395 66.8934 60.4505 66.9152C62.2427 66.9949 63.9911 66.3371 65.2833 65.0918C65.3692 65.0106 65.4536 64.9246 65.5333 64.8371C67.9958 62.1949 67.8489 58.0574 65.2052 55.5949C63.8911 54.373 62.1333 53.7434 60.3427 53.8527C59.8489 53.8855 59.3692 54.0231 58.9333 54.2559L57.8099 54.848L57.252 55.1449C57.2462 55.1474 57.2404 55.1499 57.2348 55.1524C57.2299 55.1546 57.2252 55.1568 57.2208 55.159L51.4052 58.2262C51.5849 58.6246 51.7161 59.0449 51.7958 59.4746L55.2567 59.4371ZM58.0552 68.4934L57.3677 68.1434L50.6755 64.7543L54.4974 71.9981L54.5489 72.0949C54.5583 72.1126 54.5663 72.1303 54.5743 72.148C54.5783 72.1569 54.5823 72.1658 54.5864 72.1746C54.6302 72.2621 54.6708 72.3481 54.7099 72.4356C55.1333 73.2996 55.9239 73.9262 56.8614 74.1418C57.7036 74.3262 58.5833 74.0731 59.1989 73.4684C59.2364 73.434 59.2708 73.4012 59.3067 73.3637C59.3156 73.3544 59.3244 73.3453 59.3332 73.3362C59.3602 73.3084 59.3867 73.281 59.4114 73.2527C60.0349 72.5902 60.2833 71.6574 60.0739 70.7715C59.8536 69.8371 59.2224 69.0512 58.3583 68.6324C58.3111 68.6128 58.265 68.5909 58.2182 68.5687C58.2092 68.5644 58.2002 68.5601 58.1911 68.5559C58.1739 68.5481 58.1552 68.5402 58.1364 68.5324C58.13 68.5294 58.1235 68.5264 58.117 68.5234C58.0964 68.5138 58.0753 68.504 58.0552 68.4934ZM58.9895 47.3152C58.3645 46.7199 57.4817 46.4824 56.6411 46.6809C55.688 46.9168 54.8974 47.5777 54.4927 48.4715C54.4849 48.4895 54.477 48.507 54.4692 48.5246C54.4614 48.5422 54.4536 48.5598 54.4458 48.5777C54.4395 48.5934 54.4325 48.609 54.4255 48.6246C54.4185 48.6402 54.4114 48.6559 54.4052 48.6715C54.3927 48.7027 54.3786 48.734 54.363 48.7652L53.9583 49.5559L50.6052 56.1746L56.7677 52.9246L57.9286 52.3074C57.9552 52.2934 57.9817 52.2793 58.0099 52.2684C58.0505 52.2496 58.0911 52.2309 58.1302 52.2121C58.1552 52.1996 58.1802 52.1871 58.2052 52.1762C59.0755 51.7465 59.702 50.9449 59.9099 49.9965C60.1052 49.1074 59.8411 48.1793 59.2067 47.5277C59.1708 47.4902 59.138 47.4574 59.1005 47.4199C59.063 47.384 59.027 47.348 58.9895 47.3152ZM46.3505 63.8527C48.202 63.8527 49.7036 62.3496 49.7036 60.4965C49.7036 58.6434 48.202 57.1402 46.3505 57.1402C44.4989 57.1402 42.9974 58.6434 42.9974 60.4965C42.9974 62.3496 44.4989 63.8527 46.3505 63.8527ZM33.3311 47.7046C33.3198 47.7166 33.3086 47.7285 33.2974 47.7402C32.6739 48.4043 32.4255 49.3355 32.6349 50.2215C32.877 51.2387 33.5989 52.0746 34.5708 52.4621C34.5989 52.473 34.627 52.4855 34.6536 52.4996L36.3724 53.3777C36.3869 53.385 36.4015 53.3937 36.4161 53.4024C36.4234 53.4067 36.4307 53.4111 36.438 53.4152L42.0255 56.2465L38.1724 48.9387C38.0895 48.7824 38.0161 48.6215 37.9474 48.4605C37.513 47.6449 36.7474 47.059 35.8474 46.8527C35.0036 46.6684 34.1255 46.9215 33.5099 47.5262C33.4724 47.5606 33.438 47.5949 33.402 47.6309C33.3779 47.6551 33.3544 47.68 33.3311 47.7046ZM27.1677 56.1621C24.7067 58.8043 24.8536 62.9434 27.4958 65.4043C28.8099 66.6262 30.5677 67.2559 32.3583 67.1465C32.7724 67.1199 33.177 67.0184 33.5536 66.8481C33.6005 66.8246 33.6458 66.8027 33.6927 66.7809C33.6983 66.7782 33.7038 66.7757 33.7093 66.7731C33.7298 66.7636 33.7495 66.7545 33.7692 66.7434L34.4833 66.3668L35.4567 65.8496C35.4754 65.839 35.4951 65.8306 35.5141 65.8226C35.5174 65.8212 35.5207 65.8198 35.5239 65.8184L41.2958 62.7731C41.1474 62.4418 41.0317 62.0949 40.9505 61.7402L37.4442 61.7715H37.4349C36.8302 61.7746 36.338 61.2871 36.3349 60.6824C36.3333 60.0793 36.8208 59.5871 37.4239 59.584L40.8927 59.5527C40.9661 59.1262 41.0911 58.709 41.2614 58.3105L33.6677 54.4637C33.2286 54.2387 32.7458 54.109 32.2505 54.084C30.4583 54.0043 28.7114 54.6637 27.4177 55.9074C27.3333 55.9902 27.2489 56.0746 27.1677 56.1621ZM38.3163 72.2923C38.3257 72.2708 38.3348 72.25 38.3458 72.2293L38.3942 72.1371L42.0974 64.8246L35.5302 68.2902L34.7817 68.6871C34.7552 68.7012 34.7286 68.7137 34.7005 68.7262C34.6866 68.7321 34.6734 68.7381 34.6604 68.744C34.6528 68.7474 34.6454 68.7509 34.638 68.7543C34.5864 68.7809 34.5349 68.8059 34.4817 68.8293C33.6239 69.2621 33.0052 70.059 32.8005 70.9981C32.6052 71.8871 32.8692 72.8137 33.5036 73.4668C33.538 73.5027 33.5739 73.5387 33.6099 73.5746C33.6458 73.6106 33.6817 73.6449 33.7192 73.6793C34.3442 74.2731 35.227 74.5121 36.0677 74.3137C37.0005 74.0824 37.7802 73.4418 38.1911 72.5715C38.227 72.484 38.2677 72.3965 38.3083 72.3106C38.311 72.3044 38.3137 72.2983 38.3163 72.2923ZM46.4677 81.4371H46.5239C48.3224 81.4309 50.0364 80.6762 51.2567 79.3527C52.4786 78.0402 53.1083 76.2824 52.9989 74.4918C52.9739 74.1137 52.8864 73.7418 52.7411 73.3918C52.6911 73.2934 52.6442 73.1918 52.6005 73.0887C52.5989 73.0856 52.5974 73.084 52.5958 73.0809L52.5786 73.0481L51.7192 71.4387C51.6989 71.3981 51.6802 71.3574 51.6646 71.3152L48.6239 65.5512C48.2317 65.7277 47.8192 65.859 47.3974 65.9402L47.413 69.4121C47.4161 70.0168 46.9286 70.509 46.3255 70.5121H46.3192C45.7177 70.5121 45.2286 70.0246 45.2255 69.4231L45.2083 65.923C44.8489 65.8481 44.4989 65.7371 44.1614 65.5918L41.2177 71.4027C41.202 71.4449 41.1849 71.4856 41.1645 71.5262L40.3411 73.1324L40.3161 73.1824C40.313 73.1871 40.3114 73.1902 40.3099 73.1949C40.2677 73.2965 40.2224 73.3981 40.1755 73.4965C40.0349 73.8481 39.9552 74.2215 39.9364 74.5996C39.8567 76.3918 40.5145 78.1387 41.7583 79.4324C42.9864 80.7199 44.6895 81.4449 46.4677 81.4371ZM56.4083 76.2809C55.9692 76.1871 55.5442 76.0371 55.1458 75.8324L54.5364 78.2199C54.138 79.1887 53.5692 80.0762 52.8583 80.8434C52.5849 81.1371 52.2927 81.4106 51.9833 81.6637C52.5942 82.0934 53.2286 82.4902 53.8833 82.8543H76.838C80.8755 80.7856 84.2833 77.6699 86.7036 73.834C87.788 72.1121 88.6583 70.2668 89.2989 68.3371C93.6896 55.109 86.5255 40.8262 73.2974 36.4371H57.4177C55.363 37.1137 53.3989 38.0402 51.5724 39.198C51.9083 39.459 52.2255 39.7449 52.5208 40.0527C53.1692 40.7293 53.7052 41.5059 54.1083 42.3543L54.8083 44.5012C54.8411 44.673 54.8677 44.8465 54.8911 45.0215C55.288 44.809 55.713 44.6496 56.152 44.548C57.6911 44.1902 59.3083 44.6215 60.4645 45.6981C60.5213 45.7486 60.578 45.8038 60.6318 45.856L60.6349 45.859C60.6895 45.9137 60.7442 45.9699 60.7974 46.0262C61.9208 47.1996 62.3895 48.8527 62.0505 50.4402C61.9599 50.8762 61.813 51.298 61.6146 51.6965C63.513 51.8887 65.2958 52.6949 66.6942 53.9918C66.8114 54.1012 66.9255 54.2137 67.0364 54.3293C70.3786 57.8027 70.2724 63.3277 66.7989 66.6684C65.4208 67.9902 63.6505 68.8246 61.7552 69.0481C61.9583 69.4418 62.1099 69.859 62.2083 70.2918C62.5724 71.8746 62.1317 73.5356 61.027 74.7262C60.9755 74.784 60.9208 74.8418 60.8661 74.8965C60.813 74.9512 60.7567 75.0059 60.7005 75.059C59.8161 75.909 58.6395 76.384 57.4145 76.3871C57.0755 76.3871 56.738 76.3512 56.4083 76.2809Z" fill="#8D6355"/>
<path d="M14.2873 11.2742L14.5626 11.9719C14.7328 11.9047 14.8725 11.7777 14.9556 11.6147L14.2873 11.2742ZM16.4649 7L17.1388 6.67082C17.014 6.41536 16.7555 6.25242 16.4712 6.25003C16.1869 6.24764 15.9257 6.40621 15.7966 6.65954L16.4649 7ZM18.5527 11.2742L17.8788 11.6034C17.9624 11.7746 18.108 11.9075 18.2861 11.9752L18.5527 11.2742ZM23 12.9658L23.2907 13.6572C23.5733 13.5384 23.7552 13.2594 23.7499 12.9529C23.7446 12.6463 23.5532 12.3738 23.2666 12.2648L23 12.9658ZM18.5527 14.8357L18.262 14.1443C18.0779 14.2217 17.9323 14.3694 17.8574 14.5546L18.5527 14.8357ZM16.4649 20L15.7738 20.2914C15.8918 20.5712 16.1668 20.7522 16.4705 20.75C16.7741 20.7477 17.0464 20.5626 17.1602 20.2811L16.4649 20ZM14.2873 14.8357L14.9784 14.5443C14.9036 14.3669 14.7635 14.2251 14.5871 14.1482L14.2873 14.8357ZM10 12.9658L9.72473 12.2682C9.44277 12.3794 9.25549 12.6495 9.25012 12.9525C9.24474 13.2556 9.42233 13.5321 9.70017 13.6533L10 12.9658ZM14.9556 11.6147L17.1332 7.34046L15.7966 6.65954L13.619 10.9338L14.9556 11.6147ZM15.791 7.32918L17.8788 11.6034L19.2266 10.945L17.1388 6.67082L15.791 7.32918ZM18.2861 11.9752L22.7334 13.6668L23.2666 12.2648L18.8194 10.5732L18.2861 11.9752ZM22.7093 12.2744L18.262 14.1443L18.8434 15.527L23.2907 13.6572L22.7093 12.2744ZM17.8574 14.5546L15.7696 19.7189L17.1602 20.2811L19.248 15.1168L17.8574 14.5546ZM17.156 19.7086L14.9784 14.5443L13.5962 15.1271L15.7738 20.2914L17.156 19.7086ZM14.5871 14.1482L10.2998 12.2784L9.70017 13.6533L13.9875 15.5231L14.5871 14.1482ZM10.2753 13.6635L14.5626 11.9719L14.012 10.5766L9.72473 12.2682L10.2753 13.6635Z" fill="#8D6355"/>
<path d="M5.28732 49.2742L5.56258 49.9719C5.73277 49.9047 5.87254 49.7777 5.95559 49.6147L5.28732 49.2742ZM7.46491 45L8.13881 44.6708C8.01402 44.4154 7.75551 44.2524 7.47121 44.25C7.18691 44.2476 6.9257 44.4062 6.79664 44.6595L7.46491 45ZM9.55272 49.2742L8.87882 49.6034C8.96243 49.7746 9.10804 49.9075 9.28608 49.9752L9.55272 49.2742ZM14 50.9658L14.2907 51.6572C14.5733 51.5384 14.7552 51.2594 14.7499 50.9529C14.7446 50.6463 14.5532 50.3738 14.2666 50.2648L14 50.9658ZM9.55272 52.8357L9.26203 52.1443C9.0779 52.2217 8.93226 52.3694 8.85739 52.5546L9.55272 52.8357ZM7.46491 58L6.77383 58.2914C6.89181 58.5712 7.16684 58.7522 7.47048 58.75C7.77411 58.7477 8.04643 58.5626 8.16023 58.2811L7.46491 58ZM5.28732 52.8357L5.97839 52.5443C5.90362 52.3669 5.76354 52.2251 5.58714 52.1482L5.28732 52.8357ZM1 50.9658L0.724732 50.2682C0.442768 50.3794 0.255491 50.6495 0.250118 50.9525C0.244744 51.2556 0.422331 51.5321 0.700174 51.6533L1 50.9658ZM5.95559 49.6147L8.13318 45.3405L6.79664 44.6595L4.61905 48.9338L5.95559 49.6147ZM6.79101 45.3292L8.87882 49.6034L10.2266 48.945L8.13881 44.6708L6.79101 45.3292ZM9.28608 49.9752L13.7334 51.6668L14.2666 50.2648L9.81936 48.5732L9.28608 49.9752ZM13.7093 50.2744L9.26203 52.1443L9.84341 53.527L14.2907 51.6572L13.7093 50.2744ZM8.85739 52.5546L6.76958 57.7189L8.16023 58.2811L10.248 53.1168L8.85739 52.5546ZM8.15598 57.7086L5.97839 52.5443L4.59624 53.1271L6.77383 58.2914L8.15598 57.7086ZM5.58714 52.1482L1.29983 50.2784L0.700174 51.6533L4.98749 53.5231L5.58714 52.1482ZM1.27527 51.6635L5.56258 49.9719L5.01205 48.5766L0.724732 50.2682L1.27527 51.6635Z" fill="#8D6355"/>
<path d="M87.2873 5.27422L87.5626 5.97188C87.7328 5.90473 87.8725 5.77769 87.9556 5.61468L87.2873 5.27422ZM89.4649 1L90.1388 0.670822C90.014 0.415358 89.7555 0.252417 89.4712 0.250027C89.1869 0.247636 88.9257 0.406207 88.7966 0.659536L89.4649 1ZM91.5527 5.27422L90.8788 5.60339C90.9624 5.77456 91.108 5.9075 91.2861 5.97522L91.5527 5.27422ZM96 6.96582L96.2907 7.65719C96.5733 7.53835 96.7552 7.25943 96.7499 6.95287C96.7446 6.6463 96.5532 6.37382 96.2666 6.26481L96 6.96582ZM91.5527 8.83566L91.262 8.14429C91.0779 8.2217 90.9323 8.36937 90.8574 8.55456L91.5527 8.83566ZM89.4649 14L88.7738 14.2914C88.8918 14.5712 89.1668 14.7522 89.4705 14.75C89.7741 14.7477 90.0464 14.5626 90.1602 14.2811L89.4649 14ZM87.2873 8.83566L87.9784 8.54426C87.9036 8.36694 87.7635 8.22513 87.5871 8.1482L87.2873 8.83566ZM83 6.96582L82.7247 6.26816C82.4428 6.37941 82.2555 6.64945 82.2501 6.95252C82.2447 7.25559 82.4223 7.5321 82.7002 7.65328L83 6.96582ZM87.9556 5.61468L90.1332 1.34046L88.7966 0.659536L86.619 4.93375L87.9556 5.61468ZM88.791 1.32918L90.8788 5.60339L92.2266 4.94504L90.1388 0.670822L88.791 1.32918ZM91.2861 5.97522L95.7334 7.66682L96.2666 6.26481L91.8194 4.57321L91.2861 5.97522ZM95.7093 6.27444L91.262 8.14429L91.8434 9.52704L96.2907 7.65719L95.7093 6.27444ZM90.8574 8.55456L88.7696 13.7189L90.1602 14.2811L92.248 9.11677L90.8574 8.55456ZM90.156 13.7086L87.9784 8.54426L86.5962 9.12706L88.7738 14.2914L90.156 13.7086ZM87.5871 8.1482L83.2998 6.27835L82.7002 7.65328L86.9875 9.52312L87.5871 8.1482ZM83.2753 7.66348L87.5626 5.97188L87.012 4.57656L82.7247 6.26816L83.2753 7.66348Z" fill="#8D6355"/>
<path d="M105.287 31.2742L105.563 31.9719C105.733 31.9047 105.873 31.7777 105.956 31.6147L105.287 31.2742ZM107.465 27L108.139 26.6708C108.014 26.4154 107.756 26.2524 107.471 26.25C107.187 26.2476 106.926 26.4062 106.797 26.6595L107.465 27ZM109.553 31.2742L108.879 31.6034C108.962 31.7746 109.108 31.9075 109.286 31.9752L109.553 31.2742ZM114 32.9658L114.291 33.6572C114.573 33.5384 114.755 33.2594 114.75 32.9529C114.745 32.6463 114.553 32.3738 114.267 32.2648L114 32.9658ZM109.553 34.8357L109.262 34.1443C109.078 34.2217 108.932 34.3694 108.857 34.5546L109.553 34.8357ZM107.465 40L106.774 40.2914C106.892 40.5712 107.167 40.7522 107.47 40.75C107.774 40.7477 108.046 40.5626 108.16 40.2811L107.465 40ZM105.287 34.8357L105.978 34.5443C105.904 34.3669 105.764 34.2251 105.587 34.1482L105.287 34.8357ZM101 32.9658L100.725 32.2682C100.443 32.3794 100.255 32.6495 100.25 32.9525C100.245 33.2556 100.422 33.5321 100.7 33.6533L101 32.9658ZM105.956 31.6147L108.133 27.3405L106.797 26.6595L104.619 30.9338L105.956 31.6147ZM106.791 27.3292L108.879 31.6034L110.227 30.945L108.139 26.6708L106.791 27.3292ZM109.286 31.9752L113.733 33.6668L114.267 32.2648L109.819 30.5732L109.286 31.9752ZM113.709 32.2744L109.262 34.1443L109.843 35.527L114.291 33.6572L113.709 32.2744ZM108.857 34.5546L106.77 39.7189L108.16 40.2811L110.248 35.1168L108.857 34.5546ZM108.156 39.7086L105.978 34.5443L104.596 35.1271L106.774 40.2914L108.156 39.7086ZM105.587 34.1482L101.3 32.2784L100.7 33.6533L104.987 35.5231L105.587 34.1482ZM101.275 33.6635L105.563 31.9719L105.012 30.5766L100.725 32.2682L101.275 33.6635Z" fill="#8D6355"/>
<circle cx="89.5" cy="73.5" r="20.5" fill="#F7EDE2"/>
<path d="M100.665 66L85.9987 80.6667L79.332 74" stroke="#8D6355" stroke-width="2" stroke-linecap="round" stroke-linejoin="round"/>
</svg>
