<svg width="40" height="42" viewBox="0 0 40 42" fill="none" xmlns="http://www.w3.org/2000/svg">
<path fill-rule="evenodd" clip-rule="evenodd" d="M29.0989 9.22168V13.6045C35.1102 15.7435 39.1243 21.4325 39.1243 27.8134C39.126 33.5317 35.8914 38.7584 30.7729 41.3099C30.6896 41.3511 30.5976 41.3735 30.5048 41.3735H17.5893C17.4964 41.3726 17.4045 41.3511 17.3211 41.3099C16.711 40.9842 16.1266 40.6138 15.5732 40.2004C14.981 40.4565 14.3434 40.5897 13.698 40.594H13.6568C12.3514 40.6 11.101 40.0681 10.1995 39.1228C9.48277 38.3751 9.02558 37.4161 8.89581 36.3882C8.67839 36.5043 8.44636 36.5911 8.20574 36.6461C8.01066 36.6916 7.81128 36.7139 7.61105 36.7139C6.95191 36.7122 6.31769 36.4622 5.83472 36.0136C5.80292 35.9852 5.77113 35.9551 5.74105 35.925C5.71097 35.895 5.68089 35.8649 5.65167 35.8339C5.03378 35.1886 4.77597 34.2793 4.96245 33.4054C5.0123 33.1673 5.09222 32.9361 5.19964 32.7179C4.1555 32.6122 3.17409 32.1687 2.40409 31.4546C2.33964 31.3944 2.27691 31.3325 2.21589 31.2689C0.377687 29.3586 0.436984 26.3198 2.34738 24.4825C3.1062 23.7546 4.08245 23.2948 5.12659 23.1728C5.01402 22.9562 4.9298 22.725 4.87566 22.487C4.67456 21.6164 4.91777 20.7029 5.52534 20.0472C5.55284 20.0154 5.58292 19.9845 5.613 19.9536C5.64308 19.9235 5.67402 19.8934 5.70495 19.8642C6.33144 19.2609 7.21659 19.0091 8.06566 19.1922C8.30628 19.2437 8.53831 19.3262 8.75659 19.4371C8.87089 18.4093 9.31175 17.445 10.0147 16.6862C10.9102 15.716 12.1683 15.1617 13.4883 15.1565H13.5296C14.1337 15.1557 14.7318 15.2691 15.2939 15.4908C16.43 14.7036 17.6666 14.072 18.9711 13.6122V9.22082C18.9711 8.8891 19.2401 8.61926 19.5727 8.61926H20.7878V5.84004H19.5727C19.2401 5.84004 18.9711 5.5702 18.9711 5.23848C18.9711 4.9059 19.2401 4.63691 19.5727 4.63691H20.7878V1.22949C20.7878 0.896914 21.0577 0.62793 21.3894 0.62793H26.6797C27.0123 0.62793 27.2813 0.896914 27.2813 1.22949V4.1634L29.2527 3.01527C29.9883 2.54949 30.7368 2.3166 31.4303 2.3166C32.1771 2.3166 32.8595 2.58645 33.3906 3.12441C34.5576 4.30348 34.5473 6.20613 33.3682 7.37316C32.8492 7.88535 32.1471 8.16895 31.4175 8.15863C30.7102 8.15863 29.9505 7.91801 29.2252 7.4359L27.2813 6.27145V8.62012H28.4973C28.8299 8.62012 29.0989 8.8891 29.0989 9.22168ZM29.8779 4.04266C29.8747 4.0448 29.8714 4.04695 29.868 4.0491L27.8631 5.21699L29.856 6.41152C29.8603 6.4141 29.8643 6.41668 29.8684 6.41926C29.8725 6.42184 29.8766 6.42441 29.8809 6.42699C31.0832 7.23137 32.0336 7.00106 32.5218 6.51809C33.229 5.81855 33.235 4.6773 32.5355 3.97004C31.6237 3.04879 30.2788 3.78785 29.8878 4.03621C29.8843 4.03836 29.8811 4.04051 29.8779 4.04266ZM26.0782 1.83105H21.991V8.61926H26.0782V1.83105ZM27.8957 9.82238H20.1743V13.4369H27.8957V9.82238ZM13.4986 16.3605C12.5095 16.3639 11.5668 16.779 10.8956 17.5052C10.2235 18.2279 9.87722 19.1947 9.93738 20.1804C9.95027 20.3746 9.99323 20.5663 10.0646 20.7476C10.0989 20.8146 10.1325 20.8825 10.1625 20.953L10.6446 21.8571C10.661 21.888 10.6747 21.9207 10.6859 21.9533L12.3436 25.0969C12.5232 25.0161 12.7106 24.9525 12.9031 24.9079L12.8936 22.9743C12.8919 22.6425 13.16 22.3718 13.4926 22.3701H13.4952C13.826 22.3701 14.095 22.6382 14.0968 22.9691L14.1053 24.8726C14.3434 24.9121 14.5754 24.9809 14.7971 25.0763L16.4257 21.8614C16.4325 21.8442 16.4411 21.8261 16.4497 21.8089L16.7075 21.3062L16.9129 20.9006C16.9275 20.8714 16.9404 20.843 16.9533 20.8146C16.9549 20.8115 16.9564 20.8081 16.9578 20.8047C16.9587 20.8025 16.9595 20.8004 16.9602 20.7983C17.0556 20.5843 17.1097 20.3549 17.1217 20.1203C17.1656 19.1346 16.8029 18.1738 16.1189 17.4622C15.4443 16.755 14.5075 16.3562 13.5296 16.3605H13.4986ZM18.4916 27.2909H18.4985C18.8302 27.2892 19.1009 27.5573 19.1026 27.889C19.1043 28.2216 18.8371 28.4923 18.5045 28.494L16.5726 28.5155C16.5305 28.7089 16.4703 28.8979 16.3921 29.0793L19.5959 30.7018C19.6009 30.7043 19.606 30.7065 19.6112 30.7087C19.6185 30.7118 19.6258 30.7149 19.6328 30.7189L20.188 31.0025L20.5687 31.195C20.5756 31.1985 20.5827 31.2016 20.5899 31.2048C20.5952 31.2072 20.6005 31.2097 20.6057 31.2122L20.6907 31.2509C20.8987 31.3403 21.1221 31.3918 21.3482 31.4039C22.3339 31.4477 23.2955 31.0859 24.0062 30.401C24.0535 30.3563 24.0999 30.309 24.1437 30.2609C25.4981 28.8077 25.4173 26.5321 23.9632 25.1777C23.2405 24.5057 22.2737 24.1593 21.2889 24.2195C21.0173 24.2375 20.7535 24.3132 20.5137 24.4412L19.8958 24.7669L19.589 24.9302C19.5858 24.9316 19.5826 24.9329 19.5795 24.9343C19.5768 24.9355 19.5742 24.9367 19.5718 24.9379L16.3732 26.6249C16.4721 26.844 16.5443 27.0752 16.5881 27.3115L18.4916 27.2909ZM20.0307 32.2718L19.6526 32.0793L15.9719 30.2154L18.0739 34.1994L18.1023 34.2527C18.1075 34.2624 18.1118 34.2722 18.1162 34.2819C18.1184 34.2868 18.1206 34.2917 18.1229 34.2965C18.147 34.3447 18.1693 34.3919 18.1908 34.44C18.4237 34.9153 18.8585 35.2599 19.3742 35.3785C19.8374 35.4799 20.3212 35.3407 20.6598 35.0081C20.6804 34.9892 20.6993 34.9711 20.7191 34.9505C20.724 34.9454 20.7288 34.9404 20.7337 34.9354C20.7485 34.9201 20.7631 34.905 20.7767 34.8895C21.1196 34.5251 21.2562 34.0121 21.141 33.5248C21.0199 33.0109 20.6727 32.5786 20.1975 32.3483C20.1715 32.3375 20.1462 32.3255 20.1204 32.3133C20.1154 32.3109 20.1105 32.3086 20.1055 32.3062C20.0961 32.3019 20.0857 32.2976 20.0754 32.2933C20.0719 32.2917 20.0683 32.29 20.0647 32.2883C20.0534 32.2831 20.0418 32.2777 20.0307 32.2718ZM20.5446 20.6239C20.2009 20.2964 19.7153 20.1658 19.253 20.275C18.7288 20.4047 18.2939 20.7682 18.0714 21.2598C18.0671 21.2697 18.0628 21.2794 18.0585 21.289C18.0542 21.2987 18.0499 21.3084 18.0456 21.3182C18.0421 21.3268 18.0383 21.3354 18.0344 21.344C18.0305 21.3526 18.0267 21.3612 18.0232 21.3698C18.0164 21.387 18.0086 21.4042 18 21.4214L17.7775 21.8562L15.9332 25.4965L19.3226 23.709L19.9611 23.3696C19.9757 23.3618 19.9903 23.3541 20.0058 23.3481C20.0282 23.3378 20.0505 23.3275 20.072 23.3171C20.0857 23.3103 20.0995 23.3034 20.1132 23.2974C20.5919 23.0611 20.9365 22.6202 21.0508 22.0986C21.1582 21.6096 21.013 21.0991 20.6641 20.7407C20.6443 20.7201 20.6263 20.7021 20.6057 20.6814C20.585 20.6617 20.5653 20.6419 20.5446 20.6239ZM13.5932 29.7195C14.6115 29.7195 15.4374 28.8928 15.4374 27.8736C15.4374 26.8543 14.6115 26.0276 13.5932 26.0276C12.5748 26.0276 11.7489 26.8543 11.7489 27.8736C11.7489 28.8928 12.5748 29.7195 13.5932 29.7195ZM6.43251 20.838C6.4263 20.8446 6.42012 20.8512 6.41394 20.8576C6.07105 21.2229 5.93441 21.735 6.04956 22.2223C6.18277 22.7818 6.5798 23.2415 7.11433 23.4546C7.1298 23.4607 7.14527 23.4675 7.15987 23.4753L8.10519 23.9582C8.11321 23.9623 8.12124 23.967 8.12926 23.9718C8.13327 23.9742 8.13727 23.9766 8.14128 23.9789L11.2144 25.5361L9.09519 21.5168C9.04964 21.4308 9.00925 21.3423 8.97144 21.2538C8.73253 20.8052 8.31144 20.4829 7.81644 20.3695C7.35238 20.2681 6.86941 20.4073 6.53081 20.7399C6.51019 20.7588 6.49128 20.7777 6.47152 20.7975C6.45821 20.8108 6.44529 20.8245 6.43251 20.838ZM3.04261 25.4896C1.68909 26.9429 1.76987 29.2193 3.22308 30.5729C3.94581 31.2449 4.91261 31.5912 5.89745 31.5311C6.12519 31.5164 6.34777 31.4606 6.55488 31.3669C6.58066 31.354 6.60558 31.342 6.63136 31.33C6.63445 31.3285 6.6375 31.3271 6.64052 31.3257C6.65178 31.3205 6.66263 31.3154 6.67347 31.3093L7.0662 31.1022L7.60159 30.8178C7.61183 30.8119 7.6227 30.8073 7.63312 30.8029C7.63495 30.8021 7.63676 30.8014 7.63855 30.8006L10.8131 29.1257C10.7314 28.9435 10.6678 28.7527 10.6232 28.5576L8.69472 28.5748H8.68956C8.35698 28.5765 8.08628 28.3084 8.08456 27.9758C8.0837 27.6441 8.35183 27.3734 8.68355 27.3717L10.5914 27.3545C10.6318 27.1199 10.7005 26.8904 10.7942 26.6713L6.61761 24.5555C6.37613 24.4318 6.11058 24.3604 5.83816 24.3467C4.85245 24.3029 3.89167 24.6655 3.18011 25.3496C3.1337 25.3951 3.0873 25.4415 3.04261 25.4896ZM9.17438 34.3612C9.17955 34.3494 9.18454 34.338 9.19058 34.3266L9.21722 34.2759L11.2539 30.254L7.64198 32.1601L7.23034 32.3784C7.21573 32.3861 7.20113 32.393 7.18566 32.3999C7.17803 32.4032 7.17074 32.4064 7.16359 32.4097C7.15946 32.4116 7.15537 32.4135 7.15128 32.4154C7.12292 32.43 7.09456 32.4437 7.06534 32.4566C6.59355 32.6946 6.25324 33.1329 6.14066 33.6494C6.03324 34.1384 6.17847 34.648 6.52738 35.0072C6.54628 35.027 6.56605 35.0468 6.58581 35.0665C6.60558 35.0863 6.62534 35.1052 6.64597 35.1241C6.98972 35.4507 7.47527 35.5821 7.93761 35.473C8.45066 35.3458 8.87948 34.9935 9.1055 34.5148C9.12527 34.4667 9.14761 34.4186 9.16995 34.3713C9.17146 34.3679 9.17293 34.3646 9.17438 34.3612ZM13.6576 39.3909H13.6885C14.6777 39.3875 15.6204 38.9724 16.2916 38.2445C16.9636 37.5226 17.31 36.5558 17.2498 35.571C17.236 35.363 17.1879 35.1585 17.108 34.966C17.0805 34.9118 17.0547 34.856 17.0307 34.7993C17.0298 34.7975 17.0289 34.7967 17.0281 34.795L17.0186 34.7769L16.546 33.8918C16.5348 33.8694 16.5245 33.8471 16.5159 33.8239L14.8435 30.6536C14.6278 30.7507 14.401 30.8229 14.1689 30.8676L14.1775 32.7771C14.1793 33.1097 13.9111 33.3804 13.5794 33.3821H13.576C13.2451 33.3821 12.9761 33.114 12.9744 32.7832L12.965 30.8582C12.7673 30.8169 12.5748 30.7559 12.3892 30.676L10.7701 33.872C10.7615 33.8952 10.7521 33.9175 10.7409 33.9399L10.288 34.8233L10.2743 34.8508C10.2725 34.8534 10.2717 34.8551 10.2708 34.8577C10.2476 34.9136 10.2227 34.9694 10.1969 35.0236C10.1196 35.2169 10.0757 35.4223 10.0654 35.6303C10.0216 36.616 10.3834 37.5768 11.0675 38.2883C11.7429 38.9964 12.6796 39.3952 13.6576 39.3909ZM19.125 36.555C18.8835 36.5034 18.6497 36.4209 18.4306 36.3083L18.0954 37.6214C17.8763 38.1543 17.5635 38.6424 17.1725 39.0643C17.0221 39.2259 16.8614 39.3763 16.6912 39.5155C17.0272 39.7518 17.3761 39.9701 17.7362 40.1704H30.3613C32.5819 39.0325 34.4562 37.3189 35.7874 35.2092C36.3838 34.2621 36.8625 33.2472 37.2148 32.1859C39.6296 24.9104 35.6894 17.0549 28.4139 14.6409H19.6801C18.55 15.013 17.4698 15.5226 16.4652 16.1594C16.65 16.3029 16.8244 16.4602 16.9868 16.6295C17.3435 17.0016 17.6382 17.4287 17.86 17.8954L18.245 19.0761C18.263 19.1707 18.2776 19.2661 18.2905 19.3623C18.5088 19.2454 18.7425 19.1578 18.984 19.1019C19.8305 18.9051 20.72 19.1423 21.3559 19.7344C21.3871 19.7622 21.4183 19.7926 21.4479 19.8213L21.4496 19.8229C21.4796 19.853 21.5097 19.8839 21.5389 19.9149C22.1568 20.5603 22.4146 21.4695 22.2282 22.3426C22.1783 22.5824 22.0975 22.8144 21.9884 23.0336C23.0325 23.1393 24.0131 23.5827 24.7822 24.296C24.8467 24.3561 24.9094 24.418 24.9704 24.4816C26.8086 26.392 26.7502 29.4307 24.8398 31.2681C24.0818 31.9951 23.1082 32.454 22.0657 32.5769C22.1775 32.7935 22.2608 33.0229 22.315 33.261C22.5152 34.1315 22.2728 35.045 21.6653 35.6999C21.6369 35.7317 21.6068 35.7635 21.5768 35.7936C21.5475 35.8236 21.5166 35.8537 21.4857 35.8829C20.9993 36.3504 20.3521 36.6117 19.6784 36.6134C19.4919 36.6134 19.3063 36.5936 19.125 36.555Z" fill="black"/>
</svg>
