<svg width="21" height="21" viewBox="0 0 21 21" fill="none" xmlns="http://www.w3.org/2000/svg">
<mask id="path-1-outside-1" maskUnits="userSpaceOnUse" x="-0.601562" y="-0.0800781" width="21" height="21" fill="black">
<rect fill="white" x="-0.601562" y="-0.0800781" width="21" height="21"/>
<path d="M12.4358 8.93186L9.4773 11.7247L8.05746 10.2648C7.90005 10.1028 7.64086 10.0991 7.47897 10.2564C7.31692 10.4139 7.31323 10.6728 7.47063 10.8348L9.17355 12.582C9.33176 12.7411 9.58742 12.7465 9.7522 12.5942L13.0062 9.52654C13.0853 9.45205 13.1314 9.3492 13.1345 9.24074C13.1375 9.13228 13.0973 9.02702 13.0226 8.9482C12.8642 8.78367 12.6031 8.77646 12.4358 8.93186Z"/>
<path d="M10.2404 4.6337C6.85929 4.6337 4.10999 7.38155 4.10999 10.7609C4.10999 14.1405 6.85929 16.8883 10.2404 16.8883C13.6218 16.8883 16.3711 14.1405 16.3711 10.7609C16.3711 7.38155 13.6218 4.6337 10.2404 4.6337ZM10.2404 16.0681C7.31066 16.0681 4.93068 13.6852 4.93068 10.7609C4.93068 7.8367 7.31066 5.45396 10.2404 5.45396C13.1731 5.45396 15.5504 7.82997 15.5504 10.7609C15.5504 13.6919 13.1731 16.0681 10.2404 16.0681Z"/>
<path d="M18.6771 8.50523L18.8126 6.07314C18.822 5.90989 18.7332 5.75657 18.5869 5.68352L16.4203 4.58851L15.3247 2.42301C15.2501 2.27803 15.0977 2.18975 14.9349 2.19744L12.4973 2.32881L10.4661 0.987569C10.3292 0.897373 10.1518 0.897373 10.0148 0.987569L7.98356 2.32881L5.55036 2.19344C5.38686 2.18383 5.23362 2.27258 5.16053 2.41901L4.06479 4.58451L1.89831 5.67951C1.75309 5.75385 1.66493 5.90621 1.67262 6.06914L1.80791 8.50122L0.46612 10.5313C0.375877 10.6682 0.375877 10.8455 0.46612 10.9825L1.8039 13.0166L1.66846 15.4487C1.659 15.612 1.74764 15.7653 1.89414 15.8383L4.06078 16.9333L5.15636 19.0988C5.23074 19.244 5.38317 19.3321 5.54619 19.3244L7.97955 19.189L10.0107 20.5301C10.1468 20.6232 10.326 20.6232 10.4621 20.5301L12.4933 19.189L14.9267 19.3244C15.09 19.3339 15.2433 19.2451 15.3165 19.0988L16.4121 16.9333L18.5787 15.8383C18.7238 15.7638 18.8121 15.6116 18.8044 15.4487L18.669 13.0166L20.0108 10.9865C20.101 10.8497 20.101 10.6722 20.0108 10.5354L18.6771 8.50523ZM17.9138 12.6803C17.8638 12.7537 17.8406 12.842 17.8483 12.9306L17.9754 15.2313L15.9278 16.2648C15.8498 16.3039 15.7865 16.3673 15.7474 16.4453L14.7132 18.4918L12.4112 18.3648C12.3231 18.3616 12.2361 18.3843 12.1609 18.4303L10.2404 19.6977L8.32017 18.4303C8.25349 18.3853 8.17494 18.3609 8.09448 18.3606H8.07396L5.77188 18.4878L4.73785 16.4412C4.69874 16.3632 4.63542 16.2999 4.5572 16.2608L2.50549 15.2313L2.63276 12.9306C2.63597 12.8425 2.61304 12.7555 2.56704 12.6803L1.29915 10.7609L2.56704 8.8415C2.61721 8.76828 2.64045 8.67985 2.63276 8.59142L2.50549 6.29054L4.55319 5.25705C4.63125 5.21796 4.69457 5.15468 4.73368 5.07666L5.76771 3.03003L8.06979 3.15724C8.15779 3.16028 8.24483 3.13753 8.32017 3.09155L10.2404 1.82432L12.1609 3.09155C12.2343 3.1417 12.3228 3.16493 12.4112 3.15724L14.7132 3.03003L15.7474 5.07666C15.7865 5.15468 15.8498 5.21796 15.9278 5.25705L17.9754 6.29054L17.8483 8.59142C17.8451 8.67937 17.868 8.76636 17.9138 8.8415L19.1819 10.7609L17.9138 12.6803Z"/>
</mask>
<path d="M12.4358 8.93186L9.4773 11.7247L8.05746 10.2648C7.90005 10.1028 7.64086 10.0991 7.47897 10.2564C7.31692 10.4139 7.31323 10.6728 7.47063 10.8348L9.17355 12.582C9.33176 12.7411 9.58742 12.7465 9.7522 12.5942L13.0062 9.52654C13.0853 9.45205 13.1314 9.3492 13.1345 9.24074C13.1375 9.13228 13.0973 9.02702 13.0226 8.9482C12.8642 8.78367 12.6031 8.77646 12.4358 8.93186Z" fill="#8D6355"/>
<path d="M10.2404 4.6337C6.85929 4.6337 4.10999 7.38155 4.10999 10.7609C4.10999 14.1405 6.85929 16.8883 10.2404 16.8883C13.6218 16.8883 16.3711 14.1405 16.3711 10.7609C16.3711 7.38155 13.6218 4.6337 10.2404 4.6337ZM10.2404 16.0681C7.31066 16.0681 4.93068 13.6852 4.93068 10.7609C4.93068 7.8367 7.31066 5.45396 10.2404 5.45396C13.1731 5.45396 15.5504 7.82997 15.5504 10.7609C15.5504 13.6919 13.1731 16.0681 10.2404 16.0681Z" fill="#8D6355"/>
<path d="M18.6771 8.50523L18.8126 6.07314C18.822 5.90989 18.7332 5.75657 18.5869 5.68352L16.4203 4.58851L15.3247 2.42301C15.2501 2.27803 15.0977 2.18975 14.9349 2.19744L12.4973 2.32881L10.4661 0.987569C10.3292 0.897373 10.1518 0.897373 10.0148 0.987569L7.98356 2.32881L5.55036 2.19344C5.38686 2.18383 5.23362 2.27258 5.16053 2.41901L4.06479 4.58451L1.89831 5.67951C1.75309 5.75385 1.66493 5.90621 1.67262 6.06914L1.80791 8.50122L0.46612 10.5313C0.375877 10.6682 0.375877 10.8455 0.46612 10.9825L1.8039 13.0166L1.66846 15.4487C1.659 15.612 1.74764 15.7653 1.89414 15.8383L4.06078 16.9333L5.15636 19.0988C5.23074 19.244 5.38317 19.3321 5.54619 19.3244L7.97955 19.189L10.0107 20.5301C10.1468 20.6232 10.326 20.6232 10.4621 20.5301L12.4933 19.189L14.9267 19.3244C15.09 19.3339 15.2433 19.2451 15.3165 19.0988L16.4121 16.9333L18.5787 15.8383C18.7238 15.7638 18.8121 15.6116 18.8044 15.4487L18.669 13.0166L20.0108 10.9865C20.101 10.8497 20.101 10.6722 20.0108 10.5354L18.6771 8.50523ZM17.9138 12.6803C17.8638 12.7537 17.8406 12.842 17.8483 12.9306L17.9754 15.2313L15.9278 16.2648C15.8498 16.3039 15.7865 16.3673 15.7474 16.4453L14.7132 18.4918L12.4112 18.3648C12.3231 18.3616 12.2361 18.3843 12.1609 18.4303L10.2404 19.6977L8.32017 18.4303C8.25349 18.3853 8.17494 18.3609 8.09448 18.3606H8.07396L5.77188 18.4878L4.73785 16.4412C4.69874 16.3632 4.63542 16.2999 4.5572 16.2608L2.50549 15.2313L2.63276 12.9306C2.63597 12.8425 2.61304 12.7555 2.56704 12.6803L1.29915 10.7609L2.56704 8.8415C2.61721 8.76828 2.64045 8.67985 2.63276 8.59142L2.50549 6.29054L4.55319 5.25705C4.63125 5.21796 4.69457 5.15468 4.73368 5.07666L5.76771 3.03003L8.06979 3.15724C8.15779 3.16028 8.24483 3.13753 8.32017 3.09155L10.2404 1.82432L12.1609 3.09155C12.2343 3.1417 12.3228 3.16493 12.4112 3.15724L14.7132 3.03003L15.7474 5.07666C15.7865 5.15468 15.8498 5.21796 15.9278 5.25705L17.9754 6.29054L17.8483 8.59142C17.8451 8.67937 17.868 8.76636 17.9138 8.8415L19.1819 10.7609L17.9138 12.6803Z" fill="#8D6355"/>
<path d="M9.58667 19.5664L9.58634 19.6164H9.58667V19.5664ZM8.19655 19.2845L8.17085 19.328L8.17728 19.3307L8.19655 19.2845ZM8.06979 2.64624L8.0998 2.68624L8.09989 2.68617L8.06979 2.64624ZM9.61724 19.5164H9.58667V19.6164H9.61724V19.5164ZM9.58699 19.5164C9.11496 19.5133 8.64869 19.4192 8.21583 19.2384L8.17728 19.3307C8.62232 19.5166 9.10148 19.6132 9.58634 19.6164L9.58699 19.5164ZM6.61668 19.3071C6.8851 19.1629 7.14524 19.0057 7.39581 18.8355L7.33962 18.7528C7.09199 18.921 6.83482 19.0764 6.56936 19.219L6.61668 19.3071ZM7.39871 18.7549C7.2743 18.6566 7.15684 18.5504 7.04695 18.4364L6.97494 18.5058C7.08803 18.6231 7.20884 18.7323 7.33671 18.8334L7.39871 18.7549ZM7.18403 2.44312C7.18478 2.44237 7.19134 2.43684 7.21569 2.43752C7.2391 2.43818 7.27051 2.44444 7.30951 2.45629C7.38732 2.47991 7.48288 2.52173 7.58275 2.56587C7.6809 2.60926 7.7832 2.6549 7.86959 2.68287C7.91278 2.69685 7.95464 2.70734 7.99175 2.71037C8.0275 2.71328 8.06801 2.71009 8.0998 2.68624L8.03979 2.60625C8.03734 2.60809 8.02714 2.61292 7.99989 2.6107C7.97401 2.60858 7.9406 2.60075 7.9004 2.58774C7.82004 2.56171 7.72316 2.51861 7.62318 2.47441C7.52491 2.43097 7.42337 2.38635 7.33856 2.3606C7.29625 2.34775 7.25497 2.33858 7.21849 2.33756C7.18296 2.33656 7.14243 2.3431 7.11308 2.37265L7.18403 2.44312ZM8.22201 19.2415L7.39317 18.7511L7.34225 18.8372L8.17109 19.3276L8.22201 19.2415ZM8.09989 2.68617L9.01616 1.99565L8.95598 1.91579L8.0397 2.60631L8.09989 2.68617ZM12.4358 8.93186L12.3677 8.85858L12.3671 8.85914L12.4358 8.93186ZM9.4773 11.7247L9.40561 11.7944L9.4743 11.8651L9.54595 11.7974L9.4773 11.7247ZM8.05746 10.2648L7.98574 10.3345L7.98577 10.3345L8.05746 10.2648ZM7.47897 10.2564L7.40928 10.1847L7.40928 10.1847L7.47897 10.2564ZM7.47063 10.8348L7.39892 10.9045L7.39902 10.9046L7.47063 10.8348ZM9.17355 12.582L9.10194 12.6518L9.10265 12.6525L9.17355 12.582ZM9.7522 12.5942L9.82009 12.6676L9.82079 12.6669L9.7522 12.5942ZM13.0062 9.52654L13.0748 9.59931V9.59931L13.0062 9.52654ZM13.1345 9.24074L13.0345 9.23793L13.1345 9.24074ZM13.0226 8.9482L13.0952 8.87942L13.0946 8.87885L13.0226 8.9482ZM18.6771 8.50523L18.5773 8.49966L18.5755 8.53258L18.5936 8.56013L18.6771 8.50523ZM18.8126 6.07314L18.7128 6.06736L18.7127 6.06758L18.8126 6.07314ZM18.5869 5.68352L18.5418 5.77277L18.5422 5.77299L18.5869 5.68352ZM16.4203 4.58851L16.331 4.63366L16.3459 4.66295L16.3752 4.67776L16.4203 4.58851ZM15.3247 2.42301L15.4139 2.37787L15.4136 2.37729L15.3247 2.42301ZM14.9349 2.19744L14.9301 2.09755L14.9295 2.09759L14.9349 2.19744ZM12.4973 2.32881L12.4422 2.41226L12.4698 2.43044L12.5027 2.42867L12.4973 2.32881ZM10.4661 0.987569L10.5212 0.90412L10.5211 0.904066L10.4661 0.987569ZM10.0148 0.987569L9.95978 0.904036L9.95965 0.90412L10.0148 0.987569ZM7.98356 2.32881L7.978 2.42866L8.01105 2.4305L8.03866 2.41226L7.98356 2.32881ZM5.55036 2.19344L5.54449 2.29327L5.5448 2.29328L5.55036 2.19344ZM5.16053 2.41901L5.24976 2.46416L5.25 2.46367L5.16053 2.41901ZM4.06479 4.58451L4.1099 4.67376L4.1392 4.65895L4.15402 4.62966L4.06479 4.58451ZM1.89831 5.67951L1.8532 5.59027L1.85275 5.5905L1.89831 5.67951ZM1.67262 6.06914L1.57273 6.07385L1.57278 6.07469L1.67262 6.06914ZM1.80791 8.50122L1.89133 8.55636L1.90959 8.52873L1.90775 8.49567L1.80791 8.50122ZM0.46612 10.5313L0.382695 10.4762L0.382644 10.4763L0.46612 10.5313ZM0.46612 10.9825L0.54967 10.9275L0.549626 10.9275L0.46612 10.9825ZM1.8039 13.0166L1.90375 13.0222L1.90558 12.9892L1.88745 12.9617L1.8039 13.0166ZM1.66846 15.4487L1.76829 15.4545L1.7683 15.4543L1.66846 15.4487ZM1.89414 15.8383L1.93925 15.7491L1.93877 15.7488L1.89414 15.8383ZM4.06078 16.9333L4.15001 16.8882L4.13519 16.8589L4.10589 16.8441L4.06078 16.9333ZM5.15636 19.0988L5.06713 19.144L5.06737 19.1444L5.15636 19.0988ZM5.54619 19.3244L5.5509 19.4243L5.55174 19.4242L5.54619 19.3244ZM7.97955 19.189L8.03465 19.1056L8.00703 19.0873L7.974 19.0892L7.97955 19.189ZM10.0107 20.5301L10.0672 20.4476L10.0658 20.4467L10.0107 20.5301ZM10.4621 20.5301L10.407 20.4466L10.4057 20.4476L10.4621 20.5301ZM12.4933 19.189L12.4989 19.0892L12.4658 19.0873L12.4382 19.1056L12.4933 19.189ZM14.9267 19.3244L14.9325 19.2246L14.9322 19.2246L14.9267 19.3244ZM15.3165 19.0988L15.2273 19.0537L15.2271 19.0541L15.3165 19.0988ZM16.4121 16.9333L16.367 16.8441L16.3377 16.8589L16.3229 16.8882L16.4121 16.9333ZM18.5787 15.8383L18.6238 15.9276L18.6244 15.9273L18.5787 15.8383ZM18.8044 15.4487L18.9043 15.444L18.9043 15.4431L18.8044 15.4487ZM18.669 13.0166L18.5855 12.9615L18.5673 12.9891L18.5691 13.0222L18.669 13.0166ZM20.0108 10.9865L20.0942 11.0416L20.0942 11.0416L20.0108 10.9865ZM20.0108 10.5354L19.9272 10.5903L19.9273 10.5904L20.0108 10.5354ZM17.9138 12.6803L17.9965 12.7367L17.9973 12.7355L17.9138 12.6803ZM17.8483 12.9306L17.9482 12.9251L17.9479 12.9219L17.8483 12.9306ZM17.9754 15.2313L18.0205 15.3206L18.0788 15.2911L18.0752 15.2258L17.9754 15.2313ZM15.9278 16.2648L15.9726 16.3542L15.9729 16.3541L15.9278 16.2648ZM15.7474 16.4453L15.8366 16.4904L15.8368 16.4902L15.7474 16.4453ZM14.7132 18.4918L14.7077 18.5917L14.7729 18.5953L14.8024 18.5369L14.7132 18.4918ZM12.4112 18.3648L12.4168 18.2649L12.4149 18.2648L12.4112 18.3648ZM12.1609 18.4303L12.1087 18.3449L12.1058 18.3468L12.1609 18.4303ZM10.2404 19.6977L10.1854 19.7811L10.2404 19.8175L10.2955 19.7811L10.2404 19.6977ZM8.32017 18.4303L8.26421 18.5132L8.26508 18.5138L8.32017 18.4303ZM8.09448 18.3606L8.09488 18.2606H8.09448V18.3606ZM8.07396 18.3606V18.2605L8.06844 18.2608L8.07396 18.3606ZM5.77188 18.4878L5.68262 18.5329L5.71211 18.5913L5.77739 18.5877L5.77188 18.4878ZM4.73785 16.4412L4.64845 16.486L4.64859 16.4863L4.73785 16.4412ZM4.5572 16.2608L4.51235 16.3502L4.5125 16.3502L4.5572 16.2608ZM2.50549 15.2313L2.40564 15.2258L2.40202 15.2913L2.46064 15.3207L2.50549 15.2313ZM2.63276 12.9306L2.73263 12.9361L2.73269 12.9342L2.63276 12.9306ZM2.56704 12.6803L2.65238 12.6281L2.65048 12.6252L2.56704 12.6803ZM1.29915 10.7609L1.21571 10.7058L1.1793 10.7609L1.21571 10.816L1.29915 10.7609ZM2.56704 8.8415L2.48454 8.78496L2.4836 8.78638L2.56704 8.8415ZM2.63276 8.59142L2.53286 8.59694L2.53314 8.60008L2.63276 8.59142ZM2.50549 6.29054L2.46043 6.20127L2.40203 6.23074L2.40564 6.29606L2.50549 6.29054ZM4.55319 5.25705L4.50842 5.16764L4.50814 5.16778L4.55319 5.25705ZM4.73368 5.07666L4.64442 5.03157L4.64428 5.03185L4.73368 5.07666ZM5.76771 3.03003L5.77323 2.93018L5.70794 2.92658L5.67846 2.98494L5.76771 3.03003ZM8.06979 3.15724L8.06428 3.2571L8.06634 3.25718L8.06979 3.15724ZM8.32017 3.09155L8.3723 3.17696L8.37525 3.17502L8.32017 3.09155ZM10.2404 1.82432L10.2955 1.74086L10.2404 1.70451L10.1854 1.74086L10.2404 1.82432ZM12.1609 3.09155L12.2173 3.00897L12.216 3.00809L12.1609 3.09155ZM12.4112 3.15724L12.4057 3.05734L12.4026 3.05761L12.4112 3.15724ZM14.7132 3.03003L14.8024 2.98493L14.7729 2.92658L14.7077 2.93018L14.7132 3.03003ZM15.7474 5.07666L15.8368 5.03185L15.8366 5.03156L15.7474 5.07666ZM15.9278 5.25705L15.9729 5.16778L15.9726 5.16764L15.9278 5.25705ZM17.9754 6.29054L18.0752 6.29606L18.0788 6.23074L18.0205 6.20127L17.9754 6.29054ZM17.8483 8.59142L17.7484 8.5859L17.7483 8.58777L17.8483 8.59142ZM17.9138 8.8415L17.8284 8.89361L17.8304 8.89662L17.9138 8.8415ZM19.1819 10.7609L19.2653 10.816L19.3017 10.7609L19.2653 10.7058L19.1819 10.7609ZM12.3671 8.85914L9.40866 11.652L9.54595 11.7974L12.5044 9.00458L12.3671 8.85914ZM9.54899 11.655L8.12914 10.1951L7.98577 10.3345L9.40561 11.7944L9.54899 11.655ZM8.12917 10.1951C7.93328 9.99351 7.61078 9.98891 7.40928 10.1847L7.54866 10.3282C7.67094 10.2093 7.86682 10.2121 7.98574 10.3345L8.12917 10.1951ZM7.40928 10.1847C7.20763 10.3807 7.20302 10.7029 7.39892 10.9045L7.54235 10.7651C7.42344 10.6427 7.42621 10.4472 7.54866 10.3282L7.40928 10.1847ZM7.39902 10.9046L9.10194 12.6518L9.24516 12.5122L7.54225 10.765L7.39902 10.9046ZM9.10265 12.6525C9.29878 12.8497 9.61578 12.8565 9.82009 12.6676L9.68431 12.5207C9.55906 12.6365 9.36474 12.6324 9.24446 12.5115L9.10265 12.6525ZM9.82079 12.6669L13.0748 9.59931L12.9376 9.45378L9.6836 12.5214L9.82079 12.6669ZM13.0748 9.59931C13.1732 9.50662 13.2306 9.37861 13.2344 9.24354L13.0345 9.23793C13.0322 9.31979 12.9974 9.39748 12.9376 9.45378L13.0748 9.59931ZM13.2344 9.24354C13.2382 9.10853 13.1881 8.97752 13.0952 8.87942L12.95 9.01699C13.0064 9.07653 13.0368 9.15603 13.0345 9.23793L13.2344 9.24354ZM13.0946 8.87885C12.8984 8.675 12.575 8.66611 12.3677 8.85858L12.5038 9.00514C12.6312 8.88681 12.83 8.89234 12.9505 9.01755L13.0946 8.87885ZM10.2404 4.5337C6.80411 4.5337 4.00999 7.32628 4.00999 10.7609H4.20999C4.20999 7.43683 6.91447 4.7337 10.2404 4.7337V4.5337ZM4.00999 10.7609C4.00999 14.1958 6.80411 16.9883 10.2404 16.9883V16.7883C6.91447 16.7883 4.20999 14.0852 4.20999 10.7609H4.00999ZM10.2404 16.9883C13.6769 16.9883 16.4711 14.1958 16.4711 10.7609H16.2711C16.2711 14.0852 13.5666 16.7883 10.2404 16.7883V16.9883ZM16.4711 10.7609C16.4711 7.32627 13.6769 4.5337 10.2404 4.5337V4.7337C13.5666 4.7337 16.2711 7.43683 16.2711 10.7609H16.4711ZM10.2404 15.9681C7.36589 15.9681 5.03068 13.6299 5.03068 10.7609H4.83068C4.83068 13.7404 7.25543 16.1681 10.2404 16.1681V15.9681ZM5.03068 10.7609C5.03068 7.89193 7.36589 5.55396 10.2404 5.55396V5.35396C7.25543 5.35396 4.83068 7.78147 4.83068 10.7609H5.03068ZM10.2404 5.55396C13.1179 5.55396 15.4504 7.88525 15.4504 10.7609H15.6504C15.6504 7.77469 13.2283 5.35396 10.2404 5.35396V5.55396ZM15.4504 10.7609C15.4504 13.6366 13.1179 15.9681 10.2404 15.9681V16.1681C13.2283 16.1681 15.6504 13.7472 15.6504 10.7609H15.4504ZM18.777 8.51079L18.9124 6.0787L18.7127 6.06758L18.5773 8.49966L18.777 8.51079ZM18.9124 6.07892C18.9242 5.87574 18.8137 5.68496 18.6316 5.59405L18.5422 5.77299C18.6528 5.82819 18.7199 5.94404 18.7128 6.06736L18.9124 6.07892ZM18.632 5.59427L16.4654 4.49926L16.3752 4.67776L18.5418 5.77277L18.632 5.59427ZM16.5095 4.54337L15.4139 2.37787L15.2354 2.46816L16.331 4.63366L16.5095 4.54337ZM15.4136 2.37729C15.3212 2.1975 15.1322 2.08801 14.9301 2.09755L14.9396 2.29733C15.0632 2.29149 15.1791 2.35855 15.2357 2.46873L15.4136 2.37729ZM14.9295 2.09759L12.4919 2.22896L12.5027 2.42867L14.9402 2.2973L14.9295 2.09759ZM12.5524 2.24536L10.5212 0.90412L10.411 1.07102L12.4422 2.41226L12.5524 2.24536ZM10.5211 0.904066C10.3509 0.791861 10.1302 0.791897 9.95978 0.904036L10.0697 1.0711C10.1734 1.00285 10.3076 1.00288 10.4111 1.07107L10.5211 0.904066ZM9.95965 0.90412L7.92846 2.24536L8.03866 2.41226L10.0699 1.07102L9.95965 0.90412ZM7.98911 2.22897L5.55591 2.09359L5.5448 2.29328L7.978 2.42866L7.98911 2.22897ZM5.55623 2.09361C5.35275 2.08165 5.16202 2.19213 5.07106 2.37435L5.25 2.46367C5.30523 2.35303 5.42097 2.286 5.54449 2.29326L5.55623 2.09361ZM5.0713 2.37386L3.97556 4.53936L4.15402 4.62966L5.24976 2.46416L5.0713 2.37386ZM4.01968 4.49526L1.8532 5.59027L1.94342 5.76876L4.1099 4.67376L4.01968 4.49526ZM1.85275 5.5905C1.67254 5.68274 1.56319 5.87178 1.57273 6.07385L1.77251 6.06442C1.76667 5.94063 1.83363 5.82496 1.94388 5.76853L1.85275 5.5905ZM1.57278 6.07469L1.70806 8.50677L1.90775 8.49567L1.77247 6.06358L1.57278 6.07469ZM1.72448 8.44608L0.382695 10.4762L0.549545 10.5865L1.89133 8.55636L1.72448 8.44608ZM0.382644 10.4763C0.270356 10.6465 0.270392 10.8672 0.382614 11.0375L0.549626 10.9275C0.481362 10.8239 0.481397 10.6898 0.549596 10.5864L0.382644 10.4763ZM0.382569 11.0374L1.72035 13.0716L1.88745 12.9617L0.54967 10.9275L0.382569 11.0374ZM1.70405 13.0111L1.56861 15.4431L1.7683 15.4543L1.90375 13.0222L1.70405 13.0111ZM1.56862 15.4429C1.55686 15.646 1.66715 15.8369 1.84952 15.9278L1.93877 15.7488C1.82812 15.6937 1.76114 15.5779 1.76829 15.4545L1.56862 15.4429ZM1.84904 15.9276L4.01568 17.0226L4.10589 16.8441L1.93925 15.7491L1.84904 15.9276ZM3.97155 16.9785L5.06713 19.144L5.24559 19.0537L4.15001 16.8882L3.97155 16.9785ZM5.06737 19.1444C5.15967 19.3246 5.34881 19.4338 5.5509 19.4243L5.54148 19.2245C5.41754 19.2304 5.3018 19.1634 5.24536 19.0532L5.06737 19.1444ZM5.55174 19.4242L7.98511 19.2889L7.974 19.0892L5.54064 19.2246L5.55174 19.4242ZM7.92445 19.2725L9.95565 20.6136L10.0658 20.4467L8.03465 19.1056L7.92445 19.2725ZM9.95429 20.6126C10.1244 20.729 10.3485 20.729 10.5186 20.6126L10.4057 20.4476C10.3036 20.5174 10.1693 20.5174 10.0672 20.4476L9.95429 20.6126ZM10.5172 20.6136L12.5484 19.2725L12.4382 19.1056L10.407 20.4467L10.5172 20.6136ZM12.4878 19.2889L14.9211 19.4242L14.9322 19.2246L12.4989 19.0892L12.4878 19.2889ZM14.9209 19.4242C15.1242 19.436 15.3148 19.3255 15.4059 19.1436L15.2271 19.0541C15.1717 19.1647 15.0559 19.2317 14.9325 19.2246L14.9209 19.4242ZM15.4057 19.144L16.5013 16.9785L16.3229 16.8882L15.2273 19.0537L15.4057 19.144ZM16.4572 17.0226L18.6238 15.9276L18.5336 15.7491L16.367 16.8441L16.4572 17.0226ZM18.6244 15.9273C18.8042 15.8349 18.9138 15.6462 18.9043 15.444L18.7045 15.4534C18.7104 15.5771 18.6433 15.6927 18.533 15.7494L18.6244 15.9273ZM18.9043 15.4431L18.7688 13.0111L18.5691 13.0222L18.7046 15.4543L18.9043 15.4431ZM18.7524 13.0718L20.0942 11.0416L19.9273 10.9314L18.5855 12.9615L18.7524 13.0718ZM20.0942 11.0416C20.2065 10.8713 20.2065 10.6505 20.0942 10.4803L19.9273 10.5904C19.9955 10.6938 19.9955 10.828 19.9273 10.9314L20.0942 11.0416ZM20.0943 10.4804L18.7607 8.45032L18.5936 8.56013L19.9272 10.5903L20.0943 10.4804ZM17.8312 12.624C17.7683 12.7164 17.739 12.8276 17.7487 12.9392L17.9479 12.9219C17.9422 12.8564 17.9594 12.7911 17.9965 12.7367L17.8312 12.624ZM17.7484 12.9361L17.8755 15.2368L18.0752 15.2258L17.9481 12.9251L17.7484 12.9361ZM17.9303 15.142L15.8828 16.1755L15.9729 16.3541L18.0205 15.3206L17.9303 15.142ZM15.8831 16.1754C15.7856 16.2242 15.7067 16.3033 15.658 16.4005L15.8368 16.4902C15.8662 16.4314 15.9139 16.3836 15.9726 16.3542L15.8831 16.1754ZM15.6581 16.4002L14.6239 18.4467L14.8024 18.5369L15.8366 16.4904L15.6581 16.4002ZM14.7187 18.392L12.4168 18.2649L12.4057 18.4646L14.7077 18.5917L14.7187 18.392ZM12.4149 18.2648C12.3071 18.2609 12.2007 18.2887 12.1087 18.345L12.2131 18.5156C12.2714 18.4799 12.339 18.4622 12.4076 18.4647L12.4149 18.2648ZM12.1058 18.3468L10.1854 19.6142L10.2955 19.7811L12.216 18.5138L12.1058 18.3468ZM10.2955 19.6142L8.37525 18.3468L8.26508 18.5138L10.1854 19.7811L10.2955 19.6142ZM8.37612 18.3474C8.29313 18.2914 8.19527 18.261 8.09488 18.2606L8.09408 18.4606C8.15462 18.4608 8.21385 18.4792 8.26421 18.5132L8.37612 18.3474ZM8.09448 18.2606H8.07396V18.4606H8.09448V18.2606ZM8.06844 18.2608L5.76636 18.388L5.77739 18.5877L8.07948 18.4605L8.06844 18.2608ZM5.86113 18.4427L4.8271 16.3961L4.64859 16.4863L5.68262 18.5329L5.86113 18.4427ZM4.82724 16.3964C4.77845 16.299 4.69946 16.2201 4.6019 16.1713L4.5125 16.3502C4.57139 16.3797 4.61902 16.4273 4.64845 16.486L4.82724 16.3964ZM4.60205 16.1714L2.55034 15.1419L2.46064 15.3207L4.51235 16.3502L4.60205 16.1714ZM2.60534 15.2368L2.73261 12.9361L2.53291 12.9251L2.40564 15.2258L2.60534 15.2368ZM2.73269 12.9342C2.73662 12.8264 2.70856 12.72 2.65233 12.6281L2.48176 12.7326C2.51753 12.791 2.53531 12.8586 2.53283 12.927L2.73269 12.9342ZM2.65048 12.6252L1.38259 10.7058L1.21571 10.816L2.4836 12.7355L2.65048 12.6252ZM1.38259 10.816L2.65048 8.89661L2.4836 8.78638L1.21571 10.7058L1.38259 10.816ZM2.64953 8.89802C2.71279 8.80572 2.74208 8.69424 2.73238 8.58275L2.53314 8.60008C2.53882 8.66546 2.52164 8.73085 2.48455 8.78497L2.64953 8.89802ZM2.73261 8.58589L2.60534 6.28502L2.40564 6.29606L2.53291 8.59694L2.73261 8.58589ZM2.55055 6.37981L4.59825 5.34633L4.50814 5.16778L2.46043 6.20127L2.55055 6.37981ZM4.59797 5.34647C4.69532 5.29772 4.77429 5.21879 4.82308 5.12147L4.64428 5.03185C4.61485 5.09057 4.56719 5.13821 4.50842 5.16764L4.59797 5.34647ZM4.82293 5.12176L5.85697 3.07513L5.67846 2.98494L4.64442 5.03157L4.82293 5.12176ZM5.76219 3.12988L8.06428 3.25708L8.07531 3.05739L5.77323 2.93018L5.76219 3.12988ZM8.06634 3.25718C8.17383 3.26089 8.28019 3.2331 8.37226 3.17691L8.26807 3.00619C8.20947 3.04196 8.14176 3.05966 8.07325 3.0573L8.06634 3.25718ZM8.37525 3.17502L10.2955 1.90779L10.1854 1.74086L8.26509 3.00809L8.37525 3.17502ZM10.1854 1.90779L12.1058 3.17502L12.216 3.00809L10.2955 1.74086L10.1854 1.90779ZM12.1045 3.17413C12.1969 3.23727 12.3084 3.26655 12.4199 3.25686L12.4026 3.05761C12.3372 3.0633 12.2717 3.04612 12.2173 3.00898L12.1045 3.17413ZM12.4168 3.25708L14.7187 3.12988L14.7077 2.93018L12.4057 3.05739L12.4168 3.25708ZM14.6239 3.07513L15.6581 5.12176L15.8366 5.03156L14.8024 2.98493L14.6239 3.07513ZM15.658 5.12147C15.7068 5.21879 15.7857 5.29772 15.8831 5.34647L15.9726 5.16764C15.9139 5.13821 15.8662 5.09057 15.8368 5.03185L15.658 5.12147ZM15.8828 5.34632L17.9303 6.37981L18.0205 6.20127L15.9729 5.16778L15.8828 5.34632ZM17.8755 6.28502L17.7484 8.5859L17.9481 8.59693L18.0752 6.29606L17.8755 6.28502ZM17.7483 8.58777C17.7444 8.69547 17.7725 8.80182 17.8285 8.89358L17.9992 8.78941C17.9635 8.7309 17.9457 8.66327 17.9482 8.59506L17.7483 8.58777ZM17.8304 8.89662L19.0985 10.816L19.2653 10.7058L17.9973 8.78638L17.8304 8.89662ZM19.0985 10.7058L17.8304 12.6252L17.9973 12.7355L19.2653 10.816L19.0985 10.7058Z" fill="#8D6355" mask="url(#path-1-outside-1)"/>
</svg>
