<svg width="60" height="58" viewBox="0 0 60 58" fill="none" xmlns="http://www.w3.org/2000/svg">
<path d="M36.379 14.3082L35.6427 14.8259L36.379 14.3082ZM35.0745 12.453L34.3383 12.9706L35.0745 12.453ZM2.55138 32.8751L1.77478 33.3299L2.55138 32.8751ZM3.7899 34.9897L3.0133 35.4445H3.0133L3.7899 34.9897ZM5.46796 35.3966L4.98601 34.6365H4.98601L5.46796 35.3966ZM12.7415 21.0257L12.2656 20.2619L12.7415 21.0257ZM36.0399 16.0119L36.5219 16.772V16.772L36.0399 16.0119ZM18.5823 9.57814L17.7053 9.37631L18.5823 9.57814ZM28.6098 11.1397L29.0857 11.9036L28.6098 11.1397ZM24.8871 11.0278L25.7643 11.2293V11.2293L24.8871 11.0278ZM9.94388 17.0686L10.1609 16.1951L9.94388 17.0686ZM4.15509 26.3751L4.63099 27.139L4.15509 26.3751ZM7.91835 23.7205L8.22496 22.8743H8.22496L7.91835 23.7205ZM31.5865 30.075C31.4742 30.5592 31.7757 31.0428 32.2599 31.1551C32.7441 31.2674 33.2276 30.9659 33.3399 30.4817L31.5865 30.075ZM41.2316 27.2793C41.7257 27.3338 42.1704 26.9775 42.2249 26.4834C42.2794 25.9894 41.923 25.5447 41.429 25.4902L41.2316 27.2793ZM33.4662 23.1454C33.1394 23.5199 33.1781 24.0884 33.5526 24.4152C33.9271 24.7421 34.4956 24.7034 34.8224 24.3289L33.4662 23.1454ZM47.6187 19.5636C48.0991 19.6912 48.592 19.4052 48.7196 18.9248C48.8472 18.4444 48.5612 17.9515 48.0808 17.8239L47.6187 19.5636ZM40.4352 13.0147C39.9656 12.8519 39.4529 13.1006 39.2901 13.5703C39.1273 14.0399 39.376 14.5526 39.8457 14.7154L40.4352 13.0147ZM50.0797 10.228C50.2741 9.77056 50.0609 9.24211 49.6034 9.04769C49.146 8.85327 48.6175 9.06651 48.4231 9.52396L50.0797 10.228ZM5.91799 19.0447L6.74172 19.4073L5.91799 19.0447ZM22.7111 7.21979L22.9827 6.36178L22.7111 7.21979ZM44.8376 28.5248L45.1734 29.3598C45.3774 29.2778 45.5444 29.1239 45.6427 28.9272L44.8376 28.5248ZM45.9144 26.3704L46.7261 25.9815C46.5776 25.6716 46.2656 25.4733 45.9219 25.4704C45.5783 25.4676 45.263 25.6607 45.1094 25.968L45.9144 26.3704ZM46.9469 28.5248L46.1353 28.9138C46.2342 29.1202 46.4081 29.2812 46.6215 29.364L46.9469 28.5248ZM49.1461 29.3775L49.5006 30.2047C49.8368 30.0607 50.0523 29.7275 50.0459 29.3618C50.0395 28.996 49.8124 28.6706 49.4714 28.5384L49.1461 29.3775ZM46.9469 30.32L46.5923 29.4928C46.3721 29.5872 46.1986 29.7655 46.1103 29.9882L46.9469 30.32ZM45.9144 32.9231L45.0828 33.2672C45.2229 33.6059 45.5545 33.8258 45.921 33.8231C46.2876 33.8204 46.6159 33.5957 46.751 33.2549L45.9144 32.9231ZM44.8376 30.32L45.6693 29.976C45.581 29.7627 45.4142 29.5914 45.2032 29.4976L44.8376 30.32ZM42.7175 29.3775L42.3817 28.5425C42.0463 28.6774 41.8242 28.9999 41.8177 29.3613C41.8112 29.7228 42.0216 30.053 42.3519 30.1999L42.7175 29.3775ZM51.3714 3.81753L51.7072 4.65253C51.9113 4.57048 52.0782 4.41659 52.1765 4.2199L51.3714 3.81753ZM52.4482 1.66309L53.2599 1.27415C53.1114 0.964256 52.7994 0.765973 52.4557 0.763117C52.1121 0.760261 51.7968 0.95333 51.6432 1.26071L52.4482 1.66309ZM53.4807 3.81753L52.6691 4.20646C52.768 4.41291 52.9419 4.57391 53.1553 4.65666L53.4807 3.81753ZM55.6799 4.67019L56.0344 5.49742C56.3706 5.35334 56.5861 5.02013 56.5797 4.65443C56.5733 4.28873 56.3462 3.96327 56.0052 3.83105L55.6799 4.67019ZM53.4807 5.61269L53.1261 4.78546C52.9059 4.87985 52.7324 5.05816 52.6441 5.28089L53.4807 5.61269ZM52.4482 8.21581L51.6166 8.55983C51.7567 8.89856 52.0883 9.11847 52.4548 9.11578C52.8214 9.1131 53.1497 8.88836 53.2849 8.54761L52.4482 8.21581ZM51.3714 5.61269L52.2031 5.26867C52.1148 5.05534 51.948 4.88408 51.737 4.7903L51.3714 5.61269ZM49.2513 4.67019L48.9155 3.83519C48.5801 3.97008 48.358 4.29257 48.3515 4.65402C48.345 5.01547 48.5554 5.34573 48.8857 5.49258L49.2513 4.67019ZM54.5857 20.1937L54.9215 21.0287C55.1255 20.9467 55.2924 20.7928 55.3907 20.5961L54.5857 20.1937ZM55.6625 18.0393L56.4741 17.6503C56.3256 17.3404 56.0136 17.1422 55.67 17.1393C55.3264 17.1364 55.0111 17.3295 54.8575 17.6369L55.6625 18.0393ZM56.6949 20.1937L55.8833 20.5827C55.9822 20.7891 56.1561 20.9501 56.3696 21.0329L56.6949 20.1937ZM58.8941 21.0464L59.2486 21.8736C59.5848 21.7295 59.8004 21.3963 59.794 21.0306C59.7876 20.6649 59.5605 20.3395 59.2195 20.2072L58.8941 21.0464ZM56.6949 21.9889L56.3404 21.1616C56.1202 21.256 55.9467 21.4343 55.8583 21.6571L56.6949 21.9889ZM55.6625 24.592L54.8308 24.936C54.971 25.2748 55.3025 25.4947 55.6691 25.492C56.0357 25.4893 56.364 25.2645 56.4991 24.9238L55.6625 24.592ZM54.5857 21.9889L55.4173 21.6449C55.3291 21.4315 55.1622 21.2603 54.9513 21.1665L54.5857 21.9889ZM52.4656 21.0464L52.1298 20.2114C51.7944 20.3463 51.5722 20.6688 51.5657 21.0302C51.5592 21.3917 51.7697 21.7219 52.1 21.8688L52.4656 21.0464ZM7.33309 34.994V52.0897H9.13309V34.994H7.33309ZM42.2303 52.0897V34.994H40.4303V52.0897H42.2303ZM20.7605 32.894H9.43309V34.694H20.7605V32.894ZM13.0331 57.7897H20.7605V55.9897H13.0331V57.7897ZM19.8605 33.794V56.8897H21.6605V33.794H19.8605ZM20.7605 57.7897H29.6276V55.9897H20.7605V57.7897ZM29.6276 57.7897H36.5303V55.9897H29.6276V57.7897ZM40.1303 32.894H29.6276V34.694H40.1303V32.894ZM29.6276 32.894H20.7605V34.694H29.6276V32.894ZM30.5276 56.8897V33.794H28.7276V56.8897H30.5276ZM37.1152 13.7906L35.8107 11.9353L34.3383 12.9706L35.6427 14.8259L37.1152 13.7906ZM1.77478 33.3299L3.0133 35.4445L4.5665 34.5348L3.32798 32.4202L1.77478 33.3299ZM5.9499 36.1567L17.7297 28.6875L16.7658 27.1673L4.98601 34.6365L5.9499 36.1567ZM18.0014 27.4354L13.4951 20.5337L11.9879 21.5178L16.4942 28.4194L18.0014 27.4354ZM17.7297 28.6875L25.5032 23.7586L24.5393 22.2384L16.7658 27.1673L17.7297 28.6875ZM25.5032 23.7586L36.5219 16.772L35.558 15.2518L24.5393 22.2384L25.5032 23.7586ZM25.7508 22.4715L20.9575 15.8348L19.4983 16.8887L24.2916 23.5254L25.7508 22.4715ZM19.752 15.5978L16.0088 17.9298L16.9606 19.4576L20.7038 17.1256L19.752 15.5978ZM16.0088 17.9298L12.2656 20.2619L13.2174 21.7896L16.9606 19.4576L16.0088 17.9298ZM17.3618 18.8956L19.4594 9.77997L17.7053 9.37631L15.6076 18.4919L17.3618 18.8956ZM28.1339 10.3759L23.7594 13.1012L24.7112 14.629L29.0857 11.9036L28.1339 10.3759ZM23.7594 13.1012L19.752 15.5978L20.7038 17.1256L24.7112 14.629L23.7594 13.1012ZM24.01 10.8262L23.3582 13.6636L25.1125 14.0666L25.7643 11.2293L24.01 10.8262ZM16.7017 17.8203L10.1609 16.1951L9.72687 17.942L16.2677 19.5672L16.7017 17.8203ZM12.2656 20.2619L7.75719 23.0706L8.70899 24.5984L13.2174 21.7896L12.2656 20.2619ZM7.75719 23.0706L3.67919 25.6112L4.63099 27.139L8.70899 24.5984L7.75719 23.0706ZM7.61174 24.5666L7.92648 24.6807L8.5397 22.9884L8.22496 22.8743L7.61174 24.5666ZM33.3399 30.4817C33.582 29.4379 35.3682 26.6325 41.2316 27.2793L41.429 25.4902C34.8678 24.7664 32.0789 27.952 31.5865 30.075L33.3399 30.4817ZM34.8224 24.3289C35.7764 23.2357 37.5972 21.6522 39.8918 20.5425C42.1812 19.4353 44.8687 18.8331 47.6187 19.5636L48.0808 17.8239C44.7879 16.9492 41.648 17.6938 39.1081 18.9221C36.5734 20.1479 34.5629 21.8887 33.4662 23.1454L34.8224 24.3289ZM39.8457 14.7154C41.0584 15.1358 42.9928 15.4118 44.9427 14.8888C46.938 14.3537 48.9062 12.9893 50.0797 10.228L48.4231 9.52396C47.4785 11.7465 45.9684 12.7501 44.4764 13.1503C42.9389 13.5626 41.3769 13.3412 40.4352 13.0147L39.8457 14.7154ZM5.09426 18.6821C4.07287 21.0026 5.22812 23.7029 7.61174 24.5666L8.22496 22.8743C6.82059 22.3654 6.13995 20.7744 6.74172 19.4073L5.09426 18.6821ZM22.4394 8.07781C23.5989 8.44497 24.2823 9.64085 24.01 10.8262L25.7643 11.2293C26.2466 9.12992 25.0363 7.01203 22.9827 6.36178L22.4394 8.07781ZM19.4594 9.77997C19.7652 8.45131 21.1396 7.66623 22.4394 8.07781L22.9827 6.36178C20.6808 5.63289 18.2467 7.02325 17.7053 9.37631L19.4594 9.77997ZM35.8107 11.9353C34.0709 9.46088 30.7013 8.77638 28.1339 10.3759L29.0857 11.9036C30.8423 10.8092 33.1479 11.2776 34.3383 12.9706L35.8107 11.9353ZM10.1609 16.1951C8.09188 15.6811 5.95315 16.7309 5.09426 18.6821L6.74172 19.4073C7.24776 18.2577 8.50784 17.6391 9.72687 17.942L10.1609 16.1951ZM35.6427 14.8259C35.7413 14.966 35.7027 15.1601 35.558 15.2518L36.5219 16.772C37.5346 16.1298 37.8049 14.7715 37.1152 13.7906L35.6427 14.8259ZM3.0133 35.4445C3.61412 36.4703 4.9459 36.7933 5.9499 36.1567L4.98601 34.6365C4.84258 34.7275 4.65233 34.6813 4.5665 34.5348L3.0133 35.4445ZM42.2303 34.994C42.2303 33.8342 41.2901 32.894 40.1303 32.894V34.694C40.296 34.694 40.4303 34.8283 40.4303 34.994H42.2303ZM40.4303 52.0897C40.4303 54.2437 38.6842 55.9897 36.5303 55.9897V57.7897C39.6783 57.7897 42.2303 55.2378 42.2303 52.0897H40.4303ZM7.33309 52.0897C7.33309 55.2378 9.88507 57.7897 13.0331 57.7897V55.9897C10.8792 55.9897 9.13309 54.2437 9.13309 52.0897H7.33309ZM3.32798 32.4202C2.26037 30.5974 2.83806 28.256 4.63099 27.139L3.67919 25.6112C1.05875 27.2438 0.214428 30.6659 1.77478 33.3299L3.32798 32.4202ZM9.13309 34.994C9.13309 34.8283 9.26741 34.694 9.43309 34.694V32.894C8.27329 32.894 7.33309 33.8342 7.33309 34.994H9.13309ZM42.29 8.21581C42.29 9.18701 41.5027 9.97432 40.5315 9.97432V11.7743C42.4968 11.7743 44.09 10.1811 44.09 8.21581H42.29ZM40.5315 9.97432C39.5603 9.97432 38.773 9.18701 38.773 8.21581H36.973C36.973 10.1811 38.5662 11.7743 40.5315 11.7743V9.97432ZM38.773 8.21581C38.773 7.24462 39.5603 6.45731 40.5315 6.45731V4.65731C38.5662 4.65731 36.973 6.25051 36.973 8.21581H38.773ZM40.5315 6.45731C41.5027 6.45731 42.29 7.24462 42.29 8.21581H44.09C44.09 6.25051 42.4968 4.65731 40.5315 4.65731V6.45731ZM27.623 29.6468C27.623 30.1319 27.2298 30.5252 26.7447 30.5252V32.3252C28.2239 32.3252 29.423 31.1261 29.423 29.6468H27.623ZM26.7447 30.5252C26.2596 30.5252 25.8663 30.1319 25.8663 29.6468H24.0663C24.0663 31.1261 25.2654 32.3252 26.7447 32.3252V30.5252ZM25.8663 29.6468C25.8663 29.1617 26.2596 28.7685 26.7447 28.7685V26.9685C25.2654 26.9685 24.0663 28.1676 24.0663 29.6468H25.8663ZM26.7447 28.7685C27.2298 28.7685 27.623 29.1617 27.623 29.6468H29.423C29.423 28.1676 28.2239 26.9685 26.7447 26.9685V28.7685ZM54.2485 37.7942C54.2485 38.2243 53.8998 38.573 53.4696 38.573V40.373C54.8939 40.373 56.0485 39.2184 56.0485 37.7942H54.2485ZM53.4696 38.573C53.0395 38.573 52.6908 38.2243 52.6908 37.7942H50.8908C50.8908 39.2184 52.0454 40.373 53.4696 40.373V38.573ZM52.6908 37.7942C52.6908 37.364 53.0395 37.0153 53.4696 37.0153V35.2153C52.0454 35.2153 50.8908 36.3699 50.8908 37.7942H52.6908ZM53.4696 37.0153C53.8998 37.0153 54.2485 37.364 54.2485 37.7942H56.0485C56.0485 36.3699 54.8939 35.2153 53.4696 35.2153V37.0153ZM57.7056 10.0042C57.7056 10.4618 57.3346 10.8327 56.877 10.8327V12.6327C58.3287 12.6327 59.5056 11.4559 59.5056 10.0042H57.7056ZM56.877 10.8327C56.4195 10.8327 56.0485 10.4618 56.0485 10.0042H54.2485C54.2485 11.4559 55.4254 12.6327 56.877 12.6327V10.8327ZM56.0485 10.0042C56.0485 9.54662 56.4195 9.17568 56.877 9.17568V7.37568C55.4254 7.37568 54.2485 8.55251 54.2485 10.0042H56.0485ZM56.877 9.17568C57.3346 9.17568 57.7056 9.54662 57.7056 10.0042H59.5056C59.5056 8.55251 58.3287 7.37568 56.877 7.37568V9.17568ZM45.6427 28.9272L46.7195 26.7728L45.1094 25.968L44.0326 28.1225L45.6427 28.9272ZM45.1028 26.7593L46.1353 28.9138L47.7585 28.1359L46.7261 25.9815L45.1028 26.7593ZM46.6215 29.364L48.8207 30.2166L49.4714 28.5384L47.2722 27.6857L46.6215 29.364ZM48.7915 28.5503L46.5923 29.4928L47.3014 31.1472L49.5006 30.2047L48.7915 28.5503ZM46.1103 29.9882L45.0778 32.5913L46.751 33.2549L47.7835 30.6518L46.1103 29.9882ZM46.7461 32.5791L45.6693 29.976L44.006 30.664L45.0828 33.2672L46.7461 32.5791ZM45.2032 29.4976L43.0831 28.5551L42.3519 30.1999L44.472 31.1424L45.2032 29.4976ZM43.0534 30.2125L45.1734 29.3598L44.5018 27.6898L42.3817 28.5425L43.0534 30.2125ZM52.1765 4.2199L53.2533 2.06546L51.6432 1.26071L50.5664 3.41516L52.1765 4.2199ZM51.6366 2.05202L52.6691 4.20646L54.2923 3.42859L53.2599 1.27415L51.6366 2.05202ZM53.1553 4.65666L55.3545 5.50932L56.0052 3.83105L53.806 2.97839L53.1553 4.65666ZM55.3253 3.84296L53.1261 4.78546L53.8352 6.43992L56.0344 5.49742L55.3253 3.84296ZM52.6441 5.28089L51.6116 7.884L53.2849 8.54761L54.3173 5.9445L52.6441 5.28089ZM53.2799 7.87178L52.2031 5.26867L50.5398 5.95672L51.6166 8.55983L53.2799 7.87178ZM51.737 4.7903L49.617 3.84779L48.8857 5.49258L51.0058 6.43509L51.737 4.7903ZM49.5872 5.50519L51.7072 4.65253L51.0356 2.98253L48.9155 3.83519L49.5872 5.50519ZM55.3907 20.5961L56.4675 18.4416L54.8575 17.6369L53.7806 19.7913L55.3907 20.5961ZM54.8509 18.4282L55.8833 20.5827L57.5065 19.8048L56.4741 17.6503L54.8509 18.4282ZM56.3696 21.0329L58.5688 21.8855L59.2195 20.2072L57.0203 19.3546L56.3696 21.0329ZM58.5396 20.2191L56.3404 21.1616L57.0495 22.8161L59.2486 21.8736L58.5396 20.2191ZM55.8583 21.6571L54.8259 24.2602L56.4991 24.9238L57.5315 22.3207L55.8583 21.6571ZM56.4942 24.248L55.4173 21.6449L53.754 22.3329L54.8308 24.936L56.4942 24.248ZM54.9513 21.1665L52.8312 20.224L52.1 21.8688L54.2201 22.8113L54.9513 21.1665ZM52.8014 21.8814L54.9215 21.0287L54.2499 19.3587L52.1298 20.2114L52.8014 21.8814Z" fill="black"/>
</svg>
