<svg width="60" height="56" viewBox="0 0 60 56" fill="none" xmlns="http://www.w3.org/2000/svg">
<path d="M10.9229 3.51336L11.3939 4.28024L10.9229 3.51336ZM18.2913 1.43095L18.4719 0.549255L18.2913 1.43095ZM26.0868 7.73148L26.9845 7.66736V7.66736L26.0868 7.73148ZM10.4514 13.9801L9.85686 13.3045L10.4514 13.9801ZM17.0225 9.28648L17.2467 8.41484L17.0225 9.28648ZM26.0868 18.5172L26.9847 18.5787C26.9859 18.5616 26.9866 18.5446 26.9868 18.5275L26.0868 18.5172ZM5.70274 27.069L6.15105 27.8494H6.15105L5.70274 27.069ZM5.90381 26.9535L5.4555 26.1731H5.4555L5.90381 26.9535ZM10.9611 30.1074L11.4374 29.3437H11.4374L10.9611 30.1074ZM21.3563 30.1042L20.9083 29.3237L21.3563 30.1042ZM26.8447 26.9535L27.3787 26.229C27.3747 26.2261 27.3708 26.2232 27.3668 26.2204L26.8447 26.9535ZM22.7957 24.0702L22.2194 23.3789L22.7957 24.0702ZM29.0354 28.568L29.5693 27.8435L29.0354 28.568ZM12.2993 38.7087L13.0006 38.1446L12.2993 38.7087ZM12.1498 37.4431L11.3364 37.058L11.3364 37.058L12.1498 37.4431ZM12.5 29.8784L11.8221 29.2865L11.8221 29.2865L12.5 29.8784ZM13.334 28.9233L12.6561 28.3313L12.6561 28.3314L13.334 28.9233ZM19.7788 29.7559L20.5139 29.2366L20.5139 29.2366L19.7788 29.7559ZM16.7452 42.2699C17.2422 42.2699 17.6452 41.867 17.6452 41.3699C17.6452 40.8729 17.2422 40.4699 16.7452 40.4699V42.2699ZM18.2023 34.9494C18.3756 35.4153 18.8937 35.6525 19.3596 35.4792C19.8255 35.306 20.0627 34.7878 19.8894 34.3219L18.2023 34.9494ZM37.5648 11.4215L38.0359 12.1884L37.5648 11.4215ZM44.9332 9.3391L44.7526 10.2208L44.9332 9.3391ZM52.7288 15.6396L53.6265 15.5755V15.5755L52.7288 15.6396ZM37.0934 21.8883L36.4988 21.2126L37.0934 21.8883ZM52.7288 26.4253L53.6267 26.4868C53.6279 26.4698 53.6286 26.4527 53.6287 26.4357L52.7288 26.4253ZM37.6031 38.0156L38.0793 37.2519L37.6031 38.0156ZM47.9983 38.0124L48.4464 38.7929L47.9983 38.0124ZM49.4377 31.9783L48.8614 31.287L49.4377 31.9783ZM53.8451 35.0494L54.2628 34.2522L53.8451 35.0494ZM38.9279 46.5126L38.2178 47.0656L38.9279 46.5126ZM38.794 45.2536L37.9835 44.8623L38.794 45.2536ZM39.142 37.7866L39.8199 38.3785L39.142 37.7866ZM39.976 36.8314L39.298 36.2395V36.2395L39.976 36.8314ZM46.4207 37.664L47.1558 37.1447V37.1447L46.4207 37.664ZM47.3138 45.2296L48.1172 44.824L47.3138 45.2296ZM47.173 46.5283L46.4752 45.9599L47.173 46.5283ZM29.9288 35.1114C29.48 35.3251 29.2895 35.8622 29.5033 36.311C29.7171 36.7597 30.2541 36.9502 30.7029 36.7364L29.9288 35.1114ZM35.8127 48.3781C35.3157 48.3781 34.9127 48.781 34.9127 49.2781C34.9127 49.7751 35.3157 50.1781 35.8127 50.1781V48.3781ZM29.0664 45.5071L29.6705 46.1742L29.0664 45.5071ZM30.9565 47.0894L31.5929 47.7258H31.5929L30.9565 47.0894ZM31.4263 46.6196L30.7899 45.9832H30.7899L31.4263 46.6196ZM33.1234 46.6196L33.7597 45.9832L33.1234 46.6196ZM37.5717 51.0679L36.9353 51.7043V51.7043L37.5717 51.0679ZM36.4612 53.8755L37.0976 54.5119L36.4612 53.8755ZM34.7641 53.8755L34.1277 54.5119L34.7641 53.8755ZM30.3158 49.4272L30.9522 48.7908L30.3158 49.4272ZM30.3158 47.7301L30.9522 48.3665H30.9522L30.3158 47.7301ZM1.78477 37.7699V35.3932H-0.0152344V37.7699H1.78477ZM11.3508 23.2784C10.7944 22.9776 9.90459 22.3194 9.16259 21.3696C8.42595 20.4267 7.87168 19.2459 7.87168 17.8764H6.07168C6.07168 19.7534 6.83448 21.3134 7.74415 22.4778C8.64848 23.6353 9.73431 24.4508 10.4949 24.8619L11.3508 23.2784ZM7.87168 8.71762C7.87168 7.01912 8.298 6.29886 8.79904 5.83726C9.08217 5.5764 9.43269 5.3588 9.88299 5.11366C10.3063 4.88324 10.8626 4.6066 11.3939 4.28024L10.4518 2.74648C9.97238 3.04096 9.52945 3.25669 9.02237 3.53273C8.54231 3.79407 8.03138 4.09703 7.5794 4.51344C6.61021 5.40636 6.07168 6.66739 6.07168 8.71762H7.87168ZM11.3939 4.28024C12.0585 3.87199 12.5566 3.4537 12.9684 3.11369C13.3921 2.76383 13.7 2.51893 14.057 2.33973C14.7098 2.01203 15.7062 1.82011 18.1107 2.31264L18.4719 0.549255C15.9191 0.026332 14.4381 0.134326 13.2494 0.731052C12.6857 1.01407 12.2319 1.3875 11.8222 1.72575C11.4007 2.07385 10.994 2.41343 10.4518 2.74648L11.3939 4.28024ZM18.1107 2.31264C23.9766 3.51422 25.1149 6.75612 25.1891 7.7956L26.9845 7.66736C26.8452 5.71669 25.0189 1.89034 18.4719 0.549255L18.1107 2.31264ZM7.87168 17.8764V14.4592H6.07168V17.8764H7.87168ZM7.87168 14.4592V8.71762H6.07168V14.4592H7.87168ZM6.56919 15.2642C7.7563 15.8577 9.54599 15.9758 11.046 14.6558L9.85686 13.3045C9.01005 14.0497 8.03806 13.9862 7.37417 13.6542L6.56919 15.2642ZM11.046 14.6558C11.5963 14.1715 12.0581 13.5302 12.464 12.9453C12.8918 12.3287 13.2689 11.7577 13.7016 11.2586C14.1271 10.7678 14.5518 10.4142 15.0214 10.2192C15.4722 10.032 16.0343 9.96164 16.7984 10.1581L17.2467 8.41484C16.142 8.13077 15.177 8.20558 14.3312 8.55676C13.5043 8.90009 12.8629 9.47803 12.3415 10.0795C11.8274 10.6727 11.3769 11.3546 10.9851 11.9192C10.5713 12.5155 10.2215 12.9836 9.85686 13.3045L11.046 14.6558ZM25.1891 7.7956C25.2371 8.46765 25.2408 11.0355 25.2269 13.707L27.0269 13.7163C27.0405 11.0911 27.0389 8.42778 26.9845 7.66736L25.1891 7.7956ZM25.2269 13.707C25.2177 15.479 25.2012 17.266 25.1869 18.5068L26.9868 18.5275C27.0011 17.2835 27.0177 15.4927 27.0269 13.7163L25.2269 13.707ZM16.7984 10.1581C18.3299 10.5519 18.7951 11.565 20.0092 12.8724C20.5858 13.4934 21.3014 14.1026 22.3435 14.4578C23.3768 14.81 24.6425 14.8827 26.2808 14.5984L25.973 12.8249C24.5344 13.0746 23.5909 12.9813 22.9242 12.754C22.2663 12.5298 21.7912 12.1462 21.3282 11.6475C20.4629 10.7156 19.4528 8.98212 17.2467 8.41484L16.7984 10.1581ZM6.15105 27.8494L6.35213 27.7339L5.4555 26.1731L5.25442 26.2886L6.15105 27.8494ZM6.35213 27.7339L11.3712 24.8506L10.4745 23.2898L5.4555 26.1731L6.35213 27.7339ZM5.42756 27.7171L10.4849 30.8711L11.4374 29.3437L6.38006 26.1898L5.42756 27.7171ZM10.4952 24.8621L15.0135 27.302L15.8688 25.7181L11.3505 23.2783L10.4952 24.8621ZM17.4336 25.8321C16.9222 25.9936 16.5335 25.9688 15.7669 25.6711L15.1153 27.349C16.1136 27.7367 16.9435 27.8744 17.9757 27.5485L17.4336 25.8321ZM21.8044 30.8847L27.2928 27.734L26.3966 26.1729L20.9083 29.3237L21.8044 30.8847ZM25.1889 18.4557C25.1013 19.7359 24.3358 21.6146 22.2194 23.3789L23.372 24.7615C25.8029 22.735 26.8583 20.4249 26.9847 18.5787L25.1889 18.4557ZM22.2194 23.3789C21.0757 24.3323 19.487 25.1836 17.4336 25.8321L17.9757 27.5485C20.1977 26.8468 22.0091 25.8976 23.372 24.7615L22.2194 23.3789ZM27.3668 26.2204L23.3178 23.337L22.2737 24.8033L26.3227 27.6866L27.3668 26.2204ZM26.3108 27.678L28.5014 29.2925L29.5693 27.8435L27.3787 26.229L26.3108 27.678ZM4.48477 42.2699H14.4396V40.4699H4.48477V42.2699ZM15.141 40.8059L13.0006 38.1446L11.598 39.2727L13.7383 41.934L15.141 40.8059ZM12.9632 37.8282L15.2531 32.9919L13.6262 32.2216L11.3364 37.058L12.9632 37.8282ZM13.178 30.4704L14.0119 29.5152L12.6561 28.3314L11.8221 29.2865L13.178 30.4704ZM14.0119 29.5152L16.1191 27.102L14.7632 25.9181L12.6561 28.3313L14.0119 29.5152ZM15.3016 32.348L14.196 28.6646L12.472 29.182L13.5776 32.8655L15.3016 32.348ZM16.954 27.1867L18.2952 29.2148L19.7966 28.2219L18.4553 26.1938L16.954 27.1867ZM18.3108 29.2376L19.0437 30.2751L20.5139 29.2366L19.781 28.1991L18.3108 29.2376ZM18.1624 28.5469L17.4078 32.4353L19.1748 32.7782L19.9294 28.8898L18.1624 28.5469ZM14.4396 33.5068H18.2913V31.7068H14.4396V33.5068ZM14.4396 42.2699H16.7452V40.4699H14.4396V42.2699ZM17.4477 32.9205L18.2023 34.9494L19.8894 34.3219L19.1348 32.293L17.4477 32.9205ZM20.9083 29.3237C20.774 29.4007 20.6032 29.363 20.5139 29.2366L19.0437 30.2751C19.6688 31.1601 20.8647 31.4242 21.8044 30.8847L20.9083 29.3237ZM1.78477 35.3932C1.78477 32.2782 3.45009 29.401 6.15105 27.8494L5.25442 26.2886C1.99464 28.1612 -0.0152344 31.6338 -0.0152344 35.3932H1.78477ZM28.5014 29.2925C30.3541 30.6579 31.4477 32.8224 31.4477 35.1239H33.2477C33.2477 32.2505 31.8824 29.5482 29.5693 27.8435L28.5014 29.2925ZM10.4849 30.8711C11.3593 31.4164 12.5002 31.2466 13.178 30.4704L11.8221 29.2865C11.7253 29.3974 11.5623 29.4216 11.4374 29.3437L10.4849 30.8711ZM13.0006 38.1446C12.9286 38.055 12.914 37.9321 12.9632 37.8282L11.3364 37.058C10.992 37.7854 11.0936 38.6456 11.598 39.2727L13.0006 38.1446ZM-0.0152344 37.7699C-0.0152344 40.2552 1.99949 42.2699 4.48477 42.2699V40.4699C2.9936 40.4699 1.78477 39.2611 1.78477 37.7699H-0.0152344ZM37.9928 31.1866C37.4363 30.8858 36.5466 30.2276 35.8046 29.2778C35.0679 28.3349 34.5136 27.154 34.5136 25.7846H32.7137C32.7137 27.6615 33.4764 29.2216 34.3861 30.386C35.2905 31.5435 36.3763 32.3589 37.1369 32.7701L37.9928 31.1866ZM34.5136 16.6258C34.5136 14.9273 34.94 14.207 35.441 13.7454C35.7241 13.4846 36.0747 13.2669 36.525 13.0218C36.9482 12.7914 37.5046 12.5148 38.0359 12.1884L37.0938 10.6546C36.6143 10.9491 36.1714 11.1648 35.6643 11.4409C35.1843 11.7022 34.6733 12.0052 34.2214 12.4216C33.2522 13.3145 32.7137 14.5755 32.7137 16.6258H34.5136ZM38.0359 12.1884C38.7005 11.7801 39.1986 11.3619 39.6103 11.0218C40.034 10.672 40.342 10.4271 40.699 10.2479C41.3517 9.92019 42.3482 9.72826 44.7526 10.2208L45.1138 8.45741C42.561 7.93449 41.0801 8.04248 39.8914 8.63921C39.3276 8.92222 38.8738 9.29566 38.4642 9.6339C38.0427 9.982 37.636 10.3216 37.0938 10.6546L38.0359 12.1884ZM44.7526 10.2208C50.6185 11.4224 51.7568 14.6643 51.8311 15.7038L53.6265 15.5755C53.4872 13.6248 51.6608 9.7985 45.1138 8.45741L44.7526 10.2208ZM34.5136 25.7846V22.3673H32.7137V25.7846H34.5136ZM34.5136 22.3673V16.6258H32.7137V22.3673H34.5136ZM33.2112 23.1723C34.3983 23.7659 36.188 23.8839 37.688 22.5639L36.4988 21.2126C35.652 21.9578 34.68 21.8943 34.0161 21.5624L33.2112 23.1723ZM37.688 22.5639C38.2383 22.0797 38.7001 21.4384 39.1059 20.8535C39.5338 20.2368 39.9109 19.6658 40.3436 19.1667C40.769 18.6759 41.1937 18.3223 41.6634 18.1273C42.1142 17.9401 42.6763 17.8698 43.4404 18.0663L43.8886 16.323C42.7839 16.0389 41.8189 16.1137 40.9732 16.4649C40.1463 16.8082 39.5049 17.3862 38.9835 17.9877C38.4693 18.5808 38.0188 19.2628 37.6271 19.8273C37.2133 20.4236 36.8635 20.8918 36.4988 21.2126L37.688 22.5639ZM51.8311 15.7038C51.8791 16.3758 51.8828 18.9436 51.8689 21.6152L53.6689 21.6245C53.6825 18.9993 53.6808 16.3359 53.6265 15.5755L51.8311 15.7038ZM51.8689 21.6152C51.8597 23.3872 51.8431 25.1742 51.8289 26.415L53.6287 26.4357C53.643 25.1917 53.6596 23.4009 53.6689 21.6245L51.8689 21.6152ZM43.4404 18.0663C44.9719 18.4601 45.4371 19.4731 46.6511 20.7805C47.2278 21.4015 47.9434 22.0107 48.9855 22.3659C50.0188 22.7181 51.2845 22.7909 52.9228 22.5066L52.615 20.7331C51.1764 20.9827 50.2328 20.8894 49.5662 20.6622C48.9083 20.4379 48.4332 20.0543 47.9702 19.5557C47.1048 18.6238 46.0947 16.8903 43.8886 16.323L43.4404 18.0663ZM32.9941 35.642L38.0131 32.7587L37.1165 31.1979L32.0975 34.0812L32.9941 35.642ZM32.0695 35.6253L37.1268 38.7792L38.0793 37.2519L33.022 34.098L32.0695 35.6253ZM37.1372 32.7702L41.6554 35.2101L42.5107 33.6263L37.9925 31.1864L37.1372 32.7702ZM44.0756 33.7402C43.5641 33.9017 43.1754 33.877 42.4089 33.5793L41.7572 35.2571C42.7556 35.6449 43.5855 35.7826 44.6176 35.4567L44.0756 33.7402ZM48.4464 38.7929L53.9348 35.6422L53.0386 34.0811L47.5502 37.2318L48.4464 38.7929ZM51.8309 26.3638C51.7432 27.644 50.9778 29.5227 48.8614 31.287L50.014 32.6696C52.4449 30.6431 53.5002 28.3331 53.6267 26.4868L51.8309 26.3638ZM48.8614 31.287C47.7176 32.2405 46.129 33.0918 44.0756 33.7402L44.6176 35.4567C46.8397 34.755 48.6511 33.8058 50.014 32.6696L48.8614 31.287ZM54.0087 34.1285L49.9597 31.2452L48.9156 32.7114L52.9646 35.5947L54.0087 34.1285ZM53.069 35.6588L53.4274 35.8466L54.2628 34.2522L53.9044 34.0644L53.069 35.6588ZM41.0816 50.1781H44.9332V48.3781H41.0816V50.1781ZM41.7917 48.7251L39.638 45.9596L38.2178 47.0656L40.3715 49.8311L41.7917 48.7251ZM39.6045 45.6448L41.8921 40.9062L40.2711 40.1236L37.9835 44.8623L39.6045 45.6448ZM39.8199 38.3785L40.6539 37.4234L39.298 36.2395L38.4641 37.1946L39.8199 38.3785ZM40.6539 37.4234L42.761 35.0101L41.4051 33.8263L39.298 36.2395L40.6539 37.4234ZM41.9436 40.2562L40.838 36.5727L39.114 37.0902L40.2196 40.7736L41.9436 40.2562ZM43.5959 35.0949L44.9372 37.1229L46.4385 36.13L45.0973 34.102L43.5959 35.0949ZM44.9528 37.1457L45.6856 38.1833L47.1558 37.1447L46.4229 36.1072L44.9528 37.1457ZM44.8043 36.455L44.0497 40.3434L45.8168 40.6864L46.5714 36.7979L44.8043 36.455ZM44.1298 40.9206L46.5104 45.6353L48.1172 44.824L45.7366 40.1092L44.1298 40.9206ZM44.9332 50.1781H55.3897V48.3781H44.9332V50.1781ZM46.4752 45.9599L44.2354 48.7097L45.631 49.8465L47.8708 47.0967L46.4752 45.9599ZM41.0816 41.4149H44.9332V39.6149H41.0816V41.4149ZM30.7029 36.7364L32.9328 35.6741L32.1587 34.0491L29.9288 35.1114L30.7029 36.7364ZM35.8127 50.1781H41.0816V48.3781H35.8127V50.1781ZM46.5104 45.6353C46.5638 45.7409 46.55 45.8681 46.4752 45.9599L47.8708 47.0967C48.3942 46.4541 48.4907 45.5638 48.1172 44.824L46.5104 45.6353ZM58.0897 45.6781C58.0897 47.1692 56.8809 48.3781 55.3897 48.3781V50.1781C57.875 50.1781 59.8897 48.1633 59.8897 45.6781H58.0897ZM47.5502 37.2318C47.416 37.3089 47.2451 37.2712 47.1558 37.1447L45.6856 38.1833C46.3108 39.0683 47.5067 39.3324 48.4464 38.7929L47.5502 37.2318ZM39.638 45.9596C39.5678 45.8696 39.5549 45.7476 39.6045 45.6448L37.9835 44.8623C37.6363 45.5815 37.7271 46.4354 38.2178 47.0656L39.638 45.9596ZM53.4274 35.8466C56.2937 37.3484 58.0897 40.317 58.0897 43.5529H59.8897C59.8897 39.6475 57.7221 36.0647 54.2628 34.2522L53.4274 35.8466ZM37.1268 38.7792C38.0012 39.3245 39.1422 39.1548 39.8199 38.3785L38.4641 37.1946C38.3672 37.3055 38.2042 37.3298 38.0793 37.2519L37.1268 38.7792ZM24.0669 46.5335C20.4491 46.5335 17.5163 43.6007 17.5163 39.9829H15.7163C15.7163 44.5948 19.455 48.3335 24.0669 48.3335V46.5335ZM17.5163 39.9829C17.5163 36.3651 20.4491 33.4323 24.0669 33.4323V31.6323C19.455 31.6323 15.7163 35.371 15.7163 39.9829H17.5163ZM24.0669 33.4323C27.6847 33.4323 30.6175 36.3651 30.6175 39.9829H32.4175C32.4175 35.371 28.6788 31.6323 24.0669 31.6323V33.4323ZM30.6175 39.9829C30.6175 41.9091 29.7872 43.6401 28.4623 44.84L29.6705 46.1742C31.3564 44.6475 32.4175 42.4385 32.4175 39.9829H30.6175ZM28.4623 44.84C27.2994 45.8931 25.759 46.5335 24.0669 46.5335V48.3335C26.2227 48.3335 28.1895 47.5154 29.6705 46.1742L28.4623 44.84ZM28.3811 45.7868L30.3201 47.7258L31.5929 46.453L29.6539 44.514L28.3811 45.7868ZM31.5929 47.7258L32.0627 47.256L30.7899 45.9832L30.3201 46.453L31.5929 47.7258ZM32.487 47.256L36.9353 51.7043L38.2081 50.4316L33.7597 45.9832L32.487 47.256ZM36.9353 52.1286L35.8248 53.2391L37.0976 54.5119L38.2081 53.4014L36.9353 52.1286ZM35.4005 53.2391L30.9522 48.7908L29.6794 50.0636L34.1277 54.5119L35.4005 53.2391ZM30.9522 48.3665L31.5929 47.7258L30.3201 46.453L29.6794 47.0937L30.9522 48.3665ZM30.9522 48.7908C30.8351 48.6736 30.8351 48.4837 30.9522 48.3665L29.6794 47.0937C28.8593 47.9138 28.8593 49.2435 29.6794 50.0636L30.9522 48.7908ZM35.8248 53.2391C35.7076 53.3563 35.5177 53.3562 35.4005 53.2391L34.1277 54.5119C34.9478 55.332 36.2775 55.332 37.0976 54.5119L35.8248 53.2391ZM36.9353 51.7043C37.0524 51.8215 37.0524 52.0114 36.9353 52.1286L38.2081 53.4014C39.0282 52.5813 39.0282 51.2517 38.2081 50.4316L36.9353 51.7043ZM32.0627 47.256C32.1798 47.1389 32.3698 47.1389 32.487 47.256L33.7597 45.9832C32.9396 45.1631 31.61 45.1631 30.7899 45.9832L32.0627 47.256ZM58.0897 43.5529V45.6781H59.8897V43.5529H58.0897Z" fill="black"/>
</svg>
