<svg width="56" height="48" viewBox="0 0 56 48" fill="none" xmlns="http://www.w3.org/2000/svg">
<path fill-rule="evenodd" clip-rule="evenodd" d="M29.0996 2.35122C19.669 2.35122 11.6447 8.38172 8.67683 16.7996L6.9641 16.1957C10.18 7.07425 18.875 0.535156 29.0996 0.535156C37.2268 0.535156 44.3885 4.66777 48.5982 10.942L47.0902 11.9539C43.2033 6.16082 36.5962 2.35122 29.0996 2.35122ZM29.0996 45.6487C39.0672 45.6487 47.4637 38.9115 49.9792 29.7408L51.7306 30.2212C49.0043 40.1604 39.9061 47.4648 29.0996 47.4648C20.3128 47.4648 12.6553 42.6346 8.63528 35.489L10.2181 34.5986C13.9295 41.1957 20.9951 45.6487 29.0996 45.6487Z" fill="black"/>
<path fill-rule="evenodd" clip-rule="evenodd" d="M29.0996 7.69541C22.9082 7.69541 17.5213 11.1461 14.7598 16.2335L13.1638 15.3672C16.2302 9.71801 22.2159 5.87935 29.0996 5.87935C34.4022 5.87935 39.1738 8.15812 42.4863 11.787L41.145 13.0113C38.1621 9.74355 33.8707 7.69541 29.0996 7.69541ZM29.0996 40.3045C35.9136 40.3045 41.7534 36.1243 44.1904 30.1849L45.8705 30.8743C43.1636 37.4716 36.6756 42.1205 29.0996 42.1205C23.1239 42.1205 17.8238 39.2271 14.5245 34.7686L15.9843 33.6883C18.9559 37.7039 23.724 40.3045 29.0996 40.3045Z" fill="black"/>
<path fill-rule="evenodd" clip-rule="evenodd" d="M51.0633 10.5551C53.2654 10.2936 55.2018 12.0137 55.2018 14.2313V26.9336C55.2018 28.8057 53.8043 30.3831 51.9459 30.6086L4.94919 36.3127C2.73224 36.5818 0.784633 34.8421 0.798906 32.6104C0.824833 28.5564 0.847098 23.5129 0.833786 20.3555C0.82503 18.2785 2.48932 16.3225 4.58117 16.0742L51.0633 10.5551ZM53.3857 14.2313C53.3857 13.1016 52.3993 12.2253 51.2775 12.3585L4.79529 17.8776C3.6492 18.0136 2.64484 19.1642 2.64983 20.3479C2.66319 23.516 2.64086 28.5681 2.61493 32.622C2.60765 33.7608 3.60126 34.6469 4.73037 34.5099L51.7271 28.8058C52.6738 28.6909 53.3857 27.8873 53.3857 26.9336V14.2313Z" fill="black"/>
<path d="M14.7024 24.9224C15.2952 25.0228 15.7729 25.2631 16.1354 25.6432C16.4979 26.0233 16.7138 26.514 16.7831 27.1154C16.879 27.9481 16.6453 28.6453 16.0819 29.2071C15.5174 29.7596 14.7032 30.0971 13.6392 30.2197L8.9485 30.7601L7.81021 20.879L12.3622 20.3546C13.3891 20.2363 14.2253 20.3743 14.8707 20.7687C15.5243 21.1528 15.897 21.7427 15.9886 22.5383C16.0483 23.0564 15.9618 23.5258 15.729 23.9463C15.5054 24.3658 15.1632 24.6912 14.7024 24.9224ZM10.3833 24.6606L12.465 24.4208C13.0201 24.3568 13.4211 24.2169 13.6681 24.0009C13.9233 23.7747 14.028 23.4626 13.9822 23.0648C13.9353 22.6577 13.7618 22.373 13.4619 22.2107C13.1712 22.0473 12.7483 21.9976 12.1932 22.0615L10.1115 22.3013L10.3833 24.6606ZM13.1976 28.5831C13.7805 28.516 14.1902 28.3703 14.4269 28.1462C14.6718 27.9117 14.7691 27.5771 14.7191 27.1423C14.6679 26.6982 14.4964 26.3898 14.2047 26.2172C13.9222 26.0435 13.4895 25.9902 12.9066 26.0573L10.5751 26.3259L10.8661 28.8517L13.1976 28.5831Z" fill="black"/>
<path d="M21.737 21.9886C22.0331 21.9545 22.2882 21.972 22.5024 22.0411L22.7092 23.9578C22.3487 23.84 21.9973 23.8008 21.655 23.8402C21.0999 23.9041 20.6919 24.1058 20.431 24.4452C20.1783 24.7743 20.0829 25.2072 20.1447 25.7438L20.5683 29.4215L18.4728 29.6629L17.894 24.6391C17.8077 23.8897 17.6934 23.2232 17.5512 22.6396L19.5219 22.4125L19.7997 23.6039C19.9244 23.1396 20.1584 22.7705 20.5018 22.4965C20.8534 22.2123 21.2652 22.043 21.737 21.9886Z" fill="black"/>
<path d="M30.2688 21.1745L31.0793 28.2106L29.0115 28.4488L28.8916 27.408C28.7204 27.7933 28.4522 28.1101 28.0871 28.3584C27.7219 28.6068 27.2942 28.7592 26.8039 28.8156C26.1932 28.886 25.6349 28.8003 25.129 28.5586C24.6323 28.3158 24.2183 27.937 23.8871 27.422C23.5641 26.8967 23.3611 26.2733 23.2779 25.5516C23.1948 24.83 23.2503 24.172 23.4443 23.5778C23.6476 22.9825 23.9676 22.5051 24.4042 22.1454C24.8399 21.7765 25.3584 21.5574 25.9597 21.4881C26.4501 21.4316 26.9018 21.4874 27.3149 21.6554C27.728 21.8234 28.0617 22.0756 28.3161 22.4119L28.201 21.4127L30.2688 21.1745ZM27.2306 27.1493C27.7487 27.0897 28.1263 26.868 28.3634 26.4845C28.6004 26.1009 28.6806 25.5761 28.6039 24.91C28.5271 24.2438 28.3297 23.7509 28.0117 23.4313C27.6925 23.1025 27.2739 22.9679 26.7558 23.0276C26.2377 23.0873 25.8566 23.3187 25.6124 23.7218C25.3682 24.1249 25.2839 24.6549 25.3596 25.3118C25.4353 25.9687 25.6322 26.4569 25.9502 26.7765C26.2765 27.0858 26.7033 27.2101 27.2306 27.1493Z" fill="black"/>
<path d="M36.2833 20.2988C37.9486 20.107 38.8948 20.9964 39.1218 22.9671L39.6126 27.2276L37.5171 27.469L37.0375 23.3056C36.981 22.8153 36.8474 22.4697 36.6368 22.269C36.4344 22.0579 36.1389 21.9748 35.7503 22.0196C35.2877 22.0729 34.9347 22.2635 34.6912 22.5916C34.4477 22.9196 34.3548 23.3334 34.4124 23.833L34.8664 27.7744L32.7708 28.0158L32.1921 22.9919C32.1058 22.2425 31.9915 21.576 31.8492 20.9924L33.8199 20.7654L34.0866 21.8597C34.2884 21.4146 34.5755 21.0581 34.9477 20.7902C35.3292 20.5212 35.7744 20.3575 36.2833 20.2988Z" fill="black"/>
<path d="M47.1552 16.009L48.3319 26.2231L46.2641 26.4614L46.1442 25.4205C45.9729 25.8058 45.7048 26.1227 45.3396 26.371C44.9745 26.6193 44.5467 26.7717 44.0564 26.8282C43.455 26.8974 42.9008 26.8066 42.3938 26.5556C41.8857 26.2954 41.4655 25.9032 41.1333 25.379C40.8092 24.8445 40.6056 24.2164 40.5225 23.4948C40.4393 22.7731 40.4959 22.1244 40.692 21.5487C40.8964 20.9627 41.2128 20.495 41.6413 20.1456C42.078 19.786 42.6016 19.571 43.2123 19.5006C43.6841 19.4463 44.126 19.4985 44.5381 19.6573C44.949 19.8068 45.2812 20.0451 45.5345 20.3721L45.0597 16.2504L47.1552 16.009ZM44.4832 25.1619C45.0013 25.1022 45.3789 24.8806 45.6159 24.497C45.8519 24.1042 45.9315 23.5747 45.8548 22.9086C45.7791 22.2517 45.5776 21.764 45.2503 21.4455C44.9312 21.1166 44.5172 20.9815 44.0083 21.0401C43.4902 21.0998 43.108 21.322 42.8617 21.7066C42.6154 22.0912 42.5296 22.6073 42.6042 23.2549C42.6809 23.9211 42.884 24.4227 43.2134 24.7597C43.5418 25.0875 43.9651 25.2216 44.4832 25.1619Z" fill="black"/>
</svg>
